<svg xmlns="http://www.w3.org/2000/svg" width="94.783" height="93.685" viewBox="0 0 94.783 93.685">
  <g id="Built-in_" data-name="Built-in " transform="translate(-20 -23.522)">
    <path id="Path_9715" data-name="Path 9715" d="M120.99,23.522H44.681a5.227,5.227,0,0,0-5.221,5.221V53.264a5.227,5.227,0,0,0,5.221,5.221H62.037v7.432a1.2,1.2,0,0,0,2.057.852L72.261,58.6H94.812l8.656,8.191a1.2,1.2,0,0,0,2.033-.875V58.594l15.489-.108a5.227,5.227,0,0,0,5.221-5.221V28.743A5.227,5.227,0,0,0,120.99,23.522ZM123.8,53.264a2.816,2.816,0,0,1-2.82,2.811l-16.693.116a1.2,1.2,0,0,0-1.2,1.2v5.722l-6.974-6.6a1.2,1.2,0,0,0-.828-.33H71.761a1.2,1.2,0,0,0-.852.353l-6.461,6.463V57.281a1.2,1.2,0,0,0-1.2-1.2H44.681a2.814,2.814,0,0,1-2.811-2.811V28.743a2.815,2.815,0,0,1,2.811-2.811H120.99a2.815,2.815,0,0,1,2.811,2.811Z" transform="translate(-15.552)" fill="#1ae5be"/>
    <path id="Path_9716" data-name="Path 9716" d="M397.253,145.923h-10a1.406,1.406,0,1,0,0,2.811h10a1.406,1.406,0,0,0,0-2.811Z" transform="translate(-292.378 -97.821)" fill="#1ae5be"/>
    <path id="Path_9717" data-name="Path 9717" d="M289.233,145.923h-18.8a1.406,1.406,0,0,0,0,2.811h18.8a1.406,1.406,0,0,0,0-2.811Z" transform="translate(-199.016 -97.821)" fill="#1ae5be"/>
    <path id="Path_9718" data-name="Path 9718" d="M202.34,145.923H191.854a1.406,1.406,0,0,0,0,2.811H202.34a1.406,1.406,0,0,0,0-2.811Z" transform="translate(-136.22 -97.821)" fill="#1ae5be"/>
    <path id="Path_9719" data-name="Path 9719" d="M161.013,145.923h-1.9a1.406,1.406,0,0,0,0,2.811h1.9a1.406,1.406,0,0,0,0-2.811Z" transform="translate(-110.055 -97.821)" fill="#1ae5be"/>
    <path id="Path_9720" data-name="Path 9720" d="M85.5,145.923H72.665a1.406,1.406,0,0,0,0,2.811H85.5a1.406,1.406,0,1,0,0-2.811Z" transform="translate(-40.966 -97.821)" fill="#1ae5be"/>
    <path id="Path_9721" data-name="Path 9721" d="M422.1,101.856h-3.76a1.406,1.406,0,1,0,0,2.811h3.76a1.406,1.406,0,0,0,0-2.811Z" transform="translate(-317.227 -62.604)" fill="#1ae5be"/>
    <path id="Path_9722" data-name="Path 9722" d="M317.841,103.262a1.406,1.406,0,0,0,1.406,1.406H334.66a1.406,1.406,0,1,0,0-2.811H319.247A1.406,1.406,0,0,0,317.841,103.262Z" transform="translate(-238.031 -62.604)" fill="#1ae5be"/>
    <path id="Path_9723" data-name="Path 9723" d="M182.811,104.667a1.406,1.406,0,1,0,0-2.811H154.216a1.406,1.406,0,1,0,0,2.811Z" transform="translate(-106.14 -62.604)" fill="#1ae5be"/>
    <path id="Path_9724" data-name="Path 9724" d="M72.665,104.667H83.487a1.406,1.406,0,0,0,0-2.811H72.665a1.406,1.406,0,1,0,0,2.811Z" transform="translate(-40.966 -62.604)" fill="#1ae5be"/>
    <path id="Path_9725" data-name="Path 9725" d="M386.878,58.176H374.267a1.406,1.406,0,1,0,0,2.811h12.611a1.406,1.406,0,0,0,0-2.811Z" transform="translate(-282.002 -27.695)" fill="#1ae5be"/>
    <path id="Path_9726" data-name="Path 9726" d="M336.545,60.987h2.789a1.406,1.406,0,1,0,0-2.811h-2.789a1.406,1.406,0,0,0,0,2.811Z" transform="translate(-251.855 -27.695)" fill="#1ae5be"/>
    <path id="Path_9727" data-name="Path 9727" d="M245.011,60.987h13.646a1.406,1.406,0,1,0,0-2.811H245.011a1.406,1.406,0,0,0,0,2.811Z" transform="translate(-178.703 -27.695)" fill="#1ae5be"/>
    <path id="Path_9728" data-name="Path 9728" d="M118.887,60.987h21.077a1.406,1.406,0,1,0,0-2.811H118.887a1.406,1.406,0,0,0,0,2.811Z" transform="translate(-77.906 -27.695)" fill="#1ae5be"/>
    <path id="Path_9729" data-name="Path 9729" d="M72.665,60.987H77.4a1.406,1.406,0,0,0,0-2.811H72.665a1.406,1.406,0,0,0,0,2.811Z" transform="translate(-40.966 -27.695)" fill="#1ae5be"/>
    <path id="Path_9730" data-name="Path 9730" d="M73.775,260.239V255.8a7.689,7.689,0,0,1,5.668-7.408,7.673,7.673,0,0,0-9.685,7.408v4.441a7.685,7.685,0,0,0,7.676,7.676h0a7.66,7.66,0,0,0,2.007-.268,7.689,7.689,0,0,1-5.668-7.409Z" transform="translate(-39.767 -179.497)" fill="#d4e1f4"/>
    <path id="Path_9731" data-name="Path 9731" d="M120.593,379.037a9.748,9.748,0,0,0,6.725-2.436,8.731,8.731,0,0,0-3.044-.98,9.752,9.752,0,0,1-5.433,3.213A9.935,9.935,0,0,0,120.593,379.037Z" transform="translate(-78.993 -281.393)" fill="#d4e1f4"/>
    <path id="Path_9732" data-name="Path 9732" d="M38.4,378.06a8.8,8.8,0,0,1,2.334-1.71,9.877,9.877,0,0,1-.872-.9,8.792,8.792,0,0,0-7.98,8.752v8.788H35.9V384.2A8.74,8.74,0,0,1,38.4,378.06Z" transform="translate(-9.494 -281.255)" fill="#d4e1f4"/>
    <path id="Path_9733" data-name="Path 9733" d="M215.468,229.848v-5.073a8.956,8.956,0,0,1,6.934-8.711,8.935,8.935,0,0,0-10.95,8.711v5.073a8.935,8.935,0,0,0,10.95,8.711A8.956,8.956,0,0,1,215.468,229.848Z" transform="translate(-153.006 -153.692)" fill="#d4e1f4"/>
    <path id="Path_9734" data-name="Path 9734" d="M369.561,260.239V255.8a7.689,7.689,0,0,1,5.668-7.408,7.673,7.673,0,0,0-9.685,7.408v4.441a7.685,7.685,0,0,0,7.676,7.676h0a7.659,7.659,0,0,0,2.008-.268,7.689,7.689,0,0,1-5.668-7.409Z" transform="translate(-276.156 -179.497)" fill="#d4e1f4"/>
    <path id="Path_9735" data-name="Path 9735" d="M416.383,379.033a9.745,9.745,0,0,0,6.727-2.439,8.715,8.715,0,0,0-3.046-.978,9.751,9.751,0,0,1-5.433,3.213A9.929,9.929,0,0,0,416.383,379.033Z" transform="translate(-315.385 -281.389)" fill="#d4e1f4"/>
    <path id="Path_9736" data-name="Path 9736" d="M352.159,376.754c.235-.149.478-.282.725-.407a9.826,9.826,0,0,1-.873-.9,8.664,8.664,0,0,0-3.868,1.31,12.549,12.549,0,0,1,1.534,6.018v10.211h4.016V382.772A12.549,12.549,0,0,0,352.159,376.754Z" transform="translate(-262.248 -281.251)" fill="#d4e1f4"/>
    <path id="Path_9737" data-name="Path 9737" d="M210.923,203.833a11.364,11.364,0,0,0-11.351,11.351v5.073a11.351,11.351,0,1,0,22.7,0v-5.073a11.364,11.364,0,0,0-11.351-11.351Zm8.942,16.425a8.942,8.942,0,1,1-17.883,0v-5.073a8.942,8.942,0,1,1,17.883,0Z" transform="translate(-143.512 -144.102)" fill="#2d8cff"/>
    <path id="Path_9738" data-name="Path 9738" d="M353.666,246.209v4.441a10.086,10.086,0,0,0,20.172,0v-4.441a10.086,10.086,0,1,0-20.172,0Zm17.763,0v4.441a7.676,7.676,0,0,1-15.353,0v-4.441a7.676,7.676,0,1,1,15.353,0Z" transform="translate(-266.662 -169.908)" fill="#2d8cff"/>
    <path id="Path_9739" data-name="Path 9739" d="M104.286,351.972c-.643-.047-.962.343-1.3.756a7.4,7.4,0,0,1-11.675-.286,1.219,1.219,0,0,0-1-.489,11.077,11.077,0,0,0-5.743,1.756,12.6,12.6,0,0,0-8.974-4.584c-.63-.03-.947.355-1.315.8a8.624,8.624,0,0,1-13.608-.333,1.207,1.207,0,0,0-1-.489,12.553,12.553,0,0,0-8.71,3.8c-.257.263-.5.537-.73.818a11.126,11.126,0,0,0-5.344-1.752c-.641-.047-.962.343-1.3.756a7.4,7.4,0,0,1-11.675-.286,1.212,1.212,0,0,0-1-.489A11.2,11.2,0,0,0,20,363.149v9.993a1.2,1.2,0,0,0,1.2,1.2H47.371v1.86a1.2,1.2,0,0,0,1.2,1.2H86.248a1.2,1.2,0,0,0,1.2-1.2v-1.86h26.126a1.2,1.2,0,0,0,1.2-1.2v-9.993a11.207,11.207,0,0,0-10.5-11.176ZM22.41,371.936v-8.788a8.792,8.792,0,0,1,7.98-8.752,9.81,9.81,0,0,0,14.916.034,8.738,8.738,0,0,1,3.582,1.291,12.56,12.56,0,0,0-1.518,6v10.211ZM85.043,375H49.78V361.725a10.216,10.216,0,0,1,9.362-10.177,11.035,11.035,0,0,0,16.9.036,10.225,10.225,0,0,1,9.005,10.141Zm27.33-3.065H87.453V361.725a12.549,12.549,0,0,0-1.534-6.018,8.664,8.664,0,0,1,3.867-1.31,9.81,9.81,0,0,0,14.916.034,8.8,8.8,0,0,1,7.671,8.718Z" transform="translate(0 -260.204)" fill="#2d8cff"/>
    <path id="Path_9740" data-name="Path 9740" d="M67.966,236.122A10.1,10.1,0,0,0,57.88,246.208v4.441a10.086,10.086,0,0,0,20.172,0v-4.441A10.1,10.1,0,0,0,67.966,236.122Zm7.676,14.527a7.676,7.676,0,0,1-15.353,0v-4.441a7.676,7.676,0,0,1,15.353,0Z" transform="translate(-30.273 -169.907)" fill="#2d8cff"/>
    <path id="Path_9741" data-name="Path 9741" d="M268.774,365.352a10.946,10.946,0,0,0,7.86-3.006,10.125,10.125,0,0,0-3.158-.908,10.963,10.963,0,0,1-6.428,3.735A11.191,11.191,0,0,0,268.774,365.352Z" transform="translate(-197.438 -270.059)" fill="#d4e1f4"/>
    <path id="Path_9742" data-name="Path 9742" d="M175.217,364.307a10.207,10.207,0,0,1,3.2-2.218,11.174,11.174,0,0,1-.763-.823,10.216,10.216,0,0,0-9.362,10.177v13.277h4.016V371.441a10.154,10.154,0,0,1,2.908-7.135Z" transform="translate(-118.514 -269.92)" fill="#d4e1f4"/>
  </g>
</svg>
