<svg xmlns="http://www.w3.org/2000/svg" width="83.195" height="94" viewBox="0 0 83.195 94">
  <g id="HD_video_and_" data-name="HD video and " transform="translate(-32.84 -3.86)">
    <path id="Path_9743" data-name="Path 9743" d="M87.987,9.86H83.095a3.674,3.674,0,0,0-3.675,3.675V46.449a3.674,3.674,0,0,0,3.675,3.675h4.892a3.674,3.674,0,0,1-3.675-3.675V13.535A3.674,3.674,0,0,1,87.987,9.86Z" transform="translate(-37.815 -4.871)" fill="#d4e1f4"/>
    <g id="Group_4030" data-name="Group 4030" transform="translate(40.476 3.86)">
      <path id="Path_9744" data-name="Path 9744" d="M197.5,217.84h21.66V220.1H197.5Z" transform="translate(-174.543 -177.577)" fill="#2d8cff"/>
      <path id="Path_9745" data-name="Path 9745" d="M136.6,3.86H78.169a4.782,4.782,0,0,0-4.749,4.8V41.577a4.782,4.782,0,0,0,4.749,4.8H88.827V44.123H78.169a2.534,2.534,0,0,1-2.517-2.546V37.869h6.933a1.129,1.129,0,0,0,0-2.258H75.652V8.664a2.534,2.534,0,0,1,2.517-2.546H136.6a2.534,2.534,0,0,1,2.517,2.546V35.611H128a4.515,4.515,0,0,0-8.776,0H88.974a1.129,1.129,0,0,0,0,2.258h30.253a4.515,4.515,0,0,0,8.776,0h11.109v3.709a2.534,2.534,0,0,1-2.517,2.546H125.611v2.258H136.6a4.782,4.782,0,0,0,4.749-4.8V8.664a4.782,4.782,0,0,0-4.749-4.8Zm-12.98,35.2a2.322,2.322,0,1,1,2.3-2.322A2.309,2.309,0,0,1,123.615,39.062Z" transform="translate(-73.42 -3.86)" fill="#2d8cff"/>
      <path id="Path_9746" data-name="Path 9746" d="M237.908,65.538a1.129,1.129,0,0,0-.487-.929l-8.43-5.829a1.129,1.129,0,0,0-1.771.929V71.367a1.129,1.129,0,0,0,1.771.929l8.43-5.829A1.129,1.129,0,0,0,237.908,65.538Zm-8.43,3.677V61.862l5.316,3.676Z" transform="translate(-198.672 -48.283)" fill="#2d8cff"/>
      <path id="Path_9747" data-name="Path 9747" d="M207.341,40.177a12.836,12.836,0,1,0-12.835,12.835,12.836,12.836,0,0,0,12.835-12.835Zm-23.413,0a10.578,10.578,0,1,1,10.578,10.577A10.578,10.578,0,0,1,183.928,40.177Z" transform="translate(-161.673 -22.922)" fill="#2d8cff"/>
    </g>
    <path id="Path_9748" data-name="Path 9748" d="M109.037,248.921l-1.463,0h0a1.115,1.115,0,0,0-.889.444l-.053.07a3.744,3.744,0,0,1-5.162.8,7.136,7.136,0,0,0-.107-1,5.709,5.709,0,0,0,5.306-.652,5.825,5.825,0,0,0,2.486-4.777v-1.87a5.751,5.751,0,1,0-11.5,0v1.87c0,.132.006.263.015.4a6.916,6.916,0,0,0-3.189-.79L93.01,243.4a1.137,1.137,0,0,0-.893.444l-.053.07a3.744,3.744,0,0,1-6.021-.055,1.115,1.115,0,0,0-.9-.459H83.549a6.928,6.928,0,0,0-3.552.977c.019-.19.029-.382.029-.576v-1.87a5.751,5.751,0,1,0-11.5,0v1.87c0,.132.006.263.015.4a6.916,6.916,0,0,0-3.189-.79l-1.465-.006a1.137,1.137,0,0,0-.893.444l-.053.07a3.744,3.744,0,0,1-6.021-.055,1.115,1.115,0,0,0-.9-.459H54.424a6.928,6.928,0,0,0-3.552.977c.019-.19.029-.382.029-.576v-1.87a5.751,5.751,0,1,0-11.5,0v1.87a5.815,5.815,0,0,0,2.642,4.885,5.7,5.7,0,0,0,5.5.391,7.148,7.148,0,0,0-.136,1.248,3.742,3.742,0,0,1-5.052-.954,1.115,1.115,0,0,0-.9-.459H39.86a7.062,7.062,0,0,0-7.02,7.088v9.51a1.134,1.134,0,0,0,.335.806,1.113,1.113,0,0,0,.8.323l2.932-.054,1.6,19.685a1.123,1.123,0,0,0,1.115,1.037h11.4a1.123,1.123,0,0,0,1.115-1.038l.685-8.559.247,3.047a1.123,1.123,0,0,0,1.115,1.037h11.4a1.123,1.123,0,0,0,1.115-1.038l.241-3.011.693,8.526a1.123,1.123,0,0,0,1.115,1.037h11.4a1.123,1.123,0,0,0,1.115-1.038l.685-8.558.247,3.046a1.123,1.123,0,0,0,1.115,1.037h11.4a1.123,1.123,0,0,0,1.115-1.038l.241-3.011.693,8.526a1.123,1.123,0,0,0,1.115,1.037h11.4a1.123,1.123,0,0,0,1.115-1.038l1.57-19.632h2.955a1.124,1.124,0,0,0,1.118-1.129v-9.5a7.069,7.069,0,0,0-7-7.088Zm-9.15-6.987a3.514,3.514,0,1,1,7.027,0v1.87a3.514,3.514,0,1,1-7.027,0Zm-29.125,0a3.514,3.514,0,1,1,7.027,0v1.87a3.514,3.514,0,1,1-7.027,0Zm5.905,7.147a7.152,7.152,0,0,0-.136,1.249,3.735,3.735,0,0,1-4.19-.1,7.139,7.139,0,0,0-.107-.994,5.7,5.7,0,0,0,4.433-.152Zm-31.517-1.73a3.531,3.531,0,0,1-3.514-3.547v-1.87a3.514,3.514,0,1,1,7.027,0v1.87A3.534,3.534,0,0,1,45.15,247.352Zm7.529,17.033a1.123,1.123,0,0,0-1.115,1.038l-1.57,19.632H40.655l-1.6-19.7a1.124,1.124,0,0,0-1.135-1.037l-2.843.052v-8.36a4.812,4.812,0,0,1,4.783-4.83h1.063a5.958,5.958,0,0,0,8.925,0l.932,0a4.817,4.817,0,0,1,4.768,4.83v8.375Zm11.877,15.157H55.217l-1.047-12.9h2.5a1.124,1.124,0,0,0,1.118-1.129v-9.5a7.069,7.069,0,0,0-7-7.088l-.885,0a4.8,4.8,0,0,1,4.523-3.257h1.062a5.966,5.966,0,0,0,8.923,0l.933,0a4.8,4.8,0,0,1,4.5,3.25h-.861a7.062,7.062,0,0,0-7.02,7.088v9.51a1.134,1.134,0,0,0,.335.806,1.113,1.113,0,0,0,.8.323l2.488-.045ZM81.8,264.385a1.123,1.123,0,0,0-1.115,1.038l-1.57,19.632H69.78l-1.6-19.7a1.12,1.12,0,0,0-1.139-1.036h-.027a1.151,1.151,0,0,0-.12-.016l-2.692.068v-8.36a4.812,4.812,0,0,1,4.783-4.83h1.063a5.908,5.908,0,0,0,.426.433,5.97,5.97,0,0,0,7.889.167l.046-.041a5.96,5.96,0,0,0,.564-.556l.932,0a4.817,4.817,0,0,1,4.768,4.83v8.375Zm11.877,15.157H84.342l-1.047-12.9h2.5a1.124,1.124,0,0,0,1.118-1.129v-9.5a7.069,7.069,0,0,0-7-7.088l-.885,0a4.8,4.8,0,0,1,4.523-3.257h1.063a5.966,5.966,0,0,0,8.923,0l.933,0a4.8,4.8,0,0,1,4.5,3.25h-.861a7.062,7.062,0,0,0-7.02,7.088v9.51a1.134,1.134,0,0,0,.335.806,1.113,1.113,0,0,0,.8.323l2.488-.045ZM113.8,264.385H110.93a1.123,1.123,0,0,0-1.115,1.038l-1.57,19.632H98.906l-1.6-19.7a1.119,1.119,0,0,0-1.139-1.036l-2.839.053v-8.36a4.812,4.812,0,0,1,4.783-4.83h1.063c.08.09.164.177.249.263a1.128,1.128,0,0,0,.409.374,5.969,5.969,0,0,0,8.267-.635l.932,0a4.817,4.817,0,0,1,4.768,4.83Z" transform="translate(0 -189.453)" fill="#1ae5be"/>
    <path id="Path_9749" data-name="Path 9749" d="M308.2,206.83a5.8,5.8,0,0,0-5.8,5.805v1.87a5.806,5.806,0,1,0,11.612,0v-1.87A5.8,5.8,0,0,0,308.2,206.83Zm3.549,7.675a3.548,3.548,0,0,1-7.1,0v-1.87a3.548,3.548,0,1,1,7.1,0Z" transform="translate(-219.389 -165.195)" fill="#1ae5be"/>
    <path id="Path_9750" data-name="Path 9750" d="M151.957,220.306a5.811,5.811,0,0,0,5.8-5.8v-1.87a5.806,5.806,0,0,0-11.612,0v1.87A5.812,5.812,0,0,0,151.957,220.306Zm-3.549-7.675a3.548,3.548,0,1,1,7.1,0v1.87a3.548,3.548,0,0,1-7.1,0Z" transform="translate(-92.221 -165.191)" fill="#1ae5be"/>
  </g>
</svg>
