<svg id="_001-device" data-name="001-device" xmlns="http://www.w3.org/2000/svg" width="83.882" height="83.882" viewBox="0 0 83.882 83.882">
  <path id="Path_9696" data-name="Path 9696" d="M16.14,298.828v-4.849H11v4.849a3.735,3.735,0,0,0,3.737,3.73h5.14a3.735,3.735,0,0,1-3.737-3.73Z" transform="translate(-9.972 -245.827)" fill="#d4e1f4"/>
  <path id="Path_9697" data-name="Path 9697" d="M81.89,43.649h5.14v37.3H81.89Z" transform="translate(-69.063 -37.027)" fill="#d4e1f4"/>
  <path id="Path_9698" data-name="Path 9698" d="M372.175,175.619h6.582a1.028,1.028,0,1,0,0-2.056h-6.582a1.028,1.028,0,0,0,0,2.056Z" transform="translate(-310.138 -145.414)" fill="#1ae5be"/>
  <path id="Path_9699" data-name="Path 9699" d="M426.877,174.661a1.278,1.278,0,1,0-1.278-1.278A1.278,1.278,0,0,0,426.877,174.661Z" transform="translate(-355.663 -144.204)" fill="#1ae5be"/>
  <g id="Group_4028" data-name="Group 4028" transform="translate(0 0)">
    <path id="Path_9700" data-name="Path 9700" d="M74.1,5H15.988a4.7,4.7,0,0,0-4.631,4.757V53.483H6a1.014,1.014,0,0,0-1,1.028V59.36a4.7,4.7,0,0,0,4.632,4.757H56.387V62.061H9.632A2.671,2.671,0,0,1,7,59.359V55.539H36.782v1.21A2.858,2.858,0,0,0,39.6,59.641h10.9a2.858,2.858,0,0,0,2.816-2.892v-1.21h3.078V53.483H13.355V9.757a2.671,2.671,0,0,1,2.633-2.7H74.1a2.671,2.671,0,0,1,2.633,2.7V32.535h2V9.757A4.7,4.7,0,0,0,74.1,5ZM51.312,56.749a.828.828,0,0,1-.817.837H39.6a.828.828,0,0,1-.817-.837v-1.21H51.312Z" transform="translate(-5 -5)" fill="#2d8cff"/>
    <path id="Path_9701" data-name="Path 9701" d="M112.168,76.351a1.028,1.028,0,0,0-2.056,0v2.1a1.028,1.028,0,0,0,2.056,0Z" transform="translate(-92.622 -63.275)" fill="#2d8cff"/>
    <path id="Path_9702" data-name="Path 9702" d="M111.14,108.186a1.028,1.028,0,0,0-1.028,1.028V124.79a1.028,1.028,0,0,0,2.056,0V109.215A1.028,1.028,0,0,0,111.14,108.186Z" transform="translate(-92.622 -90.507)" fill="#2d8cff"/>
    <path id="Path_9703" data-name="Path 9703" d="M138.112,256.357a1.028,1.028,0,0,0,1.028,1.028h29.035v-2.056H139.14A1.028,1.028,0,0,0,138.112,256.357Z" transform="translate(-116.364 -212.44)" fill="#2d8cff"/>
    <path id="Path_9704" data-name="Path 9704" d="M132.161,37.651H76.9a1.021,1.021,0,0,0-1.013,1.028V75.974A1.021,1.021,0,0,0,76.9,77h3.754a1.028,1.028,0,0,0,0-2.056H77.914V39.707h53.234V59.592h2.027V38.679A1.021,1.021,0,0,0,132.161,37.651Z" transform="translate(-65.045 -32.057)" fill="#2d8cff"/>
  </g>
  <path id="Path_9705" data-name="Path 9705" d="M337.944,169.657v-5.168a4.78,4.78,0,0,0-4.774-4.774H309.051a4.78,4.78,0,0,0-4.774,4.774v6.236a1.028,1.028,0,0,0-.683.967v2.5a1.028,1.028,0,0,0,.683.967v1.812a1.028,1.028,0,0,0-.683.967v2.5a1.028,1.028,0,0,0,.683.967v33.039a4.78,4.78,0,0,0,4.774,4.774H333.17a4.78,4.78,0,0,0,4.774-4.774V173.916a1.026,1.026,0,0,0,.5-.88v-2.5A1.027,1.027,0,0,0,337.944,169.657Zm-23.923-7.887H328.2v1.47a1.471,1.471,0,0,1-1.469,1.469H315.491a1.471,1.471,0,0,1-1.469-1.469Zm21.867,52.67a2.721,2.721,0,0,1-2.718,2.718H309.051a2.721,2.721,0,0,1-2.718-2.718V164.489a2.721,2.721,0,0,1,2.718-2.719h2.914v1.47a3.529,3.529,0,0,0,3.525,3.525H326.73a3.529,3.529,0,0,0,3.526-3.525v-1.47h2.914a2.721,2.721,0,0,1,2.718,2.719Z" transform="translate(-254.561 -135.333)" fill="#1ae5be"/>
</svg>
