<svg xmlns="http://www.w3.org/2000/svg" width="105.414" height="94.701" viewBox="0 0 105.414 94.701">
  <g id="Made_for_" data-name="Made for " transform="translate(-10 -35)">
    <path id="Path_9788" data-name="Path 9788" d="M353.535,339.531l-.024-.089h-2.966a9.747,9.747,0,0,0-9.725,9.747v8.444h4.285v-8.444A9.752,9.752,0,0,1,353.535,339.531Z" transform="translate(-259.94 -239.214)" fill="#d4e1f4"/>
    <path id="Path_9789" data-name="Path 9789" d="M385.576,250.047a7.32,7.32,0,0,1,5.15-6.988,7.31,7.31,0,1,0,0,13.975A7.32,7.32,0,0,1,385.576,250.047Z" transform="translate(-291.722 -163.228)" fill="#d4e1f4"/>
    <path id="Path_9790" data-name="Path 9790" d="M66.756,71.5a7.321,7.321,0,0,1,5.15-6.988,7.31,7.31,0,1,0,0,13.975,7.321,7.321,0,0,1-5.15-6.987Z" transform="translate(-41.211 -22.938)" fill="#d4e1f4"/>
    <path id="Path_9791" data-name="Path 9791" d="M34.715,160.989l-.024-.089H31.725A9.747,9.747,0,0,0,22,170.647v8.443h4.285v-8.443A9.753,9.753,0,0,1,34.715,160.989Z" transform="translate(-9.429 -98.925)" fill="#d4e1f4"/>
    <g id="Group_4032" data-name="Group 4032" transform="translate(10 38.685)">
      <path id="Path_9792" data-name="Path 9792" d="M11.286,172.233H45.819a1.286,1.286,0,0,0,1.286-1.286v-9.729A12.321,12.321,0,0,0,34.871,148.9H22.3A12.321,12.321,0,0,0,10,161.219v9.729a1.286,1.286,0,0,0,1.286,1.286Zm17.378-15.771,1.429,7.648-1.564,1.7-1.5-1.675Zm.519-4.991-.473,1.776H28.4l-.473-1.776Zm-16.611,9.747a9.747,9.747,0,0,1,9.725-9.747h2.966l.8,3.023a1.744,1.744,0,0,0,.264.578l-1.957,9.165a1.286,1.286,0,0,0,.3,1.127l2.886,3.214a1.286,1.286,0,0,0,.949.427h.008a1.286,1.286,0,0,0,.946-.415l2.957-3.214a1.285,1.285,0,0,0,.318-1.107l-1.78-9.529a1.694,1.694,0,0,0,.075-.227l.81-3.042h2.966a9.747,9.747,0,0,1,9.725,9.747v8.443H12.571Z" transform="translate(-10 -128.182)" fill="#2d8cff"/>
      <path id="Path_9793" data-name="Path 9793" d="M132.33,189.488H127.9a1.286,1.286,0,1,0,0,2.571h4.433a1.286,1.286,0,0,0,0-2.571Z" transform="translate(-101.627 -160.073)" fill="#2d8cff"/>
      <path id="Path_9794" data-name="Path 9794" d="M60.416,71.959a9.881,9.881,0,1,0-9.864-9.881,9.881,9.881,0,0,0,9.864,9.881Zm0-17.191a7.31,7.31,0,1,1-7.293,7.31,7.31,7.31,0,0,1,7.293-7.31Z" transform="translate(-41.864 -52.197)" fill="#2d8cff"/>
      <path id="Path_9795" data-name="Path 9795" d="M353.691,327.442H341.116a12.321,12.321,0,0,0-12.3,12.318v9.729a1.286,1.286,0,0,0,1.286,1.286h34.534a1.286,1.286,0,0,0,1.285-1.286V339.76A12.321,12.321,0,0,0,353.691,327.442Zm-6.208,7.563,1.429,7.647-1.564,1.7-1.5-1.674Zm.519-4.992-.472,1.776h-.315l-.473-1.776Zm15.351,18.19H331.391V339.76a9.747,9.747,0,0,1,9.725-9.747h2.966l.8,3.023a1.747,1.747,0,0,0,.264.578l-1.957,9.165a1.286,1.286,0,0,0,.3,1.127l2.886,3.214a1.286,1.286,0,0,0,.948.427h.008a1.286,1.286,0,0,0,.946-.415l2.957-3.214a1.284,1.284,0,0,0,.318-1.106l-1.78-9.529a1.667,1.667,0,0,0,.076-.228l.81-3.042h2.966a9.747,9.747,0,0,1,9.726,9.746Z" transform="translate(-260.511 -268.469)" fill="#2d8cff"/>
      <path id="Path_9796" data-name="Path 9796" d="M451.15,368.029h-4.433a1.286,1.286,0,0,0,0,2.571h4.433a1.286,1.286,0,0,0,0-2.571Z" transform="translate(-352.138 -300.36)" fill="#2d8cff"/>
      <path id="Path_9797" data-name="Path 9797" d="M379.237,250.5a9.881,9.881,0,1,0-9.864-9.881A9.881,9.881,0,0,0,379.237,250.5Zm0-17.191a7.31,7.31,0,1,1-7.293,7.31,7.31,7.31,0,0,1,7.293-7.31Z" transform="translate(-292.375 -192.485)" fill="#2d8cff"/>
    </g>
    <path id="Path_9798" data-name="Path 9798" d="M77.5,318.3a45.913,45.913,0,0,0,15.655-3.9,1.285,1.285,0,1,0-1.05-2.347,43.768,43.768,0,0,1-60.859-32.595l3.509,2.224a1.286,1.286,0,0,0,1.376-2.172l-6.544-4.146a1.285,1.285,0,0,0-1.778.4L23.7,282.346a1.285,1.285,0,1,0,2.18,1.363l2.842-4.544a1.282,1.282,0,0,0-.032.567,46.555,46.555,0,0,0,16.926,28.625,46.018,46.018,0,0,0,28.7,10.049q1.588,0,3.185-.111Zm-48.2-40.071.161.1a1.271,1.271,0,0,0-.37.232Z" transform="translate(-10.609 -188.705)" fill="#1ae5be"/>
    <path id="Path_9799" data-name="Path 9799" d="M140.842,42.835A43.558,43.558,0,0,1,161.6,37.571h.1a43.621,43.621,0,0,1,27.789,10.11,44.189,44.189,0,0,1,14.932,24.928L200.476,69.7a1.286,1.286,0,1,0-1.527,2.069l6.234,4.6a1.286,1.286,0,0,0,1.8-.277l4.572-6.274a1.286,1.286,0,0,0-2.078-1.514l-2.6,3.562a46.769,46.769,0,0,0-15.755-26.161A46.2,46.2,0,0,0,161.7,35h-.1a46.134,46.134,0,0,0-21.978,5.574,1.285,1.285,0,1,0,1.223,2.261Z" transform="translate(-101.317)" fill="#1ae5be"/>
  </g>
</svg>
