<svg xmlns="http://www.w3.org/2000/svg" width="82.266" height="72.495" viewBox="0 0 82.266 72.495">
  <g id="_002-web-protection" data-name="002-web-protection" transform="translate(0 0)">
    <path id="Path_9706" data-name="Path 9706" d="M21.333,107.765V53.036a8.082,8.082,0,0,1,8.325-7.816H24.324A8.082,8.082,0,0,0,16,53.037v54.728a8.082,8.082,0,0,0,8.325,7.816h5.332a8.082,8.082,0,0,1-8.324-7.817Z" transform="translate(-14.933 -44.153)" fill="#d4e1f4"/>
    <g id="Group_4029" data-name="Group 4029" transform="translate(0 0)">
      <path id="Path_9707" data-name="Path 9707" d="M83.432,39.217h-64.6A8.844,8.844,0,0,0,10,48.051v54.828a8.844,8.844,0,0,0,8.833,8.834h64.6a8.844,8.844,0,0,0,8.833-8.834V48.051A8.844,8.844,0,0,0,83.432,39.217Zm6.827,19.2H24.547a1,1,0,0,0,0,2.006H90.259v42.454a6.835,6.835,0,0,1-6.827,6.827h-64.6a6.835,6.835,0,0,1-6.827-6.828V60.425h5.852a1,1,0,1,0,0-2.006H12.006V48.051a6.835,6.835,0,0,1,6.827-6.827h64.6a6.835,6.835,0,0,1,6.827,6.827Z" transform="translate(-10 -39.217)" fill="#2d8cff"/>
      <path id="Path_9708" data-name="Path 9708" d="M128.289,79.361h-.014a4.22,4.22,0,0,0-.013,8.439h.014a4.22,4.22,0,0,0,.013-8.439Zm2.073,4.226a2.086,2.086,0,0,1-2.086,2.08h-.007a2.087,2.087,0,1,1,.006-4.173h.007a2.087,2.087,0,0,1,2.08,2.093Z" transform="translate(-105.108 -72.225)" fill="#2d8cff"/>
      <path id="Path_9709" data-name="Path 9709" d="M48.607,79.112h-.014a4.22,4.22,0,0,0-.013,8.439h.014a4.22,4.22,0,0,0,.013-8.439Zm2.073,4.226a2.087,2.087,0,1,1-2.087-2.093H48.6a2.086,2.086,0,0,1,2.08,2.093Z" transform="translate(-38.258 -72.02)" fill="#2d8cff"/>
      <path id="Path_9710" data-name="Path 9710" d="M207.974,79.611h-.013a4.22,4.22,0,0,0-.013,8.439h.014a4.22,4.22,0,0,0,.013-8.439Zm1.458,5.7a2.088,2.088,0,1,1-1.471-3.567h.007a2.087,2.087,0,0,1,1.464,3.567Z" transform="translate(-171.559 -72.431)" fill="#2d8cff"/>
      <path id="Path_9711" data-name="Path 9711" d="M50.367,196.038A1.067,1.067,0,0,0,49.3,197.1v1.119a1.067,1.067,0,1,0,2.133,0V197.1A1.067,1.067,0,0,0,50.367,196.038Z" transform="translate(-42.314 -169.889)" fill="#2d8cff"/>
      <path id="Path_9712" data-name="Path 9712" d="M50.367,225.333A1.067,1.067,0,0,0,49.3,226.4v20.086a1.067,1.067,0,1,0,2.133,0V226.4A1.067,1.067,0,0,0,50.367,225.333Z" transform="translate(-42.314 -195.008)" fill="#2d8cff"/>
    </g>
    <path id="Path_9713" data-name="Path 9713" d="M215.186,284.186a1.066,1.066,0,0,0,1.484.135l9.765-7.944a1.066,1.066,0,1,0-1.346-1.655l-8.957,7.288-3.517-4.119a1.067,1.067,0,1,0-1.622,1.385Z" transform="translate(-177.65 -235.518)" fill="#1ae5be"/>
    <path id="Path_9714" data-name="Path 9714" d="M175.481,226.25l2.151.938a1.066,1.066,0,0,0,.849,0l2.423-1.046a23.205,23.205,0,0,0,14.22-21.394v-9.582a1.067,1.067,0,0,0-.565-.942l-15.944-8.5a1.066,1.066,0,0,0-1.013.006l-15.5,8.5a1.067,1.067,0,0,0-.554.935v9.8a23.25,23.25,0,0,0,13.936,21.281Zm-11.8-30.451,14.443-7.915,14.87,7.924v8.942a21.075,21.075,0,0,1-12.917,19.429l-.011,0-2,.865-1.725-.752a21.117,21.117,0,0,1-12.657-19.325Z" transform="translate(-137.202 -164.155)" fill="#1ae5be"/>
  </g>
</svg>
