<svg xmlns="http://www.w3.org/2000/svg" width="116.004" height="94" viewBox="0 0 116.004 94">
  <g id="Recording_and_transcripts" data-name="Recording and transcripts" transform="translate(0 0)">
    <path id="Path_9800" data-name="Path 9800" d="M97.242,168.354H27.249A8.258,8.258,0,0,1,19,160.105V113.253a8.212,8.212,0,0,1,.479-2.769A8.26,8.26,0,0,0,14,118.253V165.1a8.258,8.258,0,0,0,8.249,8.249H92.243a8.263,8.263,0,0,0,7.77-5.479,8.194,8.194,0,0,1-2.77.479Zm0,0" transform="translate(-10.5 -82.853)" fill="#d4e1f4"/>
    <path id="Path_9801" data-name="Path 9801" d="M.626,133.953l39.193,33.186a10.713,10.713,0,0,0,13.9-.006l21.289-18.055a1.75,1.75,0,0,0-2.263-2.67L51.454,164.465a7.226,7.226,0,0,1-9.374,0L2.888,131.282a1.75,1.75,0,0,0-2.262,2.671Zm0,0" transform="translate(-0.007 -98.148)" fill="#1ae5be"/>
    <path id="Path_9802" data-name="Path 9802" d="M336.222,33.322V15.386a15.386,15.386,0,0,0-30.772,0V33.322a15.407,15.407,0,0,0,13.636,15.284V67.989h-7.794a1.75,1.75,0,1,0,0,3.5H330.38a1.75,1.75,0,1,0,0-3.5h-7.794V48.606A15.408,15.408,0,0,0,336.222,33.322ZM320.836,45.209a11.9,11.9,0,0,1-11.887-11.887V15.386a11.887,11.887,0,0,1,23.773,0V33.322A11.9,11.9,0,0,1,320.836,45.209Zm0,0" transform="translate(-229.08)" fill="#1ae5be"/>
    <g id="Group_4033" data-name="Group 4033" transform="translate(0 23.637)">
      <path id="Path_9803" data-name="Path 9803" d="M93.506,142.417V153.17a11.7,11.7,0,0,1-2.715,7.506,1.828,1.828,0,0,1-.325.438,1.889,1.889,0,0,1-.263.212,11.706,11.706,0,0,1-8.448,3.595h-70a11.715,11.715,0,0,1-8.458-3.6,1.784,1.784,0,0,1-.256-.205,1.753,1.753,0,0,1-.324-.44A11.7,11.7,0,0,1,0,153.17V106.309A11.765,11.765,0,0,1,11.751,94.558H76.367v3.5H11.751A8.261,8.261,0,0,0,3.5,106.309V153.17a8.194,8.194,0,0,0,1,3.941l20.909-21.386a1.75,1.75,0,0,1,2.5,2.447L6.8,159.766a8.2,8.2,0,0,0,4.951,1.654h70a8.217,8.217,0,0,0,4.941-1.645l-21.232-21.6a1.75,1.75,0,1,1,2.5-2.453L89,157.123a8.224,8.224,0,0,0,1.01-3.953V142.417Zm0,0" transform="translate(0 -94.558)" fill="#2d8cff"/>
      <path id="Path_9804" data-name="Path 9804" d="M273.5,133.219a1.75,1.75,0,1,0-3.5,0c0,12.995,10.878,23.566,24.248,23.566S318.5,146.214,318.5,133.219a1.75,1.75,0,0,0-3.5,0c0,11.065-9.308,20.066-20.748,20.066S273.5,144.284,273.5,133.219Zm0,0" transform="translate(-202.492 -122.242)" fill="#2d8cff"/>
    </g>
  </g>
</svg>
