<svg xmlns="http://www.w3.org/2000/svg" width="98.141" height="94" viewBox="0 0 98.141 94">
  <g id="Streamlined_" data-name="Streamlined " transform="translate(-19 -29)">
    <path id="Path_9805" data-name="Path 9805" d="M39.211,227.454V173H33v54.454a6.84,6.84,0,0,0,6.833,6.833h6.211A6.84,6.84,0,0,1,39.211,227.454Z" transform="translate(-11.101 -114.185)" fill="#d4e1f4"/>
    <path id="Path_9806" data-name="Path 9806" d="M42.938,93.75V93H39.833A6.84,6.84,0,0,0,33,99.833v6.833h6.211V99.833A6.838,6.838,0,0,1,42.938,93.75Z" transform="translate(-11.101 -50.749)" fill="#d4e1f4"/>
    <path id="Path_9807" data-name="Path 9807" d="M53.449,209.665H64.009a1.449,1.449,0,0,0,1.449-1.449V197.449A1.449,1.449,0,0,0,64.009,196H53.449A1.449,1.449,0,0,0,52,197.449v10.767A1.449,1.449,0,0,0,53.449,209.665ZM54.9,198.9h7.661v7.868H54.9Z" transform="translate(-26.167 -132.423)" fill="#1ae5be"/>
    <path id="Path_9808" data-name="Path 9808" d="M149.009,196H138.449A1.449,1.449,0,0,0,137,197.449v10.767a1.449,1.449,0,0,0,1.449,1.449h10.559a1.449,1.449,0,0,0,1.449-1.449V197.449A1.449,1.449,0,0,0,149.009,196Zm-1.449,10.767H139.9V198.9h7.661Z" transform="translate(-93.568 -132.423)" fill="#1ae5be"/>
    <path id="Path_9809" data-name="Path 9809" d="M235.009,196H224.449A1.449,1.449,0,0,0,223,197.449v10.767a1.449,1.449,0,0,0,1.449,1.449h10.559a1.449,1.449,0,0,0,1.449-1.449V197.449A1.449,1.449,0,0,0,235.009,196Zm-1.449,10.767H225.9V198.9h7.661Z" transform="translate(-161.762 -132.423)" fill="#1ae5be"/>
    <path id="Path_9810" data-name="Path 9810" d="M309.449,209.665h10.559a1.449,1.449,0,0,0,1.449-1.449V197.449A1.449,1.449,0,0,0,320.009,196H309.449A1.449,1.449,0,0,0,308,197.449v10.767A1.449,1.449,0,0,0,309.449,209.665ZM310.9,198.9h7.661v7.868H310.9Z" transform="translate(-229.163 -132.423)" fill="#1ae5be"/>
    <path id="Path_9811" data-name="Path 9811" d="M394,197.449v10.767a1.449,1.449,0,0,0,1.449,1.449h10.559a1.449,1.449,0,0,0,1.449-1.449V197.449A1.449,1.449,0,0,0,406.009,196H395.449A1.449,1.449,0,0,0,394,197.449Zm2.9,1.449h7.661v7.868H396.9Z" transform="translate(-297.357 -132.423)" fill="#1ae5be"/>
    <path id="Path_9812" data-name="Path 9812" d="M66.458,292.449A1.449,1.449,0,0,0,65.009,291H54.449A1.449,1.449,0,0,0,53,292.449v10.767a1.449,1.449,0,0,0,1.449,1.449H65.009a1.449,1.449,0,0,0,1.449-1.449Zm-2.9,9.317H55.9V293.9h7.661Z" transform="translate(-26.96 -207.753)" fill="#1ae5be"/>
    <path id="Path_9813" data-name="Path 9813" d="M150.009,291H139.449A1.449,1.449,0,0,0,138,292.449v10.767a1.449,1.449,0,0,0,1.449,1.449h10.559a1.449,1.449,0,0,0,1.449-1.449V292.449A1.449,1.449,0,0,0,150.009,291Zm-1.449,10.767H140.9V293.9h7.661Z" transform="translate(-94.361 -207.753)" fill="#1ae5be"/>
    <path id="Path_9814" data-name="Path 9814" d="M237.458,292.449A1.449,1.449,0,0,0,236.009,291H225.449A1.449,1.449,0,0,0,224,292.449v10.767a1.449,1.449,0,0,0,1.449,1.449h10.559a1.449,1.449,0,0,0,1.449-1.449Zm-2.9,9.317H226.9V293.9h7.661Z" transform="translate(-162.555 -207.753)" fill="#1ae5be"/>
    <path id="Path_9815" data-name="Path 9815" d="M65.009,380H54.449A1.449,1.449,0,0,0,53,381.449v10.767a1.449,1.449,0,0,0,1.449,1.449H65.009a1.449,1.449,0,0,0,1.449-1.449V381.449A1.449,1.449,0,0,0,65.009,380Zm-1.449,10.767H55.9V382.9h7.661Z" transform="translate(-26.96 -278.326)" fill="#1ae5be"/>
    <path id="Path_9816" data-name="Path 9816" d="M139.449,393.665h10.559a1.449,1.449,0,0,0,1.449-1.449V381.449A1.449,1.449,0,0,0,150.009,380H139.449A1.449,1.449,0,0,0,138,381.449v10.767A1.449,1.449,0,0,0,139.449,393.665ZM140.9,382.9h7.661v7.868H140.9Z" transform="translate(-94.361 -278.326)" fill="#1ae5be"/>
    <path id="Path_9817" data-name="Path 9817" d="M236.009,380H225.449A1.449,1.449,0,0,0,224,381.449v10.767a1.449,1.449,0,0,0,1.449,1.449h10.559a1.449,1.449,0,0,0,1.449-1.449V381.449A1.449,1.449,0,0,0,236.009,380Zm-1.449,10.767H226.9V382.9h7.661Z" transform="translate(-162.555 -278.326)" fill="#1ae5be"/>
    <path id="Path_9818" data-name="Path 9818" d="M322.458,303.216V292.449A1.449,1.449,0,0,0,321.009,291H310.449A1.449,1.449,0,0,0,309,292.449v10.767a1.449,1.449,0,0,0,1.449,1.449h10.559A1.449,1.449,0,0,0,322.458,303.216Zm-2.9-1.449H311.9V293.9h7.661Z" transform="translate(-229.956 -207.753)" fill="#1ae5be"/>
    <path id="Path_9819" data-name="Path 9819" d="M407.009,291H396.449A1.449,1.449,0,0,0,395,292.449v10.767a1.449,1.449,0,0,0,1.449,1.449h10.559a1.449,1.449,0,0,0,1.449-1.449V292.449A1.449,1.449,0,0,0,407.009,291Zm-1.449,10.767H397.9V293.9h7.661Z" transform="translate(-298.15 -207.753)" fill="#1ae5be"/>
    <path id="Path_9820" data-name="Path 9820" d="M86.59,49.5h1.035a5.6,5.6,0,0,0,5.59-5.59V34.59A5.6,5.6,0,0,0,87.626,29H86.59A5.6,5.6,0,0,0,81,34.59v9.317a5.6,5.6,0,0,0,5.59,5.59ZM83.9,34.59A2.7,2.7,0,0,1,86.59,31.9h1.035a2.7,2.7,0,0,1,2.692,2.692v9.317A2.7,2.7,0,0,1,87.626,46.6H86.59A2.7,2.7,0,0,1,83.9,43.907Z" transform="translate(-49.163 0)" fill="#1ae5be"/>
    <path id="Path_9821" data-name="Path 9821" d="M371,34.59v9.317a5.6,5.6,0,0,0,5.59,5.59h1.035a5.6,5.6,0,0,0,5.59-5.59V34.59a5.6,5.6,0,0,0-5.59-5.59H376.59A5.6,5.6,0,0,0,371,34.59Zm2.9,0A2.7,2.7,0,0,1,376.59,31.9h1.035a2.7,2.7,0,0,1,2.692,2.692v9.317a2.7,2.7,0,0,1-2.692,2.692H376.59a2.7,2.7,0,0,1-2.692-2.692Z" transform="translate(-279.119 0)" fill="#1ae5be"/>
    <path id="Path_9822" data-name="Path 9822" d="M107.41,79h-4.762a1.449,1.449,0,1,0,0,2.9h4.762a6.84,6.84,0,0,1,6.833,6.833v6.833H21.9V88.731A6.84,6.84,0,0,1,28.731,81.9h4.555a1.449,1.449,0,1,0,0-2.9H28.731A9.742,9.742,0,0,0,19,88.731v64.185a9.742,9.742,0,0,0,9.731,9.731H107.41a9.742,9.742,0,0,0,9.731-9.731V88.731A9.742,9.742,0,0,0,107.41,79Zm6.833,73.916a6.84,6.84,0,0,1-6.833,6.833H28.731a6.84,6.84,0,0,1-6.833-6.833V98.463h92.344Z" transform="translate(0 -39.648)" fill="#2d8cff"/>
    <path id="Path_9823" data-name="Path 9823" d="M127.449,81.9h50.727a1.449,1.449,0,0,0,0-2.9H127.449a1.449,1.449,0,0,0,0,2.9Z" transform="translate(-84.846 -39.648)" fill="#2d8cff"/>
  </g>
</svg>
