<svg xmlns="http://www.w3.org/2000/svg" width="96" height="94.127" viewBox="0 0 96 94.127">
  <g id="Team_Chat" data-name="Team Chat" transform="translate(-10 -14.6)">
    <path id="Path_9760" data-name="Path 9760" d="M59.63,35.309a8.723,8.723,0,0,1,6.759-8.488,8.71,8.71,0,1,0,0,16.974,8.724,8.724,0,0,1-6.759-8.486Z" transform="translate(-36.799 -9.656)" fill="#d4e1f4"/>
    <path id="Path_9761" data-name="Path 9761" d="M39.432,161.731a15.154,15.154,0,0,0-1.951-.13,15.383,15.383,0,0,0-15.253,14.127h3.9a15.4,15.4,0,0,1,13.3-14Z" transform="translate(-9.842 -118.318)" fill="#d4e1f4"/>
    <path id="Path_9762" data-name="Path 9762" d="M370.832,286.666a8.724,8.724,0,0,1,6.759-8.488,8.71,8.71,0,1,0,0,16.974A8.724,8.724,0,0,1,370.832,286.666Z" transform="translate(-287.279 -211.968)" fill="#d4e1f4"/>
    <path id="Path_9763" data-name="Path 9763" d="M350.632,412.731a15.155,15.155,0,0,0-1.951-.13,15.383,15.383,0,0,0-15.253,14.127h3.9A15.4,15.4,0,0,1,350.632,412.731Z" transform="translate(-260.32 -320.342)" fill="#d4e1f4"/>
    <path id="Path_9764" data-name="Path 9764" d="M25.9,330.553V304.084A3.092,3.092,0,0,1,29.013,301h-3.9A3.092,3.092,0,0,0,22,304.084v26.469a3.048,3.048,0,0,0,3.111,3.032h3.9a3.048,3.048,0,0,1-3.111-3.032Z" transform="translate(-9.659 -230.517)" fill="#d4e1f4"/>
    <path id="Path_9765" data-name="Path 9765" d="M457.958,34h-3.9a3.161,3.161,0,0,1,3.111,3.165V63.634a3.145,3.145,0,0,1-3.111,3.147h3.9a3.145,3.145,0,0,0,3.111-3.147V37.165A3.161,3.161,0,0,0,457.958,34Z" transform="translate(-357.411 -15.615)" fill="#d4e1f4"/>
    <path id="Path_9766" data-name="Path 9766" d="M70.7,311.659a8.525,8.525,0,0,0-1.357-.188c-2.981-.279-5.687-.823-5.687-4.376V294.426A5.384,5.384,0,0,0,58.268,289H15.452A5.436,5.436,0,0,0,10,294.426v26.469a5.392,5.392,0,0,0,5.452,5.374H58.268a5.34,5.34,0,0,0,5.391-5.374v-1.742a.336.336,0,0,1,.257-.314c5.525-.976,7.259-4.6,7.59-5.445a1.192,1.192,0,0,0,.132-.724,1.224,1.224,0,0,0-.935-1.011Zm-7.194,4.874a2.665,2.665,0,0,0-2.192,2.62v1.742a3,3,0,0,1-3.05,3.032H15.452a3.048,3.048,0,0,1-3.111-3.032V294.426a3.092,3.092,0,0,1,3.111-3.084H58.268a3.04,3.04,0,0,1,3.05,3.084v12.669c0,5.564,4.733,6.392,7.266,6.656a7.9,7.9,0,0,1-5.074,2.782Z" transform="translate(0 -220.858)" fill="#2d8cff"/>
    <path id="Path_9767" data-name="Path 9767" d="M215.755,397h-2.484a1.171,1.171,0,0,0,0,2.341h2.483a1.171,1.171,0,1,0,0-2.341Z" transform="translate(-162.666 -307.785)" fill="#2d8cff"/>
    <path id="Path_9768" data-name="Path 9768" d="M136.5,399.341a1.171,1.171,0,1,0,0-2.341H123.535a1.171,1.171,0,0,0,0,2.341Z" transform="translate(-90.439 -307.785)" fill="#2d8cff"/>
    <path id="Path_9769" data-name="Path 9769" d="M143.528,360H123.535a1.171,1.171,0,0,0,0,2.341h19.994a1.171,1.171,0,0,0,0-2.341Z" transform="translate(-90.439 -278.005)" fill="#2d8cff"/>
    <path id="Path_9770" data-name="Path 9770" d="M178.149,324h-11.6a1.171,1.171,0,1,0,0,2.341h11.6a1.171,1.171,0,1,0,0-2.341Z" transform="translate(-125.06 -249.029)" fill="#2d8cff"/>
    <path id="Path_9771" data-name="Path 9771" d="M123.535,326.341h3.831a1.171,1.171,0,1,0,0-2.341h-3.831a1.171,1.171,0,1,0,0,2.341Z" transform="translate(-90.439 -249.029)" fill="#2d8cff"/>
    <path id="Path_9772" data-name="Path 9772" d="M180.05,434H168.91a1.171,1.171,0,0,0,0,2.341h11.14a1.171,1.171,0,1,0,0-2.341Z" transform="translate(-126.961 -337.566)" fill="#2d8cff"/>
    <path id="Path_9773" data-name="Path 9773" d="M77.85,434H61.424a1.171,1.171,0,0,0,0,2.341H77.85a1.171,1.171,0,0,0,0-2.341Z" transform="translate(-40.448 -337.566)" fill="#2d8cff"/>
    <path id="Path_9774" data-name="Path 9774" d="M242.238,22H199.423a5.453,5.453,0,0,0-5.391,5.506V40.175c0,3.553-2.706,4.1-5.687,4.376a8.3,8.3,0,0,0-1.341.188,1.25,1.25,0,0,0-.951,1.011,1.186,1.186,0,0,0,.12.724c.331.847,2.079,4.468,7.6,5.445a.335.335,0,0,1,.255.314v1.742a5.437,5.437,0,0,0,5.391,5.488h42.815a5.49,5.49,0,0,0,5.452-5.488V27.506A5.5,5.5,0,0,0,242.238,22Zm3.111,31.975a3.145,3.145,0,0,1-3.111,3.147H199.423a3.094,3.094,0,0,1-3.05-3.147V52.233a2.665,2.665,0,0,0-2.191-2.619,7.9,7.9,0,0,1-5.075-2.782c2.532-.264,7.267-1.093,7.267-6.656V27.506a3.109,3.109,0,0,1,3.05-3.165h42.815a3.161,3.161,0,0,1,3.111,3.165Z" transform="translate(-141.69 -5.956)" fill="#2d8cff"/>
    <path id="Path_9775" data-name="Path 9775" d="M364.667,94H346.182a1.171,1.171,0,0,0,0,2.341h18.485a1.171,1.171,0,0,0,0-2.341Z" transform="translate(-269.643 -63.907)" fill="#2d8cff"/>
    <path id="Path_9776" data-name="Path 9776" d="M357.079,132.341a1.171,1.171,0,0,0,0-2.341h-10.9a1.171,1.171,0,0,0,0,2.341Z" transform="translate(-269.643 -92.883)" fill="#2d8cff"/>
    <path id="Path_9777" data-name="Path 9777" d="M429.531,130h-2.76a1.171,1.171,0,0,0,0,2.341h2.76a1.171,1.171,0,1,0,0-2.341Z" transform="translate(-334.507 -92.883)" fill="#2d8cff"/>
    <path id="Path_9778" data-name="Path 9778" d="M284.475,167H276.34a1.171,1.171,0,0,0,0,2.341h8.135a1.171,1.171,0,1,0,0-2.341Z" transform="translate(-213.429 -122.663)" fill="#2d8cff"/>
    <path id="Path_9779" data-name="Path 9779" d="M361.326,167h-19.3a1.171,1.171,0,0,0,0,2.341h19.3a1.171,1.171,0,0,0,0-2.341Z" transform="translate(-266.302 -122.663)" fill="#2d8cff"/>
    <path id="Path_9780" data-name="Path 9780" d="M346.182,59.341h2.17a1.171,1.171,0,1,0,0-2.341h-2.17a1.171,1.171,0,0,0,0,2.341Z" transform="translate(-269.643 -34.127)" fill="#2d8cff"/>
    <path id="Path_9781" data-name="Path 9781" d="M392.683,57H380.99a1.171,1.171,0,0,0,0,2.341h11.693a1.171,1.171,0,1,0,0-2.341Z" transform="translate(-297.659 -34.127)" fill="#2d8cff"/>
    <path id="Path_9782" data-name="Path 9782" d="M283.775,70.741h-.045a1.865,1.865,0,0,1-1.841-1.862,1.171,1.171,0,0,0-1.171-1.171,1.185,1.185,0,0,0-1.187,1.171,4.189,4.189,0,0,0,3.018,4.036v.8a1.171,1.171,0,1,0,2.341,0v-.8a4.2,4.2,0,0,0-1.146-8.241,1.864,1.864,0,1,1,1.871-1.864,1.171,1.171,0,0,0,1.171,1.171,1.157,1.157,0,0,0,1.155-1.171,4.218,4.218,0,0,0-3.05-4.036v-.665a1.171,1.171,0,1,0-2.341,0v.665a4.206,4.206,0,0,0,1.2,8.241,1.863,1.863,0,0,1,.031,3.727Z" transform="translate(-216.939 -34.077)" fill="#2d8cff"/>
    <path id="Path_9783" data-name="Path 9783" d="M64.558,337.328h-.045a1.865,1.865,0,0,1-1.841-1.862,1.171,1.171,0,0,0-1.171-1.171,1.155,1.155,0,0,0-1.151,1.171A4.22,4.22,0,0,0,63.4,339.5v.8a1.171,1.171,0,1,0,2.341,0v-.8a4.207,4.207,0,0,0-1.2-8.241A1.864,1.864,0,1,1,66.4,329.4a1.171,1.171,0,0,0,1.171,1.171,1.187,1.187,0,0,0,1.19-1.171,4.187,4.187,0,0,0-3.017-4.036v-.666a1.171,1.171,0,0,0-2.341,0v.666a4.2,4.2,0,0,0,1.142,8.241,1.863,1.863,0,0,1,.013,3.727Z" transform="translate(-40.525 -248.646)" fill="#2d8cff"/>
    <path id="Path_9784" data-name="Path 9784" d="M366.012,265.959a11.052,11.052,0,1,0,11.052,11.052,11.052,11.052,0,0,0-11.052-11.052Zm0,19.762a8.71,8.71,0,1,1,8.71-8.71A8.71,8.71,0,0,1,366.012,285.721Z" transform="translate(-277.651 -202.313)" fill="#1ae5be"/>
    <path id="Path_9785" data-name="Path 9785" d="M338.839,401A17.626,17.626,0,0,0,321.2,418.6a1.138,1.138,0,0,0,1.171,1.132h32.937a1.138,1.138,0,0,0,1.171-1.132A17.626,17.626,0,0,0,338.839,401Zm-15.253,16.39a15.3,15.3,0,0,1,30.506,0Z" transform="translate(-250.478 -311.005)" fill="#1ae5be"/>
    <path id="Path_9786" data-name="Path 9786" d="M43.76,25.652A11.052,11.052,0,1,0,54.812,14.6,11.052,11.052,0,0,0,43.76,25.652Zm19.762,0a8.71,8.71,0,1,1-8.71-8.711A8.71,8.71,0,0,1,63.522,25.652Z" transform="translate(-27.173)" fill="#1ae5be"/>
    <path id="Path_9787" data-name="Path 9787" d="M27.639,149.642A17.655,17.655,0,0,0,10,167.277a1.167,1.167,0,0,0,1.171,1.167H44.107a1.167,1.167,0,0,0,1.171-1.167,17.655,17.655,0,0,0-17.639-17.635ZM12.386,166.1a15.3,15.3,0,0,1,30.506,0Z" transform="translate(0 -108.692)" fill="#1ae5be"/>
  </g>
</svg>
