<svg id="Unparalleled_usability_" data-name="Unparalleled usability " xmlns="http://www.w3.org/2000/svg" width="108.742" height="85.535" viewBox="0 0 108.742 85.535">
  <g id="Group_4031" data-name="Group 4031" transform="translate(2.855 2.632)">
    <path id="Path_9751" data-name="Path 9751" d="M293.953,134.571a13.341,13.341,0,0,1,11.2-13.089,13.6,13.6,0,0,0-2.232-.187,13.277,13.277,0,1,0,0,26.552,13.6,13.6,0,0,0,2.232-.187A13.341,13.341,0,0,1,293.953,134.571Z" transform="translate(-229.966 -110.805)" fill="#d4e1f4"/>
    <path id="Path_9752" data-name="Path 9752" d="M213.781,308.744V289.459a13.84,13.84,0,0,1,13.9-13.745H223.22a13.84,13.84,0,0,0-13.9,13.745v19.286a3.105,3.105,0,0,0,3.125,3.078h4.464a3.105,3.105,0,0,1-3.125-3.08Z" transform="translate(-167.687 -231.599)" fill="#d4e1f4"/>
    <path id="Path_9753" data-name="Path 9753" d="M107.429,87.571a13.341,13.341,0,0,1,11.2-13.089,13.6,13.6,0,0,0-2.232-.187,13.277,13.277,0,1,0,0,26.552,13.6,13.6,0,0,0,2.232-.187A13.341,13.341,0,0,1,107.429,87.571Z" transform="translate(-85.072 -74.295)" fill="#d4e1f4"/>
    <path id="Path_9754" data-name="Path 9754" d="M27.257,262.744V243.459a13.84,13.84,0,0,1,13.9-13.745H36.7a13.84,13.84,0,0,0-13.9,13.745v19.286a3.105,3.105,0,0,0,3.125,3.078h4.464A3.105,3.105,0,0,1,27.257,262.744Z" transform="translate(-22.793 -195.865)" fill="#d4e1f4"/>
  </g>
  <path id="Path_9755" data-name="Path 9755" d="M61.42,216.262H32.166A22.084,22.084,0,0,0,10,238.212v13.759a5.787,5.787,0,0,0,5.8,5.757H53.146a1.339,1.339,0,0,0,0-2.678H15.8a3.105,3.105,0,0,1-3.125-3.078V238.212A19.4,19.4,0,0,1,32.166,218.94h6.526l1.686,4.869a2.195,2.195,0,0,0,.521.909l-3.737,18.918a1.339,1.339,0,0,0,.29,1.124l5.459,6.465a1.339,1.339,0,0,0,1.015.475h.008a1.34,1.34,0,0,0,1.013-.463l5.593-6.465a1.339,1.339,0,0,0,.306-1.108l-3.409-19.4a2.2,2.2,0,0,0,.187-.45l1.686-4.869H61.42a13.9,13.9,0,0,1,13.138,9.235,1.339,1.339,0,1,0,2.527-.887A16.586,16.586,0,0,0,61.42,216.262ZM46.475,218.94l-1.311,3.786H42.838l-1.311-3.786ZM43.947,248.3l-4.033-4.776,3.58-18.119h1.425L48.1,243.5Z" transform="translate(-10 -182.783)" fill="#2d8cff"/>
  <path id="Path_9756" data-name="Path 9756" d="M109.862,94.409A15.955,15.955,0,1,0,93.755,78.454,16.05,16.05,0,0,0,109.862,94.409Zm0-29.231A13.277,13.277,0,1,1,96.433,78.454,13.368,13.368,0,0,1,109.862,65.178Z" transform="translate(-75.319 -62.5)" fill="#2d8cff"/>
  <path id="Path_9757" data-name="Path 9757" d="M248.737,263.709H213.9a16.522,16.522,0,0,0-16.581,16.423v19.286a5.786,5.786,0,0,0,5.8,5.757h56.4a5.787,5.787,0,0,0,5.8-5.757V280.134A16.522,16.522,0,0,0,248.737,263.709Zm-17.927,9.143h1.425l3.179,18.1-4.151,4.8-4.033-4.776Zm2.982-6.465-1.311,3.786h-2.326l-1.311-3.786Zm28.848,33.031a3.105,3.105,0,0,1-3.125,3.078h-56.4A3.105,3.105,0,0,1,200,299.419V280.134a13.84,13.84,0,0,1,13.9-13.745h12.111l1.686,4.869a2.192,2.192,0,0,0,.521.909l-3.738,18.918a1.339,1.339,0,0,0,.29,1.124l5.459,6.465a1.339,1.339,0,0,0,1.015.475h.008a1.339,1.339,0,0,0,1.013-.463l5.593-6.465a1.339,1.339,0,0,0,.306-1.108l-3.409-19.406a2.213,2.213,0,0,0,.187-.45l1.686-4.869h12.111a13.84,13.84,0,0,1,13.9,13.745Z" transform="translate(-156.577 -219.64)" fill="#1ae5be"/>
  <path id="Path_9758" data-name="Path 9758" d="M411.923,336.5h-8.384a1.339,1.339,0,0,0,0,2.678h8.385a1.339,1.339,0,0,0,0-2.678Z" transform="translate(-315.732 -275.96)" fill="#1ae5be"/>
  <path id="Path_9759" data-name="Path 9759" d="M293.6,141.208a15.955,15.955,0,1,0-16.107-15.953A16.05,16.05,0,0,0,293.6,141.208Zm0-29.231a13.277,13.277,0,1,1-13.429,13.276A13.369,13.369,0,0,1,293.6,111.977Z" transform="translate(-218.609 -98.855)" fill="#1ae5be"/>
</svg>
