<svg id="Group_3913" data-name="Group 3913" xmlns="http://www.w3.org/2000/svg" width="24.588" height="22.827" viewBox="0 0 24.588 22.827">
  <g id="Group_3912" data-name="Group 3912" opacity="0.13">
    <g id="Group_373" data-name="Group 373" transform="translate(0.589 3.851)">
      <path id="Path_2897" data-name="Path 2897" d="M-996.833,838.591l-2.245,3.888A11.316,11.316,0,0,1-996.833,838.591Z" transform="translate(999.078 -838.591)" fill="#2d8cff"/>
    </g>
    <g id="Group_374" data-name="Group 374" transform="translate(0.063 2.175)">
      <path id="Path_2898" data-name="Path 2898" d="M-999.246,823.361l-4.607,7.981q.045-.434.123-.856l3.8-6.586Q-999.6,823.615-999.246,823.361Z" transform="translate(1003.853 -823.361)" fill="#2d8cff"/>
    </g>
    <g id="Group_375" data-name="Group 375" transform="translate(0 1.322)">
      <path id="Path_2899" data-name="Path 2899" d="M-998.394,815.609l-6.026,10.436c-.005-.134-.008-.267-.008-.4,0-.077,0-.154,0-.231l5.48-9.491C-998.764,815.811-998.581,815.708-998.394,815.609Z" transform="translate(1004.427 -815.609)" fill="#2d8cff"/>
    </g>
    <g id="Group_376" data-name="Group 376" transform="translate(0.06 0.777)">
      <path id="Path_2900" data-name="Path 2900" d="M-996.725,810.659l-7.09,12.28q-.038-.262-.066-.527l6.668-11.549C-997.054,810.792-996.89,810.724-996.725,810.659Z" transform="translate(1003.882 -810.659)" fill="#2d8cff"/>
    </g>
    <g id="Group_377" data-name="Group 377" transform="translate(0.246 0.416)">
      <path id="Path_2901" data-name="Path 2901" d="M-994.142,807.381l-7.942,13.757q-.058-.228-.106-.459l7.6-13.162C-994.443,807.468-994.293,807.423-994.142,807.381Z" transform="translate(1002.19 -807.381)" fill="#2d8cff"/>
    </g>
    <g id="Group_378" data-name="Group 378" transform="translate(0.517 0.185)">
      <path id="Path_2902" data-name="Path 2902" d="M-990.95,805.28l-8.644,14.973c-.048-.135-.094-.269-.136-.407l8.36-14.481C-991.231,805.334-991.091,805.3-990.95,805.28Z" transform="translate(999.73 -805.28)" fill="#2d8cff"/>
    </g>
    <g id="Group_379" data-name="Group 379" transform="translate(0.852 0.052)">
      <path id="Path_2903" data-name="Path 2903" d="M-987.295,804.074l-9.233,15.992c-.056-.121-.108-.244-.158-.368l8.994-15.578C-987.56,804.1-987.427,804.087-987.295,804.074Z" transform="translate(996.686 -804.074)" fill="#2d8cff"/>
    </g>
    <g id="Group_380" data-name="Group 380" transform="translate(1.237)">
      <path id="Path_2904" data-name="Path 2904" d="M-983.278,803.6l-9.727,16.849c-.062-.11-.121-.221-.179-.333l9.529-16.5C-983.531,803.6-983.4,803.6-983.278,803.6Z" transform="translate(993.184 -803.598)" fill="#2d8cff"/>
    </g>
    <g id="Group_381" data-name="Group 381" transform="translate(1.665 0.001)">
      <path id="Path_2905" data-name="Path 2905" d="M-978.957,803.624-989.1,821.192c-.066-.1-.132-.2-.195-.306l9.976-17.278C-979.2,803.611-979.077,803.617-978.957,803.624Z" transform="translate(989.294 -803.608)" fill="#2d8cff"/>
    </g>
    <g id="Group_382" data-name="Group 382" transform="translate(2.131 0.053)">
      <path id="Path_2906" data-name="Path 2906" d="M-974.365,804.123l-10.49,18.168c-.071-.092-.141-.186-.208-.281l10.349-17.925C-974.6,804.095-974.481,804.108-974.365,804.123Z" transform="translate(985.063 -804.084)" fill="#2d8cff"/>
    </g>
    <g id="Group_383" data-name="Group 383" transform="translate(2.63 0.162)">
      <path id="Path_2907" data-name="Path 2907" d="M-969.538,805.129l-10.771,18.655c-.076-.085-.15-.171-.222-.258l10.659-18.461C-969.76,805.085-969.649,805.106-969.538,805.129Z" transform="translate(980.531 -805.066)" fill="#2d8cff"/>
    </g>
    <g id="Group_384" data-name="Group 384" transform="translate(3.157 0.323)">
      <path id="Path_2908" data-name="Path 2908" d="M-964.507,806.619-975.5,825.662c-.079-.078-.157-.156-.234-.237l10.907-18.891Q-964.667,806.573-964.507,806.619Z" transform="translate(975.736 -806.535)" fill="#2d8cff"/>
    </g>
    <g id="Group_385" data-name="Group 385" transform="translate(3.714 0.533)">
      <path id="Path_2909" data-name="Path 2909" d="M-959.27,808.546l-11.163,19.335c-.083-.071-.166-.143-.246-.217l11.1-19.223C-959.477,808.474-959.373,808.508-959.27,808.546Z" transform="translate(970.679 -808.441)" fill="#2d8cff"/>
    </g>
    <g id="Group_386" data-name="Group 386" transform="translate(4.297 0.79)">
      <path id="Path_2910" data-name="Path 2910" d="M-953.843,810.9l-11.279,19.535c-.087-.064-.171-.131-.256-.2l11.237-19.463C-954.041,810.815-953.942,810.857-953.843,810.9Z" transform="translate(965.378 -810.775)" fill="#2d8cff"/>
    </g>
    <g id="Group_387" data-name="Group 387" transform="translate(4.906 1.093)">
      <path id="Path_2911" data-name="Path 2911" d="M-948.234,813.67l-11.343,19.648c-.09-.058-.18-.118-.268-.18l11.322-19.61C-948.425,813.574-948.329,813.621-948.234,813.67Z" transform="translate(959.845 -813.528)" fill="#2d8cff"/>
    </g>
    <g id="Group_388" data-name="Group 388" transform="translate(5.54 1.438)">
      <path id="Path_2912" data-name="Path 2912" d="M-942.451,816.831-953.809,836.5c-.094-.051-.186-.1-.278-.16l11.357-19.672C-942.635,816.721-942.543,816.775-942.451,816.831Z" transform="translate(954.087 -816.669)" fill="#2d8cff"/>
    </g>
    <g id="Group_389" data-name="Group 389" transform="translate(6.198 1.828)">
      <path id="Path_2913" data-name="Path 2913" d="M-936.495,820.389-947.816,840c-.1-.046-.195-.093-.29-.142l11.344-19.648C-936.672,820.267-936.583,820.327-936.495,820.389Z" transform="translate(948.106 -820.209)" fill="#2d8cff"/>
    </g>
    <g id="Group_390" data-name="Group 390" transform="translate(6.883 2.26)">
      <path id="Path_2914" data-name="Path 2914" d="M-930.345,824.337-941.581,843.8c-.1-.04-.2-.081-.3-.124l11.279-19.536Q-930.472,824.236-930.345,824.337Z" transform="translate(941.881 -824.138)" fill="#2d8cff"/>
    </g>
    <g id="Group_391" data-name="Group 391" transform="translate(7.593 2.739)">
      <path id="Path_2915" data-name="Path 2915" d="M-924.015,828.7l-11.1,19.223c-.1-.033-.208-.067-.31-.1l11.163-19.334C-924.178,828.556-924.1,828.628-924.015,828.7Z" transform="translate(935.423 -828.486)" fill="#2d8cff"/>
    </g>
    <g id="Group_392" data-name="Group 392" transform="translate(8.329 3.26)">
      <path id="Path_2916" data-name="Path 2916" d="M-917.513,833.46l-10.907,18.89c-.108-.026-.215-.053-.322-.085l10.995-19.043Q-917.627,833.339-917.513,833.46Z" transform="translate(928.742 -833.222)" fill="#2d8cff"/>
    </g>
    <g id="Group_393" data-name="Group 393" transform="translate(9.094 3.83)">
      <path id="Path_2917" data-name="Path 2917" d="M-910.8,838.664l-10.658,18.461c-.112-.018-.224-.04-.334-.062l10.771-18.657C-910.942,838.491-910.869,838.577-910.8,838.664Z" transform="translate(921.788 -838.406)" fill="#2d8cff"/>
    </g>
    <g id="Group_394" data-name="Group 394" transform="translate(9.886 4.45)">
      <path id="Path_2918" data-name="Path 2918" d="M-903.893,844.319l-10.349,17.925c-.117-.011-.233-.024-.349-.039l10.489-18.169C-904.03,844.129-903.96,844.223-903.893,844.319Z" transform="translate(914.591 -844.037)" fill="#2d8cff"/>
    </g>
    <g id="Group_395" data-name="Group 395" transform="translate(10.712 5.125)">
      <path id="Path_2919" data-name="Path 2919" d="M-896.745,850.48l-9.976,17.278c-.121,0-.242-.009-.362-.016l10.143-17.568C-896.873,850.275-896.807,850.376-896.745,850.48Z" transform="translate(907.083 -850.174)" fill="#2d8cff"/>
    </g>
    <g id="Group_396" data-name="Group 396" transform="translate(11.572 5.862)">
      <path id="Path_2920" data-name="Path 2920" d="M-889.359,857.2l-9.527,16.5c-.125.006-.252.011-.378.013l9.728-16.849C-889.474,856.976-889.416,857.086-889.359,857.2Z" transform="translate(899.264 -856.865)" fill="#2d8cff"/>
    </g>
    <g id="Group_397" data-name="Group 397" transform="translate(12.472 6.667)">
      <path id="Path_2921" data-name="Path 2921" d="M-881.7,864.546l-9,15.579c-.132.017-.263.032-.4.045l9.233-15.992C-881.805,864.3-881.752,864.422-881.7,864.546Z" transform="translate(891.094 -864.179)" fill="#2d8cff"/>
    </g>
    <g id="Group_398" data-name="Group 398" transform="translate(13.418 7.553)">
      <path id="Path_2922" data-name="Path 2922" d="M-873.715,872.638l-8.361,14.481q-.209.048-.421.086l8.645-14.973C-873.8,872.366-873.757,872.5-873.715,872.638Z" transform="translate(882.496 -872.232)" fill="#2d8cff"/>
    </g>
    <g id="Group_399" data-name="Group 399" transform="translate(14.421 8.537)">
      <path id="Path_2923" data-name="Path 2923" d="M-865.326,881.638l-7.6,13.163c-.148.049-.3.094-.449.136l7.942-13.757Q-865.374,881.408-865.326,881.638Z" transform="translate(873.374 -881.18)" fill="#2d8cff"/>
    </g>
    <g id="Group_400" data-name="Group 400" transform="translate(15.498 9.653)">
      <path id="Path_2924" data-name="Path 2924" d="M-856.433,891.841l-6.667,11.55c-.162.073-.324.14-.489.205l7.091-12.282C-856.473,891.489-856.451,891.664-856.433,891.841Z" transform="translate(863.59 -891.314)" fill="#2d8cff"/>
    </g>
    <g id="Group_401" data-name="Group 401" transform="translate(16.682 10.952)">
      <path id="Path_2925" data-name="Path 2925" d="M-846.8,903.523c0,.077,0,.154,0,.23l-5.481,9.492q-.27.164-.551.312l6.027-10.437C-846.8,903.254-846.8,903.389-846.8,903.523Z" transform="translate(852.833 -903.12)" fill="#2d8cff"/>
    </g>
    <g id="Group_402" data-name="Group 402" transform="translate(18.043 12.553)">
      <path id="Path_2926" data-name="Path 2926" d="M-835.853,917.67q-.045.433-.123.855l-3.8,6.591q-.329.282-.682.538Z" transform="translate(840.462 -917.67)" fill="#2d8cff"/>
    </g>
    <g id="Group_403" data-name="Group 403" transform="translate(19.881 14.968)">
      <path id="Path_2927" data-name="Path 2927" d="M-821.515,939.621a11.336,11.336,0,0,1-2.248,3.893Z" transform="translate(823.763 -939.621)" fill="#2d8cff"/>
    </g>
  </g>
  <g id="_001-tick" data-name="001-tick" transform="translate(6.955 5.195)">
    <path id="Path_9675" data-name="Path 9675" d="M12.021,19.98a8.292,8.292,0,0,1,11.493-7.645,8.289,8.289,0,1,0-8.433,14.077,8.272,8.272,0,0,1-3.06-6.432Zm0,0" transform="translate(-9.595 -10.076)" fill="#d4e1f4"/>
    <path id="Path_9676" data-name="Path 9676" d="M8.686.48a8.692,8.692,0,1,0,6.145,2.547A8.69,8.69,0,0,0,8.686.48Zm0,16.575a7.883,7.883,0,1,1,7.883-7.883A7.893,7.893,0,0,1,8.686,17.055Zm0,0" transform="translate(0.006 -0.48)" fill="#2d8cff" stroke="#2d8cff" stroke-width="0.5"/>
    <path id="Path_9677" data-name="Path 9677" d="M109.53,146.792l-5.219,4.989-2.842-2.846a.4.4,0,0,0-.57.57l3.125,3.125a.4.4,0,0,0,.287.117.39.39,0,0,0,.279-.113l5.5-5.256a.4.4,0,0,0-.558-.586Zm0,0" transform="translate(-96.706 -140.772)" fill="#1ae5be" stroke="#1ae5be" stroke-width="0.5"/>
  </g>
</svg>
