<svg xmlns="http://www.w3.org/2000/svg" width="20.366" height="24.83" viewBox="0 0 20.366 24.83">
  <g id="apple" transform="translate(-46.022)">
    <path id="Path_9551" data-name="Path 9551" d="M52.774,137.067c-3.7-.021-6.752-7.565-6.752-11.407,0-6.275,4.708-7.649,6.522-7.649a7.5,7.5,0,0,1,2.461.605,5.5,5.5,0,0,0,1.405.4,4.373,4.373,0,0,0,1.008-.327,8.079,8.079,0,0,1,3.038-.735h.007a6.227,6.227,0,0,1,5.211,2.632l.38.571-.547.413a4.6,4.6,0,0,0-2.207,3.8,4.284,4.284,0,0,0,2.39,3.96c.342.206.7.418.7.883,0,.3-2.421,6.817-5.937,6.817a4.774,4.774,0,0,1-2-.487,4.065,4.065,0,0,0-1.784-.43,4.589,4.589,0,0,0-1.413.382,6.921,6.921,0,0,1-2.451.572Z" transform="translate(0 -112.238)" fill="#142f51"/>
    <path id="Path_9552" data-name="Path 9552" d="M259.819,0c.092,3.3-2.269,5.592-4.628,5.448C254.8,2.813,257.549,0,259.819,0Z" transform="translate(-198.99)" fill="#142f51"/>
  </g>
</svg>
