<svg xmlns="http://www.w3.org/2000/svg" xmlns:xlink="http://www.w3.org/1999/xlink" width="90" height="90" viewBox="0 0 90 90">
  <defs>
    <filter id="Ellipse_267" x="0" y="0" width="90" height="90" filterUnits="userSpaceOnUse">
      <feOffset dy="3" input="SourceAlpha"/>
      <feGaussianBlur stdDeviation="3" result="blur"/>
      <feFlood flood-opacity="0.2"/>
      <feComposite operator="in" in2="blur"/>
      <feComposite in="SourceGraphic"/>
    </filter>
  </defs>
  <g id="Call" transform="translate(9.333 5.963)">
    <g transform="matrix(1, 0, 0, 1, -9.33, -5.96)" filter="url(#Ellipse_267)">
      <circle id="Ellipse_267-2" data-name="Ellipse 267" cx="36" cy="36" r="36" transform="translate(9 6)" fill="#f54b4b"/>
    </g>
    <path id="Path_30486" data-name="Path 30486" d="M31.323,3.511c-.078-.073-.241-.2-.353-.279C28.94,1.7,25.817-.129,22.8.008,17.758.24,11.052,7.05,9.117,9.132S.881,18.4,1.018,23.444a8.5,8.5,0,0,0,.526,2.648A17.311,17.311,0,0,0,4.8,31.326s.222.261.329.362a3,3,0,0,0,1.221.613,2.876,2.876,0,0,0,.772.1,3.118,3.118,0,0,0,1.035-.167,3.011,3.011,0,0,0,1.166-.7c.187-.2,3.75-4.749,3.77-4.778l.023-.035a3.151,3.151,0,0,0,.44-.765,3.049,3.049,0,0,0,.031-2.138,2.9,2.9,0,0,0-.75-1.144l-1.673-1.563a1.515,1.515,0,0,1-.343-.515,1.386,1.386,0,0,1-.025-.217L20.548,9.89a.187.187,0,0,1,.064-.045l.038.014a3.623,3.623,0,0,1,.571.446L22.9,11.852a3.026,3.026,0,0,0,3.316.5,3.594,3.594,0,0,0,.8-.557l.075-.061c.035-.03,4.237-3.859,4.395-4.031a3.159,3.159,0,0,0,.655-2.049,3.068,3.068,0,0,0-.37-1.579A2.8,2.8,0,0,0,31.323,3.511ZM30.114,6.4c-.218.214-4.035,3.7-4.235,3.882l-.155.128a1.651,1.651,0,0,1-.342.247,1.1,1.1,0,0,1-1.206-.189L22.5,8.92a4.645,4.645,0,0,0-1.113-.8,2,2,0,0,0-.8-.171,2.03,2.03,0,0,0-1.416.648L9.323,19.2a1.931,1.931,0,0,0-.355,1.743,3.206,3.206,0,0,0,.911,1.553l1.676,1.566a1.017,1.017,0,0,1,.259.4,1.176,1.176,0,0,1-.012.814,1.3,1.3,0,0,1-.188.315,1.178,1.178,0,0,0-.07.1c-.338.436-3.412,4.347-3.59,4.559a1.621,1.621,0,0,1-.453.223,1.291,1.291,0,0,1-.374.047.98.98,0,0,1-.246-.024,1.9,1.9,0,0,1-.458-.179c-.061-.061-.166-.188-.184-.209A15.483,15.483,0,0,1,3.32,25.455,6.62,6.62,0,0,1,2.9,23.4c-.094-3.446,4.034-9.146,7.6-12.979s8.945-8.365,12.391-8.524c2.484-.116,5.158,1.5,6.923,2.83l.068.051c.04.03.116.083.148.111a1.184,1.184,0,0,1,.123.174,1.365,1.365,0,0,1,.095.506A2.832,2.832,0,0,1,30.114,6.4Z" transform="translate(35.141 14.617) rotate(45)" fill="#fff"/>
  </g>
</svg>
