<svg xmlns="http://www.w3.org/2000/svg" width="27.12" height="26.654" viewBox="0 0 27.12 26.654">
  <g id="Change_Layout-Icon" data-name="Change Layout-Icon" transform="translate(105.474 0) rotate(90)">
    <g id="Group_5179" data-name="Group 5179" transform="translate(0 87.981)">
      <g id="Group_5178" data-name="Group 5178">
        <path id="Path_30521" data-name="Path 30521" d="M6.558,87.981h-5A1.563,1.563,0,0,0,0,89.543v5A1.563,1.563,0,0,0,1.562,96.1h5a1.563,1.563,0,0,0,1.562-1.562v-5A1.563,1.563,0,0,0,6.558,87.981Zm0,6.558h-5v-5h5v5Z" transform="translate(0 -87.981)" fill="#142f51"/>
      </g>
    </g>
    <g id="Group_5181" data-name="Group 5181" transform="translate(9.267 87.981)">
      <g id="Group_5180" data-name="Group 5180">
        <path id="Path_30522" data-name="Path 30522" d="M193.84,87.981H179.577a1.563,1.563,0,0,0-1.562,1.562v5a1.563,1.563,0,0,0,1.562,1.562H193.84a1.563,1.563,0,0,0,1.562-1.562v-5A1.563,1.563,0,0,0,193.84,87.981Zm0,6.558H179.577v-5H193.84v5Z" transform="translate(-178.015 -87.981)" fill="#142f51"/>
      </g>
    </g>
    <g id="Group_5183" data-name="Group 5183" transform="translate(0 97.355)">
      <g id="Group_5182" data-name="Group 5182">
        <path id="Path_30523" data-name="Path 30523" d="M15.825,268.049H1.562A1.563,1.563,0,0,0,0,269.611v5a1.563,1.563,0,0,0,1.562,1.562H15.825a1.563,1.563,0,0,0,1.562-1.562v-5A1.563,1.563,0,0,0,15.825,268.049Zm0,6.558H1.562v-5H15.825v5Z" transform="translate(0 -268.049)" fill="#142f51"/>
      </g>
    </g>
    <g id="Group_5186" data-name="Group 5186" transform="translate(26.653 86.474) rotate(180)">
      <g id="Group_5182-2" data-name="Group 5182">
        <path id="Path_30523-2" data-name="Path 30523" d="M10.827,268.049H1.069c-.589,0-1.069.7-1.069,1.562v5c0,.861.479,1.562,1.069,1.562h9.758c.589,0,1.069-.7,1.069-1.562v-5C11.9,268.75,11.416,268.049,10.827,268.049Zm0,6.558H1.069v-5h9.758v5Z" transform="translate(0 -268.049)" fill="#142f51"/>
      </g>
    </g>
    <g id="Group_5185" data-name="Group 5185" transform="translate(18.534 97.355)">
      <g id="Group_5184" data-name="Group 5184">
        <path id="Path_30524" data-name="Path 30524" d="M362.588,268.049h-5a1.563,1.563,0,0,0-1.562,1.562v5a1.563,1.563,0,0,0,1.562,1.562h5a1.563,1.563,0,0,0,1.562-1.562v-5A1.563,1.563,0,0,0,362.588,268.049Zm0,6.558h-5v-5h5v5Z" transform="translate(-356.03 -268.049)" fill="#142f51"/>
      </g>
    </g>
    <g id="Group_5187" data-name="Group 5187" transform="translate(12.945 86.474) rotate(180)">
      <g id="Group_5184-2" data-name="Group 5184">
        <path id="Path_30524-2" data-name="Path 30524" d="M366.485,268.049H358.52c-1.373,0-2.49.7-2.49,1.562v5c0,.861,1.117,1.562,2.49,1.562h7.966c1.373,0,2.49-.7,2.49-1.562v-5C368.975,268.75,367.858,268.049,366.485,268.049Zm0,6.558H358.52v-5h7.966l0,5Z" transform="translate(-356.03 -268.049)" fill="#142f51"/>
      </g>
    </g>
  </g>
</svg>
