<svg id="Chat-Icon" xmlns="http://www.w3.org/2000/svg" width="17.493" height="17.061" viewBox="0 0 17.493 17.061">
  <g id="_017-closed-caption" data-name="017-closed-caption" transform="translate(0 0)">
    <path id="Path_30482" data-name="Path 30482" d="M16.3.007H1.2A1.183,1.183,0,0,0,0,1.173V12.011a1.183,1.183,0,0,0,1.2,1.166h4.69a.17.17,0,0,1,.152.091l1.642,3.16a1.21,1.21,0,0,0,2.133,0l1.642-3.16a.17.17,0,0,1,.152-.091H16.3a1.183,1.183,0,0,0,1.2-1.166V1.173A1.183,1.183,0,0,0,16.3.007Zm.171,12a.169.169,0,0,1-.171.167h-4.69a1.194,1.194,0,0,0-1.067.639L8.9,15.977a.172.172,0,0,1-.3,0l-1.642-3.16a1.194,1.194,0,0,0-1.067-.639H1.2a.169.169,0,0,1-.171-.167V1.173A.169.169,0,0,1,1.2,1.007H16.3a.169.169,0,0,1,.171.167Z" transform="translate(0 -0.007)" fill="#142f51"/>
  </g>
</svg>
