<svg xmlns="http://www.w3.org/2000/svg" xmlns:xlink="http://www.w3.org/1999/xlink" width="130" height="129" viewBox="0 0 130 129">
  <defs>
    <filter id="Rectangle_979" x="0" y="0" width="130" height="129" filterUnits="userSpaceOnUse">
      <feOffset dy="3" input="SourceAlpha"/>
      <feGaussianBlur stdDeviation="3" result="blur"/>
      <feFlood flood-opacity="0.161"/>
      <feComposite operator="in" in2="blur"/>
      <feComposite in="SourceGraphic"/>
    </filter>
    <filter id="Rectangle_980" x="11" y="11" width="108" height="107" filterUnits="userSpaceOnUse">
      <feOffset dy="3" input="SourceAlpha"/>
      <feGaussianBlur stdDeviation="3" result="blur-2"/>
      <feFlood flood-opacity="0.161"/>
      <feComposite operator="in" in2="blur-2"/>
      <feComposite in="SourceGraphic"/>
    </filter>
  </defs>
  <g id="Group_4571" data-name="Group 4571" transform="translate(9.419 5.583)">
    <g transform="matrix(1, 0, 0, 1, -9.42, -5.58)" filter="url(#Rectangle_979)">
      <rect id="Rectangle_979-2" data-name="Rectangle 979" width="112" height="111" rx="10" transform="translate(9 6)" fill="#fff"/>
    </g>
    <g id="Group_4570" data-name="Group 4570" transform="translate(11.057 11.057)">
      <g transform="matrix(1, 0, 0, 1, -20.48, -16.64)" filter="url(#Rectangle_980)">
        <rect id="Rectangle_980-2" data-name="Rectangle 980" width="90" height="89" rx="10" transform="translate(20 17)" fill="#2d8cff"/>
      </g>
      <g id="user" transform="translate(20.271 15.664)">
        <path id="Path_2897" data-name="Path 2897" d="M54.322,40.621V34.58A12.08,12.08,0,0,0,42.241,22.5H18.08A12.08,12.08,0,0,0,6,34.58v6.04" transform="translate(-6 13.741)" fill="none" stroke="#fff" stroke-linecap="round" stroke-linejoin="round" stroke-width="4"/>
        <path id="Path_2898" data-name="Path 2898" d="M36.161,16.58A12.08,12.08,0,1,1,24.08,4.5,12.08,12.08,0,0,1,36.161,16.58Z" transform="translate(0.08 -4.5)" fill="none" stroke="#fff" stroke-linecap="round" stroke-linejoin="round" stroke-width="4"/>
      </g>
    </g>
  </g>
</svg>
