<svg id="Your_Entire_Screen-Icon" data-name="Your Entire Screen-Icon" xmlns="http://www.w3.org/2000/svg" width="27.953" height="27.953" viewBox="0 0 27.953 27.953">
  <g id="Group_5191" data-name="Group 5191">
    <g id="Group_5190" data-name="Group 5190">
      <path id="Path_30526" data-name="Path 30526" d="M25.412,0H2.541A2.544,2.544,0,0,0,0,2.541V25.412a2.544,2.544,0,0,0,2.541,2.541H25.412a2.544,2.544,0,0,0,2.541-2.541V2.541A2.544,2.544,0,0,0,25.412,0Zm1.271,25.412a1.272,1.272,0,0,1-1.271,1.271H2.541a1.272,1.272,0,0,1-1.271-1.271V6.353H26.682Zm0-20.33H1.271V2.541A1.272,1.272,0,0,1,2.541,1.271H25.412a1.272,1.272,0,0,1,1.271,1.271V5.082Z" fill="#142f51"/>
      <circle id="Ellipse_276" data-name="Ellipse 276" cx="0.635" cy="0.635" r="0.635" transform="translate(2.541 2.541)" fill="#142f51"/>
      <circle id="Ellipse_277" data-name="Ellipse 277" cx="0.635" cy="0.635" r="0.635" transform="translate(5.082 2.541)" fill="#142f51"/>
      <circle id="Ellipse_278" data-name="Ellipse 278" cx="0.635" cy="0.635" r="0.635" transform="translate(7.624 2.541)" fill="#142f51"/>
    </g>
  </g>
</svg>
