<svg id="facebook" xmlns="http://www.w3.org/2000/svg" width="32.444" height="32.444" viewBox="0 0 32.444 32.444">
  <path id="Path_6" data-name="Path 6" d="M296.064,508.668q-2.595.423-5.209.779Q293.469,509.091,296.064,508.668Zm0,0" transform="translate(-275.187 -478.926)" fill="rgba(255,255,255,0.7)"/>
  <path id="Path_7" data-name="Path 7" d="M301.82,507.793c-.827.152-1.654.292-2.481.434C300.166,508.085,300.993,507.945,301.82,507.793Zm0,0" transform="translate(-281.716 -478.761)" fill="rgba(255,255,255,0.7)"/>
  <path id="Path_8" data-name="Path 8" d="M283.715,510.34q-3.037.342-6.105.6Q280.675,510.685,283.715,510.34Zm0,0" transform="translate(-263.115 -479.242)" fill="rgba(255,255,255,0.7)"/>
  <path id="Path_9" data-name="Path 9" d="M289.373,509.738c-.973.13-1.952.25-2.928.364C287.422,509.988,288.4,509.868,289.373,509.738Zm0,0" transform="translate(-269.815 -479.128)" fill="rgba(255,255,255,0.7)"/>
  <path id="Path_10" data-name="Path 10" d="M308.856,506.41c-.729.155-1.461.31-2.193.459C307.4,506.721,308.128,506.565,308.856,506.41Zm0,0" transform="translate(-288.448 -478.5)" fill="rgba(255,255,255,0.7)"/>
  <path id="Path_11" data-name="Path 11" d="M326.252,502.113c-.589.168-1.179.326-1.768.491C325.074,502.439,325.663,502.281,326.252,502.113Zm0,0" transform="translate(-304.96 -477.688)" fill="rgba(255,255,255,0.7)"/>
  <path id="Path_12" data-name="Path 12" d="M320.985,503.543c-.64.168-1.283.339-1.926.5Q320.024,503.8,320.985,503.543Zm0,0" transform="translate(-299.953 -477.958)" fill="rgba(255,255,255,0.7)"/>
  <path id="Path_13" data-name="Path 13" d="M314.113,505.254c-.678.158-1.362.307-2.047.459C312.751,505.561,313.435,505.412,314.113,505.254Zm0,0" transform="translate(-293.447 -478.281)" fill="rgba(255,255,255,0.7)"/>
  <path id="Path_14" data-name="Path 14" d="M276.763,511.09q-1.64.138-3.282.247Q275.125,511.228,276.763,511.09Zm0,0" transform="translate(-257.78 -479.384)" fill="rgba(255,255,255,0.7)"/>
  <path id="Path_15" data-name="Path 15" d="M32.444,16.222A16.222,16.222,0,1,0,16.222,32.444c.1,0,.19,0,.285,0V19.812H13.022V15.751h3.485V12.762c0-3.466,2.116-5.353,5.208-5.353a28.69,28.69,0,0,1,3.125.16v3.623H22.708c-1.682,0-2.008.8-2.008,1.973v2.587h4.022L24.2,19.812H20.7V31.818a16.231,16.231,0,0,0,11.744-15.6Zm0,0" fill="rgba(255,255,255,0.7)"/>
  <path id="Path_16" data-name="Path 16" d="M271.4,511.43q-3.241.209-6.508.323Q268.156,511.644,271.4,511.43Zm0,0" transform="translate(-251.258 -479.448)" fill="rgba(255,255,255,0.7)"/>
  <path id="Path_17" data-name="Path 17" d="M263.951,511.836q-1.72.057-3.447.086Q262.229,511.893,263.951,511.836Zm0,0" transform="translate(-245.627 -479.525)" fill="rgba(255,255,255,0.7)"/>
</svg>
