<svg xmlns="http://www.w3.org/2000/svg" width="87.04" height="82.262" viewBox="0 0 87.04 82.262">
  <g id="Group_423" data-name="Group 423" transform="translate(-269.094 -1451.015)">
    <g id="Group_419" data-name="Group 419" transform="translate(269.094 1451.015)" opacity="0.13">
      <g id="Group_373" data-name="Group 373" transform="translate(1.981 12.959)">
        <path id="Path_2897" data-name="Path 2897" d="M-991.521,838.591l-7.557,13.085A38.078,38.078,0,0,1-991.521,838.591Z" transform="translate(999.078 -838.591)" fill="#2d8cff"/>
      </g>
      <g id="Group_374" data-name="Group 374" transform="translate(0.213 7.319)">
        <path id="Path_2898" data-name="Path 2898" d="M-988.347,823.361l-15.506,26.859q.151-1.459.414-2.882l12.8-22.166C-989.9,824.535-989.136,823.934-988.347,823.361Z" transform="translate(1003.853 -823.361)" fill="#2d8cff"/>
      </g>
      <g id="Group_375" data-name="Group 375" transform="translate(0 4.448)">
        <path id="Path_2899" data-name="Path 2899" d="M-984.123,815.609l-20.279,35.122c-.018-.45-.025-.9-.025-1.354,0-.259,0-.518.007-.778l18.442-31.941C-985.37,816.29-984.754,815.94-984.123,815.609Z" transform="translate(1004.427 -815.609)" fill="#2d8cff"/>
      </g>
      <g id="Group_376" data-name="Group 376" transform="translate(0.202 2.615)">
        <path id="Path_2900" data-name="Path 2900" d="M-979.8,810.659l-23.862,41.327q-.13-.88-.223-1.772l22.439-38.868C-980.9,811.106-980.352,810.875-979.8,810.659Z" transform="translate(1003.882 -810.659)" fill="#2d8cff"/>
      </g>
      <g id="Group_377" data-name="Group 377" transform="translate(0.828 1.401)">
        <path id="Path_2901" data-name="Path 2901" d="M-975.1,807.381l-26.729,46.3q-.194-.767-.357-1.545l25.577-44.3C-976.116,807.673-975.612,807.522-975.1,807.381Z" transform="translate(1002.19 -807.381)" fill="#2d8cff"/>
      </g>
      <g id="Group_378" data-name="Group 378" transform="translate(1.74 0.623)">
        <path id="Path_2902" data-name="Path 2902" d="M-970.18,805.28l-29.092,50.39c-.162-.454-.317-.907-.458-1.368l28.134-48.733C-971.128,805.46-970.656,805.363-970.18,805.28Z" transform="translate(999.73 -805.28)" fill="#2d8cff"/>
      </g>
      <g id="Group_379" data-name="Group 379" transform="translate(2.867 0.176)">
        <path id="Path_2903" data-name="Path 2903" d="M-965.08,804.074l-31.073,53.819c-.187-.407-.364-.821-.533-1.239l30.27-52.429C-965.973,804.168-965.526,804.117-965.08,804.074Z" transform="translate(996.686 -804.074)" fill="#2d8cff"/>
      </g>
      <g id="Group_380" data-name="Group 380" transform="translate(4.164)">
        <path id="Path_2904" data-name="Path 2904" d="M-959.845,803.6l-32.737,56.7c-.209-.371-.407-.742-.6-1.12l32.067-55.541C-960.7,803.62-960.27,803.605-959.845,803.6Z" transform="translate(993.184 -803.598)" fill="#2d8cff"/>
      </g>
      <g id="Group_381" data-name="Group 381" transform="translate(5.604 0.004)">
        <path id="Path_2905" data-name="Path 2905" d="M-954.5,803.662l-34.135,59.124c-.223-.339-.443-.681-.656-1.03l33.573-58.148C-955.314,803.619-954.907,803.637-954.5,803.662Z" transform="translate(989.294 -803.608)" fill="#2d8cff"/>
      </g>
      <g id="Group_382" data-name="Group 382" transform="translate(7.171 0.18)">
        <path id="Path_2906" data-name="Path 2906" d="M-949.059,804.214l-35.3,61.145c-.241-.31-.476-.627-.7-.947l34.83-60.327C-949.841,804.12-949.448,804.163-949.059,804.214Z" transform="translate(985.063 -804.084)" fill="#2d8cff"/>
      </g>
      <g id="Group_383" data-name="Group 383" transform="translate(8.85 0.544)">
        <path id="Path_2907" data-name="Path 2907" d="M-943.537,805.279l-36.249,62.784c-.256-.284-.5-.576-.745-.868l35.871-62.128C-944.282,805.131-943.908,805.2-943.537,805.279Z" transform="translate(980.531 -805.066)" fill="#2d8cff"/>
      </g>
      <g id="Group_384" data-name="Group 384" transform="translate(10.626 1.088)">
        <path id="Path_2908" data-name="Path 2908" d="M-937.946,806.816l-37,64.091c-.267-.263-.53-.526-.789-.8l36.706-63.576C-938.666,806.621-938.306,806.715-937.946,806.816Z" transform="translate(975.736 -806.535)" fill="#2d8cff"/>
      </g>
      <g id="Group_385" data-name="Group 385" transform="translate(12.498 1.794)">
        <path id="Path_2909" data-name="Path 2909" d="M-932.283,808.794l-37.567,65.071c-.281-.238-.558-.483-.828-.731l37.347-64.693C-932.979,808.553-932.629,808.668-932.283,808.794Z" transform="translate(970.679 -808.441)" fill="#2d8cff"/>
      </g>
      <g id="Group_386" data-name="Group 386" transform="translate(14.462 2.658)">
        <path id="Path_2910" data-name="Path 2910" d="M-926.557,811.193l-37.96,65.744c-.292-.216-.576-.44-.861-.663l37.815-65.5C-927.224,810.908-926.889,811.049-926.557,811.193Z" transform="translate(965.378 -810.775)" fill="#2d8cff"/>
      </g>
      <g id="Group_387" data-name="Group 387" transform="translate(16.511 3.678)">
        <path id="Path_2911" data-name="Path 2911" d="M-920.769,814.007l-38.176,66.123c-.3-.194-.605-.4-.9-.605l38.1-66C-921.413,813.683-921.089,813.841-920.769,814.007Z" transform="translate(959.845 -813.528)" fill="#2d8cff"/>
      </g>
      <g id="Group_388" data-name="Group 388" transform="translate(18.643 4.841)">
        <path id="Path_2912" data-name="Path 2912" d="M-914.928,817.213l-38.222,66.2c-.317-.173-.627-.353-.937-.54l38.223-66.206C-915.548,816.846-915.238,817.026-914.928,817.213Z" transform="translate(954.087 -816.669)" fill="#2d8cff"/>
      </g>
      <g id="Group_389" data-name="Group 389" transform="translate(20.858 6.152)">
        <path id="Path_2913" data-name="Path 2913" d="M-909.03,820.814l-38.1,66c-.328-.155-.656-.314-.976-.479l38.176-66.123C-909.627,820.4-909.325,820.605-909.03,820.814Z" transform="translate(948.106 -820.209)" fill="#2d8cff"/>
      </g>
      <g id="Group_390" data-name="Group 390" transform="translate(23.164 7.607)">
        <path id="Path_2914" data-name="Path 2914" d="M-903.057,824.808l-37.816,65.5c-.339-.133-.677-.274-1.008-.418l37.96-65.748Q-903.484,824.468-903.057,824.808Z" transform="translate(941.881 -824.138)" fill="#2d8cff"/>
      </g>
      <g id="Group_391" data-name="Group 391" transform="translate(25.555 9.217)">
        <path id="Path_2915" data-name="Path 2915" d="M-897.031,829.214l-37.347,64.693c-.349-.112-.7-.227-1.044-.353l37.567-65.067C-897.579,828.72-897.305,828.965-897.031,829.214Z" transform="translate(935.423 -828.486)" fill="#2d8cff"/>
      </g>
      <g id="Group_392" data-name="Group 392" transform="translate(28.029 10.971)">
        <path id="Path_2916" data-name="Path 2916" d="M-890.951,834.022l-36.707,63.573c-.364-.086-.724-.18-1.084-.284l37-64.088Q-891.335,833.616-890.951,834.022Z" transform="translate(928.742 -833.222)" fill="#2d8cff"/>
      </g>
      <g id="Group_393" data-name="Group 393" transform="translate(30.605 12.891)">
        <path id="Path_2917" data-name="Path 2917" d="M-884.8,839.274-920.664,901.4c-.378-.061-.753-.133-1.124-.209l36.249-62.787C-885.287,838.69-885.039,838.982-884.8,839.274Z" transform="translate(921.788 -838.406)" fill="#2d8cff"/>
      </g>
      <g id="Group_394" data-name="Group 394" transform="translate(33.27 14.976)">
        <path id="Path_2918" data-name="Path 2918" d="M-878.587,844.984l-34.83,60.327c-.393-.036-.785-.079-1.174-.13l35.3-61.145C-879.048,844.347-878.814,844.664-878.587,844.984Z" transform="translate(914.591 -844.037)" fill="#2d8cff"/>
      </g>
      <g id="Group_395" data-name="Group 395" transform="translate(36.051 17.249)">
        <path id="Path_2919" data-name="Path 2919" d="M-872.293,851.2l-33.573,58.148c-.407-.011-.814-.029-1.217-.054l34.135-59.124C-872.721,850.513-872.5,850.855-872.293,851.2Z" transform="translate(907.083 -850.174)" fill="#2d8cff"/>
      </g>
      <g id="Group_396" data-name="Group 396" transform="translate(38.946 19.727)">
        <path id="Path_2920" data-name="Path 2920" d="M-865.929,857.985l-32.064,55.54c-.421.021-.847.036-1.272.043l32.737-56.7C-866.318,857.236-866.12,857.607-865.929,857.985Z" transform="translate(899.264 -856.865)" fill="#2d8cff"/>
      </g>
      <g id="Group_397" data-name="Group 397" transform="translate(41.972 22.436)">
        <path id="Path_2921" data-name="Path 2921" d="M-859.484,865.415l-30.273,52.432c-.443.058-.886.108-1.336.151l31.073-53.819C-859.834,864.586-859.654,865-859.484,865.415Z" transform="translate(891.094 -864.179)" fill="#2d8cff"/>
      </g>
      <g id="Group_398" data-name="Group 398" transform="translate(45.156 25.418)">
        <path id="Path_2922" data-name="Path 2922" d="M-852.943,873.6l-28.138,48.737c-.468.108-.94.205-1.415.288l29.1-50.39C-853.238,872.682-853.087,873.14-852.943,873.6Z" transform="translate(882.496 -872.232)" fill="#2d8cff"/>
      </g>
      <g id="Group_399" data-name="Group 399" transform="translate(48.535 28.732)">
        <path id="Path_2923" data-name="Path 2923" d="M-846.288,882.721l-25.577,44.3c-.5.166-1,.317-1.509.457l26.729-46.3C-846.515,881.691-846.4,882.2-846.288,882.721Z" transform="translate(873.374 -881.18)" fill="#2d8cff"/>
      </g>
      <g id="Group_400" data-name="Group 400" transform="translate(52.158 32.485)">
        <path id="Path_2924" data-name="Path 2924" d="M-839.5,893.086l-22.44,38.871c-.544.245-1.091.472-1.646.691l23.866-41.334C-839.638,891.9-839.562,892.492-839.5,893.086Z" transform="translate(863.59 -891.314)" fill="#2d8cff"/>
      </g>
      <g id="Group_401" data-name="Group 401" transform="translate(56.142 36.857)">
        <path id="Path_2925" data-name="Path 2925" d="M-832.526,904.478c0,.26,0,.519-.007.774L-850.978,937.2q-.908.551-1.855,1.048l20.282-35.125C-832.533,903.57-832.526,904.024-832.526,904.478Z" transform="translate(852.833 -903.12)" fill="#2d8cff"/>
      </g>
      <g id="Group_402" data-name="Group 402" transform="translate(60.723 42.246)">
        <path id="Path_2926" data-name="Path 2926" d="M-824.949,917.67q-.151,1.459-.414,2.878l-12.8,22.18q-1.108.951-2.294,1.812Z" transform="translate(840.462 -917.67)" fill="#2d8cff"/>
      </g>
      <g id="Group_403" data-name="Group 403" transform="translate(66.908 50.375)">
        <path id="Path_2927" data-name="Path 2927" d="M-816.2,939.621a38.153,38.153,0,0,1-7.564,13.1Z" transform="translate(823.763 -939.621)" fill="#2d8cff"/>
      </g>
    </g>
    <g id="writing" transform="translate(289.886 1466.227)">
      <path id="Path_9536" data-name="Path 9536" d="M18.085,43.953A30.876,30.876,0,0,1,56.467,14,30.879,30.879,0,1,0,33.74,70.818,30.859,30.859,0,0,1,18.085,43.953Zm0,0" transform="translate(-8.419 -8.443)" fill="#d4e1f4"/>
      <path id="Path_9537" data-name="Path 9537" d="M32.825,0A32.423,32.423,0,1,0,43.679,62.962L61.2,66.034a1.589,1.589,0,0,0,.262.016,1.55,1.55,0,0,0,1.42-2.146L58.115,52.679A32.4,32.4,0,0,0,32.825,0ZM60.153,43.107a29.222,29.222,0,0,1-5,8.307,1.525,1.525,0,0,0-.247,1.605l4.029,9.48L43.8,59.858a1.467,1.467,0,0,0-.262-.015,1.6,1.6,0,0,0-.54.092A29.294,29.294,0,1,1,60.153,43.107Zm0,0" transform="translate(0)" fill="#2d8cff" stroke="#2d8cff" stroke-width="2"/>
      <g id="Group_430" data-name="Group 430" transform="translate(14.621 27.992)">
        <path id="Path_9538" data-name="Path 9538" d="M268.135,181.3a5.033,5.033,0,1,0,5.033,5.033A5.033,5.033,0,0,0,268.135,181.3Zm0,6.978a1.945,1.945,0,1,1,1.945-1.946A1.945,1.945,0,0,1,268.135,188.279Zm0,0" transform="translate(-236.762 -181.301)" fill="#1ae5be"/>
        <path id="Path_9539" data-name="Path 9539" d="M182.834,181.3a5.033,5.033,0,1,0,5.033,5.033A5.033,5.033,0,0,0,182.834,181.3Zm0,6.978a1.945,1.945,0,1,1,1.945-1.946A1.945,1.945,0,0,1,182.834,188.279Zm0,0" transform="translate(-164.631 -181.301)" fill="#1ae5be"/>
        <path id="Path_9540" data-name="Path 9540" d="M97.534,181.3a5.033,5.033,0,1,0,5.033,5.033A5.033,5.033,0,0,0,97.534,181.3Zm0,6.978a1.945,1.945,0,1,1,1.946-1.946A1.946,1.946,0,0,1,97.534,188.279Zm0,0" transform="translate(-92.5 -181.301)" fill="#1ae5be"/>
      </g>
    </g>
  </g>
</svg>
