<svg xmlns="http://www.w3.org/2000/svg" xmlns:xlink="http://www.w3.org/1999/xlink" width="112.345" height="116.822" viewBox="0 0 112.345 116.822">
  <defs>
    <clipPath id="clip-path">
      <rect id="Rectangle_898" data-name="Rectangle 898" width="42.719" height="71.488" fill="#fff"/>
    </clipPath>
  </defs>
  <g id="Group_3887" data-name="Group 3887" transform="translate(0)">
    <g id="Group_3887-2" data-name="Group 3887" transform="translate(0)">
      <g id="Group_3885" data-name="Group 3885">
        <g id="Group_3883" data-name="Group 3883">
          <g id="Group_3876" data-name="Group 3876">
            <g id="Group_419" data-name="Group 419" opacity="0.13">
              <g id="Group_373" data-name="Group 373" transform="translate(2.444 15.992)">
                <path id="Path_2897" data-name="Path 2897" d="M-989.753,838.591l-9.325,16.147A46.987,46.987,0,0,1-989.753,838.591Z" transform="translate(999.078 -838.591)" fill="#2d8cff"/>
              </g>
              <g id="Group_374" data-name="Group 374" transform="translate(0.262 9.032)">
                <path id="Path_2898" data-name="Path 2898" d="M-984.719,823.361l-19.134,33.143q.186-1.8.511-3.556l15.8-27.352C-986.635,824.81-985.693,824.068-984.719,823.361Z" transform="translate(1003.853 -823.361)" fill="#2d8cff"/>
              </g>
              <g id="Group_375" data-name="Group 375" transform="translate(0 5.489)">
                <path id="Path_2899" data-name="Path 2899" d="M-979.373,815.609l-25.023,43.339c-.022-.555-.031-1.111-.031-1.671,0-.32,0-.64.009-.96l22.757-39.415C-980.911,816.449-980.151,816.018-979.373,815.609Z" transform="translate(1004.427 -815.609)" fill="#2d8cff"/>
              </g>
              <g id="Group_376" data-name="Group 376" transform="translate(0.249 3.227)">
                <path id="Path_2900" data-name="Path 2900" d="M-974.161,810.659l-29.445,51c-.107-.724-.2-1.453-.276-2.187l27.689-47.962C-975.526,811.21-974.846,810.926-974.161,810.659Z" transform="translate(1003.882 -810.659)" fill="#2d8cff"/>
              </g>
              <g id="Group_377" data-name="Group 377" transform="translate(1.022 1.729)">
                <path id="Path_2901" data-name="Path 2901" d="M-968.767,807.381l-32.983,57.131q-.24-.947-.44-1.907l31.561-54.659C-970.016,807.741-969.393,807.555-968.767,807.381Z" transform="translate(1002.19 -807.381)" fill="#2d8cff"/>
              </g>
              <g id="Group_378" data-name="Group 378" transform="translate(2.147 0.769)">
                <path id="Path_2902" data-name="Path 2902" d="M-963.266,805.28l-35.9,62.18c-.2-.56-.391-1.12-.565-1.689l34.717-60.135C-964.436,805.5-963.853,805.383-963.266,805.28Z" transform="translate(999.73 -805.28)" fill="#2d8cff"/>
              </g>
              <g id="Group_379" data-name="Group 379" transform="translate(3.538 0.218)">
                <path id="Path_2903" data-name="Path 2903" d="M-957.685,804.074l-38.343,66.411c-.231-.5-.449-1.013-.658-1.529l37.353-64.7C-958.787,804.19-958.236,804.128-957.685,804.074Z" transform="translate(996.686 -804.074)" fill="#2d8cff"/>
              </g>
              <g id="Group_380" data-name="Group 380" transform="translate(5.138)">
                <path id="Path_2904" data-name="Path 2904" d="M-952.045,803.6l-40.4,69.971c-.258-.458-.5-.916-.742-1.382l39.57-68.536C-953.094,803.625-952.569,803.607-952.045,803.6Z" transform="translate(993.184 -803.598)" fill="#2d8cff"/>
              </g>
              <g id="Group_381" data-name="Group 381" transform="translate(6.916 0.005)">
                <path id="Path_2905" data-name="Path 2905" d="M-946.364,803.674l-42.121,72.958c-.276-.418-.547-.84-.809-1.271l41.428-71.753C-947.364,803.621-946.862,803.643-946.364,803.674Z" transform="translate(989.294 -803.608)" fill="#2d8cff"/>
              </g>
              <g id="Group_382" data-name="Group 382" transform="translate(8.849 0.222)">
                <path id="Path_2906" data-name="Path 2906" d="M-940.635,804.244-984.2,879.7c-.3-.382-.587-.773-.866-1.169l42.979-74.442C-941.6,804.128-941.115,804.182-940.635,804.244Z" transform="translate(985.063 -804.084)" fill="#2d8cff"/>
              </g>
              <g id="Group_383" data-name="Group 383" transform="translate(10.92 0.671)">
                <path id="Path_2907" data-name="Path 2907" d="M-934.881,805.328l-44.73,77.474c-.315-.351-.622-.711-.92-1.071l44.264-76.665C-935.8,805.146-935.339,805.231-934.881,805.328Z" transform="translate(980.531 -805.066)" fill="#2d8cff"/>
              </g>
              <g id="Group_384" data-name="Group 384" transform="translate(13.112 1.342)">
                <path id="Path_2908" data-name="Path 2908" d="M-929.1,806.882l-45.659,79.087c-.329-.324-.653-.649-.973-.982l45.295-78.451C-929.993,806.642-929.548,806.757-929.1,806.882Z" transform="translate(975.736 -806.535)" fill="#2d8cff"/>
              </g>
              <g id="Group_385" data-name="Group 385" transform="translate(15.423 2.213)">
                <path id="Path_2909" data-name="Path 2909" d="M-923.3,808.877l-46.357,80.3c-.347-.293-.689-.6-1.022-.9l46.086-79.829C-924.158,808.579-923.726,808.721-923.3,808.877Z" transform="translate(970.679 -808.441)" fill="#2d8cff"/>
              </g>
              <g id="Group_386" data-name="Group 386" transform="translate(17.845 3.28)">
                <path id="Path_2910" data-name="Path 2910" d="M-917.474,811.291l-46.842,81.127c-.36-.266-.711-.542-1.062-.818l46.663-80.825C-918.3,810.94-917.883,811.113-917.474,811.291Z" transform="translate(965.378 -810.775)" fill="#2d8cff"/>
              </g>
              <g id="Group_387" data-name="Group 387" transform="translate(20.374 4.538)">
                <path id="Path_2911" data-name="Path 2911" d="M-911.626,814.119l-47.108,81.594c-.373-.24-.747-.489-1.111-.747l47.019-81.438C-912.421,813.719-912.021,813.915-911.626,814.119Z" transform="translate(959.845 -813.528)" fill="#2d8cff"/>
              </g>
              <g id="Group_388" data-name="Group 388" transform="translate(23.005 5.973)">
                <path id="Path_2912" data-name="Path 2912" d="M-905.766,817.341l-47.166,81.691c-.391-.213-.774-.435-1.156-.666l47.166-81.7C-906.53,816.887-906.148,817.109-905.766,817.341Z" transform="translate(954.087 -816.669)" fill="#2d8cff"/>
              </g>
              <g id="Group_389" data-name="Group 389" transform="translate(25.738 7.591)">
                <path id="Path_2913" data-name="Path 2913" d="M-899.887,820.956-946.9,902.394c-.4-.192-.809-.387-1.2-.591L-901,820.209C-900.624,820.449-900.251,820.7-899.887,820.956Z" transform="translate(948.106 -820.209)" fill="#2d8cff"/>
              </g>
              <g id="Group_390" data-name="Group 390" transform="translate(28.583 9.387)">
                <path id="Path_2914" data-name="Path 2914" d="M-893.973,824.965l-46.664,80.82c-.418-.164-.836-.338-1.244-.515l46.841-81.132Q-894.5,824.545-893.973,824.965Z" transform="translate(941.881 -824.138)" fill="#2d8cff"/>
              </g>
              <g id="Group_391" data-name="Group 391" transform="translate(31.535 11.374)">
                <path id="Path_2915" data-name="Path 2915" d="M-888.049,829.384l-46.086,79.829c-.431-.138-.862-.28-1.289-.436l46.357-80.291C-888.724,828.775-888.387,829.077-888.049,829.384Z" transform="translate(935.423 -828.486)" fill="#2d8cff"/>
              </g>
              <g id="Group_392" data-name="Group 392" transform="translate(34.588 13.538)">
                <path id="Path_2916" data-name="Path 2916" d="M-882.109,834.209l-45.3,78.447c-.449-.106-.893-.222-1.338-.351l45.659-79.083Q-882.583,833.709-882.109,834.209Z" transform="translate(928.742 -833.222)" fill="#2d8cff"/>
              </g>
              <g id="Group_393" data-name="Group 393" transform="translate(37.766 15.907)">
                <path id="Path_2917" data-name="Path 2917" d="M-876.142,839.477l-44.26,76.665c-.467-.075-.929-.165-1.386-.258l44.73-77.478C-876.747,838.757-876.44,839.117-876.142,839.477Z" transform="translate(921.788 -838.406)" fill="#2d8cff"/>
              </g>
              <g id="Group_394" data-name="Group 394" transform="translate(41.055 18.48)">
                <path id="Path_2918" data-name="Path 2918" d="M-870.163,845.206l-42.98,74.442c-.484-.044-.969-.1-1.449-.16l43.561-75.451C-870.732,844.42-870.443,844.811-870.163,845.206Z" transform="translate(914.591 -844.037)" fill="#2d8cff"/>
              </g>
              <g id="Group_395" data-name="Group 395" transform="translate(44.486 21.285)">
                <path id="Path_2919" data-name="Path 2919" d="M-864.153,851.445-905.581,923.2c-.5-.013-1-.036-1.5-.067l42.121-72.958C-864.682,850.592-864.41,851.014-864.153,851.445Z" transform="translate(907.083 -850.174)" fill="#2d8cff"/>
              </g>
              <g id="Group_396" data-name="Group 396" transform="translate(48.059 24.343)">
                <path id="Path_2920" data-name="Path 2920" d="M-858.129,858.248l-39.566,68.536c-.52.026-1.045.044-1.569.053l40.4-69.971C-858.609,857.323-858.365,857.781-858.129,858.248Z" transform="translate(899.264 -856.865)" fill="#2d8cff"/>
              </g>
              <g id="Group_397" data-name="Group 397" transform="translate(51.793 27.685)">
                <path id="Path_2921" data-name="Path 2921" d="M-852.089,865.7l-37.357,64.7c-.547.071-1.093.133-1.649.187l38.344-66.411C-852.52,864.681-852.3,865.188-852.089,865.7Z" transform="translate(891.094 -864.179)" fill="#2d8cff"/>
              </g>
              <g id="Group_398" data-name="Group 398" transform="translate(55.722 31.365)">
                <path id="Path_2922" data-name="Path 2922" d="M-846.028,873.917l-34.721,60.14c-.578.133-1.16.253-1.747.355l35.9-62.18C-846.393,872.788-846.206,873.352-846.028,873.917Z" transform="translate(882.496 -872.232)" fill="#2d8cff"/>
              </g>
              <g id="Group_399" data-name="Group 399" transform="translate(59.891 35.455)">
                <path id="Path_2923" data-name="Path 2923" d="M-839.951,883.082l-31.561,54.664c-.613.2-1.235.391-1.862.564l32.983-57.13C-840.23,881.811-840.084,882.442-839.951,883.082Z" transform="translate(873.374 -881.18)" fill="#2d8cff"/>
              </g>
              <g id="Group_400" data-name="Group 400" transform="translate(64.362 40.086)">
                <path id="Path_2924" data-name="Path 2924" d="M-833.869,893.5l-27.69,47.966c-.671.3-1.347.582-2.031.853l29.45-51.006C-834.033,892.038-833.94,892.767-833.869,893.5Z" transform="translate(863.59 -891.314)" fill="#2d8cff"/>
              </g>
              <g id="Group_401" data-name="Group 401" transform="translate(69.278 45.481)">
                <path id="Path_2925" data-name="Path 2925" d="M-827.775,904.8c0,.32,0,.64-.009.956l-22.76,39.419q-1.12.68-2.289,1.293l25.027-43.344C-827.783,903.676-827.775,904.236-827.775,904.8Z" transform="translate(852.833 -903.12)" fill="#2d8cff"/>
              </g>
              <g id="Group_402" data-name="Group 402" transform="translate(74.931 52.13)">
                <path id="Path_2926" data-name="Path 2926" d="M-821.32,917.67q-.186,1.8-.511,3.551l-15.8,27.37q-1.367,1.173-2.831,2.236Z" transform="translate(840.462 -917.67)" fill="#2d8cff"/>
              </g>
              <g id="Group_403" data-name="Group 403" transform="translate(82.563 62.162)">
                <path id="Path_2927" data-name="Path 2927" d="M-814.429,939.621a47.078,47.078,0,0,1-9.334,16.169Z" transform="translate(823.763 -939.621)" fill="#2d8cff"/>
              </g>
            </g>
          </g>
        </g>
      </g>
    </g>
    <g id="Group_3891" data-name="Group 3891" transform="translate(17.436 28.398)">
      <g id="Group_3888" data-name="Group 3888" transform="translate(17.082 0)">
        <path id="Path_9666" data-name="Path 9666" d="M15881.389,6528.167s2.673,1.441-3.085,19.333-11.312,20.977-11.312,20.977l-7.816,1.439-2.263-4.524h-10.692v31.466l-5.553-.823v-34.551l7.2-3.291,18.1,1.233s9.872-17.07,9.872-17.687-1.44-12.75-1.44-12.75Z" transform="translate(-15838.61 -6525.916)" fill="#d4e1f4"/>
        <g id="Group_401-2" data-name="Group 401">
          <path id="Path_977" data-name="Path 977" d="M77.074,54.824a7.135,7.135,0,0,0-2.091-5.055,7.973,7.973,0,0,0,2.055-6.131,8.3,8.3,0,0,0-8.375-7.28H48.826c.983-2.983,2.556-8.452,2.556-12.846,0-6.966-5.919-12.846-9.634-12.846a10.086,10.086,0,0,0-5.819,1.956,1.607,1.607,0,0,0-.6,1.256v10.89L26.073,44.8l-.382.2v-.613a1.606,1.606,0,0,0-1.606-1.606H8.028A8.036,8.036,0,0,0,0,50.81V76.5A8.036,8.036,0,0,0,8.028,84.53h9.634a8.047,8.047,0,0,0,7.556-5.308,20.935,20.935,0,0,0,8.5,2.1H63.2a7.387,7.387,0,0,0,7.277-5.607,7.249,7.249,0,0,0-.578-4.827,7.2,7.2,0,0,0,3.215-9.634A7.2,7.2,0,0,0,77.074,54.824ZM70.3,58.787a1.605,1.605,0,0,0-.918,2.765,3.979,3.979,0,0,1-2.29,6.869,1.605,1.605,0,0,0-.918,2.765,3.971,3.971,0,0,1,1.163,3.831,4.155,4.155,0,0,1-4.14,3.089H33.72c-2.608,0-6.982-1.224-8.5-2.743A1.608,1.608,0,0,0,22.48,76.5a4.823,4.823,0,0,1-4.817,4.817H8.028A4.823,4.823,0,0,1,3.211,76.5V50.81a4.823,4.823,0,0,1,4.817-4.817H22.48V47.6a1.613,1.613,0,0,0,.764,1.368,1.641,1.641,0,0,0,1.561.067l3.211-1.606a1.6,1.6,0,0,0,.739-.761l9.634-20.874a1.636,1.636,0,0,0,.148-.674V14.749a6.772,6.772,0,0,1,3.212-.87c1.76,0,6.423,4.374,6.423,9.634,0,5.652-3.076,13.8-3.105,13.88a1.6,1.6,0,0,0,1.5,2.177h22.1a5.07,5.07,0,0,1,5.177,4.364,4.8,4.8,0,0,1-2.286,4.544,1.608,1.608,0,0,0,.109,2.8A3.976,3.976,0,0,1,70.3,58.787Z" transform="translate(0 -10.667)" fill="#2d8cff"/>
          <path id="Path_9665" data-name="Path 9665" d="M77.074,54.824a7.135,7.135,0,0,0-2.091-5.055,7.973,7.973,0,0,0,2.055-6.131,8.3,8.3,0,0,0-8.375-7.28H48.826c.983-2.983,2.556-8.452,2.556-12.846,0-6.966-5.919-12.846-9.634-12.846a10.086,10.086,0,0,0-5.819,1.956,1.607,1.607,0,0,0-.6,1.256v10.89L26.073,44.8l-.382.2v-.613a1.606,1.606,0,0,0-1.606-1.606H8.028A8.036,8.036,0,0,0,0,50.81V76.5A8.036,8.036,0,0,0,8.028,84.53h9.634a8.047,8.047,0,0,0,7.556-5.308,20.935,20.935,0,0,0,8.5,2.1H63.2a7.387,7.387,0,0,0,7.277-5.607,7.249,7.249,0,0,0-.578-4.827,7.2,7.2,0,0,0,3.215-9.634A7.2,7.2,0,0,0,77.074,54.824ZM70.3,58.787a1.605,1.605,0,0,0-.918,2.765,3.979,3.979,0,0,1-2.29,6.869,1.605,1.605,0,0,0-.918,2.765,3.971,3.971,0,0,1,1.163,3.831,4.155,4.155,0,0,1-4.14,3.089H33.72c-2.608,0-6.982-1.224-8.5-2.743A1.608,1.608,0,0,0,22.48,76.5a4.823,4.823,0,0,1-4.817,4.817H8.028A4.823,4.823,0,0,1,3.211,76.5V50.81a4.823,4.823,0,0,1,4.817-4.817H22.48V47.6a1.613,1.613,0,0,0,.764,1.368,1.641,1.641,0,0,0,1.561.067l3.211-1.606a1.6,1.6,0,0,0,.739-.761l9.634-20.874a1.636,1.636,0,0,0,.148-.674V14.749a6.772,6.772,0,0,1,3.212-.87c1.76,0,6.423,4.374,6.423,9.634,0,5.652-3.076,13.8-3.105,13.88a1.6,1.6,0,0,0,1.5,2.177h22.1a5.07,5.07,0,0,1,5.177,4.364,4.8,4.8,0,0,1-2.286,4.544,1.608,1.608,0,0,0,.109,2.8A3.976,3.976,0,0,1,70.3,58.787Z" transform="translate(0 -10.667)" fill="#2d8cff" stroke="#2d8cff" stroke-width="1.5"/>
        </g>
      </g>
      <g id="Mask_Group_6" data-name="Mask Group 6" transform="translate(0 16.936)" clip-path="url(#clip-path)">
        <g id="Group_3889" data-name="Group 3889" transform="translate(17.082 -16.936)">
          <g id="Group_401-3" data-name="Group 401" transform="translate(0 0)">
            <path id="Path_977-2" data-name="Path 977" d="M77.074,54.824a7.135,7.135,0,0,0-2.091-5.055,7.973,7.973,0,0,0,2.055-6.131,8.3,8.3,0,0,0-8.375-7.28H48.826c.983-2.983,2.556-8.452,2.556-12.846,0-6.966-5.919-12.846-9.634-12.846a10.086,10.086,0,0,0-5.819,1.956,1.607,1.607,0,0,0-.6,1.256v10.89L26.073,44.8l-.382.2v-.613a1.606,1.606,0,0,0-1.606-1.606H8.028A8.036,8.036,0,0,0,0,50.81V76.5A8.036,8.036,0,0,0,8.028,84.53h9.634a8.047,8.047,0,0,0,7.556-5.308,20.935,20.935,0,0,0,8.5,2.1H63.2a7.387,7.387,0,0,0,7.277-5.607,7.249,7.249,0,0,0-.578-4.827,7.2,7.2,0,0,0,3.215-9.634A7.2,7.2,0,0,0,77.074,54.824ZM70.3,58.787a1.605,1.605,0,0,0-.918,2.765,3.979,3.979,0,0,1-2.29,6.869,1.605,1.605,0,0,0-.918,2.765,3.971,3.971,0,0,1,1.163,3.831,4.155,4.155,0,0,1-4.14,3.089H33.72c-2.608,0-6.982-1.224-8.5-2.743A1.608,1.608,0,0,0,22.48,76.5a4.823,4.823,0,0,1-4.817,4.817H8.028A4.823,4.823,0,0,1,3.211,76.5V50.81a4.823,4.823,0,0,1,4.817-4.817H22.48V47.6a1.613,1.613,0,0,0,.764,1.368,1.641,1.641,0,0,0,1.561.067l3.211-1.606a1.6,1.6,0,0,0,.739-.761l9.634-20.874a1.636,1.636,0,0,0,.148-.674V14.749a6.772,6.772,0,0,1,3.212-.87c1.76,0,6.423,4.374,6.423,9.634,0,5.652-3.076,13.8-3.105,13.88a1.6,1.6,0,0,0,1.5,2.177h22.1a5.07,5.07,0,0,1,5.177,4.364,4.8,4.8,0,0,1-2.286,4.544,1.608,1.608,0,0,0,.109,2.8A3.976,3.976,0,0,1,70.3,58.787Z" transform="translate(0 -10.667)" fill="#1ae5be"/>
            <path id="Path_9665-2" data-name="Path 9665" d="M77.074,54.824a7.135,7.135,0,0,0-2.091-5.055,7.973,7.973,0,0,0,2.055-6.131,8.3,8.3,0,0,0-8.375-7.28H48.826c.983-2.983,2.556-8.452,2.556-12.846,0-6.966-5.919-12.846-9.634-12.846a10.086,10.086,0,0,0-5.819,1.956,1.607,1.607,0,0,0-.6,1.256v10.89L26.073,44.8l-.382.2v-.613a1.606,1.606,0,0,0-1.606-1.606H8.028A8.036,8.036,0,0,0,0,50.81V76.5A8.036,8.036,0,0,0,8.028,84.53h9.634a8.047,8.047,0,0,0,7.556-5.308,20.935,20.935,0,0,0,8.5,2.1H63.2a7.387,7.387,0,0,0,7.277-5.607,7.249,7.249,0,0,0-.578-4.827,7.2,7.2,0,0,0,3.215-9.634A7.2,7.2,0,0,0,77.074,54.824ZM70.3,58.787a1.605,1.605,0,0,0-.918,2.765,3.979,3.979,0,0,1-2.29,6.869,1.605,1.605,0,0,0-.918,2.765,3.971,3.971,0,0,1,1.163,3.831,4.155,4.155,0,0,1-4.14,3.089H33.72c-2.608,0-6.982-1.224-8.5-2.743A1.608,1.608,0,0,0,22.48,76.5a4.823,4.823,0,0,1-4.817,4.817H8.028A4.823,4.823,0,0,1,3.211,76.5V50.81a4.823,4.823,0,0,1,4.817-4.817H22.48V47.6a1.613,1.613,0,0,0,.764,1.368,1.641,1.641,0,0,0,1.561.067l3.211-1.606a1.6,1.6,0,0,0,.739-.761l9.634-20.874a1.636,1.636,0,0,0,.148-.674V14.749a6.772,6.772,0,0,1,3.212-.87c1.76,0,6.423,4.374,6.423,9.634,0,5.652-3.076,13.8-3.105,13.88a1.6,1.6,0,0,0,1.5,2.177h22.1a5.07,5.07,0,0,1,5.177,4.364,4.8,4.8,0,0,1-2.286,4.544,1.608,1.608,0,0,0,.109,2.8A3.976,3.976,0,0,1,70.3,58.787Z" transform="translate(0 -10.667)" fill="#1ae5be" stroke="#1ae5be" stroke-width="1.6"/>
          </g>
        </g>
      </g>
    </g>
  </g>
</svg>
