<svg xmlns="http://www.w3.org/2000/svg" width="112.379" height="105.036" viewBox="0 0 112.379 105.036">
  <g id="Group_3892" data-name="Group 3892" transform="translate(0 0)">
    <g id="Group_3876" data-name="Group 3876" transform="translate(0)">
      <g id="Group_419" data-name="Group 419" opacity="0.38">
        <g id="Group_373" data-name="Group 373" transform="translate(2.515 16.453)">
          <path id="Path_2897" data-name="Path 2897" d="M-989.484,838.591l-9.594,16.613A48.346,48.346,0,0,1-989.484,838.591Z" transform="translate(999.078 -838.591)" fill="#3177cc"/>
        </g>
        <g id="Group_374" data-name="Group 374" transform="translate(0.27 9.292)">
          <path id="Path_2898" data-name="Path 2898" d="M-984.167,823.361l-19.686,34.1q.192-1.852.526-3.659l16.252-28.142C-986.138,824.852-985.168,824.088-984.167,823.361Z" transform="translate(1003.853 -823.361)" fill="#3177cc"/>
        </g>
        <g id="Group_375" data-name="Group 375" transform="translate(0 5.647)">
          <path id="Path_2899" data-name="Path 2899" d="M-978.649,815.609-1004.4,860.2c-.023-.571-.032-1.143-.032-1.719,0-.329,0-.658.009-.988L-981,816.94C-980.232,816.473-979.45,816.03-978.649,815.609Z" transform="translate(1004.427 -815.609)" fill="#3177cc"/>
        </g>
        <g id="Group_376" data-name="Group 376" transform="translate(0.256 3.32)">
          <path id="Path_2900" data-name="Path 2900" d="M-973.3,810.659l-30.3,52.469c-.11-.745-.206-1.5-.284-2.25l28.489-49.346C-974.707,811.226-974.008,810.933-973.3,810.659Z" transform="translate(1003.882 -810.659)" fill="#3177cc"/>
        </g>
        <g id="Group_377" data-name="Group 377" transform="translate(1.052 1.779)">
          <path id="Path_2901" data-name="Path 2901" d="M-967.8,807.381l-33.935,58.78q-.247-.974-.453-1.962l32.472-56.238C-969.087,807.751-968.446,807.56-967.8,807.381Z" transform="translate(1002.19 -807.381)" fill="#3177cc"/>
        </g>
        <g id="Group_378" data-name="Group 378" transform="translate(2.208 0.791)">
          <path id="Path_2902" data-name="Path 2902" d="M-962.214,805.28l-36.935,63.975c-.206-.576-.4-1.152-.581-1.737l35.719-61.872C-963.416,805.509-962.817,805.385-962.214,805.28Z" transform="translate(999.73 -805.28)" fill="#3177cc"/>
        </g>
        <g id="Group_379" data-name="Group 379" transform="translate(3.64 0.224)">
          <path id="Path_2903" data-name="Path 2903" d="M-956.559,804.074l-39.45,68.328c-.238-.517-.462-1.042-.677-1.573l38.431-66.563C-957.693,804.193-957.126,804.129-956.559,804.074Z" transform="translate(996.686 -804.074)" fill="#3177cc"/>
        </g>
        <g id="Group_380" data-name="Group 380" transform="translate(5.286)">
          <path id="Path_2904" data-name="Path 2904" d="M-950.857,803.6l-41.563,71.991c-.265-.471-.517-.942-.764-1.422l40.713-70.515C-951.937,803.625-951.4,803.607-950.857,803.6Z" transform="translate(993.184 -803.598)" fill="#3177cc"/>
        </g>
        <g id="Group_381" data-name="Group 381" transform="translate(7.115 0.005)">
          <path id="Path_2905" data-name="Path 2905" d="M-945.124,803.676l-43.338,75.064c-.283-.43-.562-.864-.832-1.308l42.624-73.825C-946.153,803.622-945.636,803.644-945.124,803.676Z" transform="translate(989.294 -803.608)" fill="#3177cc"/>
        </g>
        <g id="Group_382" data-name="Group 382" transform="translate(9.105 0.228)">
          <path id="Path_2906" data-name="Path 2906" d="M-939.352,804.249l-44.82,77.63c-.306-.393-.6-.8-.891-1.2l44.22-76.591C-940.345,804.13-939.846,804.185-939.352,804.249Z" transform="translate(985.063 -804.084)" fill="#3177cc"/>
        </g>
        <g id="Group_383" data-name="Group 383" transform="translate(11.236 0.69)">
          <path id="Path_2907" data-name="Path 2907" d="M-933.563,805.336l-46.022,79.71c-.324-.361-.64-.732-.946-1.1l45.542-78.878C-934.509,805.148-934.034,805.235-933.563,805.336Z" transform="translate(980.531 -805.066)" fill="#3177cc"/>
        </g>
        <g id="Group_384" data-name="Group 384" transform="translate(13.49 1.381)">
          <path id="Path_2908" data-name="Path 2908" d="M-927.757,806.892l-46.977,81.37c-.339-.334-.672-.668-1-1.01l46.6-80.717C-928.672,806.645-928.214,806.763-927.757,806.892Z" transform="translate(975.736 -806.535)" fill="#3177cc"/>
        </g>
        <g id="Group_385" data-name="Group 385" transform="translate(15.391 2.277)">
          <path id="Path_2909" data-name="Path 2909" d="M-921.932,808.889l-47.7,82.614c-.357-.3-.709-.613-1.052-.928l47.416-82.134C-922.815,808.583-922.371,808.729-921.932,808.889Z" transform="translate(970.679 -808.441)" fill="#3177cc"/>
        </g>
        <g id="Group_386" data-name="Group 386" transform="translate(17.802 3.375)">
          <path id="Path_2910" data-name="Path 2910" d="M-916.091,811.306l-48.194,83.469c-.371-.274-.731-.558-1.093-.841l48.011-83.159C-916.938,810.944-916.512,811.123-916.091,811.306Z" transform="translate(965.378 -810.775)" fill="#3177cc"/>
        </g>
        <g id="Group_387" data-name="Group 387" transform="translate(20.32 4.669)">
          <path id="Path_2911" data-name="Path 2911" d="M-910.233,814.136-958.7,898.086c-.384-.247-.768-.5-1.144-.768l48.377-83.789C-911.052,813.725-910.641,813.926-910.233,814.136Z" transform="translate(959.845 -813.528)" fill="#3177cc"/>
        </g>
        <g id="Group_388" data-name="Group 388" transform="translate(22.943 6.146)">
          <path id="Path_2912" data-name="Path 2912" d="M-904.37,817.36-952.9,901.41c-.4-.219-.8-.448-1.189-.685l48.528-84.055C-905.157,816.893-904.764,817.122-904.37,817.36Z" transform="translate(954.087 -816.669)" fill="#3177cc"/>
        </g>
        <g id="Group_389" data-name="Group 389" transform="translate(25.67 7.81)">
          <path id="Path_2913" data-name="Path 2913" d="M-898.494,820.977l-48.372,83.79c-.416-.2-.832-.4-1.239-.608l48.469-83.95C-899.253,820.456-898.87,820.712-898.494,820.977Z" transform="translate(948.106 -820.209)" fill="#3177cc"/>
        </g>
        <g id="Group_390" data-name="Group 390" transform="translate(28.514 9.658)">
          <path id="Path_2914" data-name="Path 2914" d="M-892.59,824.989-940.6,908.143c-.43-.169-.86-.348-1.28-.53l48.194-83.474Q-893.132,824.557-892.59,824.989Z" transform="translate(941.881 -824.138)" fill="#3177cc"/>
        </g>
        <g id="Group_391" data-name="Group 391" transform="translate(31.469 11.702)">
          <path id="Path_2915" data-name="Path 2915" d="M-886.681,829.41-934.1,911.544c-.443-.142-.887-.288-1.326-.448l47.7-82.61C-887.376,828.783-887.028,829.094-886.681,829.41Z" transform="translate(935.423 -828.486)" fill="#3177cc"/>
        </g>
        <g id="Group_392" data-name="Group 392" transform="translate(34.133 13.929)">
          <path id="Path_2916" data-name="Path 2916" d="M-880.763,834.237l-46.6,80.712c-.462-.109-.919-.229-1.376-.361l46.978-81.366Q-881.25,833.723-880.763,834.237Z" transform="translate(928.742 -833.222)" fill="#3177cc"/>
        </g>
        <g id="Group_393" data-name="Group 393" transform="translate(37.403 16.366)">
          <path id="Path_2917" data-name="Path 2917" d="M-874.824,839.508l-45.538,78.878c-.48-.078-.956-.169-1.426-.265l46.022-79.715C-875.446,838.767-875.131,839.138-874.824,839.508Z" transform="translate(921.788 -838.406)" fill="#3177cc"/>
        </g>
        <g id="Group_394" data-name="Group 394" transform="translate(40.787 19.014)">
          <path id="Path_2918" data-name="Path 2918" d="M-868.88,845.24-913.1,921.831c-.5-.046-1-.1-1.49-.165l44.819-77.63C-869.465,844.431-869.168,844.833-868.88,845.24Z" transform="translate(914.591 -844.037)" fill="#3177cc"/>
        </g>
        <g id="Group_395" data-name="Group 395" transform="translate(44.317 21.9)">
          <path id="Path_2919" data-name="Path 2919" d="M-862.913,851.482l-42.624,73.825c-.517-.014-1.033-.037-1.545-.069l43.337-75.064C-863.457,850.6-863.178,851.038-862.913,851.482Z" transform="translate(907.083 -850.174)" fill="#3177cc"/>
        </g>
        <g id="Group_396" data-name="Group 396" transform="translate(47.993 25.046)">
          <path id="Path_2920" data-name="Path 2920" d="M-856.941,858.288-897.649,928.8c-.535.027-1.075.045-1.615.054l41.564-71.991C-857.435,857.336-857.184,857.807-856.941,858.288Z" transform="translate(899.264 -856.865)" fill="#3177cc"/>
        </g>
        <g id="Group_397" data-name="Group 397" transform="translate(51.835 28.485)">
          <path id="Path_2921" data-name="Path 2921" d="M-850.962,865.748-889.4,932.315c-.562.073-1.125.137-1.7.192l39.451-68.328C-851.406,864.7-851.177,865.217-850.962,865.748Z" transform="translate(891.094 -864.179)" fill="#3177cc"/>
        </g>
        <g id="Group_398" data-name="Group 398" transform="translate(55.877 32.271)">
          <path id="Path_2922" data-name="Path 2922" d="M-844.975,873.965-880.7,935.841q-.892.206-1.8.366l36.94-63.975C-845.35,872.8-845.159,873.385-844.975,873.965Z" transform="translate(882.496 -872.232)" fill="#3177cc"/>
        </g>
        <g id="Group_399" data-name="Group 399" transform="translate(60.167 36.478)">
          <path id="Path_2923" data-name="Path 2923" d="M-838.986,883.137l-32.472,56.242c-.631.211-1.271.4-1.916.581l33.936-58.78C-839.274,881.829-839.123,882.479-838.986,883.137Z" transform="translate(873.374 -881.18)" fill="#3177cc"/>
        </g>
        <g id="Group_400" data-name="Group 400" transform="translate(64.767 41.243)">
          <path id="Path_2924" data-name="Path 2924" d="M-833.011,893.564-861.5,942.915c-.691.311-1.386.6-2.09.878l30.3-52.478C-833.18,892.059-833.084,892.809-833.011,893.564Z" transform="translate(863.59 -891.314)" fill="#3177cc"/>
        </g>
        <g id="Group_401" data-name="Group 401" transform="translate(69.825 46.794)">
          <path id="Path_2925" data-name="Path 2925" d="M-827.051,904.844c0,.33,0,.659-.009.983l-23.418,40.557q-1.152.7-2.355,1.331l25.75-44.6C-827.06,903.692-827.051,904.268-827.051,904.844Z" transform="translate(852.833 -903.12)" fill="#3177cc"/>
        </g>
        <g id="Group_402" data-name="Group 402" transform="translate(75.641 53.636)">
          <path id="Path_2926" data-name="Path 2926" d="M-820.767,917.67q-.192,1.852-.526,3.654l-16.257,28.16q-1.406,1.207-2.913,2.3Z" transform="translate(840.462 -917.67)" fill="#3177cc"/>
        </g>
        <g id="Group_403" data-name="Group 403" transform="translate(83.493 63.957)">
          <path id="Path_2927" data-name="Path 2927" d="M-814.16,939.621a48.44,48.44,0,0,1-9.6,16.636Z" transform="translate(823.763 -939.621)" fill="#3177cc"/>
        </g>
      </g>
    </g>
    <g id="global-network" transform="translate(28.771 21.428)">
      <g id="Group_3900" data-name="Group 3900" transform="translate(19.689 20.284)">
        <path id="Path_9669" data-name="Path 9669" d="M116.786,159.543a21.659,21.659,0,0,0-4.618,12.371h2.457a21.631,21.631,0,0,1,3.62-10.992q-.755-.657-1.46-1.379Zm0,0" transform="translate(-112.168 -151.822)" fill="#d4e1f4"/>
        <path id="Path_9670" data-name="Path 9670" d="M114.625,242.02h-2.457a21.657,21.657,0,0,0,4.618,12.371q.7-.723,1.46-1.378A21.634,21.634,0,0,1,114.625,242.02Zm0,0" transform="translate(-112.168 -219.822)" fill="#d4e1f4"/>
        <path id="Path_9671" data-name="Path 9671" d="M153.686,317.6a21.856,21.856,0,0,1-5.78-4.262c-.531.457-1.043.941-1.531,1.452a21.771,21.771,0,0,0,10.569,6.122,21.5,21.5,0,0,1-3.258-3.311Zm0,0" transform="translate(-140.37 -278.623)" fill="#d4e1f4"/>
        <path id="Path_9672" data-name="Path 9672" d="M155.037,117.323a21.042,21.042,0,0,1,1.91-1.765,21.776,21.776,0,0,0-10.572,6.122q.43.45.883.873a21.827,21.827,0,0,1,7.779-5.23Zm0,0" transform="translate(-140.371 -115.558)" fill="#d4e1f4"/>
      </g>
      <path id="Path_9673" data-name="Path 9673" d="M74.878,33.357A34.4,34.4,0,0,0,49.5,7.981a8.073,8.073,0,0,0-16.144,0A34.394,34.394,0,0,0,7.981,33.357a8.073,8.073,0,0,0,0,16.144A34.4,34.4,0,0,0,33.358,74.878a8.073,8.073,0,0,0,16.144,0A34.4,34.4,0,0,0,74.878,49.5a8.073,8.073,0,0,0,0-16.144ZM41.429,2.11A5.975,5.975,0,0,1,47.4,8.078a5.6,5.6,0,0,1-.033.625A5.968,5.968,0,0,1,35.493,8.7a5.832,5.832,0,0,1-.032-.619A5.975,5.975,0,0,1,41.429,2.11ZM2.11,41.429A5.967,5.967,0,1,1,8.7,47.365a5.67,5.67,0,0,1-.62.032A5.975,5.975,0,0,1,2.11,41.429ZM41.429,80.748a5.967,5.967,0,1,1,5.936-6.587,5.666,5.666,0,0,1,.032.619,5.974,5.974,0,0,1-5.968,5.968Zm7.823-7.976a8.077,8.077,0,0,0-15.646,0,32.29,32.29,0,0,1-23.519-23.52,8.077,8.077,0,0,0,0-15.646,32.289,32.289,0,0,1,23.52-23.519,8.077,8.077,0,0,0,15.646,0,32.286,32.286,0,0,1,23.518,23.52,8.077,8.077,0,0,0,0,15.646A32.288,32.288,0,0,1,49.252,72.772ZM74.78,47.4a5.59,5.59,0,0,1-.625-.033,5.968,5.968,0,0,1,.005-11.87,5.831,5.831,0,0,1,.619-.033,5.968,5.968,0,1,1,0,11.936Zm0,0" transform="translate(0 0)" fill="#fff" stroke="#fff" stroke-width="1.5"/>
      <path id="Path_9674" data-name="Path 9674" d="M100.02,123.892a23.872,23.872,0,1,0,23.872-23.872A23.9,23.9,0,0,0,100.02,123.892Zm11.246-9.8a31.987,31.987,0,0,0-1.433,8.746h-7.68a21.659,21.659,0,0,1,4.618-12.371,23.855,23.855,0,0,0,4.5,3.624Zm29.753-3.62a21.653,21.653,0,0,1,4.614,12.366h-7.68a32.006,32.006,0,0,0-1.427-8.724,23.593,23.593,0,0,0,4.493-3.642Zm-4.492,23.2a32.011,32.011,0,0,0,1.426-8.724h7.679a21.653,21.653,0,0,1-4.614,12.367A23.563,23.563,0,0,0,136.526,133.67Zm-29.756,3.646a21.657,21.657,0,0,1-4.618-12.371h7.68a31.989,31.989,0,0,0,1.434,8.747,23.81,23.81,0,0,0-4.5,3.624Zm5.169-12.371h10.9v5.169a23.819,23.819,0,0,0-9.693,2.523A30.08,30.08,0,0,1,111.94,124.945Zm10.9,7.277v13.057a20.279,20.279,0,0,1-9-10.631A21.738,21.738,0,0,1,122.839,132.222Zm2.106,13.057V132.218a21.454,21.454,0,0,1,9.01,2.406,20.291,20.291,0,0,1-9.01,10.655Zm0-15.169v-5.164h10.9a30.065,30.065,0,0,1-1.2,7.667,23.557,23.557,0,0,0-9.7-2.5Zm10.9-7.271h-10.9v-5.164a23.562,23.562,0,0,0,9.7-2.5A30.05,30.05,0,0,1,135.845,122.839Zm-10.9-7.273V102.507a20.281,20.281,0,0,1,9.009,10.653A21.472,21.472,0,0,1,124.945,115.566Zm-2.106-13.059v13.055a21.717,21.717,0,0,1-9-2.425,20.278,20.278,0,0,1,9-10.629Zm0,15.163v5.169h-10.9a30.075,30.075,0,0,1,1.206-7.692,23.807,23.807,0,0,0,9.693,2.523Zm-14.682,21.245A21.739,21.739,0,0,1,112,135.724a23.043,23.043,0,0,0,6.728,9.313A21.771,21.771,0,0,1,108.157,138.915Zm20.9,6.122a23.039,23.039,0,0,0,6.736-9.333,21.517,21.517,0,0,1,3.837,3.208A21.772,21.772,0,0,1,129.059,145.037Zm10.573-36.164a21.455,21.455,0,0,1-3.837,3.208,23.043,23.043,0,0,0-6.737-9.333,21.771,21.771,0,0,1,10.574,6.125Zm-20.9-6.126A23.034,23.034,0,0,0,112,112.06a21.685,21.685,0,0,1-3.842-3.19,21.763,21.763,0,0,1,10.571-6.122Zm0,0" transform="translate(-82.463 -82.463)" fill="#1ae5be"/>
    </g>
  </g>
</svg>
