<svg xmlns="http://www.w3.org/2000/svg" width="96.845" height="84.647" viewBox="0 0 96.845 84.647">
  <g id="Group_424" data-name="Group 424" transform="translate(-269.094 -1451.015)">
    <g id="Group_419" data-name="Group 419" transform="translate(269.094 1451.015)" opacity="0.13">
      <g id="Group_373" data-name="Group 373" transform="translate(1.981 12.959)">
        <path id="Path_2897" data-name="Path 2897" d="M-991.521,838.591l-7.557,13.085A38.078,38.078,0,0,1-991.521,838.591Z" transform="translate(999.078 -838.591)" fill="#2d8cff"/>
      </g>
      <g id="Group_374" data-name="Group 374" transform="translate(0.213 7.319)">
        <path id="Path_2898" data-name="Path 2898" d="M-988.347,823.361l-15.506,26.859q.151-1.459.414-2.882l12.8-22.166C-989.9,824.535-989.136,823.934-988.347,823.361Z" transform="translate(1003.853 -823.361)" fill="#2d8cff"/>
      </g>
      <g id="Group_375" data-name="Group 375" transform="translate(0 4.448)">
        <path id="Path_2899" data-name="Path 2899" d="M-984.123,815.609l-20.279,35.122c-.018-.45-.025-.9-.025-1.354,0-.259,0-.518.007-.778l18.442-31.941C-985.37,816.29-984.754,815.94-984.123,815.609Z" transform="translate(1004.427 -815.609)" fill="#2d8cff"/>
      </g>
      <g id="Group_376" data-name="Group 376" transform="translate(0.202 2.615)">
        <path id="Path_2900" data-name="Path 2900" d="M-979.8,810.659l-23.862,41.327q-.13-.88-.223-1.772l22.439-38.868C-980.9,811.106-980.352,810.875-979.8,810.659Z" transform="translate(1003.882 -810.659)" fill="#2d8cff"/>
      </g>
      <g id="Group_377" data-name="Group 377" transform="translate(0.828 1.401)">
        <path id="Path_2901" data-name="Path 2901" d="M-975.1,807.381l-26.729,46.3q-.194-.767-.357-1.545l25.577-44.3C-976.116,807.673-975.612,807.522-975.1,807.381Z" transform="translate(1002.19 -807.381)" fill="#2d8cff"/>
      </g>
      <g id="Group_378" data-name="Group 378" transform="translate(1.74 0.623)">
        <path id="Path_2902" data-name="Path 2902" d="M-970.18,805.28l-29.092,50.39c-.162-.454-.317-.907-.458-1.368l28.134-48.733C-971.128,805.46-970.656,805.363-970.18,805.28Z" transform="translate(999.73 -805.28)" fill="#2d8cff"/>
      </g>
      <g id="Group_379" data-name="Group 379" transform="translate(2.867 0.176)">
        <path id="Path_2903" data-name="Path 2903" d="M-965.08,804.074l-31.073,53.819c-.187-.407-.364-.821-.533-1.239l30.27-52.429C-965.973,804.168-965.526,804.117-965.08,804.074Z" transform="translate(996.686 -804.074)" fill="#2d8cff"/>
      </g>
      <g id="Group_380" data-name="Group 380" transform="translate(4.164)">
        <path id="Path_2904" data-name="Path 2904" d="M-959.845,803.6l-32.737,56.7c-.209-.371-.407-.742-.6-1.12l32.067-55.541C-960.7,803.62-960.27,803.605-959.845,803.6Z" transform="translate(993.184 -803.598)" fill="#2d8cff"/>
      </g>
      <g id="Group_381" data-name="Group 381" transform="translate(5.604 0.004)">
        <path id="Path_2905" data-name="Path 2905" d="M-954.5,803.662l-34.135,59.124c-.223-.339-.443-.681-.656-1.03l33.573-58.148C-955.314,803.619-954.907,803.637-954.5,803.662Z" transform="translate(989.294 -803.608)" fill="#2d8cff"/>
      </g>
      <g id="Group_382" data-name="Group 382" transform="translate(7.171 0.18)">
        <path id="Path_2906" data-name="Path 2906" d="M-949.059,804.214l-35.3,61.145c-.241-.31-.476-.627-.7-.947l34.83-60.327C-949.841,804.12-949.448,804.163-949.059,804.214Z" transform="translate(985.063 -804.084)" fill="#2d8cff"/>
      </g>
      <g id="Group_383" data-name="Group 383" transform="translate(8.85 0.544)">
        <path id="Path_2907" data-name="Path 2907" d="M-943.537,805.279l-36.249,62.784c-.256-.284-.5-.576-.745-.868l35.871-62.128C-944.282,805.131-943.908,805.2-943.537,805.279Z" transform="translate(980.531 -805.066)" fill="#2d8cff"/>
      </g>
      <g id="Group_384" data-name="Group 384" transform="translate(10.626 1.088)">
        <path id="Path_2908" data-name="Path 2908" d="M-937.946,806.816l-37,64.091c-.267-.263-.53-.526-.789-.8l36.706-63.576C-938.666,806.621-938.306,806.715-937.946,806.816Z" transform="translate(975.736 -806.535)" fill="#2d8cff"/>
      </g>
      <g id="Group_385" data-name="Group 385" transform="translate(12.498 1.794)">
        <path id="Path_2909" data-name="Path 2909" d="M-932.283,808.794l-37.567,65.071c-.281-.238-.558-.483-.828-.731l37.347-64.693C-932.979,808.553-932.629,808.668-932.283,808.794Z" transform="translate(970.679 -808.441)" fill="#2d8cff"/>
      </g>
      <g id="Group_386" data-name="Group 386" transform="translate(14.462 2.658)">
        <path id="Path_2910" data-name="Path 2910" d="M-926.557,811.193l-37.96,65.744c-.292-.216-.576-.44-.861-.663l37.815-65.5C-927.224,810.908-926.889,811.049-926.557,811.193Z" transform="translate(965.378 -810.775)" fill="#2d8cff"/>
      </g>
      <g id="Group_387" data-name="Group 387" transform="translate(16.511 3.678)">
        <path id="Path_2911" data-name="Path 2911" d="M-920.769,814.007l-38.176,66.123c-.3-.194-.605-.4-.9-.605l38.1-66C-921.413,813.683-921.089,813.841-920.769,814.007Z" transform="translate(959.845 -813.528)" fill="#2d8cff"/>
      </g>
      <g id="Group_388" data-name="Group 388" transform="translate(18.643 4.841)">
        <path id="Path_2912" data-name="Path 2912" d="M-914.928,817.213l-38.222,66.2c-.317-.173-.627-.353-.937-.54l38.223-66.206C-915.548,816.846-915.238,817.026-914.928,817.213Z" transform="translate(954.087 -816.669)" fill="#2d8cff"/>
      </g>
      <g id="Group_389" data-name="Group 389" transform="translate(20.858 6.152)">
        <path id="Path_2913" data-name="Path 2913" d="M-909.03,820.814l-38.1,66c-.328-.155-.656-.314-.976-.479l38.176-66.123C-909.627,820.4-909.325,820.605-909.03,820.814Z" transform="translate(948.106 -820.209)" fill="#2d8cff"/>
      </g>
      <g id="Group_390" data-name="Group 390" transform="translate(23.164 7.607)">
        <path id="Path_2914" data-name="Path 2914" d="M-903.057,824.808l-37.816,65.5c-.339-.133-.677-.274-1.008-.418l37.96-65.748Q-903.484,824.468-903.057,824.808Z" transform="translate(941.881 -824.138)" fill="#2d8cff"/>
      </g>
      <g id="Group_391" data-name="Group 391" transform="translate(25.555 9.217)">
        <path id="Path_2915" data-name="Path 2915" d="M-897.031,829.214l-37.347,64.693c-.349-.112-.7-.227-1.044-.353l37.567-65.067C-897.579,828.72-897.305,828.965-897.031,829.214Z" transform="translate(935.423 -828.486)" fill="#2d8cff"/>
      </g>
      <g id="Group_392" data-name="Group 392" transform="translate(28.029 10.971)">
        <path id="Path_2916" data-name="Path 2916" d="M-890.951,834.022l-36.707,63.573c-.364-.086-.724-.18-1.084-.284l37-64.088Q-891.335,833.616-890.951,834.022Z" transform="translate(928.742 -833.222)" fill="#2d8cff"/>
      </g>
      <g id="Group_393" data-name="Group 393" transform="translate(30.605 12.891)">
        <path id="Path_2917" data-name="Path 2917" d="M-884.8,839.274-920.664,901.4c-.378-.061-.753-.133-1.124-.209l36.249-62.787C-885.287,838.69-885.039,838.982-884.8,839.274Z" transform="translate(921.788 -838.406)" fill="#2d8cff"/>
      </g>
      <g id="Group_394" data-name="Group 394" transform="translate(33.27 14.976)">
        <path id="Path_2918" data-name="Path 2918" d="M-878.587,844.984l-34.83,60.327c-.393-.036-.785-.079-1.174-.13l35.3-61.145C-879.048,844.347-878.814,844.664-878.587,844.984Z" transform="translate(914.591 -844.037)" fill="#2d8cff"/>
      </g>
      <g id="Group_395" data-name="Group 395" transform="translate(36.051 17.249)">
        <path id="Path_2919" data-name="Path 2919" d="M-872.293,851.2l-33.573,58.148c-.407-.011-.814-.029-1.217-.054l34.135-59.124C-872.721,850.513-872.5,850.855-872.293,851.2Z" transform="translate(907.083 -850.174)" fill="#2d8cff"/>
      </g>
      <g id="Group_396" data-name="Group 396" transform="translate(38.946 19.727)">
        <path id="Path_2920" data-name="Path 2920" d="M-865.929,857.985l-32.064,55.54c-.421.021-.847.036-1.272.043l32.737-56.7C-866.318,857.236-866.12,857.607-865.929,857.985Z" transform="translate(899.264 -856.865)" fill="#2d8cff"/>
      </g>
      <g id="Group_397" data-name="Group 397" transform="translate(41.972 22.436)">
        <path id="Path_2921" data-name="Path 2921" d="M-859.484,865.415l-30.273,52.432c-.443.058-.886.108-1.336.151l31.073-53.819C-859.834,864.586-859.654,865-859.484,865.415Z" transform="translate(891.094 -864.179)" fill="#2d8cff"/>
      </g>
      <g id="Group_398" data-name="Group 398" transform="translate(45.156 25.418)">
        <path id="Path_2922" data-name="Path 2922" d="M-852.943,873.6l-28.138,48.737c-.468.108-.94.205-1.415.288l29.1-50.39C-853.238,872.682-853.087,873.14-852.943,873.6Z" transform="translate(882.496 -872.232)" fill="#2d8cff"/>
      </g>
      <g id="Group_399" data-name="Group 399" transform="translate(48.535 28.732)">
        <path id="Path_2923" data-name="Path 2923" d="M-846.288,882.721l-25.577,44.3c-.5.166-1,.317-1.509.457l26.729-46.3C-846.515,881.691-846.4,882.2-846.288,882.721Z" transform="translate(873.374 -881.18)" fill="#2d8cff"/>
      </g>
      <g id="Group_400" data-name="Group 400" transform="translate(52.158 32.485)">
        <path id="Path_2924" data-name="Path 2924" d="M-839.5,893.086l-22.44,38.871c-.544.245-1.091.472-1.646.691l23.866-41.334C-839.638,891.9-839.562,892.492-839.5,893.086Z" transform="translate(863.59 -891.314)" fill="#2d8cff"/>
      </g>
      <g id="Group_401" data-name="Group 401" transform="translate(56.142 36.857)">
        <path id="Path_2925" data-name="Path 2925" d="M-832.526,904.478c0,.26,0,.519-.007.774L-850.978,937.2q-.908.551-1.855,1.048l20.282-35.125C-832.533,903.57-832.526,904.024-832.526,904.478Z" transform="translate(852.833 -903.12)" fill="#2d8cff"/>
      </g>
      <g id="Group_402" data-name="Group 402" transform="translate(60.723 42.246)">
        <path id="Path_2926" data-name="Path 2926" d="M-824.949,917.67q-.151,1.459-.414,2.878l-12.8,22.18q-1.108.951-2.294,1.812Z" transform="translate(840.462 -917.67)" fill="#2d8cff"/>
      </g>
      <g id="Group_403" data-name="Group 403" transform="translate(66.908 50.375)">
        <path id="Path_2927" data-name="Path 2927" d="M-816.2,939.621a38.153,38.153,0,0,1-7.564,13.1Z" transform="translate(823.763 -939.621)" fill="#2d8cff"/>
      </g>
    </g>
    <g id="room" transform="translate(295.319 1470.457)">
      <path id="Path_9524" data-name="Path 9524" d="M76.85,43.069V14a2,2,0,0,1,2-2H76a2,2,0,0,0-2,2V43.069a2,2,0,0,0,2,2h2.85A2,2,0,0,1,76.85,43.069Zm0,0" transform="translate(-63.453 -10.29)" fill="#d4e1f4"/>
      <g id="Group_429" data-name="Group 429">
        <path id="Path_9525" data-name="Path 9525" d="M214.191,279.813a6.57,6.57,0,1,0-6.57,6.57A6.57,6.57,0,0,0,214.191,279.813Zm-11.431,0a4.86,4.86,0,1,1,4.86,4.86A4.86,4.86,0,0,1,202.76,279.813Zm0,0" transform="translate(-172.397 -234.3)" fill="#2d8cff" stroke="#2d8cff" stroke-width="1"/>
        <path id="Path_9526" data-name="Path 9526" d="M178.956,370.063a11.141,11.141,0,0,0-11.143,11.125.841.841,0,0,0,.855.837h20.576a.841.841,0,0,0,.855-.837A11.141,11.141,0,0,0,178.956,370.063Zm-9.395,10.253a9.434,9.434,0,0,1,18.789,0Zm0,0" transform="translate(-143.896 -317.321)" fill="#2d8cff" stroke="#2d8cff" stroke-width="1"/>
        <path id="Path_9527" data-name="Path 9527" d="M368.855,279.813a6.57,6.57,0,1,0,6.57-6.57A6.57,6.57,0,0,0,368.855,279.813Zm11.431,0a4.86,4.86,0,1,1-4.86-4.86A4.86,4.86,0,0,1,380.286,279.813Zm0,0" transform="translate(-316.286 -234.3)" fill="#2d8cff" stroke="#2d8cff" stroke-width="1"/>
        <path id="Path_9528" data-name="Path 9528" d="M346.769,370.063a11.141,11.141,0,0,0-11.143,11.125.841.841,0,0,0,.855.837h20.576a.841.841,0,0,0,.855-.837A11.141,11.141,0,0,0,346.769,370.063Zm-9.394,10.253a9.433,9.433,0,0,1,18.789,0Zm0,0" transform="translate(-287.792 -317.321)" fill="#2d8cff" stroke="#2d8cff" stroke-width="1"/>
        <path id="Path_9529" data-name="Path 9529" d="M39.8,286.387a6.57,6.57,0,1,0-6.57-6.57A6.57,6.57,0,0,0,39.8,286.387Zm0-11.432a4.86,4.86,0,1,1-4.86,4.86A4.86,4.86,0,0,1,39.8,274.955Zm0,0" transform="translate(-28.498 -234.303)" fill="#2d8cff" stroke="#2d8cff" stroke-width="1"/>
        <path id="Path_9530" data-name="Path 9530" d="M.855,382.143H21.432a.841.841,0,0,0,.855-.837A11.143,11.143,0,0,0,0,381.3a.843.843,0,0,0,.855.842Zm10.288-10.288a9.525,9.525,0,0,1,9.395,8.578H1.749A9.525,9.525,0,0,1,11.143,371.854Zm0,0" transform="translate(0 -317.438)" fill="#2d8cff" stroke="#2d8cff" stroke-width="1"/>
        <path id="Path_9531" data-name="Path 9531" d="M114.448,3.706A3.706,3.706,0,0,0,110.742,0H65.706A3.706,3.706,0,0,0,62,3.706V32.78a3.706,3.706,0,0,0,3.706,3.706h45.036a3.706,3.706,0,0,0,3.706-3.706Zm-1.71,29.074a2,2,0,0,1-2,2H65.706a2,2,0,0,1-2-2V3.706a2,2,0,0,1,2-2h45.036a2,2,0,0,1,2,2Zm0,0" transform="translate(-53.164)" fill="#2d8cff" stroke="#2d8cff" stroke-width="2"/>
      </g>
      <path id="Path_9532" data-name="Path 9532" d="M182.369,48.28a2.28,2.28,0,0,0-2.28-2.28H159.28A2.28,2.28,0,0,0,157,48.28V62.532a2.28,2.28,0,0,0,2.28,2.28h20.808a2.28,2.28,0,0,0,2.28-2.28Zm-1.71,14.252a.57.57,0,0,1-.57.57H159.28a.57.57,0,0,1-.57-.57V48.28a.57.57,0,0,1,.57-.57h20.808a.57.57,0,0,1,.57.57Zm0,0" transform="translate(-134.624 -39.444)" fill="#1ae5be"/>
      <path id="Path_9533" data-name="Path 9533" d="M221.46,87.211a.835.835,0,0,0,.38.092.849.849,0,0,0,.506-.168L227.8,83.1a.855.855,0,0,0,0-1.375L222.343,77.7a.841.841,0,0,0-1.343.688v8.063a.846.846,0,0,0,.46.763Zm1.25-7.13,3.162,2.336-3.162,2.335Zm0,0" transform="translate(-189.503 -66.481)" fill="#1ae5be"/>
      <path id="Path_9534" data-name="Path 9534" d="M167.777,198a.855.855,0,1,0,0,1.71h1.743a.855.855,0,1,0,0-1.71Zm0,0" transform="translate(-143.132 -169.781)" fill="#1ae5be"/>
      <path id="Path_9535" data-name="Path 9535" d="M202.3,198a.855.855,0,1,0,0,1.71h15.911a.855.855,0,1,0,0-1.71Zm0,0" transform="translate(-172.732 -169.781)" fill="#1ae5be"/>
    </g>
  </g>
</svg>
