<svg xmlns="http://www.w3.org/2000/svg" width="16.708" height="16.707" viewBox="0 0 16.708 16.707">
  <g id="Help" transform="translate(-13631 -894)">
    <g id="_017-closed-caption" data-name="017-closed-caption" transform="translate(13631 894)">
      <path id="Path_30482" data-name="Path 30482" d="M15.565.007H1.142A1.143,1.143,0,0,0,0,1.149V11.762A1.143,1.143,0,0,0,1.142,12.9H5.621a.162.162,0,0,1,.146.089l1.568,3.095a1.142,1.142,0,0,0,2.038,0l1.568-3.095a.162.162,0,0,1,.146-.089h4.479a1.143,1.143,0,0,0,1.142-1.142V1.149A1.143,1.143,0,0,0,15.565.007Zm.163,11.755a.163.163,0,0,1-.163.163H11.086a1.137,1.137,0,0,0-1.019.626L8.5,15.646a.163.163,0,0,1-.291,0L6.64,12.552a1.137,1.137,0,0,0-1.019-.626H1.142a.163.163,0,0,1-.163-.163V1.149A.163.163,0,0,1,1.142.986H15.565a.163.163,0,0,1,.163.163Z" transform="translate(0 -0.007)"/>
    </g>
    <g id="question" transform="translate(13637.279 896.937)">
      <g id="Group_5095" data-name="Group 5095" transform="translate(1.607 6.243)">
        <g id="Group_5094" data-name="Group 5094">
          <circle id="Ellipse_271" data-name="Ellipse 271" cx="0.468" cy="0.468" r="0.468"/>
        </g>
      </g>
      <g id="Group_5097" data-name="Group 5097">
        <g id="Group_5096" data-name="Group 5096">
          <path id="Path_30485" data-name="Path 30485" d="M110.041,0a2.078,2.078,0,0,0-2.076,2.076h.936a1.139,1.139,0,1,1,1.945.806c-.281.281-1.115,1.053-1.124,1.061l-.15.139V5.774h.936V4.49c.258-.24.778-.726,1-.947A2.076,2.076,0,0,0,110.041,0Z" transform="translate(-107.965)"/>
        </g>
      </g>
    </g>
  </g>
</svg>
