<svg id="instagram" xmlns="http://www.w3.org/2000/svg" width="32.444" height="32.444" viewBox="0 0 32.444 32.444">
  <path id="Path_18" data-name="Path 18" d="M213.21,210.105a3.105,3.105,0,1,1-3.105-3.1A3.1,3.1,0,0,1,213.21,210.105Zm0,0" transform="translate(-193.883 -193.883)" fill="rgba(255,255,255,0.7)"/>
  <path id="Path_19" data-name="Path 19" d="M150.383,137.632a3.085,3.085,0,0,0-1.768-1.768,5.154,5.154,0,0,0-1.73-.321c-.982-.045-1.277-.054-3.764-.054s-2.782.009-3.764.054a5.157,5.157,0,0,0-1.73.321,3.086,3.086,0,0,0-1.768,1.768,5.156,5.156,0,0,0-.321,1.73c-.045.982-.054,1.277-.054,3.764s.01,2.782.054,3.764a5.154,5.154,0,0,0,.321,1.729,3.085,3.085,0,0,0,1.768,1.768,5.148,5.148,0,0,0,1.73.321c.982.045,1.277.054,3.764.054s2.782-.009,3.764-.054a5.148,5.148,0,0,0,1.73-.321,3.085,3.085,0,0,0,1.768-1.768,5.158,5.158,0,0,0,.321-1.729c.045-.982.054-1.277.054-3.764s-.009-2.782-.054-3.764A5.147,5.147,0,0,0,150.383,137.632Zm-7.262,10.277a4.783,4.783,0,1,1,4.783-4.783A4.783,4.783,0,0,1,143.122,147.909Zm4.972-8.638a1.118,1.118,0,1,1,1.118-1.118A1.118,1.118,0,0,1,148.094,139.271Zm0,0" transform="translate(-126.899 -126.903)" fill="rgba(255,255,255,0.7)"/>
  <path id="Path_20" data-name="Path 20" d="M16.222,0A16.222,16.222,0,1,0,32.444,16.222,16.224,16.224,0,0,0,16.222,0Zm9.259,20.063a6.834,6.834,0,0,1-.433,2.261,4.763,4.763,0,0,1-2.724,2.724,6.839,6.839,0,0,1-2.261.433c-.993.045-1.311.056-3.84.056s-2.847-.011-3.841-.056a6.839,6.839,0,0,1-2.261-.433A4.763,4.763,0,0,1,7.4,22.324a6.833,6.833,0,0,1-.433-2.261c-.046-.994-.056-1.311-.056-3.841s.011-2.847.056-3.84A6.835,6.835,0,0,1,7.4,10.121,4.766,4.766,0,0,1,10.121,7.4a6.841,6.841,0,0,1,2.261-.433c.993-.045,1.311-.056,3.84-.056s2.847.011,3.84.056a6.842,6.842,0,0,1,2.261.432,4.764,4.764,0,0,1,2.724,2.725,6.834,6.834,0,0,1,.433,2.261c.045.993.056,1.311.056,3.84S25.527,19.069,25.481,20.063Zm0,0" fill="rgba(255,255,255,0.7)"/>
</svg>
