<svg xmlns="http://www.w3.org/2000/svg" width="32.667" height="32.667" viewBox="0 0 32.667 32.667">
  <path id="linkedin" d="M16.333,0A16.333,16.333,0,1,0,32.667,16.333,16.335,16.335,0,0,0,16.333,0ZM11.587,24.691H7.609V12.724h3.978ZM9.6,11.09H9.572a2.073,2.073,0,1,1,.052-4.135A2.074,2.074,0,1,1,9.6,11.09Zm16.332,13.6H21.953v-6.4c0-1.609-.576-2.706-2.015-2.706A2.178,2.178,0,0,0,17.9,17.037a2.724,2.724,0,0,0-.131.971v6.683H13.788s.052-10.845,0-11.968h3.978v1.694a3.949,3.949,0,0,1,3.585-1.975c2.617,0,4.58,1.71,4.58,5.386Zm0,0" fill="rgba(255,255,255,0.7)"/>
</svg>
