<svg id="Microsoft_Outlook_Plugin" data-name="Microsoft Outlook Plugin" xmlns="http://www.w3.org/2000/svg" width="53.169" height="53.175" viewBox="0 0 53.169 53.175">
  <path id="Path_11121" data-name="Path 11121" d="M467.266,233h24.053a1.264,1.264,0,0,1,1.266,1.266v25.319a1.264,1.264,0,0,1-1.266,1.266H467.266A1.264,1.264,0,0,1,466,259.585V234.266A1.264,1.264,0,0,1,467.266,233Z" transform="translate(-440.681 -220.341)" fill="#fff"/>
  <path id="Path_11122" data-name="Path 11122" d="M469.285,212.232v25.319H445.232V212.232h24.053m0-2.532H445.232a2.534,2.534,0,0,0-2.532,2.532v25.319a2.534,2.534,0,0,0,2.532,2.532h24.053a2.534,2.534,0,0,0,2.532-2.532V212.232A2.531,2.531,0,0,0,469.285,209.7Z" transform="translate(-418.647 -198.307)" fill="#0072c6"/>
  <path id="Path_11123" data-name="Path 11123" d="M389.676,249.886,372.8,234.038V233h2.532l15.115,14.192a.2.2,0,0,0,.277,0l13.724-12.926v3.428l-12.936,12.154A1.367,1.367,0,0,1,389.676,249.886Z" transform="translate(-352.545 -220.341)" fill="#0072c6" fill-rule="evenodd"/>
  <path id="Path_11124" data-name="Path 11124" d="M31.648,0,0,5.547v42.08l31.648,5.547Z" fill="#0072c6" fill-rule="evenodd"/>
  <path id="Path_11125" data-name="Path 11125" d="M124.82,296.766a3.891,3.891,0,0,1-1.771-.484,3.684,3.684,0,0,1-.744-.543,5.25,5.25,0,0,1-.647-.744,6.1,6.1,0,0,1-.56-.989,7.067,7.067,0,0,1-.407-1.152,9.118,9.118,0,0,1-.239-1.266,13.266,13.266,0,0,1-.076-1.467,12.972,12.972,0,0,1,.076-1.38,9.2,9.2,0,0,1,.217-1.266,7.233,7.233,0,0,1,.369-1.114,6.783,6.783,0,0,1,.505-.989,5.047,5.047,0,0,1,.668-.848,4.092,4.092,0,0,1,.782-.619,3.763,3.763,0,0,1,.913-.391,4.389,4.389,0,0,1,1.027-.152,4.178,4.178,0,0,1,.973.076,3.347,3.347,0,0,1,.875.3,3.428,3.428,0,0,1,.772.533,4.446,4.446,0,0,1,.668.761,5.812,5.812,0,0,1,.56,1,7.68,7.68,0,0,1,.407,1.19,10.054,10.054,0,0,1,.239,1.391,14,14,0,0,1,.076,1.581,13.281,13.281,0,0,1-.087,1.543,8.856,8.856,0,0,1-.255,1.353,6.78,6.78,0,0,1-.429,1.163,5.081,5.081,0,0,1-.6.973,4.213,4.213,0,0,1-.685.706,3.638,3.638,0,0,1-1.657.772,4.75,4.75,0,0,1-.962.065m.2-17.479a9.533,9.533,0,0,0-1.951.3,8.108,8.108,0,0,0-1.711.668,7.939,7.939,0,0,0-1.483,1.027,8.906,8.906,0,0,0-1.266,1.369,10.59,10.59,0,0,0-.962,1.619,11.406,11.406,0,0,0-.7,1.809,13.267,13.267,0,0,0-.429,2.065,16.937,16.937,0,0,0-.141,2.162,14.864,14.864,0,0,0,.141,2.141,12.491,12.491,0,0,0,.429,1.94,10.479,10.479,0,0,0,.7,1.722,9.672,9.672,0,0,0,1.011,1.543,9.293,9.293,0,0,0,1.266,1.266,7.653,7.653,0,0,0,3.026,1.57,9.74,9.74,0,0,0,3.711.2,7.85,7.85,0,0,0,1.749-.467,7.733,7.733,0,0,0,1.6-.875,8.724,8.724,0,0,0,1.418-1.266,9.474,9.474,0,0,0,1.179-1.635,10.529,10.529,0,0,0,.81-1.972,12.547,12.547,0,0,0,.505-2.19,16.271,16.271,0,0,0,.027-4.781,12.306,12.306,0,0,0-.494-2.124,10.55,10.55,0,0,0-.82-1.864,9.264,9.264,0,0,0-1.125-1.581,8.175,8.175,0,0,0-1.369-1.266,7.357,7.357,0,0,0-1.543-.848,7.593,7.593,0,0,0-1.7-.456,8.726,8.726,0,0,0-1.88-.082" transform="translate(-110.069 -264.101)" fill="#fff"/>
</svg>
