<svg xmlns="http://www.w3.org/2000/svg" width="11.085" height="14.78" viewBox="0 0 11.085 14.78">
  <g id="Mike-Icon" transform="translate(-23.187 -20.593)">
    <g id="_003-microphone" data-name="003-microphone" transform="translate(23.187 20.593)">
      <g id="Group_5084" data-name="Group 5084" transform="translate(0)">
        <g id="Group_5083" data-name="Group 5083">
          <path id="Path_30475" data-name="Path 30475" d="M131.764,9.785a3.665,3.665,0,0,0,3.764-3.558V3.558a3.77,3.77,0,0,0-7.527,0V6.227A3.665,3.665,0,0,0,131.764,9.785Zm-2.823-6.227a2.827,2.827,0,0,1,5.646,0V6.227a2.827,2.827,0,0,1-5.646,0Z" transform="translate(-126.221)" fill="#142f51"/>
          <path id="Path_30476" data-name="Path 30476" d="M74.162,144v2.812A4.188,4.188,0,0,1,70,151.029h-.924a4.188,4.188,0,0,1-4.157-4.217V144H64v2.812a5.118,5.118,0,0,0,5.081,5.155v.937H67.7a.465.465,0,0,0-.462.469v.469h-.924v.937h6.466v-.937h-.924v-.469a.465.465,0,0,0-.462-.469H70v-.937a5.118,5.118,0,0,0,5.081-5.155V144Z" transform="translate(-64 -139.997)" fill="#142f51"/>
        </g>
      </g>
    </g>
  </g>
</svg>
