<svg xmlns="http://www.w3.org/2000/svg" width="21.75" height="15.174" viewBox="0 0 21.75 15.174">
  <g id="People-Icon" transform="translate(-997.049 -104.914)">
    <g id="_008-add-user" data-name="008-add-user" transform="translate(997.049 104.914)">
      <g id="Group_5113" data-name="Group 5113" transform="translate(0 0)">
        <g id="Group_5112" data-name="Group 5112" transform="translate(0 0)">
          <path id="Path_30487" data-name="Path 30487" d="M7.587.5a4.385,4.385,0,0,0-2.482,8A7.6,7.6,0,0,0,0,15.673H1.185a6.409,6.409,0,0,1,6.4-6.4A4.386,4.386,0,0,0,7.587.5Zm0,7.587a3.2,3.2,0,1,1,3.2-3.2A3.2,3.2,0,0,1,7.587,8.086Z" transform="translate(0 -0.499)" fill="#fff"/>
        </g>
      </g>
    </g>
    <path id="Union_3" data-name="Union 3" d="M-14261.271,312.754a5.111,5.111,0,0,0-4.927-5.1,5.112,5.112,0,0,0-4.927,5.1h-.949a6,6,0,0,1,1.777-4.273,6,6,0,0,1,2.065-1.354,3.488,3.488,0,0,1-1.654-2.966,3.5,3.5,0,0,1,3.5-3.492q.094,0,.185,0t.185,0a3.5,3.5,0,0,1,3.5,3.492,3.489,3.489,0,0,1-1.655,2.966,6.016,6.016,0,0,1,2.067,1.354,6,6,0,0,1,1.776,4.273Zm-7.3-8.593a2.56,2.56,0,0,0,2.373,2.544,2.557,2.557,0,0,0,2.37-2.544,2.555,2.555,0,0,0-2.37-2.544A2.557,2.557,0,0,0-14268.571,304.161Z" transform="translate(15279.121 -192.667)" fill="#fff"/>
  </g>
</svg>
