<svg xmlns="http://www.w3.org/2000/svg" width="30.484" height="28.984" viewBox="0 0 30.484 28.984">
  <g id="Use_Phone_For_Audio-Icon" data-name="Use Phone For Audio-Icon" transform="translate(0.066 1.948)">
    <path id="Path_30516" data-name="Path 30516" d="M27.015,3.012c-.067-.063-.207-.168-.3-.239C24.97,1.459,22.292-.111,19.707.007,15.378.206,9.626,6.048,7.965,7.834S.9,15.784,1.017,20.111a7.3,7.3,0,0,0,.451,2.272,14.85,14.85,0,0,0,2.8,4.49s.19.224.282.31a2.576,2.576,0,0,0,1.047.526,2.468,2.468,0,0,0,.663.085,2.675,2.675,0,0,0,.888-.143,2.583,2.583,0,0,0,1-.6c.16-.173,3.217-4.074,3.234-4.1l.019-.03a2.7,2.7,0,0,0,.377-.657,2.616,2.616,0,0,0,.027-1.835,2.484,2.484,0,0,0-.643-.981L9.725,18.111a1.3,1.3,0,0,1-.295-.442,1.189,1.189,0,0,1-.022-.186l8.363-9a.16.16,0,0,1,.054-.038l.033.012a3.108,3.108,0,0,1,.49.383l1.436,1.327a2.6,2.6,0,0,0,2.845.429,3.083,3.083,0,0,0,.685-.478l.065-.052c.03-.026,3.634-3.311,3.77-3.458a2.71,2.71,0,0,0,.562-1.758A2.632,2.632,0,0,0,27.393,3.5,2.4,2.4,0,0,0,27.015,3.012ZM25.977,5.49c-.187.184-3.461,3.174-3.633,3.33l-.133.11a1.416,1.416,0,0,1-.294.212.946.946,0,0,1-1.034-.162L19.445,7.652a3.985,3.985,0,0,0-.955-.683,1.713,1.713,0,0,0-.687-.147,1.741,1.741,0,0,0-1.215.556L8.142,16.467a1.657,1.657,0,0,0-.3,1.5,2.75,2.75,0,0,0,.782,1.332l1.438,1.343a.872.872,0,0,1,.222.342,1.009,1.009,0,0,1-.01.7,1.114,1.114,0,0,1-.161.27,1.01,1.01,0,0,0-.06.085c-.29.374-2.927,3.729-3.08,3.911a1.39,1.39,0,0,1-.388.192,1.108,1.108,0,0,1-.321.04.841.841,0,0,1-.211-.021A1.633,1.633,0,0,1,5.654,26c-.052-.052-.142-.161-.158-.18a13.282,13.282,0,0,1-2.5-3.985,5.679,5.679,0,0,1-.357-1.767c-.08-2.956,3.46-7.846,6.516-11.134S16.825,1.76,19.781,1.624c2.131-.1,4.425,1.287,5.939,2.428l.058.044c.035.025.1.071.127.095a1.016,1.016,0,0,1,.106.149,1.171,1.171,0,0,1,.081.434A2.429,2.429,0,0,1,25.977,5.49Z" transform="translate(-0.066 28.051) rotate(-90)" fill="#142f51"/>
    <g id="_007-up-arrow" data-name="007-up-arrow" transform="matrix(0.719, 0.695, -0.695, 0.719, 23.914, -1.948)">
      <g id="Group_5151" data-name="Group 5151" transform="translate(0 0)">
        <path id="Path_30506" data-name="Path 30506" d="M50.348,4.1,46.424.173a.6.6,0,0,0-.844,0L41.655,4.1a.6.6,0,0,0,0,.841l.356.356a.591.591,0,0,0,.421.173.6.6,0,0,0,.426-.173l2.295-2.29V14.131a.587.587,0,0,0,.585.6h.5a.61.61,0,0,0,.611-.6V2.98L49.159,5.3a.589.589,0,0,0,.835,0l.355-.356A.6.6,0,0,0,50.348,4.1Z" transform="translate(-41.481 0)" fill="#142f51"/>
      </g>
    </g>
  </g>
</svg>
