<svg xmlns="http://www.w3.org/2000/svg" width="31" height="38.319" viewBox="0 0 31 38.319">
  <g id="Security-Icon" transform="translate(0.055 0.499)">
    <path id="Path_30508" data-name="Path 30508" d="M174.445,193.807l9.44-6.427a12.619,12.619,0,0,0,4.931-9.3v-5.8a43.3,43.3,0,0,1-14.371,2.682Zm0,0" transform="translate(-158.371 -156.81)" fill="#fff"/>
    <path id="Path_30509" data-name="Path 30509" d="M174.445,16.72a41.913,41.913,0,0,0,14.371-2.781v-6.9L174.445,0Zm0,0" transform="translate(-158.371)" fill="none" stroke="#fff" stroke-linecap="round" stroke-linejoin="round" stroke-width="1"/>
    <path id="Path_30510" data-name="Path 30510" d="M.445,178.083a11.53,11.53,0,0,0,1.464,5.175,11.528,11.528,0,0,0,3.475,4.121l9.253,6.3v-18.72A43.137,43.137,0,0,1,.445,172.285Zm0,0" transform="translate(0 -156.81)" fill="none" stroke="#fff" stroke-width="1"/>
    <path id="Path_30511" data-name="Path 30511" d="M.445,14.817a41.753,41.753,0,0,0,14.192,2.777V.965L.445,7.9Zm0,0" transform="translate(0 -0.878)" fill="#fff"/>
  </g>
</svg>
