<svg xmlns="http://www.w3.org/2000/svg" width="25.2" height="25.2" viewBox="0 0 25.2 25.2">
  <g id="send" transform="translate(-0.001 0)">
    <g id="Group_5165" data-name="Group 5165" transform="translate(0.001 0)">
      <g id="Group_5164" data-name="Group 5164" transform="translate(0 0)">
        <path id="Path_30512" data-name="Path 30512" d="M25.2.476A.513.513,0,0,0,25.18.39.569.569,0,0,0,25.144.3c-.008-.016-.01-.033-.02-.048A.336.336,0,0,0,25.1.227a.569.569,0,0,0-.062-.07A.535.535,0,0,0,24.968.1C24.959.09,24.953.08,24.944.075A.519.519,0,0,0,24.9.056.57.57,0,0,0,24.8.019.577.577,0,0,0,24.724,0a.562.562,0,0,0-.1,0,.492.492,0,0,0-.089.015.5.5,0,0,0-.056.009L.373,8.244a.547.547,0,0,0-.019,1.03L11.618,13.6,16.485,24.87a.549.549,0,0,0,.5.33h.027a.548.548,0,0,0,.495-.381L25.182.709a.41.41,0,0,0,.007-.052A.518.518,0,0,0,25.2.565.546.546,0,0,0,25.2.476ZM2.157,8.792,22.605,1.821,11.893,12.533ZM16.91,23.09,12.68,13.3,23.454,2.522Z" transform="translate(-0.002 0)" fill="#2d8cff"/>
        <path id="Path_30513" data-name="Path 30513" d="M8.608,240.079a.547.547,0,0,0-.775,0L.162,247.75a.548.548,0,1,0,.775.775l7.671-7.671A.547.547,0,0,0,8.608,240.079Z" transform="translate(-0.001 -223.485)" fill="#2d8cff"/>
        <path id="Path_30514" data-name="Path 30514" d="M92,296.079l-3.836,3.836a.548.548,0,1,0,.775.775l3.836-3.836a.548.548,0,1,0-.775-.775Z" transform="translate(-81.974 -275.649)" fill="#2d8cff"/>
        <path id="Path_30515" data-name="Path 30515" d="M.549,212.85a.546.546,0,0,0,.387-.161l3.836-3.836A.548.548,0,1,0,4,208.079L.162,211.914a.548.548,0,0,0,.387.935Z" transform="translate(-0.001 -193.677)" fill="#2d8cff"/>
      </g>
    </g>
  </g>
</svg>
