<svg xmlns="http://www.w3.org/2000/svg" width="31.667" height="20.924" viewBox="0 0 31.667 20.924">
  <g id="sound-waves-Icon" transform="translate(0 -86.847)">
    <g id="Group_5127" data-name="Group 5127" transform="translate(13.13 93.166)">
      <g id="Group_5126" data-name="Group 5126">
        <path id="Path_30492" data-name="Path 30492" d="M213.346,189.02a1.053,1.053,0,0,0-1.053,1.053v6.179a1.053,1.053,0,1,0,2.106,0v-6.179A1.053,1.053,0,0,0,213.346,189.02Z" transform="translate(-212.293 -189.02)" fill="#1ae5be"/>
      </g>
    </g>
    <g id="Group_5129" data-name="Group 5129" transform="translate(9.865 89.901)">
      <g id="Group_5128" data-name="Group 5128">
        <path id="Path_30493" data-name="Path 30493" d="M160.556,136.231a1.053,1.053,0,0,0-1.053,1.053v12.709a1.053,1.053,0,1,0,2.106,0V137.284A1.053,1.053,0,0,0,160.556,136.231Z" transform="translate(-159.503 -136.231)" fill="#1ae5be"/>
      </g>
    </g>
    <g id="Group_5131" data-name="Group 5131" transform="translate(6.565 86.847)">
      <g id="Group_5130" data-name="Group 5130">
        <path id="Path_30494" data-name="Path 30494" d="M107.2,86.847a1.053,1.053,0,0,0-1.053,1.053v18.818a1.053,1.053,0,1,0,2.106,0V87.9A1.053,1.053,0,0,0,107.2,86.847Z" transform="translate(-106.146 -86.847)" fill="#1ae5be"/>
      </g>
    </g>
    <g id="Group_5133" data-name="Group 5133" transform="translate(3.3 89.901)">
      <g id="Group_5132" data-name="Group 5132">
        <path id="Path_30495" data-name="Path 30495" d="M54.41,136.231a1.053,1.053,0,0,0-1.053,1.053v12.709a1.053,1.053,0,1,0,2.106,0V137.284A1.053,1.053,0,0,0,54.41,136.231Z" transform="translate(-53.357 -136.231)" fill="#1ae5be"/>
      </g>
    </g>
    <g id="Group_5135" data-name="Group 5135" transform="translate(0 92.956)">
      <g id="Group_5134" data-name="Group 5134">
        <path id="Path_30496" data-name="Path 30496" d="M1.053,185.614A1.053,1.053,0,0,0,0,186.667v6.6a1.053,1.053,0,1,0,2.106,0v-6.6A1.053,1.053,0,0,0,1.053,185.614Z" transform="translate(0 -185.614)" fill="#1ae5be"/>
      </g>
    </g>
    <g id="Group_5137" data-name="Group 5137" transform="translate(22.995 86.847)">
      <g id="Group_5136" data-name="Group 5136">
        <path id="Path_30497" data-name="Path 30497" d="M372.849,86.847A1.053,1.053,0,0,0,371.8,87.9v18.818a1.053,1.053,0,1,0,2.106,0V87.9A1.053,1.053,0,0,0,372.849,86.847Z" transform="translate(-371.796 -86.847)" fill="#1ae5be"/>
      </g>
    </g>
    <g id="Group_5139" data-name="Group 5139" transform="translate(19.695 89.901)">
      <g id="Group_5138" data-name="Group 5138">
        <path id="Path_30498" data-name="Path 30498" d="M319.492,136.231a1.053,1.053,0,0,0-1.053,1.053v12.709a1.053,1.053,0,1,0,2.106,0V137.284A1.053,1.053,0,0,0,319.492,136.231Z" transform="translate(-318.439 -136.231)" fill="#1ae5be"/>
      </g>
    </g>
    <g id="Group_5141" data-name="Group 5141" transform="translate(16.43 91.551)">
      <g id="Group_5140" data-name="Group 5140">
        <path id="Path_30499" data-name="Path 30499" d="M266.7,162.909a1.053,1.053,0,0,0-1.053,1.053v9.409a1.053,1.053,0,1,0,2.106,0v-9.409A1.053,1.053,0,0,0,266.7,162.909Z" transform="translate(-265.65 -162.909)" fill="#1ae5be"/>
      </g>
    </g>
    <g id="Group_5143" data-name="Group 5143" transform="translate(26.26 89.901)">
      <g id="Group_5142" data-name="Group 5142">
        <path id="Path_30500" data-name="Path 30500" d="M425.638,136.231a1.053,1.053,0,0,0-1.053,1.053v12.709a1.053,1.053,0,1,0,2.106,0V137.284A1.053,1.053,0,0,0,425.638,136.231Z" transform="translate(-424.585 -136.231)" fill="#1ae5be"/>
      </g>
    </g>
    <g id="Group_5145" data-name="Group 5145" transform="translate(29.561 92.956)">
      <g id="Group_5144" data-name="Group 5144">
        <path id="Path_30501" data-name="Path 30501" d="M479,185.614a1.053,1.053,0,0,0-1.053,1.053v6.6a1.053,1.053,0,1,0,2.106,0v-6.6A1.053,1.053,0,0,0,479,185.614Z" transform="translate(-477.942 -185.614)" fill="#1ae5be"/>
      </g>
    </g>
  </g>
</svg>
