<svg xmlns="http://www.w3.org/2000/svg" width="822" height="548" viewBox="0 0 822 548">
  <g id="Image" transform="translate(-0.327 0)">
    <g id="Group_4564" data-name="Group 4564" transform="translate(29.653 73.275)">
      <path id="Path_11126" data-name="Path 11126" d="M2014.2,265.2c-174.015,66.252-62.676,202.524,46.179,207.17,73.838,3.151,169.351-15.044,236.718-1.929,101.488,19.757,315.813,50.816,366.153-19.033s20.037-166.46-73.9-207.678c-131.487-57.69-37.734-141.176-268.252-150.4C2076.43,83.538,2167.539,206.821,2014.2,265.2Z" transform="translate(-1923.639 -92.778)" fill="rgba(45,140,255,0.1)" fill-rule="evenodd"/>
      <path id="Path_11127" data-name="Path 11127" d="M2199.268,356.824s4.056,9.188,6.7,10.35,2.59,2.49,1.295,3.819-1.747,1.827-1.747,2.215,2.31,3.986.9,8.579-8.452,3.929-9.691,5.811-4.112,7.734-3.1,12.62,2.591,9.853,2.591,9.853-15.775-4.871-17.239-9.41-1.24-38.523,20.282-43.836Z" transform="translate(-2003.81 -175.848)" fill="#f9bfb3" fill-rule="evenodd"/>
      <path id="Path_11128" data-name="Path 11128" d="M2140.175,432.376s-.541-18.282,7.934-22.588c20.215-2.626,35.291,11.277,35.291,11.277a58.623,58.623,0,0,1,10.991,17.545c3.936,10.216,13.176,22.158,15.676,26.594s16.253,3.479,20.136,3.114l-40.74,35.521c-10.046-7.26-32.4-24.621-49.288-71.463Z" transform="translate(-1991.761 -192.407)" fill="#00cfff" fill-rule="evenodd"/>
      <path id="Path_11129" data-name="Path 11129" d="M2187.474,416.542a47.656,47.656,0,0,1,10.328,6.752s.15.156.417.453c-6.516-2.151-12.272-4.781-12.272-4.781l1.528-2.425Z" transform="translate(-2006.162 -194.636)" fill="#fff" fill-rule="evenodd"/>
      <path id="Path_11130" data-name="Path 11130" d="M2209.336,502.623h0s-8.007-6.177-21.041-23.292-13.178-46.178-13.178-46.178,2.815-9.41,5.447,5.334,36.82,54.13,36.82,54.13l-8.048,10.005Z" transform="translate(-2002.756 -198.931)" fill="#00b3dc" fill-rule="evenodd"/>
      <path id="Path_11131" data-name="Path 11131" d="M2137.152,421.745s1.459,4.924,11.787,7.974,8.248,5.251,9.286,14.81,9.142,52.876,29.835,60.358l-16.96,17.761c-42.187-7.006-42.042-103.915-33.948-100.9Z" transform="translate(-1989.486 -196.251)" fill="#9ea7db" fill-rule="evenodd"/>
      <path id="Path_11132" data-name="Path 11132" d="M2137.383,421.746s1.459,4.924,11.787,7.974,8.248,5.251,9.286,14.81c.082.755.207,1.721.381,2.862-13.842-3.771-21.235-10.51-25.163-16.238.686-6.321,2.024-10.034,3.708-9.408Z" transform="translate(-1989.718 -196.251)" fill="#8c96cf" fill-rule="evenodd"/>
      <path id="Path_11133" data-name="Path 11133" d="M2140.051,551.382s27.19,10.245,41.479,8.248-11.867,14.447-11.867,14.447l-37.224,28.34s-38.666-9.3-36.392-20.864,44-30.17,44-30.17Z" transform="translate(-1977.85 -237.057)" fill="#0065c9" fill-rule="evenodd"/>
      <path id="Path_11134" data-name="Path 11134" d="M2039.962,436.48s5.55-20.7,13.094-26.783,9.159-3.761,19.347-3.148,19.756,9.4,23.291,14,7.791,17.979,8.9,31.258,9.772,35.148,16.219,43.941,8.781,14.491,7.325,17.147-31.6,22.065-39.512,23.291-21.37,12.258-48.66-99.7Z" transform="translate(-1960.235 -191.194)" fill="#2d8cff" fill-rule="evenodd"/>
      <path id="Path_11135" data-name="Path 11135" d="M2515,490.31H2222.3l-76.89,80.5h446.477L2515,490.31Z" transform="translate(-1993.41 -217.844)" fill="#e6e6e6"/>
      <path id="Path_11136" data-name="Path 11136" d="M2221.863,489.464h293.076q39.033,40.8,78,81.659l-448.52-.29c26-27.222,51.3-54.17,77.317-81.369Z" transform="translate(-1993.098 -217.578)" fill="#f6f9fe"/>
      <path id="Path_11137" data-name="Path 11137" d="M2716.349,559.905l17.353,18.177c-4.2.685-11.965,1.708-25.85,2.905-25.575,2.206-37.582-.1-37.582-.1a20.772,20.772,0,0,1-3.671-1.335c-2.38-1.062-16.347-3.308-23.074-2.137s-8.729-6.753,2.05-10.084c7.283-2.251,46.26-5.536,70.774-7.43Z" transform="translate(-2148.376 -239.739)" fill="#ccc"/>
      <path id="Path_11138" data-name="Path 11138" d="M2222.1,522.3q4.145-4.366,8.3-8.736c17.38-.145,57.129-.3,57.546,1.25.534,1.99-2.506,5.825-9.681,7.836s-10.734,1.106-10.734,1.106v2.685s-1.419.727-14.221-.854c-10.99-1.357-26.917-2.883-31.208-3.288Z" transform="translate(-2017.538 -225.131)" fill="#ccc"/>
      <path id="Path_11139" data-name="Path 11139" d="M2144.418,608.182h447.689v9.381H2144.418v-9.381Z" transform="translate(-1993.098 -254.927)" fill="#7e94a1" fill-rule="evenodd"/>
      <path id="Path_11140" data-name="Path 11140" d="M2786.886,396.244c.244,1.129,1.172,6.078-.243,10.164-1.607,4.644-3.214,5.8-3.214,5.8a36.543,36.543,0,0,0,19.081-1.437c9.94-3.622,8.145-6.338,8.145-6.338s-6.647-2.335-8.145-13.909l-.012-.079a36.408,36.408,0,0,1-15.613,5.8Z" transform="translate(-2194.135 -186.427)" fill="#f9bfb3" fill-rule="evenodd"/>
      <path id="Path_11141" data-name="Path 11141" d="M2750.143,420.518s7.184-3.728,14.369-4.1,13.516-.743,16.922-3.529,3.7-4.206,3.7-4.206a41.537,41.537,0,0,1,9.249,2.441c5.011,1.951,8.332,13.394,8.6,18.2a44.045,44.045,0,0,1,0,6.984l-15.375,68.566s-43.708,3.066-53.66.552a12.63,12.63,0,0,1-2.531-.973q-10.816-11.329-21.638-22.652c2.076.05,10.853-.337,12.472-10.313,1.838-11.331,3.4-12.07,8.508-20.618s9.453-13.528,11.722-18.6,2.835-8.709,7.657-11.761Z" transform="translate(-2170.965 -192.164)" fill="#2d8cff" fill-rule="evenodd"/>
      <path id="Path_11142" data-name="Path 11142" d="M2777.939,429.981s5.329,10.128,0,19.047-9.394,16.8-17.382,25.77-6.861,22.049-14.419,25.168a50.53,50.53,0,0,0-11.513,6.307s8.768-1.184,11.513-3.745,8.606-4.737,10.97-13a54.456,54.456,0,0,1,6.932-14.726s14.8-20.873,16.268-26.329,4.819-8.54-2.369-18.488Z" transform="translate(-2178.78 -198.864)" fill="#0065c9" fill-rule="evenodd"/>
      <path id="Path_11143" data-name="Path 11143" d="M2855.079,376.292c-2.341,7.524-2,10.058-2.051,18.7s3.719,14.582,6.818,15.324,7.286-25.939-4.766-34.02Z" transform="translate(-2216.031 -181.973)" fill="#f9bfb3" fill-rule="evenodd"/>
      <path id="Path_11144" data-name="Path 11144" d="M2809.7,435.713s-8.709,6.524-18.724,9.1-9.625,2.732-11.564,6.015-9.45,23.508-15.564,35.481-18.617,26.268-24.541,25.622c3.251,3.31,9.791,5.289,9.791,5.289s20.76,6.125,27.032,4.882,34.5-49.979,36.267-68.186,1.083-18.206-2.7-18.206Z" transform="translate(-2180.253 -200.667)" fill="#9ea7db" fill-rule="evenodd"/>
      <path id="Path_11145" data-name="Path 11145" d="M2787.927,396.244c.243,1.129,1.172,6.078-.244,10.164a25.21,25.21,0,0,1-.949,2.38,54.358,54.358,0,0,0,19.163-10.294,23.8,23.8,0,0,1-2.347-7.967l-.011-.079a36.41,36.41,0,0,1-15.612,5.8Z" transform="translate(-2195.174 -186.427)" fill="#e8a597" fill-rule="evenodd"/>
      <path id="Path_11146" data-name="Path 11146" d="M2264.324,172.619H2548l2.927,1.517V336.191H2261.4V174.129l2.928-1.509Z" transform="translate(-2029.9 -117.896)" fill="#7e94a1" fill-rule="evenodd"/>
      <path id="Path_11147" data-name="Path 11147" d="M2261.4,174.832h289.531V338.4H2261.4V174.832Z" transform="translate(-2029.9 -118.593)" fill="#f6f9fe" fill-rule="evenodd"/>
      <path id="Path_11148" data-name="Path 11148" d="M2270.739,184.01h276.725V335H2270.739V184.01Z" transform="translate(-2032.839 -121.48)" fill="#142f51" fill-rule="evenodd"/>
      <path id="Path_11149" data-name="Path 11149" d="M2357.054,190.343h99.7v69.638h-99.7V190.343Z" transform="translate(-2059.994 -123.472)" fill="#00cfff" fill-rule="evenodd"/>
      <path id="Path_11150" data-name="Path 11150" d="M2425.807,196.806c-7.818-3.411-16.534,2.961-17.093,11.256a18.933,18.933,0,0,0-.874,5.766,25.685,25.685,0,0,1-1.01,6.918c-1.392,2.059-3.591,5.684-3.527,9.287a8.874,8.874,0,0,0-.169,2.445,7.636,7.636,0,0,0,2.685,5.282l.244-.286a7.258,7.258,0,0,1-2.551-5.023,7.739,7.739,0,0,1-.019-.809,7.728,7.728,0,0,0,2.789,4.318c6.45,5.291,30.61,3.77,33.022-1.256a11.643,11.643,0,0,0,.62-1.572c1.248-1.722,1.668-4.319,1.507-6.98a16.9,16.9,0,0,0-2.784-8.631,12.826,12.826,0,0,1-2-5.249c.7-6.779-2.244-16.6-10.839-15.468Zm14.454,34.974c.791-4.2-.667-8.637-2.564-13.015a12.172,12.172,0,0,1-1.133-5.111,11.413,11.413,0,0,0,1.779,4.094,16.5,16.5,0,0,1,2.709,8.428,12.345,12.345,0,0,1-.791,5.6Zm-31.567-22.214q.024.612.1,1.228c.7,5.579.471,6.437-1.333,9.035a25.4,25.4,0,0,0,.757-6,18.871,18.871,0,0,1,.475-4.261Z" transform="translate(-2074.484 -125.21)" fill="#011d33" fill-rule="evenodd"/>
      <path id="Path_11151" data-name="Path 11151" d="M2425.459,197.892c-.028,0-9.438,1-12.483,7.225a18.61,18.61,0,0,0-1.668,9.535,10.6,10.6,0,0,1-.45,4.482,14.447,14.447,0,0,1-1.25,2.069c-2.159,3.206-5.454,8.1-.48,15.711l-.213.135c-5.062-7.75-1.712-12.724.483-15.983a14.279,14.279,0,0,0,1.228-2.031,10.414,10.414,0,0,0,.43-4.377,18.83,18.83,0,0,1,1.694-9.65c3.107-6.353,12.654-7.361,12.682-7.365l.029.248Zm-8.6,22.625c-.018.013-6.349,4.429-2.743,14.011l-.237.087c-3.674-9.761,2.813-14.287,2.831-14.3l.149.2Zm11.056-20.891c.013,0,4.4-.172,6.163,8.077l-.248.051c-1.723-8.044-5.9-7.879-5.911-7.879l0-.249Zm-2.711-.209c-.024.006-8.754,2.135-11.27,7.866l-.232-.1c2.568-5.846,11.415-8,11.44-8.009l.062.242Zm8.98,39.131.347-.088a9.864,9.864,0,0,0,3.33-11.8c-2.451-6.607-2.269-8.012-1.827-11.418.078-.6.163-1.26.244-2.009a20.553,20.553,0,0,0-.371-6.718,17.761,17.761,0,0,0-2.5-5.922c-2.074-3.1-6.1-2.557-6.109-2.556l.033.247c.011,0,3.878-.526,5.865,2.446a17.512,17.512,0,0,1,2.46,5.838,20.276,20.276,0,0,1,.367,6.639c-.081.761-.166,1.413-.242,2-.448,3.45-.632,4.872,1.84,11.535a9.664,9.664,0,0,1-3.509,11.7l.068.1Zm-6.152-37.591a33.936,33.936,0,0,0,5.02,7.955c2.4,2.533,1.625,7.545.953,11.9-.124.8-.244,1.58-.338,2.291-.615,4.692,1.008,12.961,1.013,12.985l-.248.047c0-.024-1.636-8.33-1.014-13.063.1-.749.217-1.513.338-2.3.663-4.3,1.428-9.249-.887-11.691a34.235,34.235,0,0,1-5.066-8.025l.23-.1Zm-2.589.165c0,.006.029,2.236-6.193,5.129a13.331,13.331,0,0,0-5.49,4.225,7.369,7.369,0,0,0-1.3,5.454c.489,3.167-.831,5.307-2.142,7.429-2.024,3.281-4.022,6.52.992,13.552l-.207.144c-5.11-7.166-3.069-10.475-1-13.826,1.286-2.083,2.582-4.184,2.107-7.262a7.611,7.611,0,0,1,1.347-5.632,13.572,13.572,0,0,1,5.59-4.309c6.079-2.827,6.049-4.9,6.049-4.908l.252,0Z" transform="translate(-2075.475 -125.769)" fill="#2d8cff"/>
      <path id="Path_11152" data-name="Path 11152" d="M2415.78,254.006s-.006,6.945,9.158,6.945,13.027-5.89,13.027-5.89l3,5.89s1.037,9.924,1.571,19.059H2412.8l2.983-26Z" transform="translate(-2077.531 -143.501)" fill="#fff" fill-rule="evenodd"/>
      <path id="Path_11153" data-name="Path 11153" d="M2412.8,291.185l.191-1.659c4.246.547,9.075,1.047,11.95.792,5.319-.472,10.65.551,15.538.866Z" transform="translate(-2077.531 -154.676)" fill="#e6e6e6" fill-rule="evenodd"/>
      <path id="Path_11154" data-name="Path 11154" d="M2416.841,255.039c.285,1.768,1.734,6.237,9.087,6.237,7.153,0,11.075-3.588,12.453-5.162a9.785,9.785,0,0,1,1.138.379l1.271,2.493a7.142,7.142,0,0,1-1.992,1.714c-12.138,7.807-22.2,1.288-22.854.85l.746-6.507.153,0Z" transform="translate(-2078.52 -143.826)" fill="#e6e6e6" fill-rule="evenodd"/>
      <path id="Path_11155" data-name="Path 11155" d="M2421.379,236.32s.034,8.268-1.34,10.418-4.923,3.075-4.923,3.075.2,5.854,6.866,6.979,11.822-.563,14.267-2.084a4.9,4.9,0,0,0,2.445-3.869s-6.4-1.931-7.134-5.6a67.819,67.819,0,0,1-.971-8.321,8.794,8.794,0,0,1-9.21-.6Z" transform="translate(-2078.261 -137.937)" fill="#f9bfb3" fill-rule="evenodd"/>
      <path id="Path_11156" data-name="Path 11156" d="M2424.222,236.32s.005,1.238-.067,2.879a7,7,0,0,0,2.6,1.385,10.015,10.015,0,0,0,1.994.349,7.358,7.358,0,0,0,4.8-1.3c-.1-1.586-.116-2.72-.116-2.72a8.8,8.8,0,0,1-9.211-.6Z" transform="translate(-2081.104 -137.937)" fill="#e8a597" fill-rule="evenodd"/>
      <path id="Path_11157" data-name="Path 11157" d="M2424.908,229.192a10,10,0,0,0,1.994.349c3.876.261,6.541-2.153,8.262-5.469,1.144-2.2,1.545-5.5,1.458-8.563a18.484,18.484,0,0,1-6.393-8.663v0a3.278,3.278,0,0,1-1.129,2.4,8.322,8.322,0,0,1-4.725,3.055,19.038,19.038,0,0,0-5.456,2.049c-.1.069-.192.14-.278.212l-.018.039c-1.958,4.56.61,13.023,6.287,14.589Zm2.528-18.772a9.951,9.951,0,0,1-.939.422c-3.053,1.2-5.627,1.748-6.991,2.73a27.6,27.6,0,0,1,4.766-1.629,9,9,0,0,0,3.164-1.522Z" transform="translate(-2079.159 -128.664)" fill="#f9bfb3" fill-rule="evenodd"/>
      <path id="Path_11158" data-name="Path 11158" d="M2427.427,257.24s-.661-.809-3.274-1.326l.074-.368c2.744.542,3.488,1.45,3.49,1.452l-.29.241Zm3.115-.241s.745-.91,3.49-1.452l.075.368c-2.614.516-3.274,1.324-3.276,1.326l-.289-.241Z" transform="translate(-2081.104 -143.986)" fill="#e8a597"/>
      <path id="Path_11159" data-name="Path 11159" d="M2463.727,278.354a10.543,10.543,0,0,1-.34-1.805,84.842,84.842,0,0,0-1.339-9.135c-.6-2.977-4.234-12.744-6.5-14.75s-12-2.794-16.555-3.922c.281.475,2.461,1.9,2.721,3.608s-1.089,12.361-.545,15.461c.26,1.476.412,6.1.5,10.543Z" transform="translate(-2085.773 -141.845)" fill="#1f6fd9" fill-rule="evenodd"/>
      <path id="Path_11160" data-name="Path 11160" d="M2446.374,288.152a11.186,11.186,0,0,1,.894-3.221c1.716-3.561,3.977-6.416,3.768-4.347s-2.009,5.771-.251,6.367,3.455-4.676,4.353-3.348a11.526,11.526,0,0,1,1.27,4.549Z" transform="translate(-2088.094 -151.643)" fill="#1860bd" fill-rule="evenodd"/>
      <path id="Path_11161" data-name="Path 11161" d="M2443.07,278.3c-.071-6.04-.176-11.016-.335-12.031a48.815,48.815,0,0,1-.557-9.366c.066-4.676-.656-7.3-1.324-8.017a18.1,18.1,0,0,1-1.888-.312c0,.943.863,3.071,1.123,4.777s.53,11.306,1.074,14.406c.26,1.476.412,6.1.5,10.543Z" transform="translate(-2085.764 -141.793)" fill="#1860bd" fill-rule="evenodd"/>
      <path id="Path_11162" data-name="Path 11162" d="M2410.95,249.488c-2.641.343-7.882,2.2-12.267,4.152a13.993,13.993,0,0,0-7.568,7.66c-1.273,2.842-1.073,5.471-2.479,8.985-1.07,2.672-3.03,5.875-4.143,8.3h25.235c.131-1.192.289-2.323.477-3.267.871-4.365-.617-7.857-1.808-12.5s2.214-11.8,2.553-13.332Z" transform="translate(-2068.626 -142.08)" fill="#1f6fd9" fill-rule="evenodd"/>
      <path id="Path_11163" data-name="Path 11163" d="M2401.905,281.92a28.113,28.113,0,0,0,3.459,6.288h-6.573c0-.882.022-1.742.057-2.528.168-3.76,1.385-8.194,3.057-3.76Z" transform="translate(-2073.125 -151.7)" fill="#1860bd" fill-rule="evenodd"/>
      <path id="Path_11164" data-name="Path 11164" d="M2420.828,249.488a17.76,17.76,0,0,0-2.183.473c-1.1,1.735-3.233,5.734-2.657,9.776a51.11,51.11,0,0,0,2.261,9.053,23.008,23.008,0,0,1,.46,6.532c-.083,1.016-.212,2.125-.354,3.267h1.25c.131-1.192.289-2.323.477-3.267.87-4.365-.617-7.857-1.809-12.5s2.06-11.567,2.554-13.332Z" transform="translate(-2078.505 -142.08)" fill="#1860bd" fill-rule="evenodd"/>
      <path id="Path_11165" data-name="Path 11165" d="M2397.982,270.921a114.143,114.143,0,0,0-.894,11.593h-.375a114.265,114.265,0,0,1,.893-11.641l.376.048Zm10.863,11.593h-.548c-5.342-5.286-5.25-20.5-5.25-20.547h.378c0,.047-.094,15.672,5.42,20.547Z" transform="translate(-2072.471 -146.006)" fill="#1860bd"/>
      <path id="Path_11166" data-name="Path 11166" d="M2457.089,271.117h.008l.015,0c.314.045.73,1.474,1.033,3.669a59.481,59.481,0,0,1,.51,6.479h-.38a59.514,59.514,0,0,0-.5-6.429,11.022,11.022,0,0,0-.713-3.349l.011-.071.021-.3Zm-3.884-13.094c0,.03-.595,10.543-3.6,15.044l-.317-.206c2.951-4.416,3.539-14.828,3.541-14.858l.378.021Zm3.826,4.21c-.006.034-1.6,11.786-4.531,15.794l-.307-.219c2.874-3.93,4.458-15.591,4.463-15.625l.375.05Z" transform="translate(-2089.01 -144.759)" fill="#1860bd"/>
      <path id="Path_11167" data-name="Path 11167" d="M2427.606,232.116a4.253,4.253,0,0,0,5.282-.113l.293.406a4.764,4.764,0,0,1-5.9.086l.328-.379Z" transform="translate(-2082.087 -136.579)" fill="#d18c84"/>
      <path id="Path_11168" data-name="Path 11168" d="M2434.661,269.808c0,.007-.863,2.5-5.151,5.8-4.309,3.314-5.839,3.043-5.843,3.043l.052-.371s1.378.248,5.558-2.967c4.2-3.231,5.024-5.62,5.027-5.627l.357.126Z" transform="translate(-2080.951 -148.433)" fill="#e6e6e6" fill-rule="evenodd"/>
      <path id="Path_11169" data-name="Path 11169" d="M2437.511,272.6c0,.008-.1,2.637-3.238,7.018-3.155,4.4-4.7,4.578-4.7,4.579l-.058-.369s1.392-.156,4.453-4.426c3.075-4.291,3.166-6.813,3.166-6.82l.38.018Z" transform="translate(-2082.79 -149.344)" fill="#e6e6e6" fill-rule="evenodd"/>
      <path id="Path_11170" data-name="Path 11170" d="M2421.2,219.507a4.471,4.471,0,0,1,5.2-.359l-.176.331a4.085,4.085,0,0,0-4.764.3l-.259-.274Z" transform="translate(-2080.174 -132.332)" fill="#d18c84"/>
      <path id="Path_11171" data-name="Path 11171" d="M2439.007,219.781a4.087,4.087,0,0,0-4.764-.3l-.177-.331a4.473,4.473,0,0,1,5.2.359l-.259.274Z" transform="translate(-2084.223 -132.332)" fill="#d18c84"/>
      <path id="Path_11172" data-name="Path 11172" d="M2425.5,221.2c.435,0,.786.595.786,1.33s-.352,1.33-.786,1.33-.785-.6-.785-1.33.351-1.33.785-1.33Z" transform="translate(-2081.282 -133.181)" fill="#051828"/>
      <path id="Path_11173" data-name="Path 11173" d="M2435.893,220.993c.434,0,.786.6.786,1.33s-.352,1.33-.786,1.33-.785-.6-.785-1.33.35-1.33.785-1.33Z" transform="translate(-2084.55 -133.115)" fill="#051828"/>
      <path id="Path_11174" data-name="Path 11174" d="M2429.509,222.169c0,.01.295,3.7-.826,4.521-.606.443,1.816.7,1.823.7l-.045.4c-.01,0-3.474-.361-2.021-1.425.939-.687.663-4.16.662-4.169l.406-.029Z" transform="translate(-2082.341 -133.485)" fill="#d18c84"/>
      <path id="Path_11175" data-name="Path 11175" d="M2425.462,222.126a.277.277,0,1,1-.28.277.278.278,0,0,1,.28-.277Z" transform="translate(-2081.428 -133.472)" fill="#fff" fill-rule="evenodd"/>
      <path id="Path_11176" data-name="Path 11176" d="M2435.781,221.722a.277.277,0,1,1-.281.277.279.279,0,0,1,.281-.277Z" transform="translate(-2084.674 -133.344)" fill="#fff" fill-rule="evenodd"/>
      <path id="Path_11177" data-name="Path 11177" d="M2506.68,190.343h99.7v69.638h-99.7V190.343Z" transform="translate(-2107.067 -123.472)" fill="#f6f9fe" fill-rule="evenodd"/>
      <path id="Path_11178" data-name="Path 11178" d="M2357.054,294.624h99.7v69.638h-99.7V294.624Z" transform="translate(-2059.994 -156.28)" fill="#f5f7ff" fill-rule="evenodd"/>
      <path id="Path_11179" data-name="Path 11179" d="M2506.68,294.624h99.7v69.638h-99.7V294.624Z" transform="translate(-2107.067 -156.28)" fill="#00cfff" fill-rule="evenodd"/>
      <path id="Path_11180" data-name="Path 11180" d="M2577.507,227.756c.169,1.846.278,6.554-2.388,8.248-5.353,3.4,15.057,5.648,13.942,1.349,0,0-3.452-1.7-2.6-9.523.008-.066.012-.128.019-.193a17.655,17.655,0,0,1-8.977.119Z" transform="translate(-2128.316 -135.205)" fill="#f9bfb3" fill-rule="evenodd"/>
      <path id="Path_11181" data-name="Path 11181" d="M2579.015,227.756a18.075,18.075,0,0,1,.02,3.154,7.146,7.146,0,0,0,8.816-.038,20.744,20.744,0,0,1,.123-3.04c.008-.066.012-.129.018-.193a17.66,17.66,0,0,1-8.977.118Z" transform="translate(-2129.824 -135.206)" fill="#e8a597" fill-rule="evenodd"/>
      <path id="Path_11182" data-name="Path 11182" d="M2575.647,206.189a31.487,31.487,0,0,0-.775,4.295,1.794,1.794,0,0,0-2.483.324c-1.346,1.533,1.109,5.223,2.346,4.175h0a15.163,15.163,0,0,0,.477,2.977c1.389,5.068,8.078,4.986,10.553,2.493a13.739,13.739,0,0,0,2.826-4.8l.016.019c1.08,1.193,4.031-2.162,2.91-3.848a1.682,1.682,0,0,0-1.6-.849c.107-.52.2-1.029.28-1.52.608-3.719-.087-7.111-4.168-7.888s-10.424.572-10.38,4.618Z" transform="translate(-2127.616 -126.939)" fill="#f9bfb3" fill-rule="evenodd"/>
      <path id="Path_11183" data-name="Path 11183" d="M2544.678,220.73c.933-3.095,1.7-5.447,1.7-5.447a2.8,2.8,0,0,0,3.524.751c2.308-1.006,2.393-3.043,1.494-3.672s-1.641,1.624-2.759,1.75-2.565-1.576-1.568-3.454,2.5-2.242,2.832-1.35-.437,1.384.426,1.864,1.786-.034,1.64-2.036-.973-3.373-2.432-2.848-2.5,1.922-2.843,1.968-.05-.869.825-2.928.972-5.718-.146-4.735-2.48,7.724-2.941,7.48,1.313-6.986.632-7.644-1.944-1.032-2.407,3.184-.317,5.709-.777,4.962.412-6.746-.171-7.776-1.653-.755-2.091,1.716a17.513,17.513,0,0,0,.73,8.189c.875,2.493,2.016,2.082,1.385,4.579-.171.673-.956,2.574-1.994,5.1l4.941.345Z" transform="translate(-2117.366 -126.518)" fill="#f9bfb3" fill-rule="evenodd"/>
      <path id="Path_11184" data-name="Path 11184" d="M2586.4,202.171s-.3,1.43-3.887,2.472a20.682,20.682,0,0,1-5.884.961L2575.262,209a1.591,1.591,0,0,0-2.112-.332s-.756-4.837.46-7.984,6.124-5.6,9.121-4.578,3,1.676,3,1.676,5.494-.613,6.33,4.087a8.591,8.591,0,0,1-1.852,7.385s-4.392-4.77-3.8-7.079Z" transform="translate(-2127.906 -125.21)" fill="#011d33" fill-rule="evenodd"/>
      <path id="Path_11185" data-name="Path 11185" d="M2586.095,216.219l-.922,3.872,1.112.3-.159.532-1.38-.368-.267-.071.061-.256.984-4.128.572.121Z" transform="translate(-2131.543 -131.575)" fill="#5f4534"/>
      <path id="Path_11186" data-name="Path 11186" d="M2589.562,214.845a.889.889,0,1,1-.9.889.895.895,0,0,1,.9-.889Z" transform="translate(-2132.858 -131.181)" fill="#513b2d" fill-rule="evenodd"/>
      <path id="Path_11187" data-name="Path 11187" d="M2579.433,215.39a.274.274,0,0,1-.367.046.238.238,0,0,1-.05-.345,2.366,2.366,0,0,1,3.742-.021.237.237,0,0,1-.008.349.275.275,0,0,1-.371-.007,1.856,1.856,0,0,0-2.946-.021Z" transform="translate(-2129.808 -130.963)" fill="#5f4534"/>
      <path id="Path_11188" data-name="Path 11188" d="M2580.171,221.91a.249.249,0,0,1,.2-.294.263.263,0,0,1,.311.189c0,.009.6,2.936,4.346,2.323a.261.261,0,0,1,.3.2.249.249,0,0,1-.214.285c-4.248.7-4.946-2.695-4.948-2.7Z" transform="translate(-2130.187 -133.309)" fill="#5f4534"/>
      <path id="Path_11189" data-name="Path 11189" d="M2560.553,236.165a18.3,18.3,0,0,0-8.806,2.574c-4.958,2.744-7.829,5.906-10.892,5.906s1.542-14.614,1.542-14.614-7.181-.69-7.229-.345-8.363,17.791-5.738,25.02,21.78-1.281,21.78-1.281-.195,9.894-.678,18.9h34.838a22.3,22.3,0,0,1-.032-4.172c.1-.2.644,1.459,1.422,4.172h11.373c-1.606-12.419-3.32-24.337-4.241-26.589-2.041-5-14.239-9.586-16.551-10.191a7.406,7.406,0,0,0-4.33.243s2.439,4.273-5.052,4.273-7.408-3.9-7.408-3.9Z" transform="translate(-2114.063 -135.82)" fill="#2d8cff" fill-rule="evenodd"/>
      <path id="Path_11190" data-name="Path 11190" d="M2610.824,258.816l.486,17.2-.586.013-.486-17.2.586-.013Z" transform="translate(-2139.647 -145.014)" fill="#534d8c"/>
      <path id="Path_11191" data-name="Path 11191" d="M2575.2,238.942a6.135,6.135,0,0,0,6.221,4.027s-2.455,4.332-4.934,4.584-7.51-9.778-1.287-8.611Z" transform="translate(-2127.684 -138.732)" fill="#bfd2fc" fill-rule="evenodd"/>
      <path id="Path_11192" data-name="Path 11192" d="M2590.806,238.6a6.058,6.058,0,0,1-5.332,4.272s4.025,4.326,6.5,4.577,5.051-10.016-1.172-8.849Z" transform="translate(-2131.856 -138.624)" fill="#bfd2fc" fill-rule="evenodd"/>
      <path id="Path_11193" data-name="Path 11193" d="M2586.259,203.37a12.708,12.708,0,0,1-7.29,2.887l-.021-.55a12.061,12.061,0,0,0,6.911-2.74l.4.4Z" transform="translate(-2129.803 -127.444)" fill="#2d8cff"/>
      <path id="Path_11194" data-name="Path 11194" d="M2584.394,201.054a21.427,21.427,0,0,1-6.041,2.114l-.092-.544a20.8,20.8,0,0,0,5.844-2.049l.289.479Z" transform="translate(-2129.587 -126.691)" fill="#2d8cff"/>
      <path id="Path_11195" data-name="Path 11195" d="M2594.517,203.085a19.1,19.1,0,0,0,3.149,5.291l.445-.359a18.468,18.468,0,0,1-3.043-5.122l-.551.19Z" transform="translate(-2134.701 -127.421)" fill="#2d8cff"/>
      <path id="Path_11196" data-name="Path 11196" d="M2395.354,335.313a7.257,7.257,0,0,0-2.075,5.117c.173,2.953-1.1,3.326-1.357,6.64a45.542,45.542,0,0,0,.113,6.975l21.5-.7s.808-2.11-.115-7.123-2.35-5.3-1.676-7.514-1.66-5.8-1.66-5.8l-14.735,2.4Z" transform="translate(-2070.935 -168.325)" fill="#142f51" fill-rule="evenodd"/>
      <path id="Path_11197" data-name="Path 11197" d="M2397.9,333.287a1.655,1.655,0,0,0-2.476.9c-.764,1.9,1.615,3.814,2.431,3.237s.045-4.138.045-4.138Z" transform="translate(-2072.02 -168.361)" fill="#e8a597" fill-rule="evenodd"/>
      <path id="Path_11198" data-name="Path 11198" d="M2416.339,333a1.656,1.656,0,0,1,2.482.885c.777,1.894-1.588,3.825-2.409,3.253s-.074-4.138-.074-4.138Z" transform="translate(-2078.548 -168.268)" fill="#e8a597" fill-rule="evenodd"/>
      <path id="Path_11199" data-name="Path 11199" d="M2403.217,348.267a27.636,27.636,0,0,1-.529,5.092,2.462,2.462,0,0,1-.986,1.417,3.237,3.237,0,0,0-.462.393c2.98,3.353,11.118.344,10.3-.337,0,0-1.9-1.044-2.237-4.409l-.336-3.365-5.749,1.208Z" transform="translate(-2073.895 -172.776)" fill="#f9bfb3" fill-rule="evenodd"/>
      <path id="Path_11200" data-name="Path 11200" d="M2402.1,357.724a1.287,1.287,0,0,1-.4.33,3.235,3.235,0,0,0-.462.393c2.98,3.353,11.118.344,10.3-.337a3.224,3.224,0,0,1-.739-.635,8.744,8.744,0,0,1-5.4,1,12.607,12.607,0,0,1-3.3-.748Z" transform="translate(-2073.895 -176.053)" fill="#fff" fill-rule="evenodd"/>
      <path id="Path_11201" data-name="Path 11201" d="M2404.085,348.267s-.023.857-.089,1.889a8.227,8.227,0,0,0,6.116-.3l-.279-2.8-5.749,1.208Z" transform="translate(-2074.762 -172.776)" fill="#e8a597" fill-rule="evenodd"/>
      <path id="Path_11202" data-name="Path 11202" d="M2448.482,337.024s.143,5.97-.938,6.636a6.007,6.007,0,0,1-2.17.8c4.341,4.049,9.773,2.443,12.817.064,0,0-2.28-.219-2.588-1.9a42.942,42.942,0,0,1-.334-5.228l-6.787-.374Z" transform="translate(-2087.78 -169.619)" fill="#f9bfb3" fill-rule="evenodd"/>
      <path id="Path_11203" data-name="Path 11203" d="M2449.872,337.024s.039,1.626-.078,3.275a6.722,6.722,0,0,0,6.93-.61c-.057-1.234-.065-2.291-.065-2.291l-6.787-.374Z" transform="translate(-2089.171 -169.619)" fill="#e8a597" fill-rule="evenodd"/>
      <path id="Path_11204" data-name="Path 11204" d="M2443.237,323.109a1.269,1.269,0,0,0-1.991.265c-.931,1.27.094,3.842,1.451,3.94s.54-4.206.54-4.206Z" transform="translate(-2086.368 -165.123)" fill="#e8a597" fill-rule="evenodd"/>
      <path id="Path_11205" data-name="Path 11205" d="M2464.178,322.8a1.268,1.268,0,0,1,2,.208c.972,1.242.031,3.842-1.323,3.98s-.675-4.188-.675-4.188Z" transform="translate(-2093.643 -165.018)" fill="#e8a597" fill-rule="evenodd"/>
      <path id="Path_11206" data-name="Path 11206" d="M2443.916,314.008a48.025,48.025,0,0,0,.165,10.1c1.366,10.607,12.817,8.241,13.9.705.753-5.233,1.839-12.06.153-12.717s-13.779-.479-14.219,1.911Z" transform="translate(-2087.261 -161.673)" fill="#f9bfb3" fill-rule="evenodd"/>
      <path id="Path_11207" data-name="Path 11207" d="M2450.014,321.541c.367,0,.674.389.684.879s-.28.89-.647.894-.675-.389-.685-.879.279-.89.648-.894Z" transform="translate(-2089.036 -164.748)" fill="#00202b" fill-rule="evenodd"/>
      <path id="Path_11208" data-name="Path 11208" d="M2458.514,321.443c.367,0,.674.389.684.879s-.28.89-.648.894-.674-.389-.684-.879.28-.89.648-.894Z" transform="translate(-2091.71 -164.717)" fill="#00202b" fill-rule="evenodd"/>
      <path id="Path_11209" data-name="Path 11209" d="M2448.108,320.708a.411.411,0,0,1-.558-.027.362.362,0,0,1,.029-.529,2.675,2.675,0,0,1,3.269-.184.361.361,0,0,1,.091.523.411.411,0,0,1-.552.086,1.866,1.866,0,0,0-2.279.132Z" transform="translate(-2088.433 -164.1)" fill="#00202b"/>
      <path id="Path_11210" data-name="Path 11210" d="M2459.545,320.561a.41.41,0,0,0,.557-.043.362.362,0,0,0-.047-.528,2.676,2.676,0,0,0-3.273-.088.363.363,0,0,0-.074.526.411.411,0,0,0,.554.07,1.868,1.868,0,0,1,2.282.064Z" transform="translate(-2091.321 -164.065)" fill="#00202b"/>
      <path id="Path_11211" data-name="Path 11211" d="M2453.928,324.136a2.589,2.589,0,0,1-.573,1.978,2.472,2.472,0,0,0-.635,1.21c-.01.311.219.57.856.737l-.08.273c-.8-.21-1.09-.572-1.074-1.019a2.659,2.659,0,0,1,.695-1.37,2.314,2.314,0,0,0,.517-1.763l.295-.045Z" transform="translate(-2089.997 -165.564)" fill="#d66d50"/>
      <path id="Path_11212" data-name="Path 11212" d="M2450.787,332.3c1.379-.138,6.247-1.733,5.418-.655-3,3.909-6.187.731-5.418.655Z" transform="translate(-2089.446 -167.811)" fill="#fff" fill-rule="evenodd"/>
      <path id="Path_11213" data-name="Path 11213" d="M2442.823,318.616a5.889,5.889,0,0,1-2.055-4.212,4.692,4.692,0,0,1,1.23-3.684c3.348-7.541,15.983-4.162,16.043-.785,0,0,.488-.4.805,3.029s-1.014,4.333-1.014,4.333l-.817-4.047c-3.337-1.4-11-1.7-13.675.69l-.517,4.676Z" transform="translate(-2086.331 -159.915)" fill="#3b347a" fill-rule="evenodd"/>
      <path id="Path_11214" data-name="Path 11214" d="M2438.5,347.442a7.594,7.594,0,0,1-3.472,1.262c-2.488.422-6.422,2.016-7.756,4.371s-3.739,5.938-3.739,5.938l1.184,20.929.091-7.6s4.3-4.352,5.59-5.646c.678-.681.637,6.836.42,14.182h35.053c-.435-7.159-.9-14.37-1.2-17.412-.674-6.967-2.329-8.953-5.177-11.572s-7.9-4.29-7.9-4.29-4.382,2.05-6.839,2.229-6.26-2.392-6.26-2.392Z" transform="translate(-2080.908 -172.897)" fill="#bfd2fc" fill-rule="evenodd"/>
      <path id="Path_11215" data-name="Path 11215" d="M2398.258,326.632a35.117,35.117,0,0,0,0,9.44c1.473,8.221,11,7.257,12.456.437a40.978,40.978,0,0,0,.841-9.267c-.172-2.82-9.075-5.785-13.294-.61Z" transform="translate(-2072.851 -165.458)" fill="#f9bfb3" fill-rule="evenodd"/>
      <path id="Path_11216" data-name="Path 11216" d="M2402.9,333.706c.374-.005.684.391.692.887a.81.81,0,0,1-.663.907c-.375.005-.684-.391-.692-.887a.81.81,0,0,1,.664-.908Z" transform="translate(-2074.209 -168.575)" fill="#00202b" fill-rule="evenodd"/>
      <path id="Path_11217" data-name="Path 11217" d="M2406.744,334.691c0,.011-1.007,3.964-.429,4.522.558.538.969.316.971.315l.138.233a1.143,1.143,0,0,1-1.311-.361c-.689-.665.352-4.76.356-4.772l.275.062Z" transform="translate(-2075.354 -168.866)" fill="#d66d50"/>
      <path id="Path_11218" data-name="Path 11218" d="M2403.252,343.269a.272.272,0,0,1-.047-.4.31.31,0,0,1,.419-.045,4.2,4.2,0,0,0,4.4.138.305.305,0,0,1,.4.121.275.275,0,0,1-.126.381,4.836,4.836,0,0,1-5.05-.2Z" transform="translate(-2074.493 -171.425)" fill="#d66d50"/>
      <path id="Path_11219" data-name="Path 11219" d="M2400.814,331.605a.247.247,0,0,1-.33-.069.219.219,0,0,1,.073-.313c.005,0,1.864-1.148,2.931.288a.219.219,0,0,1-.057.316.248.248,0,0,1-.333-.055c-.8-1.079-2.28-.17-2.284-.168Z" transform="translate(-2073.646 -167.657)" fill="#d66d50"/>
      <path id="Path_11220" data-name="Path 11220" d="M2412.445,331.436a.246.246,0,0,0,.327-.078.22.22,0,0,0-.082-.311c-.006,0-1.9-1.092-2.921.374a.22.22,0,0,0,.068.314.247.247,0,0,0,.331-.064c.767-1.1,2.272-.237,2.277-.235Z" transform="translate(-2076.566 -167.615)" fill="#d66d50"/>
      <path id="Path_11221" data-name="Path 11221" d="M2374.271,384.207c-.164-7.09,6.912-17.493,9.128-20.826,2.3-3.456,9.459-5.145,9.459-5.145s3.977,2.364,7.1,1.149a19.728,19.728,0,0,0,3.22-1.365s6.649,1.782,8.441,4.535,2.255,12.147,2.255,12.147l.155,9.506H2386.8a8.353,8.353,0,0,1,.08-1.084c.115-.9.185-1.656.225-2.354-.288-3.008-.679-5.691-1.165-5.837-.861-.258-2.764,4.88-3.438,7.9.209.188.386.435.257.714a1.142,1.142,0,0,0-.129.663Z" transform="translate(-2065.41 -176.224)" fill="#2d8cff" fill-rule="evenodd"/>
      <path id="Path_11222" data-name="Path 11222" d="M2404.12,322.857c.2.389.947,1.548,3.293,2.682,2.877,1.391,3.306,5.607,3.306,5.607a2.6,2.6,0,0,0,2.249-2.5c.047-3.872-1.369-8.4-6.014-9.406-4.178-.9-5.317.738-5.317.738-5.56.036-6.126,4.892-5.323,8.634.139.645,1.022.642,1.022.642.669-4.12,2.887-5.661,6.782-6.4Z" transform="translate(-2072.254 -163.94)" fill="#142f51" fill-rule="evenodd"/>
      <path id="Path_11223" data-name="Path 11223" d="M2457.416,330.3a1.687,1.687,0,0,1,2.167,1.195l-.271.071a1.413,1.413,0,0,0-1.813-1.01l-.082-.256Z" transform="translate(-2091.568 -167.48)" fill="#ed986b"/>
      <path id="Path_11224" data-name="Path 11224" d="M2396.405,342.42a6.7,6.7,0,0,0-.5,4.645c.648,2.843-1.075,6.271-1.08,6.281l-.255-.114c.005-.01,1.687-3.356,1.058-6.11a6.981,6.981,0,0,1,.531-4.831l.247.13Z" transform="translate(-2071.797 -171.276)" fill="#534d8c"/>
      <path id="Path_11225" data-name="Path 11225" d="M2398.646,346.665a8.526,8.526,0,0,0,.115,3.245,6.71,6.71,0,0,1-.427,3.809l-.26-.106a6.414,6.414,0,0,0,.411-3.652,8.819,8.819,0,0,1-.117-3.345l.279.049Z" transform="translate(-2072.899 -172.637)" fill="#534d8c"/>
      <path id="Path_11226" data-name="Path 11226" d="M2418.227,342.109a6.71,6.71,0,0,1,.652,4.628c-.555,2.861,1.279,6.237,1.284,6.247l.251-.122c-.005-.009-1.794-3.3-1.257-6.076a7,7,0,0,0-.686-4.814l-.245.137Z" transform="translate(-2079.239 -171.176)" fill="#534d8c"/>
      <path id="Path_11227" data-name="Path 11227" d="M2416.665,346.4a8.531,8.531,0,0,1-.01,3.247,6.708,6.708,0,0,0,.551,3.795l.255-.112a6.446,6.446,0,0,1-.528-3.639,8.818,8.818,0,0,0,.008-3.347l-.276.058Z" transform="translate(-2078.72 -172.551)" fill="#534d8c"/>
      <path id="Path_11228" data-name="Path 11228" d="M2411.431,333.581c.373-.005.685.392.692.888a.809.809,0,0,1-.662.907c-.375.006-.685-.391-.694-.887a.811.811,0,0,1,.664-.907Z" transform="translate(-2076.892 -168.536)" fill="#00202b" fill-rule="evenodd"/>
      <path id="Path_11229" data-name="Path 11229" d="M2471.687,384.667c-.056-6.677-.378-23.007-2.164-24.961l.271-.222c1.858,2.032,2.192,18.48,2.25,25.183Z" transform="translate(-2095.377 -176.685)" fill="#9ea7db"/>
      <path id="Path_11230" data-name="Path 11230" d="M2435.076,360.746l-.87,9.614-.358-.019.87-9.614.357.019Z" transform="translate(-2084.154 -177.076)" fill="#9ea7db"/>
      <path id="Path_11231" data-name="Path 11231" d="M2387.446,360.4c2.518-1.51,5.3-2.356,5.366,1.577.032,1.951,0,2.454-.966,2.5s-.6-.316-1.845,1.653-1.615,2.211-2.974,1.137c-1.837-1.453-2.085-5.363.419-6.865Z" transform="translate(-2068.978 -176.576)" fill="#f9bfb3" fill-rule="evenodd"/>
      <path id="Path_11232" data-name="Path 11232" d="M2445.089,348.906c.016.014,5.408,5.02,13.075-.206l.164.217c-7.859,5.358-13.419.2-13.435.182l.2-.193Z" transform="translate(-2087.629 -173.292)" fill="#9ea7db"/>
      <path id="Path_11233" data-name="Path 11233" d="M2388.966,367.758c-.007,0-2.537-1.169-2.449-3.7l.281.008a3.988,3.988,0,0,0,2.3,3.456l-.128.239Zm2-2.224c-.005,0-1.612-1.013-1.719-2.352a6.432,6.432,0,0,1,.327-2.468l.266.086a6.208,6.208,0,0,0-.312,2.362c.1,1.207,1.592,2.149,1.6,2.151l-.16.22Zm.306-4.426c0,.008.735,2.606.284,3.544l-.257-.11c.41-.851-.3-3.356-.3-3.363l.274-.07Zm-1.491,5.657s-1.611-1.013-1.719-2.352a6.462,6.462,0,0,1,.327-2.467l.266.086a6.192,6.192,0,0,0-.312,2.361c.1,1.208,1.593,2.149,1.6,2.152l-.16.22Z" transform="translate(-2069.263 -177.072)" fill="#e8a597"/>
      <path id="Path_11234" data-name="Path 11234" d="M2391.516,368.375c0,.012.678,4.323-.308,6.174l-.252-.121c.946-1.775.282-6,.281-6.014l.278-.039Zm5.888-9.534c0,.006,1.539,2.31,5.857,2.073,4.339-.238,6.052-2.256,6.057-2.262l.218.169c-.005.006-1.8,2.115-6.259,2.36-4.483.247-6.1-2.187-6.109-2.194l.237-.145ZM2391.678,374a12.53,12.53,0,0,0,2.488-5.967l.282.018a12.8,12.8,0,0,1-2.545,6.109l-.225-.16Zm21.842-5.5.979,6.672-.28.036-.979-6.671.28-.037Zm-1.386,4.158c-.014.008-5.2,2.6-13.89,1.809l.027-.267c8.609.78,13.719-1.773,13.735-1.78l.128.238Z" transform="translate(-2070.66 -176.423)" fill="#d7dcf7"/>
      <path id="Path_11235" data-name="Path 11235" d="M2458.239,380.836c-.039.022-11.008,5.909-13.817,10.476h-.278c2.806-4.725,13.916-10.686,13.957-10.708l.139.232Z" transform="translate(-2087.393 -183.33)" fill="#9ea7db"/>
      <path id="Path_11236" data-name="Path 11236" d="M2409.5,325.448c.006,0,2.061.169,2.479,3.522l-.28.031c-.392-3.138-2.224-3.286-2.229-3.286l.03-.267Zm-4.791-4.326c.009,0,3.632-1.689,6.576,2.665l-.237.144c-2.81-4.153-6.209-2.571-6.219-2.567l-.121-.242Zm-1.963,1.866a4.2,4.2,0,0,0-4.476,4.008l-.281-.029a4.478,4.478,0,0,1,4.777-4.247l-.019.267Z" transform="translate(-2072.874 -164.514)" fill="#534d8c"/>
      <path id="Path_11237" data-name="Path 11237" d="M2444.277,312.143c.017-.012,5.988-4.014,12.106-1.655l-.105.248c-5.976-2.3-11.823,1.615-11.841,1.626l-.159-.219Zm-.079-1.809c.139-.092,6.113-4.029,12.238-1.668l.131.051-.212.5-.131-.051c-5.856-2.257-11.595,1.538-11.7,1.611l-.117.08-.324-.443.12-.075Zm11.85-1.524-.211-.071.211.071Zm-.281-.1c-5.36-1.733-10.471,1.249-11.294,1.766.829-.517,5.937-3.5,11.294-1.766Z" transform="translate(-2087.373 -160.461)" fill="#534d8c"/>
      <path id="Path_11238" data-name="Path 11238" d="M2310.626,211.786a10.259,10.259,0,1,1-10.44,10.258,10.35,10.35,0,0,1,10.44-10.258Z" transform="translate(-2042.103 -130.218)" fill="#347df0" fill-rule="evenodd"/>
      <path id="Path_11239" data-name="Path 11239" d="M2310.626,254.21a10.259,10.259,0,1,1-10.44,10.258,10.351,10.351,0,0,1,10.44-10.258Z" transform="translate(-2042.103 -143.565)" fill="#347df0" fill-rule="evenodd"/>
      <path id="Path_11240" data-name="Path 11240" d="M2310.626,296.8a10.259,10.259,0,1,1-10.44,10.258,10.35,10.35,0,0,1,10.44-10.258Z" transform="translate(-2042.103 -156.963)" fill="#cf6557" fill-rule="evenodd"/>
      <path id="Path_11241" data-name="Path 11241" d="M2308.115,261.743h10.676v.948h-10.676v-.948Zm-.658,9.241h-1.129v.947h1.129v-.947Zm0-2.31h-1.129v.948h1.129v-.948Zm0-2.31h-1.129v.947h1.129v-.947Zm0-2.31h-1.129V265h1.129v-.947Zm0-2.31h-1.129v.948h1.129v-.948Zm.658,9.241h10.676v.947h-10.676v-.947Zm0-2.31h10.676v.948h-10.676v-.948Zm0-2.31h10.676v.947h-10.676v-.947Zm0-2.31h10.676V265h-10.676v-.947Z" transform="translate(-2044.035 -145.935)" fill="#fff" fill-rule="evenodd"/>
      <path id="Path_11242" data-name="Path 11242" d="M2305.729,306.458h4.715v-.888h-4.715v-.936h5.632v1.824h2.414v6.125h-8.047v-6.125Zm13.284-1.824-4.6,1.824v6.125l4.6,1.823v-9.772Z" transform="translate(-2043.847 -159.429)" fill="#fff9ef" fill-rule="evenodd"/>
      <path id="Path_11243" data-name="Path 11243" d="M2310.626,339.384a10.259,10.259,0,1,1-10.44,10.258,10.351,10.351,0,0,1,10.44-10.258Z" transform="translate(-2042.103 -170.362)" fill="#347df0" fill-rule="evenodd"/>
      <path id="Path_11244" data-name="Path 11244" d="M2312.193,344.12c1.5,0,2.722,1.627,2.722,3.635a4.011,4.011,0,0,1-1.306,3.105c1.761.343,4.56,1.013,4.74,1.829a18.317,18.317,0,0,1-.191,3.583h-11.928a18.378,18.378,0,0,1-.192-3.583c.18-.816,2.979-1.485,4.74-1.829a4.01,4.01,0,0,1-1.306-3.105c0-2.008,1.219-3.635,2.722-3.635Zm4.656,6.391v-1.429H2315.4v-.6h1.447v-1.422h.616v1.422h1.448v.6h-1.448v1.429Z" transform="translate(-2043.932 -171.851)" fill="#fff" fill-rule="evenodd"/>
      <path id="Path_11245" data-name="Path 11245" d="M2310.217,216h6.671a.728.728,0,0,1,.733.72v13.3a.728.728,0,0,1-.733.72h-6.671a.729.729,0,0,1-.732-.72v-13.3a.729.729,0,0,1,.732-.72Zm3.335,13.156a.508.508,0,1,1-.517.509.513.513,0,0,1,.517-.509Zm-3.013-11.245h6.027v10.918h-6.027V217.91Z" transform="translate(-2045.028 -131.544)" fill="#fff9ef" fill-rule="evenodd"/>
      <path id="Path_11246" data-name="Path 11246" d="M2811.555,433.529a42.278,42.278,0,0,0-24.011,10.588c-10.587,9.845-23.256,49.6-30.817,54.239s-34.789,11.887-50.293,14.3-23.066,2.6-23.066,2.6c-6.833,4.635-8.492,13.2,0,22.1l58.052-5.282,18.43,19.029v8.046l69.905-7.959s21.858-54.268,28.632-71.106,5.645-51.12-8.977-53.026-30.673,6.095-37.855,6.465Z" transform="translate(-2160.841 -197.854)" fill="#00cfff" fill-rule="evenodd"/>
      <path id="Path_11247" data-name="Path 11247" d="M2794.185,556.394l2.342,2.418v8.046l69.9-7.959s21.859-54.267,28.632-71.106c3.684-9.16,5.029-23.48,3.137-34.943-4.864-3.762-11.877-.071-14.683,2.866-3.318,3.476-9.566,5.417-21.475,6.664s-15.813,6.426-17.409,13.618-11.762,43.157-34.75,69.555a38.152,38.152,0,0,1-15.7,10.84Z" transform="translate(-2197.518 -205.557)" fill="#00b3dc" fill-rule="evenodd"/>
      <path id="Path_11248" data-name="Path 11248" d="M2823.289,457.771s6.406,2.23,6.406,11.145-20.613,51.638-26.284,57.953-32.7,14.964-32.7,14.964l5.513,5.77s20.54-1.416,33.8-17.762,21.641-46.809,23.822-58.325-4.155-13.746-10.561-13.746Z" transform="translate(-2190.133 -207.607)" fill="#00b3dc" fill-rule="evenodd"/>
      <path id="Path_11249" data-name="Path 11249" d="M2850.861,467.335c-10.776.742-13.8,4.457-15.691,11.7s-34.613,81.173-41.225,86.931c-1.839,1.6-5.876,2.47-10.756,2.938v1.337h-31.4c68.888,42.989,147.625-15.774,133.924-103.464-3.085-19.741-10.1-1.149-34.852.557Z" transform="translate(-2184.18 -207.605)" fill="#b6beed" fill-rule="evenodd"/>
      <path id="Path_11250" data-name="Path 11250" d="M2770.8,584.13c63.542,27.827,129.934-25.085,121.759-103.591-10.356-1.461-28.511-1.18-36.508,16.3-11.519,25.172-22.371,75.331-49.2,85.066-11.542,4.188-24.748,3.907-36.054,2.23Z" transform="translate(-2190.162 -214.597)" fill="#9ea7db" fill-rule="evenodd"/>
      <path id="Path_11251" data-name="Path 11251" d="M2819.657,452.134c.057.006,19.97,2.452,36.118-16.421l1.307,1.079c-16.748,19.576-37.56,17.02-37.618,17.014l.193-1.672Zm-119.566,70.516c.045.014,15.5,5.033,47.566-4.138l.476,1.613c-32.57,9.315-48.518,4.139-48.565,4.125l.523-1.6Zm-4.235,2.092c.042.02,14.73,6.913,47.719,1.788l.261,1.659c-33.5,5.2-48.66-1.906-48.7-1.927l.723-1.521Zm70.065-22.974c.023.015,8,5.11,6.622,17.693l-1.7-.178c1.267-11.564-5.837-16.1-5.858-16.114l.937-1.4Zm-2.335.184c.017.021,5.861,7.4.366,18.855l-1.548-.718c5.045-10.515-.156-17.084-.171-17.1l1.353-1.034Zm32.216-47.036c0,.088.115,30.89-15.021,43.367l-1.1-1.289c14.516-11.965,14.407-41.991,14.407-42.078Z" transform="translate(-2166.355 -200.667)" fill="#00b3dc"/>
      <path id="Path_11252" data-name="Path 11252" d="M2783.642,349.739s-3.119,4.365-4.537,14.489,1.141,13.847,3.409,17.663,15.214-.668,15.214-.668,18.34-7.9,14.368-24.705-21.27-13.281-28.454-6.78Z" transform="translate(-2192.646 -171.922)" fill="#f9bfb3" fill-rule="evenodd"/>
      <path id="Path_11253" data-name="Path 11253" d="M2782.65,339.7s-6.295,5.887-5.294,9.845,8.6,3.715,10.02,4.086,2.08,2.844,0,5.2-2.836,11.423-1.7,11.887,3.026-3.47,3.026-6.5c0-6.343,7.951-.783,3.025,4.365l-2.08,2.173c1.952,5.071,11.41,11.06,19.19,5.888,5.955-3.96,13.612-16.05,10.682-29.423s-24.295-17.924-36.868-7.522Z" transform="translate(-2192.19 -168.662)" fill="#06294c" fill-rule="evenodd"/>
      <path id="Path_11254" data-name="Path 11254" d="M2763.108,433.788c.01.075,4.121,26.1-14.751,49.543l-.894-.693c18.563-23.055,14.526-48.61,14.514-48.684l1.131-.166Zm9.194-3.929c.011.075,4.122,26.1-14.75,49.543l-.893-.693c18.561-23.056,14.525-48.61,14.514-48.684l1.129-.167Z" transform="translate(-2182.819 -198.826)" fill="#2d8cff"/>
      <path id="Path_11255" data-name="Path 11255" d="M2722.915,515.256c-.01.009-4.107,3.171,7.733,9.687l-.559.978c-13.308-7.326-7.917-11.518-7.9-11.53l.728.865Zm2.4-.777c0,.014-1.416,4.949,12.066,3.334l.134,1.115c-15.134,1.812-13.312-4.694-13.307-4.711l1.108.262Z" transform="translate(-2174.523 -225.365)" fill="#2d8cff"/>
      <path id="Path_11256" data-name="Path 11256" d="M2104.439,493.116s9.832,45.764,20.435,52.71c5.447,3.568,14.254,6.967,21.531,9.428l11.924-12.632c-8.616-2.95-20.175-7.675-22.127-12.323-3.172-7.559-11.328-42.087-11.328-42.087l-20.435,4.9Z" transform="translate(-1980.52 -217.184)" fill="#f9bfb3" fill-rule="evenodd"/>
      <path id="Path_11257" data-name="Path 11257" d="M2026.243,432.828s28.8,15.119,32.906,15.936,1.32,20.635,7.387,47.4,17.132,44.4,25.123,47.744,11.029,2.759,17.285,3.188l-5.492,5.757v9.382h17.418c-135.761,38.738-108.671-140.764-94.627-129.405Z" transform="translate(-1952.131 -199.596)" fill="#b6beed" fill-rule="evenodd"/>
      <path id="Path_11258" data-name="Path 11258" d="M2120.872,569.378c-106.581,30.412-112.789-73.668-103.741-114.324,9.245-.4,22.955,2.554,25.965,22.716,4.635,31.048,6.7,78.093,32.957,86.918s44.82,4.691,44.82,4.691Z" transform="translate(-1952.133 -206.741)" fill="#9ea7db" fill-rule="evenodd"/>
      <path id="Path_11259" data-name="Path 11259" d="M2208.781,367.384c.538-.217,1.283.347,1.664,1.259s.253,1.827-.285,2.044-1.284-.347-1.664-1.259-.253-1.827.285-2.044Z" transform="translate(-2013.188 -179.156)" fill="#3b347a" fill-rule="evenodd"/>
      <path id="Path_11260" data-name="Path 11260" d="M2215.658,387.228a6.707,6.707,0,0,1-6.128-.088l.618-1.189a5.241,5.241,0,0,0,4.813.129l.7,1.148Z" transform="translate(-2013.582 -185.012)" fill="#d18c84"/>
      <path id="Path_11261" data-name="Path 11261" d="M2227.949,551.308h52.466l6.508,25.579h-71.305l12.331-25.579Z" transform="translate(-2015.498 -237.034)" fill="#f5f7ff" fill-rule="evenodd"/>
      <path id="Path_11262" data-name="Path 11262" d="M2668.292,557.829a31.34,31.34,0,0,0-3.964-.894c-2.8-.383-7.282-1.822-10.143,0s-1.041,3.19-1.041,3.19-13.786,4.091-15.607,5.993-3.581,10.554,8.859,9.183a67.671,67.671,0,0,1,22.357.9c-3.829-7.134-3.4-13.888-.461-18.373Z" transform="translate(-2147.832 -238.521)" fill="#f9bfb3" fill-rule="evenodd"/>
      <path id="Path_11263" data-name="Path 11263" d="M2680.733,558.359c-.807-.228-1.7-.458-2.545-.639-1.741,3.224-3.79,9.419-1.073,18.281,1.946.288,3.314.589,4.079.731-3.829-7.134-3.4-13.888-.461-18.373Z" transform="translate(-2160.272 -239.051)" fill="#e8a597" fill-rule="evenodd"/>
      <path id="Path_11264" data-name="Path 11264" d="M2887.86,349.608c-14.269-13.678-38.455,6.424-40.365,16.719-.946,5.1,7.94,5.914,8.129,14.375s.1,17.535-3.308,22.021c-8.4,11.076,20.41,17.222,34.031,12.641,33.783-11.36,13.791-53.989,1.514-65.757Z" transform="translate(-2214.267 -172.127)" fill="#142f51" fill-rule="evenodd"/>
      <path id="Path_11265" data-name="Path 11265" d="M2283.921,519.514a49.586,49.586,0,0,1,5.9-.463c7.043,0,14.473-3.049,16.969-7.763s-1.449-7.558-3.944-6.128-10.906,3.587-8.891,1.577c3.923-.586,7.707-4.918-.4-2.484s-5.9,6.728-11.826,7.137l-.435.029,2.624,8.1Z" transform="translate(-2036.161 -221.999)" fill="#f9bfb3" fill-rule="evenodd"/>
      <path id="Path_11266" data-name="Path 11266" d="M2606.473,510.588l12.748,13.7a1.812,1.812,0,0,0,1.909.925,15.834,15.834,0,0,0,3.223-.8c3.172-1.08,39.751-12.132,39.751-12.132s1.506-1.24.577-2.2-14.191-12.485-14.191-12.485-.923-.951-3.576-.225S2608.8,507.78,2608.8,507.78c-.79.153-2.333.916-2.622,1.808a1.049,1.049,0,0,1-.216-.557,2.266,2.266,0,0,0,.508,1.557Z" transform="translate(-2138.303 -219.98)" fill="#ccc" fill-rule="evenodd"/>
      <path id="Path_11267" data-name="Path 11267" d="M2606.3,509.5l12.928,13.889c.572.614.6.888,1.508.9a9.827,9.827,0,0,0,3.149-.654c3.171-1.08,39.749-12.131,39.749-12.131s1.861-.831.931-1.787-14.59-12.8-14.59-12.8-.877-1.049-3.531-.322S2608.338,507,2608.338,507c-1.076.208-3.2,1.243-2.033,2.5Z" transform="translate(-2138.303 -219.74)" fill="#fff" fill-rule="evenodd"/>
      <path id="Path_11268" data-name="Path 11268" d="M2621.475,523.493h.065a9.058,9.058,0,0,0,2.646-.574c2.317-.789,4.724-1.485,7.068-2.2q6.361-1.951,12.73-3.883,9.869-3,19.744-5.981c-.607-.564-1.291-1.13-1.88-1.649q-2.352-2.076-4.719-4.136-3.668-3.2-7.346-6.389l-.09-.078-.009-.011a3.688,3.688,0,0,0-2.053.077q-19.051,5.22-38.112,10.407l-.055.015-.057.01a3.832,3.832,0,0,0-.955.371l12.66,13.6c.117.126.242.289.363.423Z" transform="translate(-2139.085 -220.408)" fill="#3b347a" fill-rule="evenodd"/>
      <path id="Path_11269" data-name="Path 11269" d="M2453.958,156.3a3.931,3.931,0,1,1-4,3.93,3.965,3.965,0,0,1,4-3.93Z" transform="translate(-2089.222 -112.761)" fill="#2d8cff" fill-rule="evenodd"/>
      <path id="Path_11270" data-name="Path 11270" d="M2454.142,156.868a3.539,3.539,0,1,1-3.6,3.539,3.571,3.571,0,0,1,3.6-3.539Z" transform="translate(-2089.405 -112.941)" fill="#051828" fill-rule="evenodd"/>
      <path id="Path_11271" data-name="Path 11271" d="M2454.793,158.9a2.146,2.146,0,1,1-2.184,2.145,2.165,2.165,0,0,1,2.184-2.145Z" transform="translate(-2090.056 -113.581)" fill="#2d8cff" fill-rule="evenodd"/>
      <path id="Path_11272" data-name="Path 11272" d="M2446.7,158.9h2.231v7.359h8V158.9h2.231v9.818H2446.7V158.9Z" transform="translate(-2088.198 -113.581)" fill="#7e94a1" fill-rule="evenodd"/>
      <path id="Path_11276" data-name="Path 11276" d="M2455.082,159.8a1.527,1.527,0,1,1-1.554,1.526,1.54,1.54,0,0,1,1.554-1.526Z" transform="translate(-2090.345 -113.865)" fill="#2d8cff" fill-rule="evenodd"/>
      <path id="Path_11277" data-name="Path 11277" d="M2454.6,163.537a1.8,1.8,0,0,1-.894-.478,1.741,1.741,0,0,1-.525-1.247,1.718,1.718,0,0,1,.066-.475l.477.082a1.275,1.275,0,0,0,.322,1.3,1.321,1.321,0,0,0,.812.372l-.258.44Z" transform="translate(-2090.235 -114.347)" fill="#00cfff"/>
      <path id="Path_11278" data-name="Path 11278" d="M2487.592,156.3a3.931,3.931,0,1,1-4,3.93,3.965,3.965,0,0,1,4-3.93Z" transform="translate(-2099.804 -112.761)" fill="#2d8cff" fill-rule="evenodd"/>
      <path id="Path_11279" data-name="Path 11279" d="M2487.774,156.868a3.539,3.539,0,1,1-3.6,3.539,3.571,3.571,0,0,1,3.6-3.539Z" transform="translate(-2099.986 -112.941)" fill="#051828" fill-rule="evenodd"/>
      <path id="Path_11280" data-name="Path 11280" d="M2488.426,158.9a2.146,2.146,0,1,1-2.184,2.145,2.165,2.165,0,0,1,2.184-2.145Z" transform="translate(-2100.637 -113.581)" fill="#2d8cff" fill-rule="evenodd"/>
      <path id="Path_11281" data-name="Path 11281" d="M2480.336,158.9h2.231v7.359h8V158.9h2.231v9.818h-12.463V158.9Z" transform="translate(-2098.779 -113.581)" fill="#7e94a1" fill-rule="evenodd"/>
      <path id="Path_11282" data-name="Path 11282" d="M2481.242,159.792v8.6h11.22v-8.6h-.988v7.359h-9.244v-7.359Z" transform="translate(-2099.064 -113.861)" fill="#7e94a1" fill-rule="evenodd"/>
      <path id="Path_11283" data-name="Path 11283" d="M2489.427,166.261h4V158.9h2.232v9.818h-6.232v-2.458Z" transform="translate(-2101.64 -113.581)" fill="#7e94a1" fill-rule="evenodd"/>
      <path id="Path_11284" data-name="Path 11284" d="M2489.427,168.389h5.61v-8.6h-.988v7.359h-4.622v1.237Z" transform="translate(-2101.64 -113.861)" fill="#7e94a1" fill-rule="evenodd"/>
      <path id="Path_11285" data-name="Path 11285" d="M2488.715,159.8a1.527,1.527,0,1,1-1.554,1.526,1.54,1.54,0,0,1,1.554-1.526Z" transform="translate(-2100.927 -113.865)" fill="#2d8cff" fill-rule="evenodd"/>
      <path id="Path_11286" data-name="Path 11286" d="M2488.228,163.537a1.8,1.8,0,0,1-.893-.478,1.74,1.74,0,0,1-.526-1.247,1.7,1.7,0,0,1,.067-.475l.477.082a1.276,1.276,0,0,0,.323,1.3,1.319,1.319,0,0,0,.81.372l-.258.44Z" transform="translate(-2100.816 -114.347)" fill="#00cfff"/>
      <path id="Path_11287" data-name="Path 11287" d="M2209.1,364.64c-.009,0-3.189-.559-3.348,3.7l-.7-.024c.189-5.054,4.156-4.359,4.167-4.358l-.118.681Z" transform="translate(-2012.173 -178.083)" fill="#2d8cff" fill-rule="evenodd"/>
      <path id="Path_11288" data-name="Path 11288" d="M2311.153,512.465c-.005.008-1.7,2.626-9.748,4.053l-.119-.648c7.762-1.376,9.3-3.752,9.3-3.758l.566.354Zm.287-2.217c-.009.006-2.741,2.206-10.732,3.622l-.119-.648c7.823-1.387,10.427-3.484,10.435-3.491l.416.517Zm-.377-3.545c-.008.006-3.123,2.2-11.106,3.611l-.119-.649c7.833-1.387,10.83-3.5,10.839-3.5l.386.54Zm.362,1.779c-.008.005-3.124,2.2-11.106,3.611l-.119-.649c7.832-1.388,10.83-3.5,10.839-3.5l.386.54Z" transform="translate(-2041.994 -222.831)" fill="#e8a597"/>
      <path id="Path_11289" data-name="Path 11289" d="M2198.327,436.5c2.607,5.282,14.573,38.2,17.868,39.129,3.329.94,35.664,9.407,35.664,9.407,3.829,4.352.6,9.4.161,11.934,0,0-36.3-2.39-43.174-5.511s-7.347-8.489-11.707-15.6c-23.9-38.951-20.935-46.782-14.107-48.9,5.065-1.574,11.01.856,15.294,9.541Z" transform="translate(-2003.715 -197.772)" fill="#00cfff" fill-rule="evenodd"/>
      <path id="Path_11290" data-name="Path 11290" d="M2188.822,348.719c-2.089,6.18-4.739,3.7-6.655,6.689a10.482,10.482,0,0,0-.509,10.073c1.521,3.265,2.535,5.59,1.465,5.479-.821-.084-2.8-3.972-4.64-5.585-2.547-2.232-5.932.831-4.6,5.2,1.352,4.428,5.521,4.04,5.633,4.372s-2.816-.11-3.268,2.879,1.647,4.429-2.782,11.182,3.343,7.886.451,14.086-31.333,13-40.234-8.53,13.967-21.132,14.841-28.8c4.53-39.751,43.324-25.995,40.3-17.04Z" transform="translate(-1989.075 -170.226)" fill="#06294c" fill-rule="evenodd"/>
      <path id="Path_11291" data-name="Path 11291" d="M2097.305,341.656c3.16,9.1,5.753,13.033,5.833,22.746.642,1.382,1.587,3.953,1.249,4.681a3.008,3.008,0,0,1-1.532,1.369c-.747,7.546-2.116,14.373-3.69,16.464s-16.291,5.1-25.414-.731-5.564-37.662,23.554-44.528Z" transform="translate(-1969.467 -171.076)" fill="#f9bfb3" fill-rule="evenodd"/>
      <path id="Path_11292" data-name="Path 11292" d="M2070.6,336.3c-14.685,6.472-20.636,42.227-12.348,50.211,5.953,5.735,32.065,8.888,37.419,4.979s4.437-10.7-.2-16.115c-3.936-4.6-6.426-12-2.482-17.643,25.713-6.433,3.484-32.833-22.388-21.432Z" transform="translate(-1964.803 -168.504)" fill="#002b56" fill-rule="evenodd"/>
      <path id="Path_11293" data-name="Path 11293" d="M2110.6,372.854c-.659,5.193,4.135,11.251.772,8.98a7.069,7.069,0,0,1-3.082-5.275,6.872,6.872,0,0,1,1.083-4.922c1.709-1.949,1.361.161,1.227,1.217Z" transform="translate(-1981.715 -180.258)" fill="#e8a597" fill-rule="evenodd"/>
      <path id="Path_11294" data-name="Path 11294" d="M2094.221,432.454c-13.72,12.862,13.781,80.165,22.909,92.186,5.209,6.861,23.737,12.5,23.737,12.5l13.915-14.576s-15.748-7.567-19.732-11.153c-8.042-7.236-12.349-105.655-40.829-78.953Z" transform="translate(-1976.121 -198.201)" fill="#5da6ff" fill-rule="evenodd"/>
      <path id="Path_11295" data-name="Path 11295" d="M2543.122,529.718h43.108l5.347,21.017H2532.99l10.132-21.017Z" transform="translate(-2115.344 -230.242)" fill="#f5f7ff" fill-rule="evenodd"/>
      <path id="Path_11296" data-name="Path 11296" d="M2534.737,565.886h54.96l4.881,15.732h-67.568l7.727-15.732Z" transform="translate(-2113.463 -241.62)" fill="#f5f7ff" fill-rule="evenodd"/>
      <path id="Path_11297" data-name="Path 11297" d="M2654.183,566.757c-.029.005-10.218,2.031-15.062,4.269l-.25-.523c4.916-2.269,15.167-4.308,15.2-4.315l.115.569Zm2.209,5.616c-.033,0-11.6.257-16.427,2.484l-.25-.523c4.938-2.28,16.63-2.538,16.663-2.538l.014.577Zm.2,3.02c-.03,0-10.42-.642-15.232,1.579l-.249-.523c4.95-2.286,15.486-1.635,15.516-1.634l-.035.578Zm-1.121-5.994c-.033,0-11.52,1.314-16.355,3.546l-.25-.523c4.925-2.274,16.506-3.6,16.539-3.6l.066.575Z" transform="translate(-2148.655 -241.715)" fill="#d18b7d"/>
      <path id="Path_11298" data-name="Path 11298" d="M2661.457,561.061c.008,0,2.9-1.537,7.6-.506l-.127.564c-4.481-.984-7.184.448-7.192.452l-.277-.51Z" transform="translate(-2155.761 -239.831)" fill="#d18b7d"/>
      <path id="Path_11299" data-name="Path 11299" d="M2110.409,448.757c-.009.06-2.964,20.711,10.532,37.949l-.7.53c-13.724-17.528-10.718-38.534-10.71-38.594l.876.115Zm-3.717,15.2a.852.852,0,0,1,.132-.035l-.132-.249v.284Zm.132-.035-.132-.251.132.251Zm0,0c.01,0,.012,0,0,.005a7.733,7.733,0,0,0,.117,2.437,61.894,61.894,0,0,0,1.285,6.806c2.418,10.182,7.945,26.2,16.569,37.22l-.7.53c-8.716-11.133-14.293-27.291-16.731-37.552a62.6,62.6,0,0,1-1.3-6.908c-.219-1.882-.1-3.068.347-3.3a.6.6,0,0,1,.275-.068v.578l.136.25Z" transform="translate(-1981 -204.735)" fill="#3b347a" fill-rule="evenodd"/>
      <path id="Path_11300" data-name="Path 11300" d="M2806.346,404.306l2.354,3.078s-1.693,5.363-12.427,6.97-13.339,1.328-13.339,1.328,2.136-1.442,2.6-2.534,12.041,0,20.807-8.842Z" transform="translate(-2193.979 -190.786)" fill="#fff" fill-rule="evenodd"/>
      <path id="Path_11301" data-name="Path 11301" d="M2200.236,437a128.672,128.672,0,0,1,12.422,20.442c3.031,6.149,5.74,11.5,7.82,15.358,2.042,3.784,3.436,6.083,3.863,6.2l6.675,2.079-.153.56-6.675-2.082c-.6-.162-2.113-2.563-4.23-6.486-2.08-3.853-4.792-9.215-7.829-15.375a128.22,128.22,0,0,0-12.359-20.342l.467-.351Z" transform="translate(-2010.511 -201.072)" fill="#00b3dc"/>
      <path id="Path_11302" data-name="Path 11302" d="M2145.829,548.9c-.023.015-7.909,5.342-6.012,12.219l-.57.149c-2.006-7.272,6.219-12.826,6.243-12.841l.338.473Zm-15.492,5.855c.012-.016,4.228-5.585,13.462-7.419l.115.567c-9.008,1.788-13.093,7.183-13.105,7.2l-.472-.347Z" transform="translate(-1988.667 -235.784)" fill="#3b347a" fill-rule="evenodd"/>
      <path id="Path_11303" data-name="Path 11303" d="M2056.112,427.973c.018.013,6.487,4.765,28.5-4.087l.221.535c-22.311,8.972-29.037,4.039-29.057,4.026l.34-.474Z" transform="translate(-1965.209 -196.946)" fill="#534d8c" fill-rule="evenodd"/>
      <path id="Path_11304" data-name="Path 11304" d="M2576.918,567.329l8.335,5a2.19,2.19,0,0,0,1.306.735c.4.045.849-.267,1.373-.449,1.551-.539,21.556-11.586,21.556-11.586a.555.555,0,0,0-.142-.931c-.681-.385-8.682-4.311-8.682-4.311a3.571,3.571,0,0,0-2.609.247c-1.294.628-17.576,8.6-20.212,10.008-.408.217-1.174.608-1.213.993-.014.136.073.164.287.292Z" transform="translate(-2129.073 -238.4)" fill="#fff" fill-rule="evenodd"/>
      <path id="Path_11305" data-name="Path 11305" d="M2607.382,560.838q-1.386-.692-2.777-1.377-2.165-1.071-4.335-2.136a3.084,3.084,0,0,0-2.1.23c-3.429,1.666-6.847,3.354-10.265,5.04-2.046,1.009-2.3,1.064-4.343,2.081-1.266.631-2.55,1.258-3.8,1.923-.082.043-.2.112-.374.206-.256.139-.419.219-.19.334l8.021,4.709.023.018a2.16,2.16,0,0,0,.57.254,2.5,2.5,0,0,0,1.537-.053,11.335,11.335,0,0,0,1.219-.581c.834-.423,1.662-.859,2.489-1.3,2.337-1.238,2.876-1.545,5.2-2.809q4.964-2.7,9.911-5.43c.833-.407.061-.652-.794-1.111Z" transform="translate(-2129.85 -238.897)" fill="#3b347a" fill-rule="evenodd"/>
      <path id="Path_11306" data-name="Path 11306" d="M2576.735,570.487c-.03-.455-.055-.8-.088-1.257,2.893,1.738,7.237,4.382,8.684,5.252s1.177.706,2.406.26c1.161-.421,19.44-10.349,21.48-11.458.632-.343.5-.76.314-.953a1.139,1.139,0,0,1,.6.617,1.5,1.5,0,0,1-.157,1.463,14.69,14.69,0,0,1-2.342,1.347c-6.148,3.319-13.069,6.709-18.968,10.291a2.85,2.85,0,0,1-2.658.24c-1.456-.645-7.677-4.439-8.916-5.2a.631.631,0,0,1-.356-.607Z" transform="translate(-2129.079 -240.502)" fill="#ccc" fill-rule="evenodd"/>
      <path id="Path_11307" data-name="Path 11307" d="M2616.665,558.85a.329.329,0,0,1,.184.548.779.779,0,0,1-.8.208.33.33,0,0,1-.184-.548.779.779,0,0,1,.8-.207Z" transform="translate(-2141.389 -239.395)" fill="#ccc" fill-rule="evenodd"/>
      <path id="Path_11308" data-name="Path 11308" d="M2224.566,559.255l7.567-2.276.1.263,10.643-3.4.083.228s12.579-4.2,14.429-4.815c1.682-.556,1.508-1.275,1.462-1.4s-.307-.819-2.014-.341c-1.877.526-14.665,4.062-14.665,4.062l.06.234-10.733,3.119.067.273-7.548,2.336c-.575.33-3.242,1.856-3.519,2.018.36-.032,3.4-.247,4.064-.295Z" transform="translate(-2017.034 -235.786)" fill="#9ea7db" fill-rule="evenodd"/>
      <path id="Path_11309" data-name="Path 11309" d="M2222.109,563.806c-.759.435-1.47.843-1.607.923.176-.016.99-.075,1.856-.137h0l-.249-.786Z" transform="translate(-2017.034 -240.966)" fill="#0065c9" fill-rule="evenodd"/>
      <path id="Path_11310" data-name="Path 11310" d="M2224.566,559.488l7.567-2.276.1.263,10.643-3.4.083.227s12.579-4.2,14.429-4.815c1.682-.556,1.508-1.275,1.462-1.4l-38.351,11.7c.36-.032,3.4-.247,4.064-.295Z" transform="translate(-2017.034 -236.019)" fill="#b6beed" fill-rule="evenodd"/>
      <path id="Path_11311" data-name="Path 11311" d="M2222.234,564.382l-1.732.528c.176-.016.99-.075,1.856-.137l-.124-.391Z" transform="translate(-2017.034 -241.147)" fill="#3b347a" fill-rule="evenodd"/>
      <path id="Path_11312" data-name="Path 11312" d="M2236.55,558.351l.367-.112.731,2.314-.367.112-.732-2.314Z" transform="translate(-2022.083 -239.214)" fill="#9ea7db" fill-rule="evenodd"/>
      <path id="Path_11313" data-name="Path 11313" d="M2252.1,553.468l.372-.1.781,2.478-.366.116-.787-2.491Z" transform="translate(-2026.976 -237.681)" fill="#9ea7db" fill-rule="evenodd"/>
      <path id="Path_11314" data-name="Path 11314" d="M2590.945,539.665l7.411,2.726-.082.27,10.549,3.675-.074.23s12.579,4.2,14.426,4.822c1.678.567,1.986-.108,2.028-.236s.265-.833-1.385-1.476c-1.814-.708-14.146-5.563-14.146-5.563l-.1.223-10.444-3.954-.116.257-7.434-2.668c-.659-.083-3.72-.47-4.041-.507.306.191,2.849,1.84,3.4,2.2Z" transform="translate(-2132.507 -232.679)" fill="#9ea7db" fill-rule="evenodd"/>
      <path id="Path_11315" data-name="Path 11315" d="M2589.388,537.7c-.871-.11-1.689-.213-1.847-.231.149.093.832.534,1.556,1h0l.291-.772Z" transform="translate(-2132.507 -232.679)" fill="#0065c9" fill-rule="evenodd"/>
      <path id="Path_11316" data-name="Path 11316" d="M2590.945,539.665l7.411,2.726-.082.27,10.549,3.675-.074.23s12.579,4.2,14.426,4.822c1.678.567,1.986-.108,2.028-.236l-37.663-13.688c.306.191,2.849,1.84,3.4,2.2Z" transform="translate(-2132.507 -232.679)" fill="#b6beed" fill-rule="evenodd"/>
      <path id="Path_11317" data-name="Path 11317" d="M2589.242,538.083l-1.7-.618c.149.093.832.534,1.556,1l.145-.384Z" transform="translate(-2132.507 -232.679)" fill="#3b347a" fill-rule="evenodd"/>
      <path id="Path_11318" data-name="Path 11318" d="M2604.06,541.723l.36.131-.856,2.272L2603.2,544l.856-2.272Z" transform="translate(-2137.434 -234.019)" fill="#9ea7db" fill-rule="evenodd"/>
      <path id="Path_11319" data-name="Path 11319" d="M2619.392,547.162l.358.141-.918,2.432-.362-.126.922-2.447Z" transform="translate(-2142.237 -235.729)" fill="#9ea7db" fill-rule="evenodd"/>
      <path id="Path_11320" data-name="Path 11320" d="M2587.152,342.567,2575.9,366.151l-4.572-22.4,2.616-1.571,4.363,3.112,6.455-4.463,2.391,1.733Z" transform="translate(-2127.405 -170.818)" fill="#cacfeb" fill-rule="evenodd"/>
      <path id="Path_11321" data-name="Path 11321" d="M2578.581,353.785l-2.646,9.014,1.562,7.113,4.063-8.515-1.416-7.611Z" transform="translate(-2128.855 -174.892)" fill="#2d8cff" fill-rule="evenodd"/>
      <path id="Path_11322" data-name="Path 11322" d="M2574.971,331.752c-.148.294.718,6.284-.776,7.576s-2.476,1.233-1.9,1.585c4.69,2.846,10.108,4.463,14.591-1.351,0,0-2.347.47-2.835-2.759a13.131,13.131,0,0,1,.03-5.051s-4.723,2.848-9.115,0Z" transform="translate(-2127.658 -167.96)" fill="#f9bfb3" fill-rule="evenodd"/>
      <path id="Path_11323" data-name="Path 11323" d="M2576.267,331.752c-.065.131.07,1.4.108,2.871a7.736,7.736,0,0,0,8.773-.145,10.244,10.244,0,0,1,.235-2.726s-4.722,2.848-9.115,0Z" transform="translate(-2128.954 -167.96)" fill="#e8a597" fill-rule="evenodd"/>
      <path id="Path_11324" data-name="Path 11324" d="M2570.621,317.946a1.676,1.676,0,0,0-2.6.763c-.986,1.938,1.042,4.246,2.55,4.069s.126-4.8.05-4.833Z" transform="translate(-2126.284 -163.506)" fill="#e8a597" fill-rule="evenodd"/>
      <path id="Path_11325" data-name="Path 11325" d="M2593.406,317.807a1.676,1.676,0,0,1,2.6.764c1.074,2.109-2.257,5.694-3.082,3.543-.273-.714.06-2.062.483-4.307Z" transform="translate(-2134.168 -163.462)" fill="#e8a597" fill-rule="evenodd"/>
      <path id="Path_11326" data-name="Path 11326" d="M2572.274,321.35c-1.912-5.247-1.271-6.459-1.877-11.333-.957-7.7,17.777-7.7,16.82,0-.6,4.874-.187,6.812-1.936,11.333-2.242,5.8-11.114,5.2-13.007,0Z" transform="translate(-2127.102 -159.306)" fill="#f9bfb3" fill-rule="evenodd"/>
      <path id="Path_11327" data-name="Path 11327" d="M2580.814,316.879a.337.337,0,0,1,.418-.226.332.332,0,0,1,.231.411c0,.012-1.2,4.084-.787,4.447a2.208,2.208,0,0,0,1.431.27.337.337,0,0,1,.382.282.333.333,0,0,1-.287.376,2.931,2.931,0,0,1-1.976-.434c-.723-.636.584-5.113.588-5.125Z" transform="translate(-2130.137 -163.206)" fill="#d18b7d"/>
      <path id="Path_11328" data-name="Path 11328" d="M2576.83,326.728a.327.327,0,0,1-.026-.468.342.342,0,0,1,.476-.026c.008.007,2.859,2.593,7.22-.036a.342.342,0,0,1,.465.11.329.329,0,0,1-.113.456c-4.792,2.89-8.012-.028-8.022-.036Z" transform="translate(-2129.101 -166.198)" fill="#d18b7d"/>
      <path id="Path_11329" data-name="Path 11329" d="M2576.429,314.853c.388,0,.7.5.7,1.115s-.313,1.116-.7,1.116-.7-.5-.7-1.116.315-1.115.7-1.115Z" transform="translate(-2128.79 -162.644)" fill="#0065c9" fill-rule="evenodd"/>
      <path id="Path_11330" data-name="Path 11330" d="M2588.006,314.853c.388,0,.7.5.7,1.115s-.314,1.116-.7,1.116-.7-.5-.7-1.116.315-1.115.7-1.115Z" transform="translate(-2132.432 -162.644)" fill="#0065c9" fill-rule="evenodd"/>
      <path id="Path_11331" data-name="Path 11331" d="M2574.36,311.856a.509.509,0,0,1-.707-.077.488.488,0,0,1,.079-.694c.007-.005,2.541-2.025,3.971.114a.49.49,0,0,1-.143.685.509.509,0,0,1-.7-.141c-.82-1.225-2.5.11-2.5.114Z" transform="translate(-2128.103 -161.185)" fill="#3b347a"/>
      <path id="Path_11332" data-name="Path 11332" d="M2589.077,311.084a.488.488,0,0,1,.078.694.508.508,0,0,1-.707.077c-.005,0-1.684-1.339-2.5-.114a.509.509,0,0,1-.7.141.49.49,0,0,1-.145-.685c1.432-2.139,3.965-.12,3.973-.114Z" transform="translate(-2131.715 -161.185)" fill="#3b347a"/>
      <path id="Path_11333" data-name="Path 11333" d="M2570.96,297.439s-.795,2.5,1.686,2.232,10.21-2.643,12.905.763.56,10.786.54,11.034-.934-3.733-1.512-5.374-1-1.635-1-1.635-3.326-1.764-5.559-1.089a35.342,35.342,0,0,1-5.707,1.5c-1.267.088-1.357-.088-1.357-.088a11.427,11.427,0,0,1-.122,4.6c-.613,1.879-.924,1.916-.924,1.916s-1.81-2.843-1.72-4.838.328-1.994.328-1.994-2.54-5.053,2.439-7.02Z" transform="translate(-2126.319 -157.165)" fill="#3b347a" fill-rule="evenodd"/>
      <path id="Path_11334" data-name="Path 11334" d="M2587.964,340.834c-.525.26-6.455,4.463-6.455,4.463s3.945,6.283,3.945,5.9,4.9-8.633,4.9-8.633l-2.391-1.733Z" transform="translate(-2130.609 -170.818)" fill="#edf0ff" fill-rule="evenodd"/>
      <path id="Path_11335" data-name="Path 11335" d="M2573.668,341.991l4.454,3.67-3.736,5.918-3.645-7.249,2.927-2.34Z" transform="translate(-2127.222 -171.182)" fill="#edf0ff" fill-rule="evenodd"/>
      <path id="Path_11336" data-name="Path 11336" d="M2577.754,351.423l2.155,1.68,2.841-1.972-2.422-3.785-2.574,4.077Z" transform="translate(-2129.427 -172.866)" fill="#b6beed" fill-rule="evenodd"/>
      <path id="Path_11337" data-name="Path 11337" d="M2560.68,345.1l-14.194,7.461-9,27.584h9.765l.582-1.622-.053,1.622h17.6l-.124-12.65s-4.971-22.183-4.571-22.4Z" transform="translate(-2116.759 -172.159)" fill="#edf0ff" fill-rule="evenodd"/>
      <path id="Path_11338" data-name="Path 11338" d="M2589.25,343.362,2578,366.946l.119,12.649h33.418l2.479-4.567-11.954-24.663-12.809-7Z" transform="translate(-2129.504 -171.613)" fill="#edf0ff" fill-rule="evenodd"/>
      <path id="Path_11339" data-name="Path 11339" d="M2552.911,358.321a32.017,32.017,0,0,1,3.157,13.2l-.449-.007a31.545,31.545,0,0,0-3.114-12.994l.406-.195Z" transform="translate(-2121.484 -176.319)" fill="#9ea7db"/>
      <path id="Path_11340" data-name="Path 11340" d="M2608.983,354.885c-.011.005-3.652,1.779-5.835,8.94l-.433-.127c2.24-7.343,6.049-9.2,6.06-9.206l.208.393Z" transform="translate(-2137.28 -175.115)" fill="#9ea7db"/>
      <path id="Path_11341" data-name="Path 11341" d="M2565.7,346.025l-.516,11.171h3.548l-1.885,3.318s7.18,13.3,7.177,12.89-.058-6.2-.058-6.2l-4.572-23.029-3.694,1.853Z" transform="translate(-2125.473 -171.868)" fill="#d7dcf7" fill-rule="evenodd"/>
      <path id="Path_11342" data-name="Path 11342" d="M2589.25,341.991,2578,366.515l.058,6.2,10.087-13.848-1.853-3.851,3.778.719,2.474-11.619-3.291-2.129Z" transform="translate(-2129.504 -171.182)" fill="#d7dcf7" fill-rule="evenodd"/>
      <path id="Path_11343" data-name="Path 11343" d="M2586.724,377.569h10.46v7.165h-10.46v-7.165Z" transform="translate(-2132.25 -182.375)" fill="#fff" fill-rule="evenodd"/>
      <path id="Path_11344" data-name="Path 11344" d="M2593.111,374.9h1.7v3.211h-1.7V374.9Z" transform="translate(-2134.259 -181.534)" fill="#b6beed" fill-rule="evenodd"/>
      <path id="Path_11345" data-name="Path 11345" d="M2594.2,383.2h1.417v.587H2594.2V383.2Zm-6.644-1.82h8.841v.587h-8.841v-.587Zm0,1.82h3.81v.587h-3.81V383.2Zm4.49,0h1.417v.587h-1.417V383.2Z" transform="translate(-2132.51 -183.574)" fill="#bfd2fc" fill-rule="evenodd"/>
      <path id="Path_11346" data-name="Path 11346" d="M2551.389,388.058l3.911-10.567.383.136-3.861,10.43Zm35.075-17.8,6.455,15.386.036.087-.046.084-1.245,2.24h-.463l1.3-2.348-6.419-15.3.375-.151Z" transform="translate(-2121.133 -180.076)" fill="#9ea7db"/>
      <path id="Path_11347" data-name="Path 11347" d="M2231.908,500.063c-.008.006-2.987,2.363-2.987,10.226h-.59c0-8.134,3.191-10.663,3.2-10.671l.376.445Zm.764.726c-.006.016-2.185,5.881,1.795,10.163l-.436.39c-4.219-4.54-1.92-10.726-1.914-10.744l.555.191Z" transform="translate(-2019.497 -220.772)" fill="#00b3dc"/>
      <path id="Path_11348" data-name="Path 11348" d="M2190.477,451.255c.021.068,7.119,23.647,23.612,28l-.152.559c-16.814-4.435-24-28.323-24.025-28.392l.566-.165Z" transform="translate(-2007.41 -205.557)" fill="#00b3dc"/>
      <path id="Path_11349" data-name="Path 11349" d="M2247.434,507.266c.035.031,11.876,10.569,23.142,12.69l-.111.568c-11.426-2.151-23.389-12.8-23.423-12.828l.392-.43Z" transform="translate(-2025.384 -223.178)" fill="#00b3dc"/>
      <path id="Path_11350" data-name="Path 11350" d="M2364.723,488.058l12.452,25.361,31.788-25.361-25.511-17.525-18.729,17.525Z" transform="translate(-2062.407 -211.622)" fill="#dbdbdb" fill-rule="evenodd"/>
      <path id="Path_11351" data-name="Path 11351" d="M2367.734,489.108l11.245,22.007,27.45-21.9-22.408-15.346-16.286,15.239Z" transform="translate(-2063.354 -212.671)" fill="#06294c" fill-rule="evenodd"/>
      <path id="Path_11352" data-name="Path 11352" d="M2323.366,500.989l28.346-4.887,12.452,25.361-33,9.437-7.8-29.911Z" transform="translate(-2049.396 -219.666)" fill="#fff" fill-rule="evenodd"/>
      <path id="Path_11353" data-name="Path 11353" d="M2332.616,503.639l6.574,23.307,23.645-6.761-9.765-20.071-20.454,3.526Z" transform="translate(-2052.305 -220.928)" fill="#ccc" fill-rule="evenodd"/>
      <path id="Path_11354" data-name="Path 11354" d="M2340.988,526.6l.6-.171-.627-2.075,1.358-.349.588,2.047.6-.171-.583-2.031,1.564-.4.566,1.991.6-.172-.561-1.975,1.783-.459.583,1.917.6-.171-.581-1.9,1.646-.423.585,1.853.6-.171-.581-1.837,1.795-.462.6,1.779.6-.171-.6-1.763,2.122-.545.62,1.7.6-.17-.615-1.681,2.159-.555.657,1.606.6-.171-.652-1.59,2.277-.586.7,1.513.6-.171-.69-1.5,1.829-.471-.237-.487-1.818.467-.627-1.36,1.8-.431-.239-.49-1.79.428-.708-1.533,1.76-.408-.237-.489-1.75.4-.659-1.429,1.733-.365-.239-.491-1.722.363-.605-1.311,1.7-.349-.24-.491-1.685.346-.637-1.38,1.656-.336-.241-.491-1.643.333-.7-1.507,1.614-.315-.24-.494-1.6.313-.661-1.432,1.57-.306-.241-.493-1.558.3-.723-1.567,1.523-.3-.24-.494-1.512.295-.552-1.2,1.492-.271-.24-.495-1.48.27-.549-1.189-.624.108.551,1.195-1.492.271-.5-1.218-.623.107.5,1.224-1.473.268-.455-1.246-.619.107.458,1.252-1.726.315-.432-1.273-.619.107.434,1.278-1.419.259-.411-1.3-.618.106.411,1.3-1.469.268-.4-1.318-.618.107.4,1.324-1.447.263-.381-1.341-.618.107.382,1.347-1.645.3-.391-1.361-.617.107.392,1.367-1.66.3-.417-1.379-.618.107.418,1.384-1.255.228.144.513,1.265-.23.438,1.453-1.288.251.145.511,1.3-.253.487,1.613-1.328.259.145.511,1.336-.26.445,1.475-1.365.266.145.512,1.373-.268.51,1.69-1.4.284.144.511,1.412-.286.443,1.467-1.439.3.145.51,1.448-.3.438,1.453-1.473.31.145.511,1.482-.313.562,1.859-1.509.35.143.511,1.519-.352.523,1.734-1.547.371.145.513,1.556-.373.524,1.74-1.58.407.144.512,1.591-.41.63,2.091Zm-.18-2.755-.521-1.73,1.394-.334.492,1.713-1.365.352Zm-.677-2.24-.521-1.729,1.429-.331.495,1.725-1.4.335Zm-.675-2.238-.558-1.847,1.471-.31.523,1.825-1.436.333Zm-.712-2.358-.437-1.45,1.5-.308.415,1.446-1.478.311Zm-.591-1.959-.443-1.466,1.529-.31.421,1.467-1.507.309Zm-.6-1.975-.509-1.685,1.562-.3.481,1.678-1.534.312Zm-.662-2.2-.446-1.475,1.59-.31.424,1.478-1.569.306Zm-.6-1.985-.487-1.613,1.619-.315.465,1.617-1.6.312Zm-.641-2.123-.436-1.445,1.653-.3.41,1.429-1.628.317Zm1.833-1.859,1.645-.3.4,1.4-1.635.319-.408-1.422Zm2.261-.411,1.457-.265.417,1.371-1.477.289-.4-1.395Zm2.074-.378,1.475-.269.425,1.343-1.484.289-.416-1.364Zm2.092-.381,1.431-.26.447,1.313-1.455.284-.423-1.336Zm2.048-.373,1.739-.317.466,1.278-1.762.343-.444-1.3Zm2.355-.429,1.494-.271.509,1.243-1.537.3-.465-1.271Zm2.114-.384,1.515-.276.556,1.206-1.565.306-.506-1.236Zm-12.389,4.29,1.634-.319.459,1.618-1.629.318-.464-1.618Zm2.248-.438,1.488-.291.491,1.612-1.519.3-.46-1.618Zm2.1-.411,1.49-.291.509,1.609-1.508.295-.491-1.613Zm2.1-.411,1.465-.285.545,1.6-1.5.293-.509-1.609Zm2.08-.406,1.775-.345.583,1.594-1.812.353-.545-1.6Zm2.39-.465,1.558-.3.647,1.581-1.622.316-.583-1.594Zm2.175-.424,1.589-.31.722,1.567-1.664.324-.647-1.581Zm-12.489,4.683,1.628-.317.42,1.48-1.624.317-.424-1.479Zm2.242-.437,1.529-.3.449,1.474-1.557.3-.421-1.479Zm2.144-.418,1.513-.3.465,1.471-1.529.3-.45-1.474Zm2.127-.415,1.512-.295.5,1.465-1.545.3-.465-1.471Zm2.128-.415,1.825-.356.533,1.458-1.862.363-.5-1.465Zm2.439-.476,1.643-.321.593,1.447-1.7.332-.533-1.458Zm2.26-.441,1.688-.329.661,1.433-1.757.343-.593-1.446Zm-12.77,4.592,1.623-.317.473,1.663-1.616.328-.479-1.674Zm2.238-.437,1.567-.306.5,1.641-1.6.324-.471-1.659Zm2.181-.425,1.536-.3.513,1.622-1.551.315-.5-1.636Zm2.151-.419,1.556-.3.543,1.6-1.588.321-.511-1.616Zm2.171-.424,1.873-.365.575,1.573-1.906.387-.542-1.594Zm2.487-.485,1.723-.336.632,1.543-1.781.361-.574-1.568Zm2.34-.456,1.78-.347.7,1.512-1.846.374-.631-1.539Zm-12.941,4.831,1.614-.328.416,1.463-1.609.331-.421-1.465Zm2.228-.452,1.605-.326.442,1.451-1.633.335-.415-1.461Zm2.219-.45,1.556-.315.457,1.443-1.57.322-.442-1.45Zm2.169-.44,1.6-.323.486,1.431-1.629.334-.457-1.441Zm2.213-.448,1.919-.389.518,1.418-1.951.4-.486-1.43Zm2.531-.513,1.8-.365.573,1.4-1.856.381-.519-1.417Zm2.417-.489,1.87-.38.636,1.382-1.934.4-.573-1.4Zm-13.21,4.769,1.608-.33.408,1.436-1.6.338-.414-1.443Zm2.221-.456,1.643-.337.432,1.417-1.667.352-.407-1.432Zm2.256-.463,1.577-.323.443,1.4-1.589.335-.431-1.415Zm2.188-.449,1.641-.337.471,1.385-1.668.352-.443-1.4Zm2.254-.463,1.963-.4.5,1.365-1.994.42-.469-1.382Zm2.575-.529,1.878-.386.55,1.341-1.929.406-.5-1.362Zm2.492-.512,1.958-.4.606,1.315-2.016.425-.548-1.338Zm-13.426,4.826,1.6-.337.507,1.783-1.587.367-.52-1.813Zm2.213-.466,1.678-.354.527,1.73-1.7.394-.5-1.77Zm2.289-.483,1.6-.336.533,1.683-1.6.371-.524-1.718Zm2.207-.465,1.679-.354.554,1.63-1.7.395-.529-1.67Zm2.291-.483,2.005-.423.574,1.571-2.029.47-.55-1.618Zm2.616-.552,1.949-.411.617,1.507-2,.463-.57-1.559Zm2.562-.54,2.04-.43.665,1.441-2.093.485-.612-1.5Zm-13.512,5.313,1.586-.367.486,1.709-1.578.378-.493-1.72Zm2.194-.509,1.712-.4.513,1.684-1.74.417-.485-1.705Zm2.321-.537,1.608-.373.527,1.663-1.625.389-.51-1.68Zm2.217-.513,1.716-.4.557,1.637-1.748.419-.525-1.659Zm2.323-.539,2.041-.472.589,1.609-2.075.5-.555-1.633Zm2.648-.613,2.017-.467.645,1.574-2.074.5-.588-1.605Zm2.625-.608,2.115-.49.708,1.538-2.18.522-.643-1.57Zm-13.689,5.551,1.577-.378.477,1.678-1.565.4-.489-1.7Zm2.186-.523,1.75-.419.5,1.631-1.773.456-.474-1.668Zm2.356-.565,1.63-.391.5,1.59-1.639.422-.494-1.621Zm2.235-.536,1.76-.421.525,1.543-1.784.459-.5-1.581Zm2.366-.567,2.087-.5.545,1.489-2.111.543-.521-1.532Zm2.692-.645,2.1-.5.586,1.432-2.139.55-.542-1.481Zm2.7-.647,2.2-.528.633,1.37-2.254.58-.583-1.422Z" transform="translate(-2052.487 -221.044)" fill="#fff" fill-rule="evenodd"/>
      <path id="Path_11355" data-name="Path 11355" d="M2334.74,542.541v1.692l33-9.57V533.1l-33,9.437Z" transform="translate(-2052.973 -231.307)" fill="#ccc" fill-rule="evenodd"/>
      <path id="Path_11356" data-name="Path 11356" d="M2414.679,497.64V496.1l-31.789,25.361v1.559l31.789-25.382Z" transform="translate(-2068.122 -219.666)" fill="#b3b3b3" fill-rule="evenodd"/>
      <path id="Path_11357" data-name="Path 11357" d="M2331.161,533.143l-7.8-29.911v2.2l7.8,29.407v-1.692Z" transform="translate(-2049.396 -221.909)" fill="#ccc" fill-rule="evenodd"/>
      <path id="Path_11358" data-name="Path 11358" d="M2407.813,482.6a3.667,3.667,0,0,1,1.672,1.236c.337.5.134.753-.452.569a3.673,3.673,0,0,1-1.672-1.236c-.336-.5-.134-.754.452-.57Z" transform="translate(-2075.77 -215.4)" fill="#9ea7db" fill-rule="evenodd"/>
      <path id="Path_11359" data-name="Path 11359" d="M2328.519,516.169l3.831-.826,2.612,8.82-3.909,1.032-2.535-9.026Z" transform="translate(-2051.017 -225.719)" fill="#06294c" fill-rule="evenodd"/>
    </g>
    <rect id="Rectangle_977" data-name="Rectangle 977" width="822" height="548" transform="translate(0.327 0)" fill="none"/>
  </g>
</svg>
