<svg xmlns="http://www.w3.org/2000/svg" width="16" height="16" viewBox="0 0 16 16">
  <g id="Turn_Off_Captions" data-name="Turn Off Captions" transform="translate(0 -0.007)">
    <path id="Path_30482" data-name="Path 30482" d="M14.907.007H1.094A1.1,1.1,0,0,0,0,1.1V11.265a1.1,1.1,0,0,0,1.094,1.094H5.383a.155.155,0,0,1,.139.086l1.5,2.964a1.094,1.094,0,0,0,1.951,0l1.5-2.964a.155.155,0,0,1,.139-.086h4.289A1.1,1.1,0,0,0,16,11.265V1.1A1.1,1.1,0,0,0,14.907.007Zm.156,11.258a.156.156,0,0,1-.156.156H10.617a1.089,1.089,0,0,0-.976.6l-1.5,2.964a.156.156,0,0,1-.279,0l-1.5-2.964a1.089,1.089,0,0,0-.976-.6H1.094a.156.156,0,0,1-.156-.156V1.1A.156.156,0,0,1,1.094.945H14.907a.156.156,0,0,1,.156.156Z" fill="#142f51"/>
    <path id="Path_30483" data-name="Path 30483" d="M105.273,125.253a.5.5,0,0,0-.7.062,1.113,1.113,0,0,1-.893.393,1.526,1.526,0,1,1,.853-2.791.5.5,0,0,0,.557-.825,2.521,2.521,0,1,0-1.41,4.611,2.107,2.107,0,0,0,1.656-.749.5.5,0,0,0-.062-.7Z" transform="translate(-98.062 -117.952)" fill="#142f51"/>
    <path id="Path_30484" data-name="Path 30484" d="M285.582,125.254a.5.5,0,0,0-.7.061,1.113,1.113,0,0,1-.893.393,1.526,1.526,0,1,1,.853-2.791.5.5,0,0,0,.557-.825,2.521,2.521,0,1,0-1.41,4.611,2.107,2.107,0,0,0,1.656-.749A.5.5,0,0,0,285.582,125.254Z" transform="translate(-272.854 -117.953)" fill="#142f51"/>
  </g>
</svg>
