<svg xmlns="http://www.w3.org/2000/svg" width="32.444" height="32.444" viewBox="0 0 32.444 32.444">
  <path id="twitter" d="M16.222,0A16.222,16.222,0,1,0,32.444,16.222,16.224,16.224,0,0,0,16.222,0Zm7.407,12.648q.011.239.011.481A10.522,10.522,0,0,1,13.046,23.724h0a10.539,10.539,0,0,1-5.707-1.673,7.573,7.573,0,0,0,.888.051,7.471,7.471,0,0,0,4.625-1.594,3.728,3.728,0,0,1-3.479-2.586,3.711,3.711,0,0,0,1.682-.064,3.724,3.724,0,0,1-2.987-3.65c0-.017,0-.032,0-.048a3.7,3.7,0,0,0,1.686.466A3.727,3.727,0,0,1,8.6,9.656a10.571,10.571,0,0,0,7.675,3.89,3.725,3.725,0,0,1,6.345-3.4,7.468,7.468,0,0,0,2.364-.9,3.738,3.738,0,0,1-1.637,2.059,7.426,7.426,0,0,0,2.138-.586,7.567,7.567,0,0,1-1.857,1.928Zm0,0" fill="rgba(255,255,255,0.7)"/>
</svg>
