<svg xmlns="http://www.w3.org/2000/svg" width="56" height="56" viewBox="0 0 56 56">
  <g id="Video" transform="translate(-568 -692)">
    <circle id="Ellipse_267" data-name="Ellipse 267" cx="28" cy="28" r="28" transform="translate(568 692)" fill="#f54b4b"/>
    <g id="_001-video-call" data-name="001-video-call" transform="translate(581.454 630.25)">
      <g id="Group_5082" data-name="Group 5082" transform="translate(0 80)">
        <path id="Path_30474" data-name="Path 30474" d="M28.182,81.8H25.455a.915.915,0,0,0-.645.26l-1.545,1.535H21.818v-.9A2.71,2.71,0,0,0,19.091,80H2.727A2.71,2.71,0,0,0,0,82.693V97.057A2.71,2.71,0,0,0,2.727,99.75H19.091a2.71,2.71,0,0,0,2.727-2.693v-.9h1.445l1.555,1.535a.915.915,0,0,0,.636.26h2.727a.9.9,0,0,0,.909-.9V82.693A.9.9,0,0,0,28.182,81.8Zm-.909,14.364H25.827l-1.555-1.535a.915.915,0,0,0-.636-.26H20.909a.9.9,0,0,0-.909.9v1.8a.9.9,0,0,1-.909.9H2.727a.9.9,0,0,1-.909-.9V82.693a.9.9,0,0,1,.909-.9H19.091a.9.9,0,0,1,.909.9V91.67h1.818V85.386h1.818a.915.915,0,0,0,.645-.26l1.545-1.535h1.445Z" transform="translate(0 -80)" fill="#fff"/>
      </g>
    </g>
  </g>
</svg>
