<svg xmlns="http://www.w3.org/2000/svg" xmlns:xlink="http://www.w3.org/1999/xlink" width="90" height="90" viewBox="0 0 90 90">
  <defs>
    <filter id="Ellipse_267" x="0" y="0" width="90" height="90" filterUnits="userSpaceOnUse">
      <feOffset dy="3" input="SourceAlpha"/>
      <feGaussianBlur stdDeviation="3" result="blur"/>
      <feFlood flood-opacity="0.2"/>
      <feComposite operator="in" in2="blur"/>
      <feComposite in="SourceGraphic"/>
    </filter>
  </defs>
  <g id="Video" transform="translate(8.593 5.963)">
    <g transform="matrix(1, 0, 0, 1, -8.59, -5.96)" filter="url(#Ellipse_267)">
      <g id="Ellipse_267-2" data-name="Ellipse 267" transform="translate(9 6)" fill="#fff" stroke="#949494" stroke-width="2">
        <circle cx="36" cy="36" r="36" stroke="none"/>
        <circle cx="36" cy="36" r="35" fill="none"/>
      </g>
    </g>
    <g id="Group_5147" data-name="Group 5147">
      <g id="_001-video-call" data-name="001-video-call" transform="translate(17.315 23.489)">
        <g id="Group_5082" data-name="Group 5082" transform="translate(0 0)">
          <path id="Path_30474" data-name="Path 30474" d="M36.271,82.311h-3.51a1.178,1.178,0,0,0-.831.335l-1.989,1.976h-1.86V83.466A3.488,3.488,0,0,0,24.571,80H3.51A3.488,3.488,0,0,0,0,83.466v18.487a3.488,3.488,0,0,0,3.51,3.466H24.571a3.488,3.488,0,0,0,3.51-3.466V100.8h1.86l2,1.976a1.178,1.178,0,0,0,.819.335h3.51a1.163,1.163,0,0,0,1.17-1.155V83.466A1.163,1.163,0,0,0,36.271,82.311ZM35.1,100.8h-1.86l-2-1.976a1.178,1.178,0,0,0-.819-.335h-3.51a1.163,1.163,0,0,0-1.17,1.155v2.311a1.163,1.163,0,0,1-1.17,1.155H3.51a1.163,1.163,0,0,1-1.17-1.155V83.466a1.163,1.163,0,0,1,1.17-1.155H24.571a1.163,1.163,0,0,1,1.17,1.155V95.02h2.34V86.932h2.34a1.177,1.177,0,0,0,.831-.335l1.989-1.976H35.1Z" transform="translate(0 -80)" fill="#949494"/>
        </g>
      </g>
      <g id="Group_5105" data-name="Group 5105" transform="translate(18.662 21.236)">
        <line id="Line_54" data-name="Line 54" x2="30.889" y2="30.889" fill="none" stroke="#949494" stroke-linecap="round" stroke-width="2"/>
      </g>
    </g>
  </g>
</svg>
