<svg id="Image" xmlns="http://www.w3.org/2000/svg" xmlns:xlink="http://www.w3.org/1999/xlink" width="503.617" height="491.472" viewBox="0 0 503.617 491.472">
  <defs>
    <clipPath id="clip-path">
      <ellipse id="Ellipse_224" data-name="Ellipse 224" cx="23.352" cy="23.352" rx="23.352" ry="23.352" transform="translate(0)" fill="none"/>
    </clipPath>
    <clipPath id="clip-path-2">
      <ellipse id="Ellipse_240" data-name="Ellipse 240" cx="26.558" cy="26.558" rx="26.558" ry="26.558" fill="#efd8ea"/>
    </clipPath>
    <clipPath id="clip-path-3">
      <path id="Path_11093" data-name="Path 11093" d="M211.074,620.1c.794,13.883,9.85,22.376,20.224,18.97s18.148-17.427,17.356-31.307-9.845-22.375-20.224-18.97S210.285,606.221,211.074,620.1Z" transform="translate(-211.019 -588.045)" fill="none"/>
    </clipPath>
    <linearGradient id="linear-gradient" x1="1" y1="0.5" x2="0" y2="0.5" gradientUnits="objectBoundingBox">
      <stop offset="0" stop-color="#fff"/>
      <stop offset="0.391" stop-color="#fff"/>
      <stop offset="0.532" stop-color="#f1f1f1"/>
      <stop offset="0.633" stop-color="#ebebeb"/>
      <stop offset="0.714" stop-color="#e2e2e2"/>
      <stop offset="0.784" stop-color="#dedede"/>
      <stop offset="0.845" stop-color="#dfdfdf"/>
      <stop offset="0.901" stop-color="#7dabf7"/>
      <stop offset="0.951" stop-color="#599dfa"/>
      <stop offset="0.996" stop-color="#308dfe"/>
      <stop offset="1" stop-color="#2d8cff"/>
    </linearGradient>
  </defs>
  <path id="Path_10955" data-name="Path 10955" d="M134.713,476.6c46.99,30.583,104.864,14.367,155.045,33.8q2.541.983,5.045,1.993,11.323,4.555,21.969,9.658c1.258.591,2.5,1.2,3.75,1.816A345.729,345.729,0,0,1,362.75,548.5q9.221,6.288,18.224,13.265,5.594,4.33,11.134,8.949c.874.724,1.753,1.46,2.627,2.2,35.084,29.683,76.39,58.939,121.271,29.166,31.521-20.914,60.335-72.161,36.528-109.717-16.311-25.725-22.3-40.859-4.032-67.9,23.28-34.44,49.025-67.361,34.7-110.681a135.474,135.474,0,0,0-72.15-80.6c-29.592-13.51-60-18.927-73.173-52.637-7.442-19.034-15.166-43.262-34.908-52.968-21.426-10.532-51.231-1.673-66.051,16.253-14.08,17.031-12.22,41.056-22.726,59.893-12.7,22.763-30.807,40.864-57.41,44.769-32.516,4.773-65.251-9.445-97.289,1.715-27.355,9.525-48.86,32.016-61.491,57.527C71.241,361.779,81.278,441.824,134.713,476.6Z" transform="translate(-83.708 -123.056)" fill="#a0cdf2" style="mix-blend-mode: multiply;isolation: isolate"/>
  <g id="Group_4527" data-name="Group 4527" transform="translate(82.739 157.605)">
    <path id="Path_10956" data-name="Path 10956" d="M332.314,518.308a.8.8,0,0,0,.309-1.537,272.865,272.865,0,0,0-45.422-14,.8.8,0,0,0-.348,1.56,271.307,271.307,0,0,1,45.154,13.912A.794.794,0,0,0,332.314,518.308Z" transform="translate(-23.496 -451.76)" fill="#fff"/>
    <path id="Path_10957" data-name="Path 10957" d="M371.162,479.314a.8.8,0,0,0,.212-1.57c-9.53-2.625-19.776-4.946-30.454-6.9a.8.8,0,1,0-.287,1.572c10.632,1.943,20.832,4.253,30.316,6.866A.788.788,0,0,0,371.162,479.314Z" transform="translate(-91.873 -437.376)" fill="#fff"/>
    <path id="Path_10958" data-name="Path 10958" d="M732.844,632.76a.8.8,0,0,0,.145-1.585c-4.2-.773-8.368-1.614-12.4-2.5a.8.8,0,1,0-.341,1.562c4.05.886,8.24,1.729,12.452,2.506A.835.835,0,0,0,732.844,632.76Z" transform="translate(-662.122 -508.495)" fill="#fff"/>
    <path id="Path_10959" data-name="Path 10959" d="M813.119,628.857a.8.8,0,0,0,.207-1.571c-16.146-4.331-30.276-9.507-42-15.382a.8.8,0,1,0-.716,1.428c11.818,5.923,26.051,11.137,42.3,15.5A.822.822,0,0,0,813.119,628.857Z" transform="translate(-770.169 -500.906)" fill="#fff"/>
    <path id="Path_10960" data-name="Path 10960" d="M776.32,700.443a.8.8,0,0,0,.162-1.582,303.092,303.092,0,0,1-39.744-10.941.8.8,0,1,0-.537,1.505,304.7,304.7,0,0,0,39.954,11A.792.792,0,0,0,776.32,700.443Z" transform="translate(-714.418 -535.178)" fill="#fff"/>
    <path id="Path_10961" data-name="Path 10961" d="M330.912,646.172a.808.808,0,0,0,.145-.013,346.455,346.455,0,0,0,36.016-8.473.8.8,0,1,0-.454-1.532,345.033,345.033,0,0,1-35.849,8.433.8.8,0,0,0,.142,1.585Z" transform="translate(-82.139 -511.857)" fill="#fff"/>
    <path id="Path_10962" data-name="Path 10962" d="M352.537,713.087c.029,0,.059,0,.088,0a409.588,409.588,0,0,0,55.251-9.729.8.8,0,1,0-.392-1.549,407.9,407.9,0,0,1-55.035,9.689.8.8,0,0,0,.087,1.593Z" transform="translate(-134.855 -541.444)" fill="#fff"/>
    <path id="Path_10963" data-name="Path 10963" d="M651.794,426.1a.8.8,0,0,0,.236-.036c21.923-6.787,48.208-11.814,76.015-14.538a.8.8,0,1,0-.156-1.59c-27.912,2.733-54.308,7.783-76.331,14.6a.8.8,0,0,0,.236,1.563Z" transform="translate(-619.546 -409.933)" fill="#fff"/>
    <path id="Path_10964" data-name="Path 10964" d="M735.29,512.279a.8.8,0,0,0,.234-.035c9.032-2.752,18.81-5.222,29.063-7.339a.8.8,0,0,0-.324-1.565c-10.3,2.127-20.125,4.609-29.206,7.375a.8.8,0,0,0,.232,1.564Z" transform="translate(-701.875 -452.016)" fill="#fff"/>
    <path id="Path_10965" data-name="Path 10965" d="M339.656,438.065a.8.8,0,0,0,.263-1.554,296.052,296.052,0,0,0-30.313-8.656.8.8,0,0,0-.362,1.557,294.364,294.364,0,0,1,30.15,8.608A.783.783,0,0,0,339.656,438.065Z" transform="translate(-43.144 -417.999)" fill="#fff"/>
  </g>
  <path id="Path_10966" data-name="Path 10966" d="M449.175,451.58c-15.293,0-30.174.63-44.458,1.82V380.084c14.283-1.189,29.165-1.819,44.458-1.819a506.052,506.052,0,0,1,81.895,6.423V458A506.042,506.042,0,0,0,449.175,451.58Z" transform="translate(-203.809 -238.057)" fill="#2d8cff"/>
  <g id="Group_4530" data-name="Group 4530" transform="translate(272.765 156.921)">
    <g id="Group_4529" data-name="Group 4529" transform="translate(0)" clip-path="url(#clip-path)">
      <ellipse id="Ellipse_222" data-name="Ellipse 222" cx="23.352" cy="23.352" rx="23.352" ry="23.352" transform="translate(0)" fill="#fff"/>
      <ellipse id="Ellipse_223" data-name="Ellipse 223" cx="23.352" cy="23.352" rx="23.352" ry="23.352" transform="translate(0)" fill="none"/>
      <g id="Group_4528" data-name="Group 4528" transform="translate(6.791 6.87)">
        <path id="Path_10967" data-name="Path 10967" d="M461.852,506.859v.081l-.446-1.731Z" transform="translate(-445.291 -459.051)"/>
        <path id="Path_10968" data-name="Path 10968" d="M473.077,469.866v0l-4.153,10.33h3.955l-1.863,2,6.951,8.813H461.406v-6.1A15.544,15.544,0,0,1,473.077,469.866Z" transform="translate(-461.406 -443.125)" fill="#0058af"/>
        <path id="Path_10969" data-name="Path 10969" d="M461.388,508.343h-.022l.016-.021Z" transform="translate(-444.805 -460.454)" fill="#393839"/>
        <path id="Path_10970" data-name="Path 10970" d="M461.406,508.213v0Z" transform="translate(-444.845 -460.404)" fill="#393839"/>
        <path id="Path_10971" data-name="Path 10971" d="M438.173,482.2l-1.863-2h3.955l-4.153-10.331a15.544,15.544,0,0,1,11.671,15.052v6.1H431.261v-.051Z" transform="translate(-414.66 -443.125)" fill="#0058af"/>
        <path id="Path_10972" data-name="Path 10972" d="M461.352,508.332h-.018l.009-.034Z" transform="translate(-444.751 -460.443)" fill="#393839"/>
        <path id="Path_10973" data-name="Path 10973" d="M452.505,469.866h0v0Z" transform="translate(-431.055 -443.125)" fill="#393839"/>
        <path id="Path_10974" data-name="Path 10974" d="M461.4,508.284l-.011.041.011-.041Z" transform="translate(-444.826 -460.437)" fill="#393839"/>
        <path id="Path_10975" data-name="Path 10975" d="M452.5,466.991v1.582l0,0v2.162l.017.07.026-.07a13.942,13.942,0,0,0,4.846,2.778l.023.007.142-.048a13.938,13.938,0,0,0,4.727-2.737v-3.742l-.116.129a7.794,7.794,0,0,1-1.693,1.7.812.812,0,0,1-.091.046c-.036.019-.072.036-.109.052s-.062.027-.095.04l-.065.024c-.027.01-.055.021-.084.029l-.049.015a3.553,3.553,0,0,1-.531.12c-.072.012-.147.022-.226.035l-.139.015-.2.017c-.035,0-.069.007-.1.008s-.07.005-.107.007-.074,0-.111.007-.1.005-.146.009l-.163,0c-.26.01-.548.014-.866.014-3.355,0-3.268-.465-4.774-2.143Z" transform="translate(-440.834 -441.829)" fill="#f9b885"/>
        <path id="Path_10976" data-name="Path 10976" d="M463.255,482.4l.991.762-.666,5.334,1.809,7.026v.073h0l-.446-1.65-3.537-13.736,1.583,2.536S463.087,482.618,463.255,482.4Z" transform="translate(-448.828 -447.785)" fill="#d7e2ee"/>
        <path id="Path_10977" data-name="Path 10977" d="M461.37,508.255h0l.009-.036h0Z" transform="translate(-444.798 -460.407)" fill="#cfd1d2"/>
        <path id="Path_10978" data-name="Path 10978" d="M461.368,486.71l0-1.127h0Z" transform="translate(-444.787 -450.207)" fill="#cfd1d2"/>
        <path id="Path_10979" data-name="Path 10979" d="M461.372,508.309v.028l-.006-.021Z" transform="translate(-444.789 -460.448)" fill="#cfd1d2"/>
        <path id="Path_10980" data-name="Path 10980" d="M461.358,508.291v0l-.009.034V508.3Z" transform="translate(-444.767 -460.44)" fill="#e9e9ea"/>
        <path id="Path_10981" data-name="Path 10981" d="M455.354,483.258l.995-.762c.169.219.267.344.267.344l1.508-2.417-3.913,15.194h0l1.81-7.026Z" transform="translate(-437.61 -447.882)" fill="#d7e2ee"/>
        <path id="Path_10982" data-name="Path 10982" d="M443.725,438.982a2.207,2.207,0,0,1,.265-.018h.286v1.968a1.446,1.446,0,0,0,1.017-1.075,11.75,11.75,0,0,0,0-2.4,14.546,14.546,0,0,0,1.226-1.667,4.283,4.283,0,0,0,.648-2.488,48.133,48.133,0,0,0,5.308.121h0c2.791-.047,5.436-.183,5.436-.183h.038a4.345,4.345,0,0,0,.644,2.6,14.573,14.573,0,0,0,1.226,1.667,11.751,11.751,0,0,0,0,2.4,1.431,1.431,0,0,0,.984,1.062v-2.015h.287a2.092,2.092,0,0,1,.318.027,2.114,2.114,0,0,1,1.8,2.089v.937a2.118,2.118,0,0,1-.3,1.084l-.286.48a2.117,2.117,0,0,1-1.814,1.031c-.066,3.244-1.545,5.063-3.442,7.178l-.115.129c-1.507,1.678-1.42,2.143-4.775,2.143h0c-3.355,0-3.267-.465-4.774-2.143l-.116-.129h0c-1.9-2.115-3.373-3.932-3.441-7.173a2.117,2.117,0,0,1-1.684-1.027l-.286-.48a2.114,2.114,0,0,1-.3-1.085v-.937A2.116,2.116,0,0,1,443.725,438.982Z" transform="translate(-435.914 -426.62)" fill="#f9b885"/>
        <path id="Path_10983" data-name="Path 10983" d="M454.661,479.513h0l-2.156-2.924a13.945,13.945,0,0,0,4.868-2.785l-.937,3.637-1.508,2.417S454.829,479.732,454.661,479.513Z" transform="translate(-435.922 -444.899)" fill="#fff"/>
        <path id="Path_10984" data-name="Path 10984" d="M466.237,476.581l.023.008-2.156,2.924h0c-.169.219-.266.344-.266.344l-1.583-2.536-.888-3.448.026-.07A13.955,13.955,0,0,0,466.237,476.581Z" transform="translate(-449.677 -444.899)" fill="#fff"/>
        <path id="Path_10985" data-name="Path 10985" d="M449.994,480.2l1.863,2-6.912,8.762v-.1l3.913-15.194.937-3.637v-2.163h0l4.154,10.331Z" transform="translate(-428.345 -443.125)" fill="#415a94"/>
        <path id="Path_10986" data-name="Path 10986" d="M461.371,508.219l.01.039-.008.01-.006.007-.016.021.011-.042Z" transform="translate(-444.79 -460.407)" fill="#414042"/>
        <path id="Path_10987" data-name="Path 10987" d="M465.361,480.2h-3.955l4.153-10.329v2.161l.018.07.888,3.448L470,489.283l.446,1.731L463.5,482.2Z" transform="translate(-453.888 -443.125)" fill="#415a94"/>
        <path id="Path_10988" data-name="Path 10988" d="M461.37,508.08l.02.076-.009.036-.011.041v-.154Z" transform="translate(-444.809 -460.345)" fill="#cda565"/>
        <path id="Path_10989" data-name="Path 10989" d="M457.442,481.8l2.156-2.924,2.156,2.924-.995.762.666,5.334-1.81,7.025v.154l-.009-.034v0l-.01-.04-.02-.076-1.809-7.025.666-5.334Z" transform="translate(-443.015 -447.184)" fill="#2d8cff"/>
        <path id="Path_10990" data-name="Path 10990" d="M445.143,423.691s.268.281,1.671.343c2.034.09,2.934-2.4,7.939-2.793.425-.034.878-.051,1.366-.051,6.278,0,6.962,6.569,6.962,6.57h0s.536.539.585,2.745c.021.971.024,2.093.02,3.046a2.092,2.092,0,0,0-.318-.027h-.287v2.015a1.431,1.431,0,0,1-.985-1.062,11.755,11.755,0,0,1,0-2.4,14.566,14.566,0,0,1-1.226-1.667,4.345,4.345,0,0,1-.644-2.6h-.038s-2.645.136-5.436.184h0a48.132,48.132,0,0,1-5.308-.121,4.283,4.283,0,0,1-.648,2.488,14.543,14.543,0,0,1-1.226,1.667,11.753,11.753,0,0,1,0,2.4,1.446,1.446,0,0,1-1.017,1.075v-1.968h-.286a2.212,2.212,0,0,0-.265.018v-3.1a5.43,5.43,0,0,1,1.257-3.564A9.286,9.286,0,0,1,445.143,423.691Z" transform="translate(-438.192 -421.191)" fill="#2d8cff"/>
        <path id="Path_10991" data-name="Path 10991" d="M455.963,466.991v1.582l0,0v2.162l.017.07.026-.07a13.943,13.943,0,0,0,4.846,2.778l.022.007.142-.048V471a4.682,4.682,0,0,0,2.827-2.135l-.109.052c-.031.012-.062.026-.095.04l-.065.024-.084.029-.049.015a4.115,4.115,0,0,1-.531.12c-.072.012-.147.022-.226.035l-.139.015-.2.017c-.035,0-.069.007-.1.008s-.07.005-.107.007-.074,0-.111.007-.1.005-.146.009l-.163,0c-.26.01-.548.014-.866.014-3.355,0-3.268-.465-4.774-2.143Z" transform="translate(-444.293 -441.829)" fill="#f9b885" opacity="0.5" style="mix-blend-mode: multiply;isolation: isolate"/>
      </g>
    </g>
  </g>
  <g id="Group_4531" data-name="Group 4531" transform="translate(212.32 162.517)" opacity="0.5">
    <path id="Path_10992" data-name="Path 10992" d="M541.21,421.985l.065,0c10.473-.617,21.2-.93,31.892-.93,2.14,0,4.295.013,6.4.037a1.09,1.09,0,0,0,.025-2.179c-2.117-.025-4.28-.037-6.429-.037-10.731,0-21.5.314-32.019.933a1.09,1.09,0,0,0,.063,2.177Z" transform="translate(-540.122 -418.874)" fill="#fff"/>
    <path id="Path_10993" data-name="Path 10993" d="M530.759,435.662c.021,0,.042,0,.063,0,10.221-.587,20.689-.885,31.114-.885,4.034,0,8.117.045,12.135.134a1.09,1.09,0,0,0,.048-2.179c-4.034-.088-8.133-.134-12.183-.134-10.466,0-20.976.3-31.239.888a1.089,1.089,0,0,0,.062,2.177Z" transform="translate(-528.89 -425.058)" fill="#fff"/>
  </g>
  <g id="Group_4536" data-name="Group 4536" transform="translate(118.231 105.533)">
    <g id="Group_4535" data-name="Group 4535" transform="translate(0)">
      <path id="Path_10994" data-name="Path 10994" d="M439.048,733.115q11.323,4.555,21.969,9.658c1.258.591,2.5,1.2,3.751,1.816l8.422-52.4,4.9-30.529,7.016,26.945L504.177,742c-.373,8,.905,17.691,2.818,27.227q9.221,6.288,18.224,13.264,5.593,4.331,11.133,8.949l-11-53.82s-4.565-43.789-14.1-87.673c-2.04-9.423-4.662-18.719-6.676-27.413-.5-2.168-.453-4.3-.943-6.387l-11.437-.709-16.243-1.006-25.171-1.556q-1.014,4.827-1.928,9.946C443.262,654.183,440.524,693.337,439.048,733.115Z" transform="translate(-346.184 -449.311)" fill="#032e58"/>
      <path id="Path_10995" data-name="Path 10995" d="M533.414,388.764l10.9,4.771,7.046-4.771V364.628l-17.95-9.941Z" transform="translate(-413.039 -332.966)" fill="#f6d4af"/>
      <g id="Group_4532" data-name="Group 4532" transform="translate(0 60.57)">
        <path id="Path_10996" data-name="Path 10996" d="M389.2,502.28l7.846,13.55,8.253-4.256a39.852,39.852,0,0,0,11.85-9.316l7-8.069,10.749-12.836c.049.332.1.665.152.992a76.342,76.342,0,0,0,3.579,14.192c.655,1.781,1.244,3.4,1.772,4.886A33.1,33.1,0,0,1,442.121,509c1.307,12.151-.88,29.746-.88,29.746a4.37,4.37,0,0,0,2.571,3.982c19.123,8.635,31.534,8.537,51.076-.017a4.372,4.372,0,0,0,2.621-4,115.641,115.641,0,0,1-.463-32.8,26.476,26.476,0,0,1,1.267-5.115c.469-1.309.983-2.724,1.55-4.262a70.286,70.286,0,0,0,2.7-9.474l26.091,29.757a13.435,13.435,0,0,0,18.9,1.3l3.53-3.056q2.517-2.427,5.034-4.865L547.9,498.93l-7.29,4.93c-1.765-2.724-4.784-7.878-7.807-13.249-4.173-7.409-8.357-15.233-9.267-17.636-3.187-8.428-3.721-17.647-8.7-25.383a56,56,0,0,0-7.622-9.191c-.06-.06-.18-.174-.349-.327a30.394,30.394,0,0,0-7.284-4.925l-7.66-3.694a40.779,40.779,0,0,0-17.734-4.053h-9.9a40.779,40.779,0,0,0-17.734,4.053l-9.6,4.768A22.064,22.064,0,0,0,432,437.584c-14.677,13.19-18.96,35.173-28.112,50.717a23.7,23.7,0,0,1-5.339,6.254Z" transform="translate(-338.569 -425.402)" fill="#fff"/>
        <path id="Path_10997" data-name="Path 10997" d="M680.346,613.722s6.109-4.6,7.221-6.991c.671-1.447,2.39-4.955,2.526-6.832a.274.274,0,0,0-.337-.286,31.117,31.117,0,0,0-5.511,1.716,3.123,3.123,0,0,1-1.176.247,2.778,2.778,0,0,1-1.532-.357s-1.228-1.131.136-1.836l5.654-2.714,1.839-1.4a4.709,4.709,0,0,1,3.049-.958l3.759.158,34.775-28.2,7.083,11.986L705.505,596.35l.063.077c-2.3,1.17-4.517,5.693-5.079,7.294s-3.261,4.809-7.523,9.132a13.145,13.145,0,0,1-4.025,2.946,3.722,3.722,0,0,1-3.529.624,1.335,1.335,0,0,1-1.871-.3,1.365,1.365,0,0,1-2.077-.646C679.274,615.281,680.346,613.722,680.346,613.722Z" transform="translate(-680.084 -488.88)" fill="#f6d4af"/>
      </g>
      <g id="Group_4533" data-name="Group 4533" transform="translate(209.332 82.79)">
        <path id="Path_10998" data-name="Path 10998" d="M323.731,517.156l32.235-22.206c.787-.091,2.145-3.639,2.316-4.412.219-.995.466-.557.416-1.9a28.348,28.348,0,0,1,.7-7.873,3.037,3.037,0,0,0,.136-.89l0-5.034a4.9,4.9,0,0,1,.122-1.08l1.758-7.666a.325.325,0,0,1,.35-.251c.573.058,1.781.413,1.638,2.384l-.37,2.759-.647,3.4a55.248,55.248,0,0,1,.913,6.806s.854,5.239-.8,8.341a7.571,7.571,0,0,0,1.383-4.825l.142-4.345s.07-1.793,1.588-1.723c0,0,1.839.021,1.71,2.735,0,0-.022,3.263-.131,4.438a9.407,9.407,0,0,0,.479,3.931,8.157,8.157,0,0,1-1.766,7.391,5,5,0,0,1-2.05,1.334l-4.111,1.292c-7.99,7.991-18.889,20.06-27.787,28.658Z" transform="translate(-323.731 -465.847)" fill="#f6d4af"/>
        <path id="Path_10999" data-name="Path 10999" d="M326.663,489.77a.761.761,0,0,1,.322-.026,1.279,1.279,0,0,1,1.141,1.242s.3,1.4-1.064,1.438c0,0-1.26.159-1.354-1.031C325.708,491.394,325.7,490.062,326.663,489.77Z" transform="translate(-285.051 -476.612)" fill="#f6d4af"/>
        <path id="Path_11000" data-name="Path 11000" d="M335.27,467.835s-.115.253-.524.04l.4-1.736a.323.323,0,0,1,.1-.166.139.139,0,0,1,.226.059A1.926,1.926,0,0,1,335.27,467.835Z" transform="translate(-297.456 -465.887)" fill="#f6d4af"/>
      </g>
      <path id="Path_11001" data-name="Path 11001" d="M547.206,425.3l-5.379,9.182-5.379-9.182Z" transform="translate(-410.547 -364.787)" fill="#2d8cff"/>
      <path id="Path_11002" data-name="Path 11002" d="M533.359,416.714l3.9,4.771-6.007,11.359-4.94-11.359Z" transform="translate(-395.034 -360.917)" fill="#a7d2e5"/>
      <path id="Path_11003" data-name="Path 11003" d="M560.179,421.484l-4.607,11.359-9.333-11.359,3.036-4.771Z" transform="translate(-428.9 -360.917)" fill="#a7d2e5"/>
      <path id="Path_11004" data-name="Path 11004" d="M465.893,515.767a130.34,130.34,0,0,0,2.528-26.668c3.456,5.894,6.18,18.425,3.637,27.324l5.26,12.377Z" transform="translate(-301.899 -393.535)" fill="rgba(126,148,161,0.2)" style="mix-blend-mode: multiply;isolation: isolate"/>
      <path id="Path_11005" data-name="Path 11005" d="M538.607,387.272l1.853,4.323v11.852l-7.046,4.77,2.2-8.959A9.425,9.425,0,0,1,538.607,387.272Z" transform="translate(-402.134 -347.65)" fill="#f6d4af" style="mix-blend-mode: multiply;isolation: isolate"/>
      <g id="Group_4534" data-name="Group 4534" transform="translate(111.104)">
        <path id="Path_11006" data-name="Path 11006" d="M503.345,364.744c.7,3.466,2.2,6.086,3.371,5.852s1.548-3.233.852-6.7-2.2-6.086-3.371-5.852S502.65,361.278,503.345,364.744Z" transform="translate(-463.984 -334.473)" fill="#fff"/>
        <path id="Path_11007" data-name="Path 11007" d="M534.676,381.173l.135-4.287a54.869,54.869,0,0,1-.67-7.346l.742-1.279-.2-3.04c1.632-.064,3.907-.842,1.976-3.1-1.213-1.417-2-4.3-2.294-5.522a15.53,15.53,0,0,1,.313-2.436,9.01,9.01,0,0,0-1.42-5.958,2.907,2.907,0,0,0-.219-.334,10.571,10.571,0,0,0-2.015-2.135.655.655,0,0,1-.1-.086,8.377,8.377,0,0,0-1.281-.854l-26.128,5.356L501.882,360.5l5.811,4.509,11.35-2.058V371.4l3.607,8.021.831.037.885.032,6.531,2.724c2.443,1.108,3.338-.015,3.636-.65A1.462,1.462,0,0,0,534.676,381.173Z" transform="translate(-492.858 -328.51)" fill="#f6d4af"/>
        <path id="Path_11008" data-name="Path 11008" d="M532.962,335.991a2.683,2.683,0,0,1,3.192-2.5c4.336.838,10.78.689,11.081-7.474,0,0-.333-8.3-8.1-6.187,0,0-3.374,1.859-7.211-1.676s-9.159-3.8-12.5-1.584c-2.751,1.825-3.452,3.638-3.614,4.223a4.944,4.944,0,0,1-.591,1.328,3.131,3.131,0,0,1-3.258,1.607c-2.545-.436-8.517,1.873-8.273,9.68a9.594,9.594,0,0,0,1.141,4.251l.193.358a20.363,20.363,0,0,0,3.151,4.342c.711.749,1.348,2.128.73,4.568a10.1,10.1,0,0,0,4.382,11.034l2.33-1.692a6.042,6.042,0,0,0,1.816-7.672,3.71,3.71,0,0,1,.819-4.728,3.465,3.465,0,0,1,2.651-.983,2.761,2.761,0,0,1,2.41,1.509,12.687,12.687,0,0,0,1.775,2.578l4.465,5.009.574-7.186a11.43,11.43,0,0,1,1.646-5.065A8,8,0,0,0,532.962,335.991Z" transform="translate(-503.678 -315.15)" fill="#032e58"/>
        <path id="Path_11009" data-name="Path 11009" d="M520.345,374.847a2.018,2.018,0,0,1-2.388,1.237,10.9,10.9,0,0,0-8.106,1.694,2.31,2.31,0,0,1-3.48-1.123,7.465,7.465,0,0,1-.433-2.716l-1.025-7.363-.994-7.162-5.019,6.053c-.081,2.694,6.2,5.465,4.616,8.721,0,.014-.012.015-.011.028a13.545,13.545,0,0,0-1.339,4.335,5.783,5.783,0,0,0-.033,1.035c.461,4.439,3.524,7.067,7,8.616a23.937,23.937,0,0,0,4.908,1.542,3.777,3.777,0,0,0,.735,1.562c2.227,2.885,6.018,1.262,6.018,1.262C529.4,388.5,520.345,374.847,520.345,374.847Z" transform="translate(-478.32 -335.096)" fill="#032e58"/>
        <path id="Path_11010" data-name="Path 11010" d="M509.791,364.12c.7,3.465,2.2,6.086,3.37,5.852s1.548-3.234.852-6.7-2.2-6.086-3.371-5.852S509.1,360.654,509.791,364.12Z" transform="translate(-473.971 -334.191)" fill="#fff"/>
        <path id="Path_11011" data-name="Path 11011" d="M506.444,370.959a.646.646,0,0,0,.091-.006l18.814-2.506a.681.681,0,1,0-.18-1.351L506.355,369.6a.681.681,0,0,0,.089,1.357Z" transform="translate(-483.528 -338.555)" fill="#fff"/>
      </g>
      <path id="Path_11012" data-name="Path 11012" d="M378.283,555.521l11.259,14.528,7.264-7.627-9.443-12.349Z" transform="translate(-173.255 -421.011)" fill="#a7d2e5"/>
      <path id="Path_11013" data-name="Path 11013" d="M609.873,523.9l10.749-12.836a138.622,138.622,0,0,1-1.411-19.728c-2.572,4.249-4.653,9.567-4.473,19.918Z" transform="translate(-524.302 -394.544)" fill="rgba(126,148,161,0.2)" style="mix-blend-mode: multiply;isolation: isolate"/>
      <path id="Path_11014" data-name="Path 11014" d="M677.487,555.362l10.446,18.9-9.8,3.978-8.436-15.8Z" transform="translate(-624.477 -423.394)" fill="#a7d2e5"/>
      <path id="Path_11015" data-name="Path 11015" d="M554.018,807.828c1.258.591,2.5,1.2,3.75,1.816l8.423-52.4-9.328,1.865Z" transform="translate(-439.185 -514.367)" fill="#032e58" opacity="0.5" style="mix-blend-mode: multiply;isolation: isolate"/>
      <path id="Path_11016" data-name="Path 11016" d="M522.8,436.536a4.4,4.4,0,0,0-.461.192c3.964,13.367,1.195,32.186-2.558,45.428-5.287,18.657-5.471,36.564,3.138,54.31l.533,1.116,14.036,2.193s2.629-11.72,2.7-12.054c.289-1.289-3.011-3.675-4.479-6.345-5.6-10.181-8.695-21.562-6.705-33.2,2.51-16.807.28-34.6-4.145-50.915-.2-.731-.3-1.12-.305-1.12A12.011,12.011,0,0,0,522.8,436.536Z" transform="translate(-392.366 -369.671)" fill="#2d8cff"/>
      <path id="Path_11017" data-name="Path 11017" d="M444.857,729.422c11.443,19.614,8.987,34.323,8.172,41.674-.48,4.3,1,20.355,4.933,38.5q5.593,4.331,11.133,8.949l-11-53.82s-4.565-43.789-14.1-87.673l-1.588-4.022S433.414,709.812,444.857,729.422Z" transform="translate(-278.927 -476.419)" fill="#032e58" opacity="0.5" style="mix-blend-mode: screen;isolation: isolate"/>
    </g>
    <path id="Path_11018" data-name="Path 11018" d="M431.649,427.693c.855,3.64,4.909,17.756,16.977,22.016,13.892,4.9,16.24,20.855,16.24,20.855A29.89,29.89,0,0,0,480.2,491.643c-4.173-7.409-8.357-15.233-9.267-17.636-3.187-8.428-3.721-17.647-8.7-25.383a56,56,0,0,0-7.622-9.191c-.06-.06-.18-.174-.349-.327a30.4,30.4,0,0,0-7.284-4.925l-7.66-3.694A40.841,40.841,0,0,0,431.649,427.693Z" transform="translate(-285.964 -365.864)" fill="#fff" opacity="0.5" style="mix-blend-mode: screen;isolation: isolate"/>
  </g>
  <path id="Path_11019" data-name="Path 11019" d="M197.443,542.695c18.258-10.67,28.792-23.222,28.792-36.658v73.316C226.235,565.917,215.7,553.365,197.443,542.695Z" transform="translate(214.898 -295.634)" fill="none"/>
  <path id="Path_11020" data-name="Path 11020" d="M209.208,507.607q-5.435-3.176-11.765-6.12V428.171C222.87,440.015,238,454.847,238,470.949,238,484.385,227.466,496.937,209.208,507.607Z" transform="translate(203.133 -260.546)" fill="#0268ce"/>
  <path id="Path_11021" data-name="Path 11021" d="M866.625,418.6v73.315a164.87,164.87,0,0,0-24.244,11.38,98.218,98.218,0,0,0-11.633,7.88V495.413c-11.023-8.782-17.159-18.523-17.159-28.778C813.588,448.05,833.74,431.155,866.625,418.6Z" transform="translate(-763.991 -256.232)" fill="#0062c4"/>
  <path id="Path_11022" data-name="Path 11022" d="M895.943,534.75c.132.392,0,15.932,0,15.932h0v57.554c-11.027-8.779-17.158-18.522-17.158-28.777V506.275C878.838,516.416,885.1,526.051,895.943,534.75Z" transform="translate(-829.186 -295.741)" fill="#2d8cff"/>
  <ellipse id="Ellipse_225" data-name="Ellipse 225" cx="2.112" cy="2.112" rx="2.112" ry="2.112" transform="translate(379.245 269.622)" fill="#2d8cff"/>
  <ellipse id="Ellipse_226" data-name="Ellipse 226" cx="3.9" cy="3.9" rx="3.9" ry="3.9" transform="translate(303.358 293.315)" fill="#0061c1"/>
  <ellipse id="Ellipse_227" data-name="Ellipse 227" cx="4.68" cy="4.68" rx="4.68" ry="4.68" transform="matrix(-0.733, -0.68, 0.68, -0.733, 373.804, 315.008)" fill="#2d8cff"/>
  <ellipse id="Ellipse_228" data-name="Ellipse 228" cx="1.82" cy="1.82" rx="1.82" ry="1.82" transform="translate(320.518 317.754)" fill="#fff"/>
  <path id="Path_11023" data-name="Path 11023" d="M363.985,739.227a1.82,1.82,0,1,0,1.82-1.82A1.82,1.82,0,0,0,363.985,739.227Z" transform="translate(-17.987 -399.893)" fill="#0061c1"/>
  <ellipse id="Ellipse_229" data-name="Ellipse 229" cx="5.2" cy="5.2" rx="5.2" ry="5.2" transform="translate(142.543 302.922) rotate(-99.245)" fill="#0061c1"/>
  <ellipse id="Ellipse_230" data-name="Ellipse 230" cx="2.6" cy="2.6" rx="2.6" ry="2.6" transform="translate(130.2 328.154)" fill="#fff"/>
  <circle id="Ellipse_231" data-name="Ellipse 231" cx="4.16" cy="4.16" r="4.16" transform="matrix(-0.231, -0.973, 0.973, -0.231, 86.552, 304.041)" fill="#2d8cff"/>
  <path id="Path_11024" data-name="Path 11024" d="M852.382,622.12a2.08,2.08,0,1,0,2.08-2.08A2.08,2.08,0,0,0,852.382,622.12Z" transform="translate(-775.221 -347.005)" fill="#0061c1"/>
  <circle id="Ellipse_232" data-name="Ellipse 232" cx="4.16" cy="4.16" r="4.16" transform="translate(93.801 267.478) rotate(-135)" fill="#fff"/>
  <path id="Path_11025" data-name="Path 11025" d="M380.014,406.516a1.837,1.837,0,1,0,1.837-1.837A1.837,1.837,0,0,0,380.014,406.516Z" transform="translate(-42.856 -249.96)" fill="#2d8cff"/>
  <ellipse id="Ellipse_233" data-name="Ellipse 233" cx="5.241" cy="5.241" rx="5.241" ry="5.241" transform="matrix(-0.231, -0.973, 0.973, -0.231, 373.842, 183.5)" fill="#2d8cff"/>
  <path id="Path_11026" data-name="Path 11026" d="M362.924,456.336a3.411,3.411,0,1,0,3.411-3.411A3.411,3.411,0,0,0,362.924,456.336Z" transform="translate(-19.526 -271.7)" fill="#0061c1"/>
  <circle id="Ellipse_234" data-name="Ellipse 234" cx="4.198" cy="4.198" r="4.198" transform="translate(389.829 214.303) rotate(-135)" fill="#fff"/>
  <ellipse id="Ellipse_235" data-name="Ellipse 235" cx="2.099" cy="2.099" rx="2.099" ry="2.099" transform="translate(387.73 227.237)" fill="#fff"/>
  <g id="Group_4537" data-name="Group 4537" transform="translate(107.379 150.953)">
    <path id="Path_11027" data-name="Path 11027" d="M667.2,399.558a1.733,1.733,0,1,0,1.733-1.734A1.734,1.734,0,0,0,667.2,399.558Z" transform="translate(-594.984 -397.824)" fill="#fff"/>
    <path id="Path_11028" data-name="Path 11028" d="M710.736,443.728a1.733,1.733,0,1,0,1.733-1.733A1.734,1.734,0,0,0,710.736,443.728Z" transform="translate(-662.443 -417.728)" fill="#2d8cff"/>
    <path id="Path_11029" data-name="Path 11029" d="M749.858,523.234a1.733,1.733,0,1,0,1.733-1.733A1.733,1.733,0,0,0,749.858,523.234Z" transform="translate(-723.058 -453.555)" fill="#0061c1"/>
    <ellipse id="Ellipse_236" data-name="Ellipse 236" cx="4.507" cy="4.507" rx="4.507" ry="4.507" transform="translate(57.427 55.691) rotate(-103.33)" fill="#fff"/>
    <ellipse id="Ellipse_237" data-name="Ellipse 237" cx="4.853" cy="4.853" rx="4.853" ry="4.853" transform="translate(8.959 54.187) rotate(-157.372)" fill="#0061c1"/>
    <circle id="Ellipse_238" data-name="Ellipse 238" cx="5.2" cy="5.2" r="5.2" transform="translate(17.094 17.407) rotate(-135)" fill="#2d8cff"/>
  </g>
  <path id="Path_11030" data-name="Path 11030" d="M216.752,516.523a1.09,1.09,0,0,0,.642-1.971,124.02,124.02,0,0,0-18.7-10.983,1.09,1.09,0,1,0-.951,1.961,121.88,121.88,0,0,1,18.369,10.785A1.084,1.084,0,0,0,216.752,516.523Z" transform="translate(223.464 -294.472)" fill="#82bdf9"/>
  <path id="Path_11031" data-name="Path 11031" d="M218.55,532.961a1.09,1.09,0,0,0,.616-1.989,129.424,129.424,0,0,0-16.48-9.42,1.09,1.09,0,0,0-.951,1.961,127.3,127.3,0,0,1,16.2,9.259A1.088,1.088,0,0,0,218.55,532.961Z" transform="translate(219.472 -302.575)" fill="#82bdf9"/>
  <path id="Path_11032" data-name="Path 11032" d="M218.55,550.945a1.089,1.089,0,0,0,.616-1.989,129.351,129.351,0,0,0-16.48-9.42,1.09,1.09,0,1,0-.951,1.961,127.3,127.3,0,0,1,16.2,9.258A1.084,1.084,0,0,0,218.55,550.945Z" transform="translate(219.472 -310.679)" fill="#82bdf9"/>
  <path id="Path_11033" data-name="Path 11033" d="M839.7,489.925a1.088,1.088,0,0,0,.872-.435c.108-.143,11.033-14.441,33.057-23.506a1.089,1.089,0,1,0-.829-2.015c-22.612,9.307-33.518,23.609-33.972,24.213a1.09,1.09,0,0,0,.871,1.743Z" transform="translate(-785.422 -276.64)" fill="#fff" opacity="0.5"/>
  <path id="Path_11034" data-name="Path 11034" d="M839.7,506.435a1.085,1.085,0,0,0,.806-.355,88.308,88.308,0,0,1,31.064-21.166,1.09,1.09,0,1,0-.829-2.015A89.319,89.319,0,0,0,838.9,504.612a1.089,1.089,0,0,0,.8,1.823Z" transform="translate(-783.362 -285.17)" fill="#fff" opacity="0.5"/>
  <path id="Path_11035" data-name="Path 11035" d="M839.7,521.1a1.085,1.085,0,0,0,.739-.289,90.786,90.786,0,0,1,26.877-16.971,1.089,1.089,0,1,0-.829-2.015,92.991,92.991,0,0,0-27.527,17.385,1.09,1.09,0,0,0,.74,1.89Z" transform="translate(-779.11 -293.7)" fill="#fff" opacity="0.5"/>
  <path id="Path_11036" data-name="Path 11036" d="M839.7,529.842a1.085,1.085,0,0,0,.571-.163,93.94,93.94,0,0,1,13.549-6.906,1.09,1.09,0,1,0-.829-2.015,96.028,96.028,0,0,0-13.865,7.067,1.09,1.09,0,0,0,.573,2.017Z" transform="translate(-765.615 -302.23)" fill="#fff" opacity="0.5"/>
  <path id="Path_11037" data-name="Path 11037" d="M221.658,542.695a164.733,164.733,0,0,1-24.244,11.38V627.39c32.885-12.557,53.036-29.452,53.036-48.037V506.037S252.121,524.694,221.658,542.695Z" transform="translate(190.684 -295.634)" fill="#2d8cff"/>
  <path id="Path_11038" data-name="Path 11038" d="M651.752,663.418q12.073,1.905,24.953,3.23" transform="translate(-485.162 -366.552)" fill="none"/>
  <path id="Path_11039" data-name="Path 11039" d="M673.5,677.3q6.388,1.008,13.007,1.855" transform="translate(-506.907 -372.808)" fill="none"/>
  <path id="Path_11040" data-name="Path 11040" d="M655.283,691.182q11.161,1.761,23.014,3.027" transform="translate(-488.693 -379.063)" fill="none"/>
  <path id="Path_11041" data-name="Path 11041" d="M667.7,705.064q7.919,1.25,16.192,2.252" transform="translate(-501.109 -385.319)" fill="none"/>
  <path id="Path_11042" data-name="Path 11042" d="M655.183,718.946q11.187,1.765,23.068,3.033" transform="translate(-488.593 -391.574)" fill="none"/>
  <path id="Path_11043" data-name="Path 11043" d="M543.12,628.953c16.97,0,33.435-.775,49.137-2.231v73.316c-15.7,1.455-32.167,2.23-49.137,2.23a509.123,509.123,0,0,1-78.775-5.92V623.033A509.13,509.13,0,0,0,543.12,628.953Z" transform="translate(-297.754 -348.354)" fill="#2d8cff"/>
  <g id="Group_4541" data-name="Group 4541" transform="translate(233.808 290.828)">
    <g id="Group_4540" data-name="Group 4540" transform="translate(0)">
      <ellipse id="Ellipse_239" data-name="Ellipse 239" cx="26.558" cy="26.558" rx="26.558" ry="26.558" transform="translate(0)" fill="#fff"/>
      <g id="Group_4539" data-name="Group 4539" transform="translate(0)" clip-path="url(#clip-path-2)">
        <g id="Group_4538" data-name="Group 4538" transform="translate(7.289 7.689)">
          <path id="Path_11044" data-name="Path 11044" d="M541.6,706.987c.019.033.038.065.058.1C541.641,707.052,541.622,707.02,541.6,706.987Z" transform="translate(-530.7 -684.703)" fill="none"/>
          <path id="Path_11045" data-name="Path 11045" d="M542.85,704.555c.009.022.019.046.028.068C542.869,704.6,542.859,704.577,542.85,704.555Z" transform="translate(-532.602 -683.607)" fill="none"/>
          <path id="Path_11046" data-name="Path 11046" d="M543.02,704.085c.01.029.021.057.032.085C543.042,704.142,543.031,704.114,543.02,704.085Z" transform="translate(-532.87 -683.395)" fill="none"/>
          <path id="Path_11047" data-name="Path 11047" d="M543.187,703.606c.01.031.021.062.031.093C543.208,703.668,543.2,703.637,543.187,703.606Z" transform="translate(-533.128 -683.179)" fill="none"/>
          <path id="Path_11048" data-name="Path 11048" d="M542.708,705.016v0Z" transform="translate(-532.355 -683.815)" fill="none"/>
          <path id="Path_11049" data-name="Path 11049" d="M541.849,706.58c.017.031.034.062.051.091Z" transform="translate(-531.074 -684.52)" fill="none"/>
          <path id="Path_11050" data-name="Path 11050" d="M543.343,703.118l.03.1C543.363,703.183,543.352,703.151,543.343,703.118Z" transform="translate(-533.368 -682.959)" fill="none"/>
          <path id="Path_11051" data-name="Path 11051" d="M542.084,706.186l.038.073Z" transform="translate(-531.425 -684.342)" fill="none"/>
          <path id="Path_11052" data-name="Path 11052" d="M543.486,702.622l.028.1Z" transform="translate(-533.588 -682.736)" fill="none"/>
          <path id="Path_11053" data-name="Path 11053" d="M544.1,699.019l0,.041Z" transform="translate(-534.511 -681.112)" fill="none"/>
          <path id="Path_11054" data-name="Path 11054" d="M544.057,699.509c0,.026,0,.053.006.079C544.061,699.562,544.059,699.535,544.057,699.509Z" transform="translate(-534.451 -681.333)" fill="none"/>
          <path id="Path_11055" data-name="Path 11055" d="M543.926,700.56c0,.034.009.067.014.1C543.935,700.627,543.931,700.594,543.926,700.56Z" transform="translate(-534.256 -681.807)" fill="none"/>
          <path id="Path_11056" data-name="Path 11056" d="M543.617,702.117c.008.034.016.069.025.1C543.633,702.186,543.625,702.151,543.617,702.117Z" transform="translate(-533.788 -682.508)" fill="none"/>
          <path id="Path_11057" data-name="Path 11057" d="M543.734,701.6c.007.035.014.069.022.1C543.748,701.674,543.741,701.64,543.734,701.6Z" transform="translate(-533.966 -682.278)" fill="none"/>
          <path id="Path_11058" data-name="Path 11058" d="M544,700.032c0,.031.007.063.01.093C544.006,700.095,544,700.063,544,700.032Z" transform="translate(-534.365 -681.569)" fill="none"/>
          <path id="Path_11059" data-name="Path 11059" d="M539.289,710.012c.036.041.074.081.11.121C539.363,710.093,539.325,710.053,539.289,710.012Z" transform="translate(-527.167 -686.066)" fill="none"/>
          <path id="Path_11060" data-name="Path 11060" d="M538.934,710.351c.044.048.089.094.135.141C539.024,710.445,538.979,710.4,538.934,710.351Z" transform="translate(-526.642 -686.219)" fill="none"/>
          <path id="Path_11061" data-name="Path 11061" d="M537.949,711.826a4.382,4.382,0,0,0-.577-.631q-.274-.246-.536-.513a11.864,11.864,0,0,0,1.112,1Z" transform="translate(-524.369 -686.369)" fill="none"/>
          <path id="Path_11062" data-name="Path 11062" d="M540.808,708.181l.074.1Z" transform="translate(-529.484 -685.241)" fill="none"/>
          <path id="Path_11063" data-name="Path 11063" d="M541.348,707.392l.063.1Z" transform="translate(-530.31 -684.885)" fill="none"/>
          <path id="Path_11064" data-name="Path 11064" d="M540.524,708.564l.078.1Z" transform="translate(-529.049 -685.414)" fill="none"/>
          <path id="Path_11065" data-name="Path 11065" d="M541.082,707.79l.069.1Z" transform="translate(-529.904 -685.065)" fill="none"/>
          <path id="Path_11066" data-name="Path 11066" d="M540.232,708.939l.084.107Z" transform="translate(-528.602 -685.582)" fill="none"/>
          <path id="Path_11067" data-name="Path 11067" d="M539.617,709.663l.1.113Z" transform="translate(-527.663 -685.909)" fill="none"/>
          <path id="Path_11068" data-name="Path 11068" d="M539.929,709.3l.091.109Z" transform="translate(-528.139 -685.747)" fill="none"/>
          <path id="Path_11069" data-name="Path 11069" d="M543.838,701.085c.005.035.011.069.018.1C543.85,701.154,543.844,701.12,543.838,701.085Z" transform="translate(-534.123 -682.043)" fill="none"/>
          <path id="Path_11070" data-name="Path 11070" d="M547.19,686.934h0c0,.058,0,.115,0,.174Z" transform="translate(-539.3 -675.667)" fill="#4c0000"/>
          <path id="Path_11071" data-name="Path 11071" d="M499.445,721.625a17.984,17.984,0,0,1,5.538-2.477v2.516c.7,3.168,2.83,5.55,5.69,7.53h0a14.4,14.4,0,0,0,4.849-5.18v2.629a6.334,6.334,0,0,1-.8,3.086,6.338,6.338,0,0,0-.8,3.085V739.7s8.135-.608,8.135-7.986v-9.987a18.06,18.06,0,0,1,7.89,14.935v7.092H491.4v-7.092A18.06,18.06,0,0,1,499.445,721.625Z" transform="translate(-491.404 -690.183)" fill="#fff"/>
          <path id="Path_11072" data-name="Path 11072" d="M523.343,714.9h0a9.886,9.886,0,0,0,4.849-1.795v6.254h0v1.656a14.4,14.4,0,0,1-4.849,5.18h0c-2.86-1.981-4.991-4.362-5.69-7.53V712.5A10.526,10.526,0,0,0,523.343,714.9Z" transform="translate(-504.073 -687.187)" fill="#ffdeb3"/>
          <path id="Path_11073" data-name="Path 11073" d="M518.525,687.384h9.7v2.966h0V693.2c0,.052,0,.1,0,.154a10.044,10.044,0,0,1-4.141,7.931c-.233.179-.469.347-.707.5a9.887,9.887,0,0,1-4.849,1.795h0a10.526,10.526,0,0,1-5.69-2.4,11.841,11.841,0,0,1-1.113-1l-.04-.042c-.045-.046-.09-.093-.135-.141l-.06-.065c-.037-.04-.074-.08-.11-.121l-.07-.079-.1-.112-.074-.088-.091-.109-.076-.094-.083-.107-.077-.1-.079-.1-.077-.106-.074-.1-.077-.112-.069-.1-.077-.118-.063-.1-.077-.125c-.02-.032-.038-.065-.058-.1s-.052-.088-.077-.132-.034-.06-.051-.091c-.026-.048-.053-.095-.079-.144l-.038-.073q-.162-.311-.3-.64v0c-.026-.061-.052-.123-.077-.185-.009-.022-.019-.046-.028-.068-.022-.057-.044-.115-.065-.173-.011-.028-.022-.057-.032-.085-.02-.057-.04-.113-.059-.17-.01-.031-.021-.062-.032-.093-.018-.056-.036-.113-.054-.17l-.03-.1c-.017-.057-.033-.114-.049-.171l-.028-.1c-.015-.058-.03-.115-.044-.173-.009-.035-.017-.069-.025-.1-.014-.059-.027-.118-.04-.177l-.021-.1c-.012-.061-.024-.121-.035-.182-.006-.034-.012-.069-.018-.1-.011-.063-.021-.125-.031-.188-.005-.034-.009-.067-.014-.1-.009-.065-.018-.131-.026-.2,0-.031-.007-.062-.01-.093-.008-.069-.015-.138-.021-.209,0-.026,0-.052-.006-.079-.006-.076-.012-.152-.017-.228l0-.041c-.01-.189-.017-.38-.017-.574v-5.818Z" transform="translate(-499.256 -675.869)" fill="#ffdeb3"/>
          <path id="Path_11074" data-name="Path 11074" d="M505.766,677.866c0-.058,0-.116,0-.174.078-6.239,4.257-11.267,9.4-11.267h3.952c5.215,0,9.435,5.166,9.4,11.514h0v2.966h0v16.059h0v10.99c0,7.378-8.134,7.986-8.134,7.986v-6.885a6.339,6.339,0,0,1,.8-3.086,6.34,6.34,0,0,0,.8-3.086V698.6h0v-6.254c.237-.157.474-.324.706-.5a10.043,10.043,0,0,0,4.141-7.931c0-.052,0-.1,0-.154v-2.852h0V677.94h-19.4v5.819c0,.194.006.384.016.574l0,.041c0,.077.011.153.017.229,0,.026,0,.053.006.079.006.07.014.139.021.209,0,.031.007.063.01.094.008.066.016.131.026.2,0,.034.009.067.014.1.009.063.02.125.031.188.006.035.012.069.018.1.012.062.023.122.035.182.007.035.014.069.022.1.013.059.026.118.04.177.008.035.016.069.025.1.014.058.029.116.044.174l.028.1c.016.057.032.114.049.171.009.033.02.065.03.1.018.057.035.114.054.17.01.031.021.062.031.093.02.057.039.114.059.17.01.029.021.057.032.085.021.058.043.116.066.173l.027.068c.025.062.051.124.077.185v0c.095.219.2.433.3.641.013.024.025.049.038.073.026.049.052.1.079.144l.051.091c.025.045.052.088.077.132s.038.065.058.1l.077.125.063.1.078.118.069.1.077.112.074.1.078.106.079.1.077.1.083.107.076.094.091.109.074.087.1.113.069.079.11.121.061.066.134.14.04.042q.261.267.536.513a4.374,4.374,0,0,1,.577.631v3.507a17.976,17.976,0,0,0-5.538,2.477,2.882,2.882,0,0,1-.151-.918V680.906h0V677.94h0v-.074Z" transform="translate(-497.876 -666.425)" fill="#415a94"/>
          <path id="Path_11075" data-name="Path 11075" d="M523.4,714.9a9.868,9.868,0,0,0,4.819-1.776c-.673,1.621-2.473,4.041-7.3,5.057v5.992a10.938,10.938,0,0,1-3.208-5.508V712.5a10.526,10.526,0,0,0,5.69,2.4Z" transform="translate(-504.127 -687.187)" fill="#ffdeb3" style="mix-blend-mode: multiply;isolation: isolate"/>
        </g>
      </g>
    </g>
  </g>
  <path id="Path_11076" data-name="Path 11076" d="M622.037,671.867a1.09,1.09,0,0,0,.036-2.179c-11.855-.4-23.653-1.2-35.064-2.369a1.09,1.09,0,1,0-.222,2.168c11.461,1.173,23.308,1.974,35.213,2.379Z" transform="translate(-395.354 -368.308)" fill="#fff" opacity="0.5"/>
  <path id="Path_11077" data-name="Path 11077" d="M633.986,684.622a1.09,1.09,0,0,0,.036-2.179c-16.039-.546-31.845-1.8-46.979-3.74a1.09,1.09,0,1,0-.277,2.162c15.2,1.945,31.076,3.208,47.183,3.756Z" transform="translate(-407.307 -373.436)" fill="#fff" opacity="0.5"/>
  <path id="Path_11078" data-name="Path 11078" d="M624.2,699.456a1.09,1.09,0,0,0,.037-2.179c-12.431-.429-24.79-1.291-36.733-2.562a1.09,1.09,0,1,0-.231,2.167c11.995,1.276,24.406,2.142,36.889,2.572Z" transform="translate(-397.782 -380.653)" fill="#fff" opacity="0.5"/>
  <path id="Path_11079" data-name="Path 11079" d="M631.016,712.7a1.09,1.09,0,0,0,.037-2.179c-14.821-.511-29.471-1.633-43.541-3.336a1.09,1.09,0,0,0-.262,2.164c14.133,1.71,28.845,2.837,43.729,3.35Z" transform="translate(-404.598 -386.271)" fill="#fff" opacity="0.5"/>
  <path id="Path_11080" data-name="Path 11080" d="M624.148,727.224a1.09,1.09,0,0,0,.037-2.179c-12.409-.428-24.747-1.288-36.671-2.556a1.09,1.09,0,0,0-.23,2.167c11.975,1.273,24.365,2.137,36.826,2.566Z" transform="translate(-397.74 -393.168)" fill="#fff" opacity="0.5"/>
  <g id="Group_4546" data-name="Group 4546" transform="translate(395.984 255.457)">
    <g id="Group_4545" data-name="Group 4545" style="isolation: isolate">
      <g id="Group_4544" data-name="Group 4544">
        <g id="Group_4543" data-name="Group 4543">
          <g id="Group_4542" data-name="Group 4542" clip-path="url(#clip-path-3)">
            <path id="Path_11081" data-name="Path 11081" d="M234.244,634.323l.018-.015Zm-2.454,1.546a1.065,1.065,0,0,1,.059.3,1.3,1.3,0,0,1-.277.879,1.3,1.3,0,0,0,.277-.879A1.065,1.065,0,0,0,231.791,635.869Zm-1.246,1.041a.542.542,0,0,0,.654.4l.021-.008a.716.716,0,0,0,.238-.138.716.716,0,0,1-.238.138l-.021.008A.542.542,0,0,1,230.545,636.91Zm.413-1.351a.688.688,0,0,1,.137-.071A.688.688,0,0,0,230.958,635.559Zm-.077.058.025-.021Zm-1.162.128.069-.058h0Zm-1.113.578.088-.027Zm2.386-2.682a1.914,1.914,0,0,0,2.833.95,1.486,1.486,0,0,0,.133-.068,1.486,1.486,0,0,1-.133.068A1.914,1.914,0,0,1,230.992,633.642Zm5.836-5.161a17.668,17.668,0,0,1-1.7,4.73A17.656,17.656,0,0,0,236.827,628.48Zm-9.49,1.47a8.778,8.778,0,0,0,3.652,3.685,18.3,18.3,0,0,0,3.15-6.058l-.026.007.026-.007,1.011-.333a6.753,6.753,0,0,0,2.108-1.176l.091-.073.1-.082-.1.082-.091.073c-.075.594-.18,1.226-.313,1.868.132-.642.238-1.274.313-1.868a6.753,6.753,0,0,1-2.108,1.176l-1.011.333a18.3,18.3,0,0,1-3.15,6.058,3.939,3.939,0,0,1-1.156,2.012,3.944,3.944,0,0,0,1.156-2.012A8.778,8.778,0,0,1,227.337,629.95Zm5.182-8.417h0Zm.086-.084,0,0,0,0,0,0Zm.2-.2,0,.005-.032.033h0Zm.085-.088,0,0-.05.053,0,0Zm1.782-2.36-.038.063a5.468,5.468,0,0,0-.372.726l-.008-.141c-.028.044-.059.092-.089.132a13.61,13.61,0,0,1-1.262,1.565l0,0a13.607,13.607,0,0,0,1.265-1.567c.03-.041.061-.088.089-.132Q234.462,619.138,234.667,618.8Zm-8.912,2.889a6.3,6.3,0,0,0,.5.384l.011.138a2.675,2.675,0,0,0-.441-.461Zm1.546-16.809.07-.059Zm-1.364.81c.055-.026.11-.051.167-.074C226.048,605.641,225.993,605.666,225.938,605.692Zm-1.026.7a8.441,8.441,0,0,0-2.124,3.918A8.436,8.436,0,0,1,224.912,606.39Zm.116-.1.06-.051Zm4.178-3.873a8.045,8.045,0,0,1-1.725,2.312A8.045,8.045,0,0,0,229.206,602.414ZM221.9,592.58a19.438,19.438,0,0,1,6.534-3.784c8.028-2.634,15.261,1.85,18.494,10.44a28.907,28.907,0,0,1,1.731,8.53,36.592,36.592,0,0,1-5.5,21.286,11.609,11.609,0,0,0-4.176-4.823c-.1.145-.21.284-.318.42.108-.136.214-.276.318-.42.088-.122.173-.245.255-.372a6.37,6.37,0,0,0,1-3.772l-.364-6.4a5.243,5.243,0,0,0-.335-1.616,3.688,3.688,0,0,0-.777-1.251,4.454,4.454,0,0,1-1.092-2.848l-.131-2.279-.027-.51-.077-1.338c-.338-5.906-4.189-9.517-8.6-8.07a8.265,8.265,0,0,0-2.78,1.61,14.816,14.816,0,0,0-4.6,11.7l.064,1.11.171,3.018,0,0a6.787,6.787,0,0,1-.735,3.448,6.889,6.889,0,0,0-.747,3.479l.368,6.4a3.9,3.9,0,0,0,1.384,2.989q.142.1.292.192a4.567,4.567,0,0,0,1.761.652l.1.013a4.937,4.937,0,0,0,2.162-.226l1.011-.333-1.011.333a4.937,4.937,0,0,1-2.162.226l-.1-.013a4.567,4.567,0,0,1-1.761-.652,23.67,23.67,0,0,0-3.483,7.338,18.767,18.767,0,0,1-5.956-8.427,28.913,28.913,0,0,1-1.731-8.531C210.462,609.341,214.992,598.5,221.9,592.58Z" transform="translate(-211.019 -588.045)" fill="#fff"/>
            <path id="Path_11082" data-name="Path 11082" d="M233.254,665.3a1.275,1.275,0,0,0-.394,1,1.068,1.068,0,0,0,.058.295.542.542,0,0,0,.654.4l.021-.008a.715.715,0,0,0,.238-.138.94.94,0,0,0,.115-.119,1.3,1.3,0,0,0,.277-.879,1.064,1.064,0,0,0-.059-.3.532.532,0,0,0-.674-.388l-.021.008a.684.684,0,0,0-.137.071c-.018.012-.035.024-.052.037Zm-8.637-5.893a4.567,4.567,0,0,0,1.761.652l.1.013c.764,2.9,2.561,6.3,4.223,6l.039-.008q.124-.027.241-.061l.088-.027a3.13,3.13,0,0,0,1.025-.552l.069-.058h0l.045-.04a3.939,3.939,0,0,0,1.156-2.012l0,.007a1.914,1.914,0,0,0,2.833.95,1.469,1.469,0,0,0,.133-.068,1.957,1.957,0,0,0,.286-.2l.018-.015a4.388,4.388,0,0,0,.863-1.1,17.668,17.668,0,0,0,1.7-4.73q.062-.273.118-.544c.132-.642.238-1.274.313-1.868l.091-.073.1-.082q.155-.133.305-.275c.1-.095.2-.193.3-.294q.315-.325.609-.694c.108-.136.214-.276.318-.42a11.608,11.608,0,0,1,4.176,4.823,27.92,27.92,0,0,1-5.319,6.237,19.427,19.427,0,0,1-6.535,3.785,13.213,13.213,0,0,1-12.537-2.012A23.671,23.671,0,0,1,224.617,659.4Z" transform="translate(-213.392 -617.724)" fill="#0061c1"/>
            <path id="Path_11083" data-name="Path 11083" d="M235.013,658.765l1.011-.333a6.748,6.748,0,0,0,2.108-1.176c-.075.594-.18,1.226-.313,1.868q-.056.271-.118.544a17.653,17.653,0,0,1-1.7,4.73,4.388,4.388,0,0,1-.863,1.1l-.018.015a1.947,1.947,0,0,1-.286.2,1.416,1.416,0,0,1-.133.068,1.914,1.914,0,0,1-2.833-.95l0-.006A18.3,18.3,0,0,0,235.013,658.765Z" transform="translate(-211.892 -619.232)" fill="#fff"/>
            <path id="Path_11084" data-name="Path 11084" d="M243.273,664.661a4.938,4.938,0,0,0,2.162-.226l1.011-.333c.02.041.04.081.06.121a8.777,8.777,0,0,0,3.652,3.685A3.944,3.944,0,0,1,249,669.921l-.045.04-.069.058a3.129,3.129,0,0,1-1.025.552l-.088.027q-.116.034-.241.06l-.039.008C245.834,670.963,244.037,667.559,243.273,664.661Z" transform="translate(-230.188 -622.317)" fill="#fff"/>
            <path id="Path_11085" data-name="Path 11085" d="M242.591,647.21l0,0Zm.192-.195-.032.033Zm.087-.091-.05.053Zm-1.753,1.489,0,0Zm-.747.371.041-.014a3.476,3.476,0,0,0,.623-.306A3.374,3.374,0,0,1,240.371,648.784Zm3.866-3.574.008.141a5.742,5.742,0,0,0-.458,2.51v.025l.314,5.459.026-.007a18.3,18.3,0,0,1-3.15,6.058,8.778,8.778,0,0,1-3.652-3.685,8.339,8.339,0,0,0,2.454,2.9l-.364-6.346a8.335,8.335,0,0,0,.76-.58,10.718,10.718,0,0,0,3.172-5.29q-.231.273-.461.518a13.609,13.609,0,0,0,1.262-1.565C244.178,645.3,244.209,645.255,244.237,645.21Z" transform="translate(-221.006 -613.804)" fill="#fabd99"/>
            <path id="Path_11086" data-name="Path 11086" d="M239.426,614.2s.012.036.037.1c.2.535,1.2,3.017,2.686,3.647,1.82.765,4.423-.089,4.426-.092l.006.137.125,2.141.15,2.68c.007.106.013.208.014.309l.005.1c0,.066,0,.136,0,.205v.118c0,.063,0,.122,0,.184l0,.124c0,.062,0,.12-.007.179l0,.124c0,.058-.006.117-.011.178l-.007.123c0,.058-.008.119-.013.173l-.01.115c-.007.068-.013.129-.018.193l-.012.1c-.009.084-.019.168-.029.248l-.006.041c-.014.093-.028.187-.042.28l-.015.089c-.009.064-.021.13-.035.192l-.017.107-.034.171-.024.112-.036.163-.024.112-.041.162-.025.108-.046.162-.026.1-.051.17-.026.093c-.019.068-.039.135-.062.205l-.018.051c-.029.086-.055.169-.084.255l-.024.067c-.021.064-.043.124-.065.183l-.034.095-.057.151-.04.1-.056.145-.043.1-.059.137-.045.1-.06.143-.043.093c-.023.049-.046.1-.068.145l-.041.086c-.029.055-.055.114-.084.169l-.029.054c-.036.077-.074.15-.112.224l-.027.048c-.031.057-.06.112-.091.17l-.044.078c-.025.042-.052.09-.076.136l-.05.083-.072.123-.052.09q-.2.335-.418.648c-.028.045-.059.092-.089.132a13.594,13.594,0,0,1-1.265,1.567l-.011.012-.054.057-.031.032-.038.04c-.053.054-.1.107-.157.159l-.007.007-.079.077h0q-.25.242-.492.449a7.682,7.682,0,0,1-.893.668l0,0-.082.05a3.486,3.486,0,0,1-.623.306l-.041.014v0a5.143,5.143,0,0,1-4.125-.945,6.309,6.309,0,0,1-.5-.384l-.059-.05-.079-.07-.13-.117-.057-.053-.077-.076-.057-.053-.074-.079-.055-.06-.074-.078-.055-.06-.072-.086-.052-.062-.073-.085-.053-.066-.07-.088-.05-.069c-.024-.03-.045-.064-.068-.094l-.05-.069c-.02-.034-.044-.064-.065-.1l-.047-.071c-.025-.035-.046-.068-.066-.1l-.047-.072-.065-.107-.044-.075a1.021,1.021,0,0,1-.062-.11l-.04-.073c-.022-.037-.045-.078-.064-.118l-.034-.068c-.024-.041-.044-.085-.064-.128h0q-.078-.161-.148-.331l-.034-.068a1.3,1.3,0,0,0-.049-.121l-.036-.1-.043-.116-.038-.1-.043-.116-.037-.11-.037-.121-.036-.117-.036-.117-.034-.124-.033-.119c-.011-.041-.019-.085-.032-.13l-.028-.119c-.01-.047-.021-.089-.031-.136l-.025-.121c-.01-.047-.019-.1-.027-.139l-.022-.124c-.01-.048-.017-.1-.026-.146l-.019-.126c-.01-.048-.018-.1-.024-.152l-.018-.122c0-.057-.013-.111-.018-.168l-.015-.115c0-.067-.013-.131-.015-.2l-.012-.1c-.005-.1-.013-.2-.018-.3-.053-.926-.108-1.856-.155-2.68h0l-.132-2.293c.007-.031.024-.109.053-.224a8.441,8.441,0,0,1,2.124-3.918c.038-.035.076-.07.116-.1l.06-.051a4.035,4.035,0,0,1,.85-.544c.055-.026.11-.051.167-.074a4.308,4.308,0,0,0,.672-.351c.053-.034.1-.068.156-.1.128-.089.251-.183.369-.281l.07-.059c.037-.032.074-.064.11-.1A8.047,8.047,0,0,0,239.426,614.2Z" transform="translate(-221.239 -599.831)" fill="#fabd99"/>
            <path id="Path_11087" data-name="Path 11087" d="M232.288,603.453a8.266,8.266,0,0,1,2.78-1.61c4.412-1.448,8.263,2.163,8.6,8.07l.077,1.338.027.51.131,2.279A4.454,4.454,0,0,0,245,616.888a3.687,3.687,0,0,1,.777,1.251,5.244,5.244,0,0,1,.335,1.616l.364,6.4a6.37,6.37,0,0,1-1,3.772c-.082.128-.167.251-.255.373-.1.144-.21.284-.318.42q-.293.368-.609.694c-.1.1-.2.2-.3.295s-.2.187-.305.275l-.1.082-.091.073a6.754,6.754,0,0,1-2.108,1.176l-1.011.333-.026.007-.314-5.459v-.025a5.743,5.743,0,0,1,.458-2.509,5.449,5.449,0,0,1,.372-.726l.038-.063.052-.09.072-.123.05-.083c.024-.046.051-.094.076-.136l.044-.078c.031-.058.06-.113.091-.17l.027-.048c.037-.074.075-.146.112-.224l.029-.054c.029-.055.055-.114.084-.169l.041-.086c.022-.05.046-.1.068-.145l.043-.093.06-.143.044-.1.059-.137.043-.1.056-.145.04-.1.057-.151.034-.095c.022-.06.045-.12.065-.184l.024-.066c.029-.086.055-.169.084-.255l.018-.051c.023-.07.042-.138.062-.205l.026-.093.051-.17.026-.1.046-.162.025-.108.041-.162.024-.112.036-.163.024-.112.034-.171.017-.107c.014-.062.026-.129.035-.192l.015-.089q.021-.14.042-.28l.005-.041c.01-.08.02-.164.029-.248l.012-.1c0-.065.01-.126.018-.193l.01-.115c0-.054.01-.115.013-.173l.007-.123c.006-.061.008-.119.011-.177l0-.124c0-.058.005-.117.007-.179l0-.124c0-.062,0-.122,0-.184v-.118c0-.07,0-.139,0-.205l-.005-.1c0-.1-.007-.2-.014-.309l-.15-2.679-.125-2.141-.006-.137s-2.606.857-4.426.092c-1.489-.63-2.486-3.112-2.686-3.647-.025-.066-.037-.1-.037-.1a8.045,8.045,0,0,1-1.725,2.312c-.036.032-.072.065-.11.1l-.07.059c-.118.1-.241.192-.369.281-.051.036-.1.07-.156.1a4.312,4.312,0,0,1-.672.351c-.057.023-.112.048-.167.074a4.036,4.036,0,0,0-.85.544l-.06.05c-.04.034-.077.068-.116.1a8.436,8.436,0,0,0-2.124,3.918c-.029.115-.046.193-.053.224l.132,2.293h0c.047.824.1,1.754.155,2.68.005.1.013.2.018.3l.012.1c0,.064.011.128.015.2l.015.115c0,.057.013.111.018.168l.018.123c.006.05.014.1.024.152l.019.126c.009.047.016.1.026.146l.022.124c.008.044.018.092.027.139l.025.121c.01.047.021.089.031.136l.028.119c.013.045.021.089.032.13l.033.119.034.124.036.117.036.117.037.121.037.11.043.116.038.1.043.116.036.1c.019.04.035.082.049.121l.033.068q.069.17.148.331h0c.02.043.041.087.064.128l.034.068c.019.04.042.081.064.118l.04.073a1.035,1.035,0,0,0,.062.11l.044.075.065.107.047.071c.021.034.041.066.066.1l.047.071c.021.033.044.064.065.1l.05.069c.024.031.045.064.068.095l.05.069.07.088.053.066.073.085.052.062.073.086.055.06.074.078.055.06.074.079.057.053.077.076.057.053.13.118.079.07.059.051.071.061a2.675,2.675,0,0,1,.441.462,3.345,3.345,0,0,1,.471.88,4.454,4.454,0,0,1,.251,1.238v.025l.312,5.466-.026.007-1.011.333a4.936,4.936,0,0,1-2.162.226l-.1-.013a4.569,4.569,0,0,1-1.761-.652q-.15-.092-.292-.192a3.9,3.9,0,0,1-1.384-2.989l-.368-6.4a6.889,6.889,0,0,1,.747-3.479,6.788,6.788,0,0,0,.735-3.449l0,0-.171-3.018-.064-1.11A14.816,14.816,0,0,1,232.288,603.453Z" transform="translate(-217.259 -594.118)" fill="#0574e2"/>
            <path id="Path_11088" data-name="Path 11088" d="M242.1,674.5l.025-.021c.017-.013.034-.026.052-.037a.67.67,0,0,1,.137-.071l.021-.008a.532.532,0,0,1,.674.388,1.064,1.064,0,0,1,.059.3,1.3,1.3,0,0,1-.277.879.942.942,0,0,1-.115.119.715.715,0,0,1-.238.138l-.021.008a.542.542,0,0,1-.654-.4,1.063,1.063,0,0,1-.058-.294A1.275,1.275,0,0,1,242.1,674.5Z" transform="translate(-222.237 -626.93)" fill="#656db7"/>
            <path id="Path_11089" data-name="Path 11089" d="M239.8,649.234l.118-.1Zm.691-.63q-.257.256-.508.474.21-.183.426-.393h0l.079-.077Zm.163-.164c-.053.056-.107.109-.16.162l0,0c.052-.052.1-.1.157-.159Zm.069-.071-.037.038,0,0,.031-.032Zm.065-.069-.015.016,0,0,.011-.012Z" transform="translate(-218.907 -615.197)" fill="#ecbcbb"/>
            <path id="Path_11090" data-name="Path 11090" d="M249.921,664.1c.02.041.04.081.06.121C249.961,664.183,249.941,664.143,249.921,664.1Z" transform="translate(-233.663 -622.317)" fill="#fcdecc"/>
            <path id="Path_11091" data-name="Path 11091" d="M238.959,648.8a5.143,5.143,0,0,0,4.125.945v0a3.374,3.374,0,0,0,.664-.32l.082-.051,0,0a7.494,7.494,0,0,0,.776-.569l.118-.1h0l.065-.056c.166-.145.336-.3.508-.474l0,0c.053-.053.107-.107.16-.162l.032-.033.037-.038.05-.053.015-.016q.231-.245.461-.518a10.718,10.718,0,0,1-3.172,5.29,8.342,8.342,0,0,1-.76.58l.364,6.346a8.338,8.338,0,0,1-2.454-2.9c-.02-.04-.041-.08-.06-.121l.026-.007-.312-5.466v-.025a4.455,4.455,0,0,0-.251-1.238,3.345,3.345,0,0,0-.471-.88Z" transform="translate(-223.721 -614.772)" fill="#f7a47a"/>
            <path id="Path_11092" data-name="Path 11092" d="M246.144,648.61l-.079.077Zm.164-.166c-.053.054-.1.107-.157.159C246.2,648.551,246.256,648.5,246.308,648.444Zm.069-.071-.031.032Zm.065-.069-.011.012Zm-1.761,1.5a7.7,7.7,0,0,0,.893-.668q.241-.207.492-.449-.216.209-.426.393l-.065.056h0l-.118.1A7.518,7.518,0,0,1,244.68,649.805Zm-.087.053.082-.051Zm-4.791-.629a5.144,5.144,0,0,0,4.125.945A5.144,5.144,0,0,1,239.8,649.23Z" transform="translate(-224.564 -615.199)" fill="#f7a47a"/>
          </g>
        </g>
      </g>
    </g>
  </g>
  <path id="Path_11094" data-name="Path 11094" d="M890.724,550.16v44.811C907.354,587.876,902.45,561.384,890.724,550.16Z" transform="translate(-841.179 -315.516)" fill="url(#linear-gradient)"/>
</svg>
