<svg id="A_Window-Icon" data-name="A Window-Icon" xmlns="http://www.w3.org/2000/svg" width="28.5" height="28.5" viewBox="0 0 28.5 28.5">
  <g id="Group_5189" data-name="Group 5189">
    <g id="Group_5188" data-name="Group 5188">
      <circle id="Ellipse_273" data-name="Ellipse 273" cx="0.594" cy="0.594" r="0.594" transform="translate(2.375 2.375)" fill="#142f51"/>
      <circle id="Ellipse_274" data-name="Ellipse 274" cx="0.594" cy="0.594" r="0.594" transform="translate(4.75 2.375)" fill="#142f51"/>
      <circle id="Ellipse_275" data-name="Ellipse 275" cx="0.594" cy="0.594" r="0.594" transform="translate(7.125 2.375)" fill="#142f51"/>
      <path id="Path_30525" data-name="Path 30525" d="M26.21,3.563H24.938V2.29A2.293,2.293,0,0,0,22.647,0H2.29A2.293,2.293,0,0,0,0,2.29V22.647a2.293,2.293,0,0,0,2.29,2.29H3.563V26.21a2.293,2.293,0,0,0,2.29,2.29H26.21a2.293,2.293,0,0,0,2.29-2.29V5.853A2.293,2.293,0,0,0,26.21,3.563ZM1.187,2.29a1.1,1.1,0,0,1,1.1-1.1H22.647a1.1,1.1,0,0,1,1.1,1.1V4.75H1.187Zm1.1,21.46a1.1,1.1,0,0,1-1.1-1.1V5.938H23.75v16.71a1.1,1.1,0,0,1-1.1,1.1H2.29Zm25.022,2.46a1.1,1.1,0,0,1-1.1,1.1H5.853a1.1,1.1,0,0,1-1.1-1.1V24.938h17.9a2.293,2.293,0,0,0,2.29-2.29V9.5h2.375Zm0-17.9H24.938V4.75H26.21a1.1,1.1,0,0,1,1.1,1.1Z" fill="#142f51"/>
    </g>
  </g>
</svg>
