<svg xmlns="http://www.w3.org/2000/svg" xmlns:xlink="http://www.w3.org/1999/xlink" width="1920" height="1451" viewBox="0 0 1920 1451">
  <defs>
    <clipPath id="clip-path">
      <rect id="Rectangle_951" data-name="Rectangle 951" width="1920" height="1451" fill="#fff" stroke="#707070" stroke-width="1"/>
    </clipPath>
  </defs>
  <g id="Background_image" data-name="Background image" clip-path="url(#clip-path)">
    <g id="form-bg" transform="translate(-230.511 -1118)">
      <path id="Path_9595" data-name="Path 9595" d="M0,0H2212.4V1647H0Z" transform="translate(30.114 1051)" fill="#f6f9fe"/>
      <g id="Group_1378" data-name="Group 1378" transform="translate(1579.322 1073.295)" opacity="0.13">
        <g id="Group_373" data-name="Group 373" transform="translate(8.228 53.829)">
          <path id="Path_2897" data-name="Path 2897" d="M-967.691,838.591l-31.387,54.352A158.17,158.17,0,0,1-967.691,838.591Z" transform="translate(999.078 -838.591)" fill="#2d8cff"/>
        </g>
        <g id="Group_374" data-name="Group 374" transform="translate(0.883 30.401)">
          <path id="Path_2898" data-name="Path 2898" d="M-939.447,823.361l-64.406,111.562q.628-6.06,1.72-11.969l53.171-92.069C-945.9,828.237-942.724,825.739-939.447,823.361Z" transform="translate(1003.853 -823.361)" fill="#2d8cff"/>
        </g>
        <g id="Group_375" data-name="Group 375" transform="translate(0 18.476)">
          <path id="Path_2899" data-name="Path 2899" d="M-920.093,815.609l-84.23,145.882c-.075-1.869-.1-3.74-.1-5.625,0-1.077.015-2.153.029-3.232l76.6-132.672C-925.271,818.436-922.711,816.986-920.093,815.609Z" transform="translate(1004.427 -815.609)" fill="#2d8cff"/>
        </g>
        <g id="Group_376" data-name="Group 376" transform="translate(0.838 10.862)">
          <path id="Path_2900" data-name="Path 2900" d="M-903.84,810.659l-99.114,171.659q-.54-3.657-.928-7.361l93.2-161.442C-908.434,812.514-906.145,811.556-903.84,810.659Z" transform="translate(1003.882 -810.659)" fill="#2d8cff"/>
        </g>
        <g id="Group_377" data-name="Group 377" transform="translate(3.441 5.819)">
          <path id="Path_2901" data-name="Path 2901" d="M-889.685,807.381l-111.023,192.306q-.808-3.187-1.481-6.419l106.236-183.987C-893.889,808.593-891.794,807.966-889.685,807.381Z" transform="translate(1002.19 -807.381)" fill="#2d8cff"/>
        </g>
        <g id="Group_378" data-name="Group 378" transform="translate(7.225 2.587)">
          <path id="Path_2902" data-name="Path 2902" d="M-876.991,805.28l-120.838,209.3c-.674-1.884-1.317-3.769-1.9-5.684l116.86-202.418C-880.926,806.029-878.966,805.625-876.991,805.28Z" transform="translate(999.73 -805.28)" fill="#2d8cff"/>
        </g>
        <g id="Group_379" data-name="Group 379" transform="translate(11.908 0.732)">
          <path id="Path_2903" data-name="Path 2903" d="M-865.405,804.074l-129.066,223.544c-.778-1.69-1.511-3.41-2.215-5.146L-870.955,804.7C-869.115,804.463-867.26,804.254-865.405,804.074Z" transform="translate(996.686 -804.074)" fill="#2d8cff"/>
        </g>
        <g id="Group_380" data-name="Group 380" transform="translate(17.295)">
          <path id="Path_2904" data-name="Path 2904" d="M-854.707,803.6l-135.979,235.527c-.868-1.541-1.691-3.083-2.5-4.653l133.2-230.7C-858.239,803.687-856.473,803.627-854.707,803.6Z" transform="translate(993.184 -803.598)" fill="#2d8cff"/>
        </g>
        <g id="Group_381" data-name="Group 381" transform="translate(23.279 0.015)">
          <path id="Path_2905" data-name="Path 2905" d="M-844.789,803.831l-141.783,245.581c-.928-1.406-1.84-2.827-2.723-4.278l139.449-241.526C-848.154,803.653-846.464,803.726-844.789,803.831Z" transform="translate(989.294 -803.608)" fill="#2d8cff"/>
        </g>
        <g id="Group_382" data-name="Group 382" transform="translate(29.787 0.748)">
          <path id="Path_2906" data-name="Path 2906" d="M-835.515,804.622-982.147,1058.6c-1-1.286-1.975-2.6-2.916-3.935l144.67-250.577C-838.762,804.233-837.132,804.413-835.515,804.622Z" transform="translate(985.063 -804.084)" fill="#2d8cff"/>
        </g>
        <g id="Group_383" data-name="Group 383" transform="translate(36.759 2.258)">
          <path id="Path_2907" data-name="Path 2907" d="M-826.87,805.949-977.434,1066.73c-1.062-1.181-2.094-2.394-3.1-3.606l148.994-258.058C-829.966,805.335-828.411,805.62-826.87,805.949Z" transform="translate(980.531 -805.066)" fill="#2d8cff"/>
        </g>
        <g id="Group_384" data-name="Group 384" transform="translate(44.135 4.518)">
          <path id="Path_2908" data-name="Path 2908" d="M-818.769,807.7l-153.69,266.211c-1.108-1.092-2.2-2.184-3.276-3.306l152.464-264.073C-821.761,806.893-820.264,807.283-818.769,807.7Z" transform="translate(975.736 -806.535)" fill="#2d8cff"/>
        </g>
        <g id="Group_385" data-name="Group 385" transform="translate(51.914 7.45)">
          <path id="Path_2909" data-name="Path 2909" d="M-811.2,809.907l-156.041,270.281c-1.168-.988-2.318-2-3.441-3.037l155.127-268.71C-814.086,808.906-812.634,809.384-811.2,809.907Z" transform="translate(970.679 -808.441)" fill="#2d8cff"/>
        </g>
        <g id="Group_386" data-name="Group 386" transform="translate(60.068 11.04)">
          <path id="Path_2910" data-name="Path 2910" d="M-804.131,812.512-961.8,1085.589c-1.212-.9-2.393-1.826-3.575-2.752l157.072-272.062C-806.9,811.329-805.508,811.913-804.131,812.512Z" transform="translate(965.378 -810.775)" fill="#2d8cff"/>
        </g>
        <g id="Group_387" data-name="Group 387" transform="translate(68.579 15.275)">
          <path id="Path_2911" data-name="Path 2911" d="M-797.535,815.517-956.1,1090.167c-1.257-.807-2.513-1.646-3.741-2.513l158.27-274.125C-800.214,814.171-798.868,814.829-797.535,815.517Z" transform="translate(959.845 -813.528)" fill="#2d8cff"/>
        </g>
        <g id="Group_388" data-name="Group 388" transform="translate(77.437 20.107)">
          <path id="Path_2912" data-name="Path 2912" d="M-791.434,818.929-950.2,1093.906c-1.317-.717-2.6-1.466-3.89-2.243l158.764-274.994C-794.008,817.4-792.72,818.15-791.434,818.929Z" transform="translate(954.087 -816.669)" fill="#2d8cff"/>
        </g>
        <g id="Group_389" data-name="Group 389" transform="translate(86.637 25.552)">
          <path id="Path_2913" data-name="Path 2913" d="M-785.8,822.723l-158.255,274.127c-1.361-.645-2.723-1.3-4.055-1.991l158.57-274.65C-788.279,821.017-787.024,821.855-785.8,822.723Z" transform="translate(948.106 -820.209)" fill="#2d8cff"/>
        </g>
        <g id="Group_390" data-name="Group 390" transform="translate(96.213 31.596)">
          <path id="Path_2914" data-name="Path 2914" d="M-780.619,826.921l-157.073,272.047c-1.406-.554-2.813-1.137-4.189-1.735l157.672-273.094Q-782.394,825.509-780.619,826.921Z" transform="translate(941.881 -824.138)" fill="#2d8cff"/>
        </g>
        <g id="Group_391" data-name="Group 391" transform="translate(106.147 38.285)">
          <path id="Path_2915" data-name="Path 2915" d="M-775.958,831.509l-155.127,268.709c-1.451-.463-2.9-.942-4.338-1.466l156.039-270.265C-778.231,829.458-777.095,830.475-775.958,831.509Z" transform="translate(935.423 -828.486)" fill="#2d8cff"/>
        </g>
        <g id="Group_392" data-name="Group 392" transform="translate(116.424 45.57)">
          <path id="Path_2916" data-name="Path 2916" d="M-771.774,836.543-924.24,1100.6c-1.511-.358-3.006-.748-4.5-1.181l153.692-266.2Q-773.368,834.86-771.774,836.543Z" transform="translate(928.742 -833.222)" fill="#2d8cff"/>
        </g>
        <g id="Group_393" data-name="Group 393" transform="translate(127.121 53.544)">
          <path id="Path_2917" data-name="Path 2917" d="M-768.141,842.012l-148.98,258.058c-1.571-.254-3.127-.554-4.667-.868l150.565-260.8C-770.176,839.587-769.144,840.8-768.141,842.012Z" transform="translate(921.788 -838.406)" fill="#2d8cff"/>
        </g>
        <g id="Group_394" data-name="Group 394" transform="translate(138.192 62.206)">
          <path id="Path_2918" data-name="Path 2918" d="M-765.043,847.972l-144.672,250.577c-1.631-.149-3.261-.329-4.876-.538l146.63-253.974C-766.958,845.325-765.986,846.641-765.043,847.972Z" transform="translate(914.591 -844.037)" fill="#2d8cff"/>
        </g>
        <g id="Group_395" data-name="Group 395" transform="translate(149.742 71.647)">
          <path id="Path_2919" data-name="Path 2919" d="M-762.577,854.453l-139.449,241.526c-1.69-.045-3.381-.12-5.056-.225L-765.3,850.174C-764.357,851.58-763.445,853-762.577,854.453Z" transform="translate(907.083 -850.174)" fill="#2d8cff"/>
        </g>
        <g id="Group_396" data-name="Group 396" transform="translate(161.77 81.939)">
          <path id="Path_2920" data-name="Path 2920" d="M-760.8,861.518l-133.181,230.695c-1.751.089-3.517.149-5.282.178l135.979-235.527C-762.418,858.406-761.595,859.948-760.8,861.518Z" transform="translate(899.264 -856.865)" fill="#2d8cff"/>
        </g>
        <g id="Group_397" data-name="Group 397" transform="translate(174.337 93.19)">
          <path id="Path_2921" data-name="Path 2921" d="M-759.8,869.311l-125.745,217.783c-1.84.24-3.68.449-5.55.629l129.067-223.543C-761.25,865.87-760.5,867.576-759.8,869.311Z" transform="translate(891.094 -864.179)" fill="#2d8cff"/>
        </g>
        <g id="Group_398" data-name="Group 398" transform="translate(187.563 105.578)">
          <path id="Path_2922" data-name="Path 2922" d="M-759.743,877.9l-116.874,202.434c-1.946.449-3.906.852-5.879,1.2l120.853-209.3C-760.971,874.1-760.343,876-759.743,877.9Z" transform="translate(882.496 -872.232)" fill="#2d8cff"/>
        </g>
        <g id="Group_399" data-name="Group 399" transform="translate(201.595 119.342)">
          <path id="Path_2923" data-name="Path 2923" d="M-760.869,887.582l-106.236,184c-2.064.689-4.158,1.317-6.268,1.9l111.023-192.3C-761.811,883.3-761.317,885.429-760.869,887.582Z" transform="translate(873.374 -881.18)" fill="#2d8cff"/>
        </g>
        <g id="Group_400" data-name="Group 400" transform="translate(216.646 134.931)">
          <path id="Path_2924" data-name="Path 2924" d="M-763.547,898.675l-93.206,161.456c-2.26,1.017-4.533,1.96-6.838,2.872l99.131-171.688C-764.1,893.752-763.787,896.206-763.547,898.675Z" transform="translate(863.59 -891.314)" fill="#2d8cff"/>
        </g>
        <g id="Group_401" data-name="Group 401" transform="translate(233.193 153.092)">
          <path id="Path_2925" data-name="Path 2925" d="M-768.485,908.761c0,1.078-.016,2.155-.029,3.217l-76.614,132.687q-3.771,2.289-7.705,4.353l84.244-145.9C-768.514,904.991-768.485,906.877-768.485,908.761Z" transform="translate(852.833 -903.12)" fill="#2d8cff"/>
        </g>
        <g id="Group_402" data-name="Group 402" transform="translate(252.223 175.474)">
          <path id="Path_2926" data-name="Path 2926" d="M-776.027,917.67q-.628,6.06-1.72,11.954l-53.186,92.129q-4.6,3.948-9.53,7.525Z" transform="translate(840.462 -917.67)" fill="#2d8cff"/>
        </g>
        <g id="Group_403" data-name="Group 403" transform="translate(277.911 209.241)">
          <path id="Path_2927" data-name="Path 2927" d="M-792.345,939.621a158.47,158.47,0,0,1-31.418,54.427Z" transform="translate(823.763 -939.621)" fill="#2d8cff"/>
        </g>
      </g>
      <g id="Group_1377" data-name="Group 1377" transform="translate(-219.979 1562.754)" opacity="0.13">
        <path id="Path_2937" data-name="Path 2937" d="M-5.964,1054C-189.9,1054-339,1203.105-339,1387.036s149.1,333.036,333.036,333.036,333.036-149.105,333.036-333.036S177.968,1054-5.964,1054Zm0,587.842c-140.726,0-254.806-114.08-254.806-254.806S-146.69,1132.23-5.964,1132.23s254.806,114.08,254.806,254.806S134.762,1641.842-5.964,1641.842Z" transform="translate(339 -1054)" fill="#2d8cff" opacity="0.21"/>
      </g>
      <g id="Group_1379" data-name="Group 1379" transform="translate(-106.458 2230.057)" opacity="0.13">
        <g id="Group_371" data-name="Group 371" transform="translate(0 67.313)">
          <rect id="Rectangle_855" data-name="Rectangle 855" width="535.922" height="1.87" transform="translate(0 378.967) rotate(-45.002)" fill="#2d8cff"/>
        </g>
        <g id="Group_372" data-name="Group 372" transform="translate(111.254 0)">
          <rect id="Rectangle_856" data-name="Rectangle 856" width="535.922" height="1.87" transform="translate(0 378.967) rotate(-45.002)" fill="#2d8cff"/>
        </g>
      </g>
      <g id="Group_1380" data-name="Group 1380" transform="translate(1745.076 2229.972)" opacity="0.34">
        <path id="Path_2937-2" data-name="Path 2937" d="M-187.347,1054A151.653,151.653,0,0,0-339,1205.653a151.653,151.653,0,0,0,151.653,151.653A151.653,151.653,0,0,0-35.693,1205.653,151.653,151.653,0,0,0-187.347,1054Zm0,267.683a116.029,116.029,0,0,1-116.03-116.03,116.029,116.029,0,0,1,116.03-116.03,116.029,116.029,0,0,1,116.03,116.03A116.029,116.029,0,0,1-187.347,1321.683Z" transform="translate(339 -1054)" fill="#2d8cff" stroke="#2d8cff" stroke-width="42" opacity="0.21"/>
      </g>
    </g>
  </g>
</svg>
