<svg id="Image" xmlns="http://www.w3.org/2000/svg" xmlns:xlink="http://www.w3.org/1999/xlink" width="292.199" height="514.938" viewBox="0 0 292.199 514.938">
  <defs>
    <linearGradient id="linear-gradient" x1="1.077" y1="0.796" x2="0.49" y2="0.121" gradientUnits="objectBoundingBox">
      <stop offset="0" stop-color="#3177cc"/>
      <stop offset="1" stop-color="#379ffa"/>
    </linearGradient>
    <linearGradient id="linear-gradient-2" x1="0.324" y1="0.693" x2="0.73" y2="0.247" gradientUnits="objectBoundingBox">
      <stop offset="0" stop-color="#2d8cff"/>
      <stop offset="1" stop-color="#1c8ef4"/>
    </linearGradient>
    <linearGradient id="linear-gradient-3" x1="0.503" y1="0.505" x2="0.35" y2="1.008" gradientUnits="objectBoundingBox">
      <stop offset="0" stop-color="#2d8cff"/>
      <stop offset="1" stop-color="#2d8cff"/>
    </linearGradient>
    <linearGradient id="linear-gradient-4" x1="0.732" y1="0.304" x2="-0.147" y2="1.149" xlink:href="#linear-gradient-3"/>
    <linearGradient id="linear-gradient-5" x1="-0.098" y1="0.713" x2="1.737" y2="0.141" xlink:href="#linear-gradient-3"/>
    <linearGradient id="linear-gradient-6" x1="0.312" y1="0.6" x2="0.799" y2="0.353" xlink:href="#linear-gradient-3"/>
    <linearGradient id="linear-gradient-7" x1="0.672" y1="0.364" x2="0.34" y2="0.627" gradientUnits="objectBoundingBox">
      <stop offset="0" stop-color="#1c8ef4"/>
      <stop offset="1" stop-color="#00cfdd"/>
    </linearGradient>
    <linearGradient id="linear-gradient-8" x1="0.548" y1="0.336" x2="0.339" y2="1.047" xlink:href="#linear-gradient-3"/>
    <linearGradient id="linear-gradient-10" x1="0.824" y1="0.195" x2="-0.057" y2="0.77" gradientUnits="objectBoundingBox">
      <stop offset="0" stop-color="#3e4795"/>
      <stop offset="1" stop-color="#273088"/>
    </linearGradient>
    <linearGradient id="linear-gradient-11" x1="0.812" y1="0.201" x2="-0.067" y2="0.761" xlink:href="#linear-gradient-10"/>
    <linearGradient id="linear-gradient-12" x1="0.18" y1="0.825" x2="0.64" y2="0.569" xlink:href="#linear-gradient-3"/>
    <linearGradient id="linear-gradient-13" x1="0.508" y1="0.352" x2="0.685" y2="1.044" gradientUnits="objectBoundingBox">
      <stop offset="0" stop-color="#2d8cff"/>
      <stop offset="0.56" stop-color="#2d8cff"/>
      <stop offset="1" stop-color="#ffbba8"/>
    </linearGradient>
    <linearGradient id="linear-gradient-14" x1="0.768" y1="0.69" x2="0.562" y2="0.487" gradientUnits="objectBoundingBox">
      <stop offset="0" stop-color="#ff8a78"/>
      <stop offset="1" stop-color="#ffa799"/>
    </linearGradient>
    <linearGradient id="linear-gradient-15" x1="0.224" y1="0.878" x2="0.904" y2="0.131" xlink:href="#linear-gradient-13"/>
    <linearGradient id="linear-gradient-16" x1="0.505" y1="0.464" x2="0.611" y2="0.799" xlink:href="#linear-gradient-14"/>
    <linearGradient id="linear-gradient-17" x1="0.732" y1="0.132" x2="0.397" y2="0.819" gradientUnits="objectBoundingBox">
      <stop offset="0" stop-color="#022542"/>
      <stop offset="1" stop-color="#010911"/>
    </linearGradient>
    <linearGradient id="linear-gradient-18" x1="0.439" y1="0.712" x2="0.605" y2="0.136" xlink:href="#linear-gradient-3"/>
  </defs>
  <g id="Group_4192" data-name="Group 4192" transform="translate(107.087 103.678)">
    <g id="Group_4189" data-name="Group 4189">
      <path id="Path_10368" data-name="Path 10368" d="M752.721,1622.328l-130.267-74.4c-4.834-2.209-11.938-4.293-16.68-1.4l-12.132,7.392c-2.441,1.487-10.468,6.422-5.1,9.341,15.793,8.588,116.7,67.548,132.742,76.273,3.033,1.65,7.47,2.246,12.128,1.859a30.479,30.479,0,0,0,13.136-3.912l4.846-2.989c3.427-2.113,5.323-4.421,5.506-6.635C757.078,1625.688,755.688,1623.683,752.721,1622.328Z" transform="translate(-586.728 -1230.241)" fill="#97a5b2" fill-rule="evenodd" opacity="0.5" style="mix-blend-mode: multiply;isolation: isolate"/>
      <g id="Group_4188" data-name="Group 4188" transform="translate(1.52)">
        <path id="Path_10369" data-name="Path 10369" d="M764.563,863.164c-.018,6.341-2.279,10.805-5.893,12.9l-5.736,3.449c-19.676-8.4-12.374-108.113-13.573-136.461L745.4,594.284c-5.08-8.876-24.624-16.623-20.063-34.752l-57.671-27c-2.56-1.741-69.86-40.716-57.779-48.025,2.02-1.222,4.02-2.453,6.015-3.612,4.46-2.639,10.145-1.008,14.32,1.4h0L744.98,548.12c11.263,6.49,20.1,22.193,20.064,34.75Z" transform="translate(-603.544 -479.546)" fill-rule="evenodd" fill="url(#linear-gradient)"/>
        <path id="Path_10370" data-name="Path 10370" d="M592.354,505.977c.017-6.216,2.17-10.631,5.659-12.782,3.674-2.265,8.831-2.02,14.534,1.274L727.3,560.288c11.106,6.414,20.1,21.988,20.062,34.752l-.478,280.294c-.036,12.763-9.088,17.922-20.2,11.508l-114.753-65.82c-11.12-6.42-20.1-21.989-20.063-34.751Z" transform="translate(-591.874 -488.115)" fill="#fff" fill-rule="evenodd"/>
        <path id="Path_10371" data-name="Path 10371" d="M592.354,505.977c.017-6.216,2.17-10.631,5.659-12.782,3.674-2.265,8.831-2.02,14.534,1.274L727.3,560.288c11.106,6.414,20.1,21.988,20.062,34.752l-.478,280.294c-.036,12.763-9.088,17.922-20.2,11.508l-114.753-65.82c-11.12-6.42-20.1-21.989-20.063-34.751Z" transform="translate(-591.874 -488.115)" fill-rule="evenodd" opacity="0.5" fill="url(#linear-gradient-2)"/>
        <path id="Path_10372" data-name="Path 10372" d="M613.257,549.468c.032-11.748,8.353-16.5,18.585-10.592l105.621,60.58c10.222,5.9,18.5,20.238,18.466,31.986l-.441,263.279c-.033,11.747-8.364,16.495-18.588,10.592L631.282,844.732c-10.235-5.909-18.5-20.238-18.467-31.985Z" transform="translate(-606.627 -519.555)" fill="#fff" fill-rule="evenodd"/>
      </g>
    </g>
    <g id="Group_4191" data-name="Group 4191" transform="translate(53.258 109.416)">
      <path id="Path_10373" data-name="Path 10373" d="M802.435,889.755c-8.06-4.654-14.571-15.933-14.545-25.192s6.582-12.995,14.639-8.343,14.57,15.931,14.544,25.192-6.58,13-14.638,8.344Zm-.011,3.924c9.945,5.743,18.033,1.13,18.065-10.3s-8-25.345-17.948-31.088-18.033-1.133-18.065,10.3S792.478,887.936,802.423,893.679Z" transform="translate(-779.3 -849.825)" fill="#2d8cff" fill-rule="evenodd"/>
      <g id="Group_4190" data-name="Group 4190" transform="translate(0 48.451)">
        <path id="Path_10374" data-name="Path 10374" d="M804.119,1014.969c0-1.068.76-1.488,1.69-.935l21.033,11.884a3.783,3.783,0,0,1,1.68,2.938v2.114c0,1.068-.761,1.488-1.691.935L805.8,1020.02a3.777,3.777,0,0,1-1.679-2.937Z" transform="translate(-793.14 -1013.79)" fill="#2d8cff" fill-rule="evenodd"/>
        <path id="Path_10375" data-name="Path 10375" d="M766.964,1026.951c0-.941.669-1.311,1.489-.823,11.924,6.738,31.467,17.738,43.391,24.475a3.331,3.331,0,0,1,1.48,2.588v1.863c0,.941-.67,1.31-1.489.823-11.925-6.738-31.468-17.737-43.392-24.476a3.326,3.326,0,0,1-1.48-2.588Z" transform="translate(-766.963 -1022.33)" fill="#2d8cff" fill-rule="evenodd" opacity="0.5"/>
      </g>
    </g>
  </g>
  <path id="Path_10376" data-name="Path 10376" d="M822.34,1155.371c.011-3.822,2.717-5.369,6.045-3.446,27.02,15.5,54,31.412,81,47.105v65.709c-26.957-15.668-53.892-31.557-80.864-47.027a13.238,13.238,0,0,1-6.006-10.4Z" transform="translate(-645.631 -848.98)" fill-rule="evenodd" opacity="0.2" fill="url(#linear-gradient-3)"/>
  <path id="Path_10377" data-name="Path 10377" d="M1049.27,853.555c.011-3.974,2.825-5.582,6.286-3.582l13.7,7.857v53.636l-13.561-7.778a13.769,13.769,0,0,1-6.245-10.818Z" transform="translate(-805.504 -636.23)" fill-rule="evenodd" opacity="0.2" fill="url(#linear-gradient-4)"/>
  <path id="Path_10378" data-name="Path 10378" d="M642.893,496.06l.162,130.033c-.013,4.587-3.268,6.44-7.261,4.136q-21.724-12.461-43.426-25.153l.106-61.851h.15l.078-45.815c.017-6.216,2.17-10.631,5.659-12.781q.191-.118.387-.226c1.959-1.186,3.9-2.378,5.834-3.5,4.46-2.639,10.145-1.008,14.32,1.4h0Z" transform="translate(-483.614 -375.868)" fill-rule="evenodd" opacity="0.2" fill="url(#linear-gradient-5)"/>
  <g id="Group_4196" data-name="Group 4196" transform="translate(20.762 0)">
    <path id="Path_10379" data-name="Path 10379" d="M294.592,133.465c.012-4.277,3.041-6.008,6.766-3.856,39.469,22.638,78.857,46.072,118.33,68.711a14.83,14.83,0,0,1,6.721,11.643l.194,156.245c-.012,4.276-3.046,6-6.766,3.854-39.471-22.639-78.865-46.076-118.329-68.711a14.818,14.818,0,0,1-6.722-11.643Z" transform="translate(-294.592 -128.684)" fill="#fff" fill-rule="evenodd"/>
    <path id="Path_10380" data-name="Path 10380" d="M294.592,133.466c.012-4.276,3.041-6.007,6.766-3.856,39.469,22.638,78.857,46.072,118.33,68.712a14.828,14.828,0,0,1,6.721,11.643l.14,112.9L294.733,247.261Z" transform="translate(-294.592 -128.685)" fill-rule="evenodd" fill="url(#linear-gradient-6)"/>
    <g id="Group_4193" data-name="Group 4193" transform="translate(7.717 130.968)">
      <path id="Path_10381" data-name="Path 10381" d="M320.706,574.882c.007-2.668,1.9-3.747,4.221-2.405l23.987,13.758a9.253,9.253,0,0,1,4.194,7.264l.121,26.4c-.008,2.667-1.9,3.746-4.222,2.405L325.02,608.545a9.245,9.245,0,0,1-4.194-7.264Z" transform="translate(-320.706 -571.899)" fill="#2d8cff" fill-rule="evenodd" opacity="0.2"/>
      <path id="Path_10382" data-name="Path 10382" d="M462.842,660.8c.007-2.668,1.9-3.748,4.221-2.406l23.987,13.758a9.25,9.25,0,0,1,4.194,7.263l.121,26.4c-.008,2.667-1.9,3.746-4.222,2.4l-23.986-13.758a9.246,9.246,0,0,1-4.194-7.264Z" transform="translate(-420.842 -632.429)" fill="#2d8cff" fill-rule="evenodd" opacity="0.2"/>
      <path id="Path_10383" data-name="Path 10383" d="M604.978,746.72c.007-2.668,1.9-3.747,4.221-2.405l23.987,13.758a9.252,9.252,0,0,1,4.194,7.264l.121,26.4c-.008,2.667-1.9,3.746-4.222,2.405l-23.987-13.758a9.248,9.248,0,0,1-4.194-7.264Z" transform="translate(-520.977 -692.96)" fill="#2d8cff" fill-rule="evenodd" opacity="0.2"/>
    </g>
    <g id="Group_4195" data-name="Group 4195" transform="translate(36.96 46.832)">
      <g id="Group_4194" data-name="Group 4194" transform="translate(5.539)">
        <path id="Path_10384" data-name="Path 10384" d="M483.141,357.6c-8.289-4.792-15.518-16.095-16.153-25.253s5.568-12.7,13.857-7.9S496.364,340.546,497,349.7,491.425,362.393,483.141,357.6Z" transform="translate(-458.514 -311.926)" fill="#fff" fill-rule="evenodd" opacity="0.5"/>
        <path id="Path_10385" data-name="Path 10385" d="M463.45,342.036c-6.41-3.705-12.407-9.923-16.921-16.98s-7.553-14.97-8.044-22.058c-.307-4.42.414-8.014,1.94-10.654a10.187,10.187,0,0,1,3.483-3.643,10.583,10.583,0,0,1,4.869-1.5c3.325-.23,7.272.818,11.565,3.3,6.405,3.7,12.4,9.924,16.918,16.983s7.555,14.971,8.045,22.055c.306,4.421-.414,8.015-1.939,10.653a10.181,10.181,0,0,1-3.483,3.643,10.58,10.58,0,0,1-4.868,1.5c-3.326.231-7.273-.817-11.565-3.3Zm-16.23-17.42c4.446,6.951,10.345,13.07,16.641,16.71,4.144,2.4,7.93,3.409,11.1,3.189a9.761,9.761,0,0,0,4.493-1.382,9.375,9.375,0,0,0,3.2-3.354c1.445-2.5,2.125-5.936,1.83-10.188-.48-6.946-3.472-14.719-7.917-21.67s-10.346-13.075-16.639-16.713c-4.145-2.4-7.931-3.409-11.1-3.19a9.773,9.773,0,0,0-4.494,1.383,9.384,9.384,0,0,0-3.2,3.355c-1.445,2.5-2.125,5.936-1.831,10.188C439.785,309.894,442.775,317.667,447.22,324.617Z" transform="translate(-438.416 -287.169)" fill="#fff" fill-rule="evenodd" opacity="0.25"/>
        <path id="Path_10386" data-name="Path 10386" d="M472.755,349.555a.372.372,0,0,0,.322.043.441.441,0,0,0,.2.253,18.115,18.115,0,0,0,7.951,2.455h.016a.411.411,0,0,0,.018-.822,17.319,17.319,0,0,1-7.593-2.356.388.388,0,0,0-.31-.037.42.42,0,0,0-.2-.249,34.609,34.609,0,0,1-6.451-4.9.411.411,0,0,0-.565.6,35.5,35.5,0,0,0,6.6,5.019ZM485.1,350.79a.411.411,0,0,0,.334.751l.165-.076a9.272,9.272,0,0,0,4.887-6.494.411.411,0,0,0-.8-.2,8.5,8.5,0,0,1-4.365,5.911c-.023.012-.216.1-.222.1Zm5.035-9.99a.411.411,0,0,0,.822,0,29.326,29.326,0,0,0-1.289-8.209.411.411,0,0,0-.788.235,28.484,28.484,0,0,1,1.254,7.974Zm-2.606-11.808a.411.411,0,0,0,.76-.314,47.811,47.811,0,0,0-3.8-7.357.411.411,0,0,0-.695.439,46.451,46.451,0,0,1,3.733,7.231ZM481.492,318.4a.411.411,0,0,0,.658-.492,47.281,47.281,0,0,0-5.5-6.188.411.411,0,0,0-.562.6,46.3,46.3,0,0,1,5.405,6.08Zm-8.51-8.7a.411.411,0,0,0,.494-.657,26.991,26.991,0,0,0-7.275-4.024.411.411,0,0,0-.267.777,26.174,26.174,0,0,1,7.048,3.9Zm-10.945-4.714a.411.411,0,0,0,.04-.821,8.671,8.671,0,0,0-7.619,3.209.411.411,0,0,0,.651.5,7.35,7.35,0,0,1,3.343-2.419,9.183,9.183,0,0,1,3.585-.471Zm-8.633,6.422a.411.411,0,0,0-.793-.215,18.637,18.637,0,0,0-.491,6.094c.054.751.138,1.488.25,2.233a.411.411,0,0,0,.813-.124c-.109-.724-.189-1.436-.243-2.166a17.861,17.861,0,0,1,.465-5.822Zm.653,11.946a.411.411,0,0,0-.79.228,43.132,43.132,0,0,0,3.067,7.7.411.411,0,0,0,.732-.374,42.238,42.238,0,0,1-3.01-7.55Zm5.009,11.1a.411.411,0,0,0-.7.434,50.575,50.575,0,0,0,4.915,6.659A.411.411,0,0,0,463.9,341,50.191,50.191,0,0,1,459.065,334.45Z" transform="translate(-448.029 -299.13)" fill="#fff" fill-rule="evenodd" opacity="0.25"/>
      </g>
      <path id="Path_10387" data-name="Path 10387" d="M466.183,489.168c0-1.338.951-1.863,2.115-1.171l26.329,14.876a4.736,4.736,0,0,1,2.1,3.677V509.2c0,1.337-.952,1.862-2.116,1.171l-26.329-14.877a4.728,4.728,0,0,1-2.1-3.677Z" transform="translate(-452.439 -428.439)" fill="#fff" fill-rule="evenodd" opacity="0.8"/>
      <path id="Path_10388" data-name="Path 10388" d="M419.673,506.76c0-1.178.838-1.641,1.864-1.032,14.927,8.434,39.39,22.2,54.317,30.638a4.172,4.172,0,0,1,1.853,3.24v2.332c0,1.178-.839,1.64-1.864,1.031-14.928-8.435-39.391-22.2-54.318-30.638a4.167,4.167,0,0,1-1.853-3.239Z" transform="translate(-419.672 -440.956)" fill="#fff" fill-rule="evenodd" opacity="0.8"/>
    </g>
  </g>
  <g id="Group_4198" data-name="Group 4198" transform="translate(248.63 212.883)">
    <path id="Path_10389" data-name="Path 10389" d="M1065.732,853.109c.01-3.575,2.541-5.021,5.655-3.223l32.135,18.432a12.394,12.394,0,0,1,5.618,9.731l.161,35.367c-.01,3.574-2.544,5.019-5.655,3.222l-32.135-18.431a12.387,12.387,0,0,1-5.619-9.732Z" transform="translate(-1065.732 -849.113)" fill-rule="evenodd" fill="url(#linear-gradient-7)"/>
    <g id="Group_4197" data-name="Group 4197" transform="translate(11.873 16.023)">
      <path id="Path_10390" data-name="Path 10390" d="M1116.58,926.584c-5.459-3.156-10.221-10.6-10.638-16.633s3.667-8.362,9.126-5.206,10.221,10.6,10.639,16.633S1122.037,929.739,1116.58,926.584Z" transform="translate(-1105.912 -903.339)" fill="#fff" fill-rule="evenodd"/>
      <path id="Path_10391" data-name="Path 10391" d="M1106.871,982.348c0-.843.6-1.175,1.334-.738l16.6,9.378a2.984,2.984,0,0,1,1.325,2.318v1.668c0,.843-.6,1.174-1.334.738l-16.6-9.379a2.979,2.979,0,0,1-1.325-2.318Z" transform="translate(-1106.588 -958.346)" fill="#fff" fill-rule="evenodd" opacity="0.8"/>
    </g>
  </g>
  <path id="Path_10392" data-name="Path 10392" d="M666.081,1154.112c-11.684-6.755-21.875-22.686-22.77-35.6s7.848-17.9,19.533-11.141,21.875,22.695,22.768,35.6S677.759,1160.863,666.081,1154.112Z" transform="translate(-519.46 -816.055)" fill-rule="evenodd" opacity="0.2" fill="url(#linear-gradient-8)"/>
  <path id="Path_10393" data-name="Path 10393" d="M681.734,1166.75c-7.948-4.595-14.881-15.433-15.49-24.215s5.339-12.174,13.287-7.579,14.881,15.438,15.488,24.215S689.677,1171.342,681.734,1166.75Z" transform="translate(-535.63 -836.164)" fill-rule="evenodd" fill="url(#linear-gradient-8)"/>
  <g id="Group_4208" data-name="Group 4208" transform="translate(0 214.031)">
    <path id="Path_10394" data-name="Path 10394" d="M319.134,1534.312l-50.267-28.629c-5.481-2.5-13.323-4.5-18.906-1.591-5.087,2.648-13.468,8.066-17.173,10.179-2.814,1.605-12.584,7.458-6.5,10.767,17.9,9.734,35.616,20.681,53.793,30.568,3.437,1.871,8.467,2.547,13.746,2.107a36.381,36.381,0,0,0,14.889-4.434q4.53-2.636,8.913-5.188c3.943-2.3,6.033-5.01,6.241-7.52C324.073,1538.12,322.5,1535.847,319.134,1534.312Z" transform="translate(-224.329 -1310.683)" fill="#97a5b2" fill-rule="evenodd" opacity="0.5" style="mix-blend-mode: multiply;isolation: isolate"/>
    <g id="Group_4207" data-name="Group 4207" transform="translate(20.419 0)">
      <g id="Group_4200" data-name="Group 4200" transform="translate(0 181.686)">
        <path id="Path_10395" data-name="Path 10395" d="M321.478,1467.852a26.326,26.326,0,0,1-2.18,9.008c-.6.656-1.351,1.051-1.7,1.8-1.884,4.006-2.3,7.865-.986,28.421l4.825.1.617-7.261c.6-2.943,2.251-7.251,2.919-9.918,1.456-5.811,1.6-8.724,2.489-13Z" transform="translate(-309.224 -1467.852)" fill="#ffa698" fill-rule="evenodd"/>
        <g id="Group_4199" data-name="Group 4199" transform="translate(0 8.466)">
          <path id="Path_10396" data-name="Path 10396" d="M295.56,1546.426a7.776,7.776,0,0,1-1.633-.237c-.249-.278-.718-1.641-.377-1.9C294.159,1543.887,295.4,1546.032,295.56,1546.426Z" transform="translate(-293.43 -1530.134)" fill="#1f202b" fill-rule="evenodd"/>
          <path id="Path_10397" data-name="Path 10397" d="M301.491,1523.824c.575,1.837-.244,3.609-.821,5.517-2.018,6.664-3.2,7.038-2.346,10.054a13.494,13.494,0,0,0,2.95,5.292c1.307,1.489,1.7,2.56,3.38,3.721,2.528,1.746,4.779,2.562,4.229-.943a16.894,16.894,0,0,0-.825-3.25c-1.791-4.16-3.877-5.985-2.747-11.177.839-3.855,2.172-6.394.44-8.991Z" transform="translate(-296.68 -1515.751)" fill="#161a40" fill-rule="evenodd"/>
          <path id="Path_10398" data-name="Path 10398" d="M298.923,1500.42a21.727,21.727,0,0,1-5.091,10.239c.4-.108,1.431.945,2,2.107,4.171-4.795,6.2-7.125,7.483-5.061a65.6,65.6,0,0,1-1.29,7.315,7.3,7.3,0,0,0,.139,3.8c1.638,3.931,4.641,9.672,3.5,11.551a6.8,6.8,0,0,0,.852-3.755c-.007-2.714-.469-6.389-.527-8.648-.079-3.052,1.076-5.7,1.261-9.858a33.539,33.539,0,0,0-.007-3.482c-.175-2.94-.5-6.84-2.564-7.942a5.319,5.319,0,0,0-3.64.393A4.344,4.344,0,0,0,298.923,1500.42Z" transform="translate(-293.713 -1496.502)" fill="#161f69" fill-rule="evenodd"/>
        </g>
      </g>
      <path id="Path_10399" data-name="Path 10399" d="M351.69,1191.863l14.715-42.645.479-11.712c.077-1.892-.931-3.281-1.528-4.763-7.756,2.286-12.1,4.749-20.432,4.455-2.5,3.718-5.925,10.673-6.052,15.931-.247,10.239.557,17.071-2.571,34.19-9.3,31.3-4.475,30.216-8.034,51.014-.3,2.219,6.533,3.983,8.859,2.6Z" transform="translate(-317.966 -1050.08)" fill-rule="evenodd" fill="url(#linear-gradient-10)"/>
      <path id="Path_10400" data-name="Path 10400" d="M375.5,1191.864l14.715-42.646.479-11.712c.077-1.892-.931-3.281-1.528-4.763-1.568.462-3,.931-4.346,1.384l-8.655,13.833c-3.323,6.777-4.162,15.518-6.563,17.54,2.733,6.622,1.551,19.938.573,27.249-2.8-.938-5.369-1.331-8.123-2.359,1.891,1.573,5.37,3.146,7.306,5.127-3.523,12.648-5.22,25.57-6.4,38.608Z" transform="translate(-341.772 -1050.08)" fill="#1e2353" fill-rule="evenodd" opacity="0.3" style="mix-blend-mode: multiply;isolation: isolate"/>
      <g id="Group_4202" data-name="Group 4202" transform="translate(33.94 198.823)">
        <path id="Path_10401" data-name="Path 10401" d="M418.134,1525.846c-.117,3.271-3.226,6.439-3.59,8.56-.834,4.876,2.7,2.341,6.7,8.61,1.6-.014,5.127,5.756,9.9,6.06,1.1.069,3.055-2.59.888-4.471-.964-.561-1.826-.145-2.62-.836-1.655-1.464-3.605-13.48-3.219-16.939Z" transform="translate(-412.609 -1525.846)" fill="#ffa698" fill-rule="evenodd"/>
        <g id="Group_4201" data-name="Group 4201" transform="translate(0 4.82)">
          <path id="Path_10402" data-name="Path 10402" d="M411.993,1542.159c3.875.475,7.493,9.938,10.489,14.05,1.456,2,4.541-.062,3.29-.6a32.269,32.269,0,0,1,4.713.046c2.431.39,1.579,2.826-.074,3.966-3.679,2.542-6.943,3.973-10.279,2.29a15.857,15.857,0,0,1-2.044-1.361,10.121,10.121,0,0,1-1.362-1.1c-1.08-1.294-1.494-3.377-2.48-5.149-.327-.587-.592-.713-.8-.554-.405.567.014,9.072.215,10.776-.108.489-1.767.873-2.1.5l-3.078-15.111a5.389,5.389,0,0,1,.4-3.871C409.81,1544.272,411.581,1542.9,411.993,1542.159Z" transform="translate(-408.289 -1542.159)" fill="#161f69" fill-rule="evenodd"/>
          <path id="Path_10403" data-name="Path 10403" d="M434.973,1589.7a6.923,6.923,0,0,1-1.975-.658,15.868,15.868,0,0,1-2.044-1.361,10.109,10.109,0,0,1-1.362-1.1c-1.169-1.4-1.74-4-3.039-5.787.433-.266,1.564-.239,2.7,1.63,1.705,3.134,2.874,5.441,5.125,6.961A3.474,3.474,0,0,0,434.973,1589.7Z" transform="translate(-421.156 -1569.292)" fill="#161a40" fill-rule="evenodd"/>
        </g>
      </g>
      <path id="Path_10404" data-name="Path 10404" d="M430.785,1200.688a83.336,83.336,0,0,0,1.392-26.127c-.279-4.761.216-7.1-1.352-11.711a27.923,27.923,0,0,0-2.273-4.762c-7.4,2.285-12.919,4.528-21.3,4.234-1.919,3.717-3.582,8.692-2.887,13.948,1.354,10.24,4.873,18.614,6.008,36.174-2.879,20.462-.767,34.266-.345,54.1.048,2.219,7.155,3.983,9.264,2.6C423.7,1245.9,426.42,1223.4,430.785,1200.688Z" transform="translate(-371.472 -1067.935)" fill-rule="evenodd" fill="url(#linear-gradient-11)"/>
      <g id="Group_4204" data-name="Group 4204" transform="translate(6.69)">
        <path id="Path_10405" data-name="Path 10405" d="M329.805,1007.319l14.778,3.374c2.966,1.328.719,7.62-2.213,8.357l-20.629-2.669c-5.258-1.116-6.41-4.58-5.27-7.281.024-.057.051-.112.079-.166.355-1.671,10.863-16.78,12.377-18.826a22,22,0,0,1,5.222-5.23,5.716,5.716,0,0,1,5.693.157,4.3,4.3,0,0,1,2.007,5.451C340.337,994.116,334.594,1001.223,329.805,1007.319Z" transform="translate(-316.071 -945.425)" fill-rule="evenodd" fill="url(#linear-gradient-12)"/>
        <path id="Path_10406" data-name="Path 10406" d="M372.335,980.395c-8.664-.978-8.683,13.3-5.67,20.027,7.839,17.493,2.768,20.2,3.487,28.172l-.161,3.21c7.449,11.092,29.038,10.226,31.658,2.21-.14-.5-.248-2.605-.437-3.129.511-7.031-2.862-12.57-2.208-17.362,1.1-8.048,5.476-10.878,3.119-17.759-1.726-2.369-6.392-6.167-11.244-8.825C384.053,983.2,376.427,980.858,372.335,980.395Z" transform="translate(-350.436 -942.716)" fill-rule="evenodd" fill="url(#linear-gradient-13)"/>
        <g id="Group_4203" data-name="Group 4203" transform="translate(41.464)">
          <path id="Path_10407" data-name="Path 10407" d="M589.579,870.548c2.364-3.4,5.08-9.073,7.9-10.8,1.466-1.8,3.572-4.61,4.949-6.346,1.008-1.27,2.562.749,1.764,1.992-.781,1.217-2.952,4.353-2.96,4.362-.034.036-.069.072-.105.107a6.881,6.881,0,0,1,2.439,3.769c.405,1.691-2.171,5.213-3.7,7.619-1.356,2.134-4.09,2.189-4.94,3.779C592.278,874.977,590.777,872.561,589.579,870.548Z" transform="translate(-550.223 -852.998)" fill-rule="evenodd" fill="url(#linear-gradient-14)"/>
          <path id="Path_10408" data-name="Path 10408" d="M459.325,942.829c1.941-1.484,5.726-1.761,8.488-2.9,4.558-1.871,9.987-4.7,14.6-5.982.568-2.4,6.836-13.232,10.658-18.849.422-.62,1.308-1,1.646-1.477.416-.592.761-1.065,1.009-1.381,1.606.134,4.378,2.063,6.007,3.823q-.446.946-.868,1.955c-.218.519-.068,1.91-.278,2.448-2.269,5.812-4.513,11.713-7.245,16.2a24.555,24.555,0,0,1-1.9,4.009c-1.014,1.382-4.925,4.063-6.477,5.023-3.413,2.109-11.321,7.506-17.525,9.951-4.555,1.8-6.506.763-8.176-.882C455.381,950.942,455.463,945.781,459.325,942.829Z" transform="translate(-456.391 -894.737)" fill-rule="evenodd" fill="url(#linear-gradient-15)"/>
        </g>
        <path id="Path_10409" data-name="Path 10409" d="M372.335,980.395c-8.664-.978-8.683,13.3-5.67,20.027,7.839,17.493,2.768,20.2,3.487,28.172l-.161,3.21c7.449,11.092,29.038,10.226,31.658,2.21-.129-.457-.23-2.264-.392-2.967-7.858,7.513-19.233,5.526-25.956,1.515a9.007,9.007,0,0,1,.158-5.466c5.41-5.824,18.775-3.732,22.026-19.72.944-4.642-2.12-8.721-5.1-12.406-1.427-1.765-2.491-2.688-4.4-5.355-3.126.738-8.946-.3-9.643-1.572-.243-.444.99-4.351.79-4.828C373.773,980.858,375.482,980.751,372.335,980.395Z" transform="translate(-350.436 -942.716)" fill="#61b0ff" fill-rule="evenodd" opacity="0.5" style="mix-blend-mode: multiply;isolation: isolate"/>
      </g>
      <g id="Group_4206" data-name="Group 4206" transform="translate(3.938 3.177)">
        <g id="Group_4205" data-name="Group 4205" transform="translate(22.945 2.653)">
          <path id="Path_10410" data-name="Path 10410" d="M391.185,948.475c-.672,2.846,9.717,5.918,13.277,4.372l.074-.689c.918-4.245,1.82-7.852,2.454-10.834,1.654.705,5.717.912,6.077.344-10.951-8.747-23.759-15.214-25.405-10.8,1.085,3.2,3.889,5.473,5.291,7.556a6.566,6.566,0,0,1,.733,2.863h0A30.916,30.916,0,0,1,391.185,948.475Z" transform="translate(-386.7 -912.685)" fill-rule="evenodd" fill="url(#linear-gradient-16)"/>
          <path id="Path_10411" data-name="Path 10411" d="M410.712,901.761c-.944.615-7.648-1.615-8.189-1.587-5.216.259-10.83-.166-11.864-1.7-1.4-2.083-4.205-4.357-5.291-7.556-1.734-5.113-1.4-10.879,3.279-14.893,8.128-6.979,20.879-1.865,22.706,6.041.748,3.242-.18,3.512-.026,5.683.282,4,.736,2.493.368,8.824C411.554,898.981,411.339,901.352,410.712,901.761Z" transform="translate(-384.406 -872.728)" fill="#ffa698" fill-rule="evenodd"/>
          <path id="Path_10412" data-name="Path 10412" d="M399.78,980.936c.285,2.59,7.573,4.416,11.993,3.385.473-.111.768-.2.937-.5a9.5,9.5,0,0,1,2.621,4.184c-3.821,3.684-15.893,1.523-17.359-2.789A3.245,3.245,0,0,1,399.78,980.936Z" transform="translate(-393.795 -948.961)" fill="#2d8cff" fill-rule="evenodd"/>
        </g>
        <path id="Path_10413" data-name="Path 10413" d="M315.569,889.8c-6.949,5.812-10.863,16.276-7.7,22.212,2.865,5.38,9.853,8.545,7.7,11.952-1.778,2.815-5.961,5.638-.984,10.183,2.562,2.341,8.821,8.619,21.6,5.366,12.453-3.169,25.52-13.926,15.028-25.687-11.04-12.378-4.582-15.114,1.751-24.848,3.349-5.146,6.342-15.317,3.474-19.1-4.92-6.488-8.188-1.812-12.922-4.105-9.03-4.374-16.436-1.247-20.682,5.59C319.028,877.481,321.093,885.176,315.569,889.8Z" transform="translate(-306.758 -863.75)" fill-rule="evenodd" fill="url(#linear-gradient-17)"/>
      </g>
    </g>
  </g>
  <g id="Group_4211" data-name="Group 4211" transform="translate(180.453 299.349)">
    <path id="Path_10414" data-name="Path 10414" d="M835.008,1145.747c.01-3.6,2.557-5.051,5.689-3.242,33.184,19.033,66.3,38.735,99.487,57.77a12.468,12.468,0,0,1,5.651,9.789l.163,48.869c-.01,3.595-2.56,5.047-5.689,3.24-33.185-19.034-66.306-38.739-99.486-57.77a12.46,12.46,0,0,1-5.652-9.788Z" transform="translate(-835.008 -1141.727)" fill-rule="evenodd" fill="url(#linear-gradient-18)"/>
    <g id="Group_4210" data-name="Group 4210" transform="translate(5.833 22.414)">
      <g id="Group_4209" data-name="Group 4209" transform="translate(34.626 18.868)">
        <path id="Path_10415" data-name="Path 10415" d="M971.93,1283.848c.006-2.189,1.556-3.049,3.463-1.916l57.791,32.779a7.743,7.743,0,0,1,3.441,6.018v4.33c-.006,2.189-1.559,3.048-3.464,1.916L975.37,1294.2a7.74,7.74,0,0,1-3.441-6.018Z" transform="translate(-971.928 -1281.433)" fill="#fff" fill-rule="evenodd" opacity="0.2"/>
        <path id="Path_10416" data-name="Path 10416" d="M971.928,1340.116c0-1.292.919-1.8,2.045-1.131l34.126,19.357a4.573,4.573,0,0,1,2.032,3.554v2.558c0,1.292-.921,1.8-2.046,1.131l-34.126-19.357a4.573,4.573,0,0,1-2.032-3.554Z" transform="translate(-971.927 -1321.771)" fill="#fff" fill-rule="evenodd" opacity="0.2"/>
      </g>
      <path id="Path_10417" data-name="Path 10417" d="M869.3,1241.944c-3.562-2.059-6.669-6.917-6.942-10.853s2.393-5.456,5.955-3.4,6.67,6.919,6.941,10.853-2.394,5.455-5.955,3.4Zm13.242-1.224-2.316-1.339a25.208,25.208,0,0,0-2.4-6.583l1.515-.862a37.439,37.439,0,0,0-2.93-4.579l-1.514.864a26.825,26.825,0,0,0-5.049-5.072l-.178-2.562c-.635-.457-1.28-.878-1.933-1.255a18.553,18.553,0,0,0-1.914-.969l.178,2.562a8.056,8.056,0,0,0-4.739-.587l-1.765-2.76a5.726,5.726,0,0,0-2.512,1.434l1.765,2.757a7.007,7.007,0,0,0-1.654,4.236l-2.316-1.339a15.745,15.745,0,0,0,.015,2.047,20.313,20.313,0,0,0,.28,2.2l2.316,1.339a25.141,25.141,0,0,0,2.4,6.58l-1.515.864a37.54,37.54,0,0,0,2.929,4.579l1.514-.864a26.827,26.827,0,0,0,5.049,5.072l.177,2.559a22.673,22.673,0,0,0,1.935,1.259,18.12,18.12,0,0,0,1.913.965l-.178-2.56a8.054,8.054,0,0,0,4.738.587l1.766,2.76a5.737,5.737,0,0,0,2.513-1.434l-1.766-2.76a6.985,6.985,0,0,0,1.654-4.234l2.316,1.339a15.81,15.81,0,0,0-.014-2.05A20.1,20.1,0,0,0,882.541,1240.72Z" transform="translate(-854.748 -1217.58)" fill="#fff" fill-rule="evenodd"/>
    </g>
  </g>
</svg>
